<?xml version="1.0" standalone="no"?>
<!DOCTYPE svg PUBLIC "-//W3C//DTD SVG 1.1//EN" "http://www.w3.org/Graphics/SVG/1.1/DTD/svg11.dtd" >
<svg xmlns="http://www.w3.org/2000/svg" xmlns:xlink="http://www.w3.org/1999/xlink" version="1.1">
<metadata></metadata>
<defs>
<font id="motion_picture_personal_useRg" horiz-adv-x="1857" >
<font-face units-per-em="2048" ascent="1536" descent="-512" />
<missing-glyph horiz-adv-x="362" />
<glyph unicode="&#xfb01;" horiz-adv-x="782" d="M-117 -162q66 229 129 441q27 90 54.5 184t54 182t50.5 165t40 132q33 113 80 184.5t101 111.5t114.5 53.5t122.5 6.5q111 -10 171 -62t75.5 -113.5t-14.5 -116t-101 -64.5q-41 -6 -71 9.5t-46 43t-18 61.5t10 62.5t41 47t76 18.5q-45 57 -123 57q-70 0 -125 -60.5 t-84 -152.5q-6 -16 -17.5 -55t-27 -94.5t-36 -124t-40.5 -142.5l168 117q-8 -55 -2 -91t19.5 -57.5t35 -29.5t43.5 -8l74 237h184q-35 -115 -65 -213q-27 -86 -52.5 -170t-37.5 -125q-12 -39 -16.5 -62.5t-1.5 -36.5t10.5 -18t15.5 -8q18 -6 54 15.5t60 75.5h29 q-25 -63 -57.5 -107.5t-67.5 -72t-69.5 -40t-63.5 -12.5q-27 0 -51.5 11.5t-39.5 40t-14 80.5t25 134l64 203q-51 -43 -97.5 -59.5t-83 -9t-60 37t-30.5 82.5q-35 -123 -70.5 -245.5t-64.5 -221.5q-35 -115 -63 -221h-191z" />
<glyph unicode="&#xfb02;" horiz-adv-x="782" d="M-117 -162q66 229 129 441q27 90 54.5 184t54 182t50.5 165t40 132q33 113 76 182.5t92 108.5t105.5 52t117.5 13t88 -25.5t27 -63.5t-23.5 -80t-61.5 -73.5t-87 -47t-99 3.5q25 6 53.5 39.5t50 73.5t30 74t-10.5 40q-25 8 -46 -6t-39.5 -45t-34 -73t-29.5 -87 q-6 -16 -17.5 -55t-27 -94.5t-36 -124t-40.5 -142.5l168 117q-8 -53 -3 -89t19.5 -57.5t35 -30.5t42.5 -9l213 708h187q-74 -246 -134 -448q-27 -86 -52 -173t-46.5 -160t-37 -125.5t-21.5 -72.5q-25 -78 -19 -99t23 -26q23 -6 56.5 15.5t57.5 75.5h33q-25 -63 -57.5 -107.5 t-68.5 -72t-69.5 -40t-60.5 -12.5q-29 0 -54.5 11.5t-40.5 40t-15 80.5t24 134l60 201q-102 -82 -178 -66.5t-89 119.5q-35 -123 -70.5 -245.5t-64.5 -221.5q-35 -115 -63 -221h-191z" />
<glyph horiz-adv-x="0" />
<glyph unicode="&#xd;" horiz-adv-x="1024" />
<glyph unicode=" "  horiz-adv-x="362" />
<glyph unicode="&#x09;" horiz-adv-x="362" />
<glyph unicode="&#xa0;" horiz-adv-x="362" />
<glyph unicode="!" horiz-adv-x="284" d="M0 96q0 43 27.5 71t68.5 28t70 -28t29 -71q0 -39 -29 -67.5t-70 -28.5t-68.5 28.5t-27.5 67.5zM135 432l234 844h204l-325 -844h-113z" />
<glyph unicode="&#x22;" horiz-adv-x="430" d="M123 668l94 321h166l-193 -321h-67zM322 668l94 321h166l-193 -321h-67z" />
<glyph unicode="#" horiz-adv-x="739" d="M96 211v72h90l58 186h-68v72h90l43 139h82l-43 -139h96l43 139h82l-43 -139h72v-72h-94l-58 -186h72v-72h-94l-39 -125h-82l39 125h-96l-39 -125h-82l39 125h-68zM268 283h97l57 186h-96z" />
<glyph unicode="$" horiz-adv-x="1153" d="M7.5 348.5q15.5 104.5 67.5 189.5t137 140t200 55q49 0 87 -12t66 -35l41 137q-76 92 -100.5 195.5t2.5 196t101.5 164t195.5 100.5l26 86h82l-22 -74q14 2 27.5 3t29.5 1q10 0 18.5 -1t18.5 -1l23 72h82l-27 -86q72 -23 116 -70t63.5 -103.5t14 -117t-37 -109.5 t-88 -80.5t-136.5 -31.5q-45 0 -82 16l-26 -84q98 -96 147 -207.5t53.5 -226.5t-31.5 -222.5t-104.5 -194.5t-168 -145.5t-220.5 -72.5l-20 -68h-82l18 64q-16 0 -33.5 1t-33.5 3q-16 4 -25 4l-20 -72h-82l26 91q-121 37 -192.5 116.5t-99 177t-12 202zM122 252.5 q-1 -66.5 20.5 -129t68.5 -114.5t123 -79l117 379h-2q0 2 4 6l16 54q2 31 -10.5 56.5t-34 43.5t-51 27.5t-62.5 7.5q-57 -2 -99 -39t-65.5 -91.5t-24.5 -121zM412 -88q2 0 3 -1t5 -1q43 -6 86 0l237 786l-36 33l-39 31l-43 -148q18 -37 21 -80t-8 -81.5t-35.5 -71.5 t-63.5 -51zM594 -70q92 35 159.5 115t99.5 179.5t22.5 206t-70.5 196.5zM693.5 1277.5q-23.5 -69.5 4.5 -149.5l78 256q-59 -37 -82.5 -106.5zM752 1032q14 -20 31.5 -38.5t39.5 -37.5l25 80q-23 35 -23 73t23 67q23 -8 39 -11l76 250q-10 0 -15 2q-23 4 -42 3t-38 -3z M967 1159q51 6 84.5 33t44 61.5t-3 72.5t-56.5 63z" />
<glyph unicode="%" horiz-adv-x="968" d="M0 0l723 993q-37 -16 -82 -19t-94 23q2 -72 -41 -172q-31 -68 -72 -124t-89 -97t-98 -63.5t-100 -22.5q-43 0 -70.5 22.5t-36.5 63.5t0 97.5t40 123.5q61 133 156.5 218t199.5 85q55 0 86 -41q14 -12 40 -27.5t60.5 -21.5t76.5 3.5t92 45.5l36 50h101l-826 -1137h-102z M185 670.5q-1 -58.5 36 -58.5q41 0 80 58.5t68 154.5q29 92 29.5 151.5t-40.5 59.5q-39 0 -76.5 -59t-66.5 -152q-29 -96 -30 -154.5zM394 86q-9 41 0 97.5t40 123.5q61 133 157 218t200 85q84 0 106.5 -85t-37.5 -218q-31 -68 -71.5 -124t-89 -97t-98.5 -63.5t-99 -22.5 q-43 0 -71 22.5t-37 63.5zM539.5 152.5q-0.5 -58.5 35.5 -58.5q41 0 80 58.5t68 154.5q29 92 30 151.5t-40 59.5q-39 0 -77 -59.5t-67 -151.5q-29 -96 -29.5 -154.5z" />
<glyph unicode="&#x26;" horiz-adv-x="933" d="M18.5 339q12.5 93 59.5 175t127 140.5t190 66.5q-66 35 -93.5 93t-19 122.5t50.5 128t113.5 108t171 60.5t222.5 -12q80 -18 125 -61.5t58 -96.5t-1 -109.5t-53 -100.5t-99.5 -68.5t-136.5 -14.5q-51 6 -78.5 27.5t-42.5 46.5q-16 27 -22 61q47 -14 91 -2t79 40 t56.5 64.5t22.5 71.5t-22.5 62.5t-77.5 36.5q-53 8 -103 -15.5t-88 -66.5t-59.5 -100.5t-16.5 -114t40 -105.5t111 -80l-2 -16q-102 0 -179 -45t-127.5 -111.5t-71 -145.5t-12 -145.5t47 -111.5t110.5 -45q57 0 102.5 37t79 93t57 123.5t40.5 127.5q-39 10 -78 23.5 t-76 19.5t-72.5 0t-70.5 -33q74 88 142.5 123t130 39t117.5 -9.5t105 -21.5t92 1.5t78 62.5q-41 -76 -81 -122t-79.5 -68.5t-78.5 -28t-76 0.5q-16 -70 -46 -150.5t-78 -150t-119.5 -115.5t-170.5 -46q-113 0 -180.5 52t-94 132t-14 173z" />
<glyph unicode="'" horiz-adv-x="204" d="M143 668l95 321h165l-192 -321h-68z" />
<glyph unicode="(" horiz-adv-x="618" d="M184 291q-8 98 15.5 204.5t99.5 211t212 203t355 182.5l15 -35q-154 -82 -268.5 -197t-179 -265.5t-74 -336.5t48.5 -410l-33 -24q-170 236 -191 467z" />
<glyph unicode=")" horiz-adv-x="710" d="M-158 -152q154 82 268.5 197t179 265.5t74 337t-48.5 409.5l33 24q170 -236 191 -467q8 -98 -15.5 -204.5t-99.5 -211t-213 -203.5t-354 -181z" />
<glyph unicode="*" horiz-adv-x="671" d="M104 238l138 141h-136v72h164l-67 153h88l53 -121l119 121h100l-151 -153h153v-72h-174l64 -141h-88l-52 112l-110 -112h-101z" />
<glyph unicode="+" horiz-adv-x="673" d="M106 379v72h203l51 192h80l-51 -192h176v-72h-196l-52 -195h-79l51 195h-183z" />
<glyph unicode="," horiz-adv-x="282" d="M-35 -104l58 139q-23 27 -23 61q0 43 27.5 71t68.5 28t72 -28t27 -71q-2 -31 -18.5 -51t-43.5 -42.5t-61.5 -51.5t-73.5 -74z" />
<glyph unicode="-" horiz-adv-x="444" d="M106 379v72h275v-72h-275z" />
<glyph unicode="." horiz-adv-x="284" d="M0 96q0 43 27.5 71t68.5 28t70 -28t29 -71q0 -39 -29 -67.5t-70 -28.5t-68.5 28.5t-27.5 67.5z" />
<glyph unicode="/" horiz-adv-x="761" d="M0 0l694 1137h101l-693 -1137h-102z" />
<glyph unicode="0" d="M70 -193q0 17 8 23q10 10 20 10l27 4q10 0 10 6q0 16 -16 17q-10 0 -13 -6q-8 -2 -8 -11h-24q0 14 6 21q2 8 12 12q4 2 14 2q4 2 13 2q14 0 26 -4q8 -6 13 -12q2 -4 2 -14v-56q0 -10 2 -12q0 -2 4 -6v-4h-29v2v4q-2 2 -2 6l-8 -8q-4 -2 -6 -2t-4 -2q-4 -2 -13 -2 q-12 0 -18 2q-6 4 -10 10q-6 6 -6 18zM96 -190q0 -4 4 -9q4 -2 6.5 -4t4.5 -2q4 0 6 4h4q8 4 10 6q4 8 4 13v12q-2 0 -10 -4l-12 -2q-4 0 -13 -4q-4 -4 -4 -10zM125 565v494l268 59l-10 37l41 12l-8 39l41 8l-6 46l41 2v41h36l4 36l39 -6l9 41l43 -6l10 39l39 -10l16 37 l39 -17l23 39l34 -18l23 35l37 -25l24 33l35 -27l27 29l26 -25l27 23l27 -29l34 23l23 -37l39 20l18 -35l37 17l17 -41l43 12l12 -39l39 10l8 -43l43 4l2 -26l404 88v-496l-185 -41l4 -2l-24 -26l24 -29l-32 -27l22 -34l-37 -23l23 -37l-35 -20l14 -37l-39 -17l13 -43 l-37 -12l6 -39l-41 -8l2 -43l-39 -4v-39h-35l-6 -37l-39 2l-8 -37l-43 6l-10 -40l-39 12l-14 -39l-44 16l-18 -39l-37 21l-22 -35l-37 23l-25 -33l-30 26l-31 -26l-27 24l-26 -24l-25 31l-35 -23l-24 37l-37 -21l-19 35l-39 -16l-18 41l-39 -13l-12 37l-41 -8l-8 43l-43 -4 l-5 41h-40v35l-35 4l4 41l-41 6l8 43l-41 12l12 37l-28 12zM186 -115h25v-18h2q4 8 6 10t3 4t5 4q2 2 15 2h2h4v-28h-8q-27 0 -27 -25v-55h-27v106zM236 76v16q0 4 2 7t2 7q2 12 14 25q4 6 10 10t12 9q14 6 33 6h6q4 0 8.5 -1t8.5 -1q8 0 14 -7q14 -8 21 -18q4 -4 8 -12 q0 -2 1 -3t1 -3v-5h-33v3q0 2 -4 6q-2 4 -4 5t-6 5q-6 4 -19 4h-8h-6l-14 -12q-10 -6 -11 -15q-4 -8 -4 -28q0 -8 1 -14.5t3 -14.5q2 -10 13 -14q6 -4 10 -6t10 -2h4q12 0 19 4q4 0 7 3l5 5q4 6 6 10t2 10h-37v27h66v-84h-21l-4 20q-6 -8 -14 -14q-4 -4 -9 -5t-10 -3 q-4 0 -9 -1t-9 -1q-12 0 -25 6q-14 6 -20 16q-8 6 -16 27q-4 10 -4 33zM236 702h10l8 5l10 10l8 10l11 10q4 8 8 13l63 86l19 30l20 31q6 8 11.5 15.5t9.5 15.5q4 10 8 17t8 16q2 4 0 6t-4 2q-8 0 -10 -2l-8 -4l-17 -21l-16 -20q-6 -6 -15 -19l-16 -20l-55 -80l-27 -41 q-6 -10 -11 -21.5t-11 -21.5l-4 -6v-4v-4v-3zM262 -78h29v-24h-29v24zM262 -115h29v-106h-29v106zM276 889q2 -4 4.5 -6t6.5 -6l18 -7q14 0 23 2q4 0 4 2q2 2 2 5q0 2 -2 2h-4q-4 0 -4 -2q-14 -2 -29 2q-8 4 -10 8q0 4 -1 5t-1 5q0 6 2 12l6 15l16 18q4 4 10.5 8t12.5 9 q6 4 11 7t13 7l25 12q8 0 14 2t15 6l28 4q16 4 27 5q6 0 22 -5q10 0 15 -6l10 -12v-16q0 -12 -2 -21l-10 -18q-4 -6 -7.5 -11.5t-7.5 -9.5q-4 -6 -9 -10t-11 -10q-4 -6 -21 -19l-22 -14l-25 -10l-14 -6q-2 0 -5 -1t-7 -1h-4q-4 0 -7 -3q-2 0 -2 -2q-4 0 -4 -4q0 -2 2 -2h4 q4 0 7 2h4l26 9l27 12l27 10l26 16l23 17l20 18l17 21q4 4 7 9t5 11q4 12 4 19q2 10 0 18q-2 4 -3 7t-3 7q-6 6 -15 11q-6 2 -10 3t-10 1q-8 2 -23 2q-8 0 -24 -4q-14 0 -27.5 -4t-29.5 -9q-29 -8 -54 -22q-6 -4 -13 -7t-13 -7t-12.5 -8.5t-10.5 -10.5l-9 -9l-9 -9l-9 -21 q-4 -10 0 -16zM317 -115h25v-16q12 18 33 18q8 0 20 -4q6 -4 13 -12q4 -8 4 -21v-71h-29v63q0 12 -2 15q-4 8 -16 8q-8 0 -17 -8q-4 -12 -4 -17v-61h-27v106zM395 57q0 20 6 29q4 14 17 20q8 6 15 7.5t18 1.5q23 0 28 -9q12 -6 19 -22q4 -10 4 -31v-8h-78q0 -6 8 -18 q6 -6 19 -7q4 0 7 1.5t5 1.5q8 8 8 10h31q-6 -12 -10 -21q-4 -4 -8.5 -7t-8.5 -5l-12 -3t-12 -1q-55 0 -56 61zM428 68h45q-4 12 -8 16q-8 8 -14 8q-23 0 -23 -24zM430 -166q0 6 2 12.5t4 12.5q6 14 15 20q8 8 24 8q6 0 19 -4l7 -7t5 -7l2 16h24v-100q0 -10 -4 -27 q-6 -10 -16 -14q-12 -6 -33 -6q-4 0 -9 1t-9 1q-6 2 -19 10q-4 4 -4 8q-2 4 -2 11h27q2 -4 6 -9q2 -2 12 -2q12 0 15 2q8 6 8 9q0 2 1 3t1 3v6v12q-12 -14 -29 -14q-6 0 -11 1t-11 3q-10 8 -17 20q-4 6 -6 13.5t-2 17.5zM461 -168q0 -8 2 -14q0 -4 6 -11q8 -4 12 -4 q25 0 25 29q0 14 -8 23q-4 4 -8.5 7t-8.5 3q-8 0 -14 -10q-6 -6 -6 -23zM498 717q20 0 20 -15v-49q0 -8 10 -22l17 -4q4 -2 18 -2q12 0 25 4q8 4 10 6q8 6 8 22v50l10 8l2 2h9v4h-47v-4h10q2 0 4 -2q12 -4 12 -23v-33q0 -12 -10 -22l-12 -8h-15q-12 0 -18 2q-2 0 -10 8 q-4 4 -4 14v49q0 10 4 11q4 4 14 4h6v4h-63v-4zM510 92v21h16v28h31v-28h16v-21h-16v-61q0 -8 2 -8q0 -2 2 -3h8l2 3h2v-25h-16q-14 0 -20 4q-6 0 -9 8q-2 2 -2 13v69h-16zM510 821q2 -8 10 -12q10 -10 23 -6q14 0 26 6q10 2 17.5 6t15.5 8t15.5 9.5t15.5 13.5l24 20l15 15 q0 2 4 6q0 2 2 4l4 6l16 16l15 21q6 4 10 10t8 10l6 -2l4 -6q0 -2 2 -4v-2q0 -2 -2 -4t-4 -6l-16 -17l-14 -20l-13 -19l-4 -18q-2 -2 -2 -8v-6l4 -8h8q10 0 17 2l16 10q4 4 10.5 8t10.5 10q6 4 10 8.5t8 8.5q2 4 4 6t4 6l8 10l5 4l4 6q4 4 4 5l12 16l21 31q0 -4 1 -7.5 t1 -7.5q4 -12 4 -14l4 -8q-16 -4 -25 -13l-20 -14q-4 -4 -7.5 -9t-5.5 -9q-2 -6 -2 -17q0 -6 11 -10h18q12 0 25 8q16 8 22 17q6 4 9 8t8 8l8 18q6 8 6 19v16q0 6 -4 15l-6 16l-7 6q0 4 -4 8q0 2 -2 4v7v4h-8l-4 -4q-4 -2 -6 -4.5t-6 -4.5l-4 -12l-2 -2l-4 -6l-33 -45l-4 -6 l-6 -11h-3v-2q-2 0 -4 -2l-4 -8l-6 -8l-14 -18l-23 -21q-4 -4 -12 -6q-4 -4 -12 -4v2l8 10l6 10l8 11q4 4 6 8l9 14l10 14l4 15q2 6 2 14q-2 2 -2 8l-2 4q0 4 -2 7v22l6 10q4 6 -4 13q-4 6 -17 0q-10 -2 -16 -9q-6 -2 -10 -12q-4 -4 -4 -10q0 -8 2 -12l4 -2l4 -5l-6 -6 l-6 -6l-23 -31l-20 -22q-4 0 -4 -4v-2l-2 -2q0 -2 -2 -2l-11 -15q-8 -6 -14 -12t-14 -10q-12 -12 -33 -23q-12 -4 -21 -8q-12 -4 -18 -2q-6 0 -6 4q-2 2 -2 6q0 2 4 11l2 8l10 16q4 -2 12 -2h19q10 2 26 12q6 2 11.5 6.5t13.5 8.5l14 16q4 4 7.5 8t3.5 8l8 13q0 12 -4 14 q-4 8 -8 10h-19h-9t-9 -4q-4 -2 -10.5 -4t-10.5 -4q-27 -14 -45 -29q-18 -16 -29 -34q-4 -4 -6 -9.5t-6 -11.5q-6 -8 -8 -18v-17zM545 -115h14v27h29v-27h16v-20h-16v-55q0 -6 2 -9q0 -2 2 -2h6l4 2h2v-22h-6h-6h-4q-12 0 -17 2q-10 4 -10 8q-2 2 -2 12v64h-14v20zM567 870 l15 23l18 20l6 9q4 4 6 5t4 3l11 10l12 4q8 2 14 0v-10l-6 -8q-6 -6 -6 -11q-4 -4 -5 -6t-5 -4q0 -2 -8 -10q-2 -2 -3.5 -4t-5.5 -4q-4 -4 -6 -5t-4 -3l-12 -9q-6 -2 -12 -2q-10 0 -13 2zM610 -115h33l21 -78l20 78h31l-35 -102l-2 -2l-8 -23q-4 -10 -6 -12q-6 -6 -11 -6 q-4 0 -7 -1t-7 -1h-6h-8v22h8h8q2 0 6 4v5q2 2 2 6l-37 102zM639 694q0 -2 4 -10q0 -6 6 -6l13 -6q2 -2 20 -6l8 -2q8 -4 12 -5q4 0 9 -4q2 0 2 -2q6 -4 6 -10l-4 -8q-2 -4 -8 -6h-11q-10 0 -16 2l-16 6l-11 10q-10 10 -10 21h-2v-43h2q0 6 4 6q4 4 8 4q2 0 2 -1t5 -1 q2 0 3 -1t3 -1l14 -4q4 -2 14 -2q4 0 17 4q2 0 12 6q2 2 2 4t4 4v21l-6 6q-2 4 -12 8l-17 6h-10l-2 2q-4 2 -8 2t-6 2q-6 0 -8 2q-2 0 -7 4q-2 0 -2 4v2v9l4 4l9 4q2 0 4 1t6 1q6 0 14 -4q8 0 12 -4q8 -4 11 -8q4 -2 5 -7.5t5 -9.5h2v31h-2q-2 -6 -8 -6h-8q-16 10 -31 10 q-8 0 -21 -4l-12 -8q-2 -4 -3 -7.5t-1 -9.5zM641 92v21h14v8q0 33 35 33h15v-25h-9h-6q-4 0 -4 -4v-12h19v-21h-19v-94h-31v94h-14zM723 37v76h29v-70q0 -20 20 -20h10l11 10q0 2 2 5t2 7v68h26v-115h-26v16q-6 -8 -15 -12q-12 -6 -20 -6q-20 0 -29 12q-10 8 -10 29z M731 -115h25v-16h4q2 0 4 2l8 8q4 4 8 6q2 2 8 2q10 0 17 -4q8 -4 12 -8q8 -8 10 -20q6 -10 7 -23q0 -4 -1.5 -6t-1.5 -6t-2 -6t-4 -7q-4 -16 -12 -22q-10 -8 -25 -8q-10 0 -14 2t-8 6q-2 2 -6 2l-2 4v-51h-27v100v45zM741 627h103v39q-4 -4 -4 -7.5t-2 -5.5l-11 -14 q-6 -6 -8 -6l-10 -2q-4 -2 -12 -2h-15v41h2q8 0 19 -6l4 -7q0 -2 1 -3t1 -3v-8h2v59h-2v-8l-4 -10q-10 -10 -19 -10h-4v43h17q16 0 22 -2l8 -6l5 -11l6 -14h4v37h-103v-4h4q8 0 11 -4q6 0 6 -11v-57q0 -16 -17 -16h-4v-2zM756 -170q0 -14 8 -20q6 -8 16 -9q12 0 19 9 q4 12 4 22t-4 23q-4 4 -8.5 7t-10.5 3q-25 0 -24 -35zM793 868v9l4 10l6 8q8 10 18 18l23 11q0 -4 1 -6.5t1 -4.5q-2 -4 -2 -8v-12l-4 -8q-2 -4 -4 -5t-5 -6l-8 -6q-2 0 -3 -1t-5 -1q-2 -2 -8 -2q-4 -4 -8 0q-2 0 -6 4zM844 -166q0 17 4 25q6 14 16 20q10 8 27 8q23 0 31 -8 q10 -6 16 -22q4 -16 4 -27v-6h-72q0 -12 7 -19q6 -6 16 -6q6 0 14 4q4 4 6 9h27q-4 -16 -8 -21q-4 -4 -8 -6t-9 -4q-12 -4 -22 -4q-49 0 -49 57zM852 -2v156h29v-156h-29zM870 -158h43q0 10 -6 17q-4 2 -7 4t-9 2q-16 0 -21 -23zM903 -2v156h29v-156h-29zM905 674 q0 -14 4 -21q4 -4 6.5 -7t6.5 -7q6 -6 18 -10q6 -2 11 -3t12 -1q16 0 26 6q8 4 13.5 9t9.5 9q6 8 6 25q0 10 -4 16q-4 12 -10 17q-4 6 -19 10q-12 6 -22 6q-20 0 -29 -8q-8 -2 -12 -7.5t-9 -9.5q-8 -10 -8 -24zM915 901q0 -8 5 -8q4 -4 6 -5t4 -3h10h12q8 2 14.5 4t12.5 4 l27 14l22 21l19 16l14 21l10 16l6 18q4 10 0 15q0 6 -6 10q0 4 -10 8q-2 0 -6 1t-8 1q-6 0 -19 -4q-4 0 -6 -1l-6 -3l-12 -4l-25 -16q-6 -4 -11 -9.5t-12 -9.5l-16 -18l-12 -19q-10 -16 -13 -26v-23zM928 674q0 4 1 8t1 8l6 12q2 2 3 5.5t3 5.5t4 2t6 2q4 4 13 4q0 -2 2 -2 h4l6 -4l10 -8q0 -4 2 -7.5t4 -9.5q0 -2 1 -7t1 -9q0 -12 -4 -25q-4 -4 -6 -9t-6 -9q-4 -2 -16 -2q-10 0 -13 2q-8 0 -12 10l-6 12q-4 12 -4 21zM940 895v8v4q4 14 10 21q4 6 7.5 11t7.5 11l10 13l8 10l16 20l9.5 9.5l9.5 9.5l8 8l10 4q4 2 11 2l4 -2q2 -2 2 -8q0 -2 -4 -10 l-5 -9l-6 -10q-4 -8 -6 -10l-8 -12l-12 -19l-17 -18l-20 -21q0 -2 -10 -6q-2 -4 -13 -8h-8q-4 0 -4 2zM948 -115h17v9q0 29 30 28h13v-22h-7h-6l-2 -2l-2 -9v-4h19v-20h-19v-86h-26v86h-17v20zM1010 92v21h14v8q0 33 35 33h12v-25h-6h-6q-2 0 -4 -4v-12h20v-21h-20v-94h-31 v94h-14zM1018 -193q0 17 10 23q10 10 21 10l24 4q8 0 8 6q0 16 -14 17q-10 0 -12 -6q-6 -4 -6 -11h-27q0 14 6 21q6 10 14 12q4 2 11 2q4 2 14 2t16.5 -1t12.5 -3q8 -6 12 -12q2 -4 2 -14v-56q0 -10 2 -12q0 -2 4 -6v-4h-31v2q0 2 -1 2t-1 2v6q-4 -2 -5 -4t-3 -4 q-4 -2 -6 -2t-4 -2q-4 -2 -14 -2q-8 0 -15 2q-4 2 -7 4t-7 6q-4 8 -4 18zM1032 627h49v2q-6 0 -10 2h-8l-4 10q-2 2 -2 12v56l80 -82h4v65q0 8 1 12.5t3 8.5q4 4 16 4v4h-47v-4h8q0 -2 4 -2q6 -4 7 -8q4 -4 4 -15v-39l-66 68h-37v-4q8 0 10 -2q2 0 3.5 -1t3.5 -1q2 -4 2 -11 v-53q0 -6 -2 -10t-7 -8q-4 0 -7 -1t-5 -1v-2zM1047 -190q0 -4 4 -9q6 -6 8 -6q4 0 6 4h4q4 2 5 3t5 3q2 4 2 13v12l-8 -4l-14 -2q-4 0 -8 -4t-4 -10zM1051 905q2 0 3 -1t3 -1q4 0 8 2l8 4q0 2 4 6q2 0 2 1.5t2 1.5l4 6q0 4 5 4l16 22l20 21l17 20l22 21l21 20l8 8q4 2 10 9 l10 8l13 4q2 0 2 -2h-2l-4 -4q-2 -6 -9 -8l-4 -7l-12 -14q-4 -4 -6 -7t-6 -7q-10 -12 -15 -23l-14 -20q-2 -4 -3 -9.5t-3 -9.5q-4 -10 0 -16q2 -6 8 -6h19q4 2 9 5t13 7q12 8 19 14l20 21l2 2q-2 -2 -2 -6q0 -6 4 -15q2 -4 10 -8q6 -2 21 2q12 2 24 13l21 14l7 7l7 7l13 13 v-5q0 -2 -1.5 -3t-1.5 -3v-6q-4 -6 0 -10q0 -2 1.5 -3t1.5 -3q0 -6 6 -6h6h10l6 4l8 6l13 6l32 27l17 16l-4 -12q-4 -6 -4 -19v-6q2 0 4 -2q0 -2 6 -2q4 0 8 4q8 0 12 6l11 6l12 13q2 0 10 8l9 9t10 9l18 21v4q0 2 -2 2q-4 0 -8 -4l-2 -4l-13 -15l-10 -12q-10 -6 -12 -12 l-14 -12l-9 -7l-8 -2l-2 -2q-2 0 -4 2h2l8 15q4 8 8 12l7 12q4 2 8 11l63 92q10 10 13 16l16 16l37 43q10 10 17 20.5t16 20.5l10 19v8q-2 2 -8 2q-2 0 -11 -4q-4 0 -6 -2t-6 -4q-4 0 -10 -6l-8 -6q-6 -4 -11.5 -9.5t-11.5 -9.5l-16 -18q-6 -6 -10.5 -11.5t-8.5 -11.5 q-2 -4 -6 -9t-8 -11q-16 -23 -27 -41l-26 -45l-19 -33l-8 -16h-2l-14 -15q-4 -6 -8.5 -10t-10.5 -10l-18 -17l-10 -8l-7 -4l-4 -2l-4 -4h-6h-4l6 10l6 10q0 2 2 4q4 8 8.5 14.5t10.5 12.5q4 6 8 13.5t8 15.5l15 20l8 13q2 4 3 5t3 5l2 2l2 2q0 2 1 2t1 2q6 4 4 8q0 2 -6 2 l-10 -4l-10 -6l-19 -12q-8 -8 -14 -13q0 6 -2 11q0 2 -6 6q-12 2 -21 0q-16 -4 -22 -8q-8 -4 -13.5 -6.5t-11.5 -6.5q-8 -6 -18 -16q-27 -18 -37 -39q-14 -16 -21 -37h-4q-4 -6 -16 -18q-6 -4 -11.5 -8.5t-11.5 -8.5q-2 -4 -12 -8q-4 -4 -10 -4h-2q-2 2 0 4l6 8l6 11l12 14 l21 27q4 6 9 13t9 15l8 17q4 10 2 16q0 6 -2 6q0 4 -6 4t-8 -2l-12 -4l-13 -8q-4 -2 -10 -8q-4 -4 -6 -5t-4 -4q-8 -8 -12 -8l-21 -22q-4 -4 -9 -9.5t-9 -9.5l-11 -12l-10 -10l2 4l25 35l26 37q0 2 1.5 2t1.5 2q2 2 2 4q2 2 2 6l-7 6q-2 0 -3 1t-3 1t-4 -1t-6 -1l-10 -6 l-4 -4q-4 -2 -4 -4t-2 -4l-5 -7l-77 -133q-2 -2 -2 -4v-2zM1083 55q0 6 1 11.5t3 11.5q2 10 11 18q10 10 20 15q6 4 25 4q16 0 24 -4q4 -4 8.5 -5.5t8.5 -5.5t6 -9t6 -11q4 -12 4 -25q0 -16 -8 -30q-2 -8 -18 -21q-10 -8 -31 -8q-20 0 -35 8q-6 4 -10 10t-8 13q-6 12 -7 28z M1114 55q0 -8 2 -13t4 -9q4 -10 23 -10q16 0 20 10q6 6 6 22q0 14 -6 25q-6 10 -20 10q-16 0 -23 -10q-2 -4 -4 -10.5t-2 -14.5zM1128 -170q1 16 11 41q12 16 39 16q10 0 22 -4q8 -2 17 -14q4 -6 7 -11t3 -12h-31q0 4 -4 13q-6 6 -12 6q-10 0 -17 -10q-8 -6 -8 -21 q0 -6 1 -10t1 -8q4 -4 5 -6.5t3 -4.5q4 -4 13 -4q8 0 12 4q6 2 6 13h27q0 -10 -6 -23q-4 -4 -7.5 -7t-7.5 -5q-12 -6 -24 -6q-23 0 -35 12q-6 2 -10 16q-4 12 -5 25zM1167 627h107v41h-2q-4 -4 -4 -6.5t-2 -6.5q-4 -4 -4 -8q-2 -2 -2 -3t-3 -3q-8 -8 -12 -10q-2 0 -6 -1 t-8 -1h-25v73q0 10 6 11q2 4 13 4h6v4h-64v-4h4q16 0 17 -15v-57q0 -16 -17 -16h-4v-2zM1221 -2v115h28v-17q12 18 35 19q14 0 21 -4l14 -13q4 -12 4 -20v-80h-29v70q0 8 -4 16q-6 6 -16 6q-12 0 -19 -8q-4 -4 -4 -19v-65h-30zM1237 -166q0 9 4 25q6 14 16 20q10 8 29 8 q20 0 29 -8q10 -6 14 -22q6 -12 6 -27v-6h-71q0 -12 6 -19q6 -6 16 -6q6 0 14 4q4 4 7 9h26q-4 -16 -10 -21q-8 -8 -14 -10q-12 -4 -23 -4q-49 0 -49 57zM1264 -158h43q0 10 -7 17q-4 2 -7 4t-9 2q-16 0 -20 -23zM1266 963l2 2q0 2 2 4q4 8 6 10l8 10q2 8 6 12q2 4 8 11 l19 24l26 33l7 8l8 6l8 7q2 2 8 2q4 2 8 2l7 -4q0 -2 1 -3.5t1 -3.5q0 -4 -2 -8q0 -2 -5 -6l-16 -22l-12 -23l-17 -14l-16 -19q-2 -2 -4 -3t-6 -5l-13 -10q-2 -2 -4 -3t-6 -5q-4 0 -5 -2t-5 -2q-8 -4 -10 -3h-2q-2 2 -2 5zM1268 717h2q10 0 14 -2l4 -4t4 -6l29 -39v-21 q0 -10 -2 -12q-8 -4 -14 -4h-7v-2h68v2h-8q-8 0 -12 4t-5 12v23l25 34l4 7q8 4 10 4q0 2 4 2q2 0 3.5 1t3.5 1h2v4h-47v-4h6q8 0 10 -2q4 -2 4 -6t-6 -11l-19 -26l-24 30q-4 8 -4 9v2q0 2 2 2q0 2 6 2h8v4h-61v-4zM1337 92v21h19v28h26v-28h21v-21h-21v-61v-6q0 -2 2 -2 q4 0 5.5 -1.5t5.5 -1.5l4 3h4v-25h-21q-14 0 -16 4q-8 0 -10 8v82h-19zM1352 -190h30v-31h-30v31zM1401 -170q0 16 10 41q12 16 39 16q10 0 23 -4q6 -2 18 -14q8 -10 8 -23h-29l-6 13q-6 6 -12 6q-10 0 -16 -10q-6 -6 -6 -21q0 -6 1 -10t1 -8q4 -8 8 -11q2 -4 10 -4 q10 0 12 4q6 2 6 13h31q-4 -12 -8 -23q-4 -4 -8 -7t-8 -5q-10 -6 -25 -6q-20 0 -35 12q-6 2 -10 16q-4 12 -4 25zM1473 31q0 16 8 24q16 8 24 11l27 4q10 0 10 8q0 14 -18 14q-8 0 -13 -4q-6 -2 -8 -14h-26q0 14 6 24q4 6 16 13q4 4 12 4h13q25 0 32 -4l7.5 -7.5t5.5 -7.5 t2 -14v-72q0 -6 8 -6v-6h-33q-2 0 -2 2v2v2q0 4 -1 5t-1 3l-8 -8q-2 -2 -3 -2t-3 -2t-4 -2q-6 0 -9.5 -1t-7.5 -1t-8 1t-8 1q-4 4 -7 6t-7 6q-4 8 -4 21zM1501 31q0 -8 4 -8q4 -4 11 -5h8l4 2q10 4 10 7q4 8 4 14v14q-6 -6 -12 -6l-14 -4q-6 0 -11 -4q-4 -2 -4 -10z M1511 -168q0 13 2 21q4 12 11 18q6 8 16 12q12 4 25 4q10 0 22 -4l8 -4t9 -6q4 -4 5 -9t5 -9q2 -6 2 -23q0 -16 -6 -29q-4 -14 -17 -20q-12 -6 -28 -6q-20 0 -31 8q-12 6 -18 20q-4 16 -5 27zM1538 -168q0 -14 6 -22q2 -4 8.5 -6.5t12.5 -2.5q16 0 18 9q6 8 6 22q0 13 -6 23 q-4 10 -18 10q-16 0 -21 -10q-6 -10 -6 -23zM1567 1167l28 37l13 23l26 35l2 2q0 4 4 4q0 2 2 2q0 -8 -2 -10l-8 -11l-6 -10q-2 -2 -3 -4t-3 -4l-16 -21l-19 -20l-10 -12q-4 -8 -8 -11zM1585 92v21h14v28h33v-28h19v-21h-19v-61v-8q2 0 4 -1.5t6 -1.5l5 3h4v-25h-19 q-14 0 -20 4q-6 0 -8 8q0 2 -2.5 5t-2.5 8v69h-14zM1636 -115h27v-16q8 18 31 18q8 0 16 -4q6 -4 12 -12q2 8 11 12q8 4 16 4q10 0 23 -4q8 -8 10 -14q4 -8 4 -19v-71h-27v63q0 23 -16 23q-18 0 -19 -23v-63h-26v63v11q0 4 -4 8t-15 4q-16 0 -16 -23v-63h-27v106z" />
<glyph unicode="1" d="M70 -193q0 17 8 23q10 10 20 10l27 4q10 0 10 6q0 16 -16 17q-10 0 -13 -6q-8 -2 -8 -11h-24q0 14 6 21q2 8 12 12q4 2 14 2q4 2 13 2q14 0 26 -4q8 -6 13 -12q2 -4 2 -14v-56q0 -10 2 -12q0 -2 4 -6v-4h-29v2v4q-2 2 -2 6l-8 -8q-4 -2 -6 -2t-4 -2q-4 -2 -13 -2 q-12 0 -18 2q-6 4 -10 10q-6 6 -6 18zM96 -190q0 -4 4 -9q4 -2 6.5 -4t4.5 -2q4 0 6 4h4q8 4 10 6q4 8 4 13v12q-2 0 -10 -4l-12 -2q-4 0 -13 -4q-4 -4 -4 -10zM125 565v494l268 59l-10 37l41 12l-8 39l41 8l-6 46l41 2v41h36l4 36l39 -6l9 41l43 -6l10 39l39 -10l16 37 l39 -17l23 39l34 -18l23 35l37 -25l24 33l35 -27l27 29l26 -25l27 23l27 -29l34 23l23 -37l39 20l18 -35l37 17l17 -41l43 12l12 -39l39 10l8 -43l43 4l2 -26l404 88v-496l-185 -41l4 -2l-24 -26l24 -29l-32 -27l22 -34l-37 -23l23 -37l-35 -20l14 -37l-39 -17l13 -43 l-37 -12l6 -39l-41 -8l2 -43l-39 -4v-39h-35l-6 -37l-39 2l-8 -37l-43 6l-10 -40l-39 12l-14 -39l-44 16l-18 -39l-37 21l-22 -35l-37 23l-25 -33l-30 26l-31 -26l-27 24l-26 -24l-25 31l-35 -23l-24 37l-37 -21l-19 35l-39 -16l-18 41l-39 -13l-12 37l-41 -8l-8 43l-43 -4 l-5 41h-40v35l-35 4l4 41l-41 6l8 43l-41 12l12 37l-28 12zM186 -115h25v-18h2q4 8 6 10t3 4t5 4q2 2 15 2h2h4v-28h-8q-27 0 -27 -25v-55h-27v106zM236 76v16q0 4 2 7t2 7q2 12 14 25q4 6 10 10t12 9q14 6 33 6h6q4 0 8.5 -1t8.5 -1q8 0 14 -7q14 -8 21 -18q4 -4 8 -12 q0 -2 1 -3t1 -3v-5h-33v3q0 2 -4 6q-2 4 -4 5t-6 5q-6 4 -19 4h-8h-6l-14 -12q-10 -6 -11 -15q-4 -8 -4 -28q0 -8 1 -14.5t3 -14.5q2 -10 13 -14q6 -4 10 -6t10 -2h4q12 0 19 4q4 0 7 3l5 5q4 6 6 10t2 10h-37v27h66v-84h-21l-4 20q-6 -8 -14 -14q-4 -4 -9 -5t-10 -3 q-4 0 -9 -1t-9 -1q-12 0 -25 6q-14 6 -20 16q-8 6 -16 27q-4 10 -4 33zM236 702h10l8 5l10 10l8 10l11 10q4 8 8 13l63 86l19 30l20 31q6 8 11.5 15.5t9.5 15.5q4 10 8 17t8 16q2 4 0 6t-4 2q-8 0 -10 -2l-8 -4l-17 -21l-16 -20q-6 -6 -15 -19l-16 -20l-55 -80l-27 -41 q-6 -10 -11 -21.5t-11 -21.5l-4 -6v-4v-4v-3zM262 -78h29v-24h-29v24zM262 -115h29v-106h-29v106zM276 889q2 -4 4.5 -6t6.5 -6l18 -7q14 0 23 2q4 0 4 2q2 2 2 5q0 2 -2 2h-4q-4 0 -4 -2q-14 -2 -29 2q-8 4 -10 8q0 4 -1 5t-1 5q0 6 2 12l6 15l16 18q4 4 10.5 8t12.5 9 q6 4 11 7t13 7l25 12q8 0 14 2t15 6l28 4q16 4 27 5q6 0 22 -5q10 0 15 -6l10 -12v-16q0 -12 -2 -21l-10 -18q-4 -6 -7.5 -11.5t-7.5 -9.5q-4 -6 -9 -10t-11 -10q-4 -6 -21 -19l-22 -14l-25 -10l-14 -6q-2 0 -5 -1t-7 -1h-4q-4 0 -7 -3q-2 0 -2 -2q-4 0 -4 -4q0 -2 2 -2h4 q4 0 7 2h4l26 9l27 12l27 10l26 16l23 17l20 18l17 21q4 4 7 9t5 11q4 12 4 19q2 10 0 18q-2 4 -3 7t-3 7q-6 6 -15 11q-6 2 -10 3t-10 1q-8 2 -23 2q-8 0 -24 -4q-14 0 -27.5 -4t-29.5 -9q-29 -8 -54 -22q-6 -4 -13 -7t-13 -7t-12.5 -8.5t-10.5 -10.5l-9 -9l-9 -9l-9 -21 q-4 -10 0 -16zM317 -115h25v-16q12 18 33 18q8 0 20 -4q6 -4 13 -12q4 -8 4 -21v-71h-29v63q0 12 -2 15q-4 8 -16 8q-8 0 -17 -8q-4 -12 -4 -17v-61h-27v106zM395 57q0 20 6 29q4 14 17 20q8 6 15 7.5t18 1.5q23 0 28 -9q12 -6 19 -22q4 -10 4 -31v-8h-78q0 -6 8 -18 q6 -6 19 -7q4 0 7 1.5t5 1.5q8 8 8 10h31q-6 -12 -10 -21q-4 -4 -8.5 -7t-8.5 -5l-12 -3t-12 -1q-55 0 -56 61zM428 68h45q-4 12 -8 16q-8 8 -14 8q-23 0 -23 -24zM430 -166q0 6 2 12.5t4 12.5q6 14 15 20q8 8 24 8q6 0 19 -4l7 -7t5 -7l2 16h24v-100q0 -10 -4 -27 q-6 -10 -16 -14q-12 -6 -33 -6q-4 0 -9 1t-9 1q-6 2 -19 10q-4 4 -4 8q-2 4 -2 11h27q2 -4 6 -9q2 -2 12 -2q12 0 15 2q8 6 8 9q0 2 1 3t1 3v6v12q-12 -14 -29 -14q-6 0 -11 1t-11 3q-10 8 -17 20q-4 6 -6 13.5t-2 17.5zM461 -168q0 -8 2 -14q0 -4 6 -11q8 -4 12 -4 q25 0 25 29q0 14 -8 23q-4 4 -8.5 7t-8.5 3q-8 0 -14 -10q-6 -6 -6 -23zM498 717q20 0 20 -15v-49q0 -8 10 -22l17 -4q4 -2 18 -2q12 0 25 4q8 4 10 6q8 6 8 22v50l10 8l2 2h9v4h-47v-4h10q2 0 4 -2q12 -4 12 -23v-33q0 -12 -10 -22l-12 -8h-15q-12 0 -18 2q-2 0 -10 8 q-4 4 -4 14v49q0 10 4 11q4 4 14 4h6v4h-63v-4zM510 92v21h16v28h31v-28h16v-21h-16v-61q0 -8 2 -8q0 -2 2 -3h8l2 3h2v-25h-16q-14 0 -20 4q-6 0 -9 8q-2 2 -2 13v69h-16zM510 821q2 -8 10 -12q10 -10 23 -6q14 0 26 6q10 2 17.5 6t15.5 8t15.5 9.5t15.5 13.5l24 20l15 15 q0 2 4 6q0 2 2 4l4 6l16 16l15 21q6 4 10 10t8 10l6 -2l4 -6q0 -2 2 -4v-2q0 -2 -2 -4t-4 -6l-16 -17l-14 -20l-13 -19l-4 -18q-2 -2 -2 -8v-6l4 -8h8q10 0 17 2l16 10q4 4 10.5 8t10.5 10q6 4 10 8.5t8 8.5q2 4 4 6t4 6l8 10l5 4l4 6q4 4 4 5l12 16l21 31q0 -4 1 -7.5 t1 -7.5q4 -12 4 -14l4 -8q-16 -4 -25 -13l-20 -14q-4 -4 -7.5 -9t-5.5 -9q-2 -6 -2 -17q0 -6 11 -10h18q12 0 25 8q16 8 22 17q6 4 9 8t8 8l8 18q6 8 6 19v16q0 6 -4 15l-6 16l-7 6q0 4 -4 8q0 2 -2 4v7v4h-8l-4 -4q-4 -2 -6 -4.5t-6 -4.5l-4 -12l-2 -2l-4 -6l-33 -45l-4 -6 l-6 -11h-3v-2q-2 0 -4 -2l-4 -8l-6 -8l-14 -18l-23 -21q-4 -4 -12 -6q-4 -4 -12 -4v2l8 10l6 10l8 11q4 4 6 8l9 14l10 14l4 15q2 6 2 14q-2 2 -2 8l-2 4q0 4 -2 7v22l6 10q4 6 -4 13q-4 6 -17 0q-10 -2 -16 -9q-6 -2 -10 -12q-4 -4 -4 -10q0 -8 2 -12l4 -2l4 -5l-6 -6 l-6 -6l-23 -31l-20 -22q-4 0 -4 -4v-2l-2 -2q0 -2 -2 -2l-11 -15q-8 -6 -14 -12t-14 -10q-12 -12 -33 -23q-12 -4 -21 -8q-12 -4 -18 -2q-6 0 -6 4q-2 2 -2 6q0 2 4 11l2 8l10 16q4 -2 12 -2h19q10 2 26 12q6 2 11.5 6.5t13.5 8.5l14 16q4 4 7.5 8t3.5 8l8 13q0 12 -4 14 q-4 8 -8 10h-19h-9t-9 -4q-4 -2 -10.5 -4t-10.5 -4q-27 -14 -45 -29q-18 -16 -29 -34q-4 -4 -6 -9.5t-6 -11.5q-6 -8 -8 -18v-17zM545 -115h14v27h29v-27h16v-20h-16v-55q0 -6 2 -9q0 -2 2 -2h6l4 2h2v-22h-6h-6h-4q-12 0 -17 2q-10 4 -10 8q-2 2 -2 12v64h-14v20zM567 870 l15 23l18 20l6 9q4 4 6 5t4 3l11 10l12 4q8 2 14 0v-10l-6 -8q-6 -6 -6 -11q-4 -4 -5 -6t-5 -4q0 -2 -8 -10q-2 -2 -3.5 -4t-5.5 -4q-4 -4 -6 -5t-4 -3l-12 -9q-6 -2 -12 -2q-10 0 -13 2zM610 -115h33l21 -78l20 78h31l-35 -102l-2 -2l-8 -23q-4 -10 -6 -12q-6 -6 -11 -6 q-4 0 -7 -1t-7 -1h-6h-8v22h8h8q2 0 6 4v5q2 2 2 6l-37 102zM639 694q0 -2 4 -10q0 -6 6 -6l13 -6q2 -2 20 -6l8 -2q8 -4 12 -5q4 0 9 -4q2 0 2 -2q6 -4 6 -10l-4 -8q-2 -4 -8 -6h-11q-10 0 -16 2l-16 6l-11 10q-10 10 -10 21h-2v-43h2q0 6 4 6q4 4 8 4q2 0 2 -1t5 -1 q2 0 3 -1t3 -1l14 -4q4 -2 14 -2q4 0 17 4q2 0 12 6q2 2 2 4t4 4v21l-6 6q-2 4 -12 8l-17 6h-10l-2 2q-4 2 -8 2t-6 2q-6 0 -8 2q-2 0 -7 4q-2 0 -2 4v2v9l4 4l9 4q2 0 4 1t6 1q6 0 14 -4q8 0 12 -4q8 -4 11 -8q4 -2 5 -7.5t5 -9.5h2v31h-2q-2 -6 -8 -6h-8q-16 10 -31 10 q-8 0 -21 -4l-12 -8q-2 -4 -3 -7.5t-1 -9.5zM641 92v21h14v8q0 33 35 33h15v-25h-9h-6q-4 0 -4 -4v-12h19v-21h-19v-94h-31v94h-14zM723 37v76h29v-70q0 -20 20 -20h10l11 10q0 2 2 5t2 7v68h26v-115h-26v16q-6 -8 -15 -12q-12 -6 -20 -6q-20 0 -29 12q-10 8 -10 29z M731 -115h25v-16h4q2 0 4 2l8 8q4 4 8 6q2 2 8 2q10 0 17 -4q8 -4 12 -8q8 -8 10 -20q6 -10 7 -23q0 -4 -1.5 -6t-1.5 -6t-2 -6t-4 -7q-4 -16 -12 -22q-10 -8 -25 -8q-10 0 -14 2t-8 6q-2 2 -6 2l-2 4v-51h-27v100v45zM741 627h103v39q-4 -4 -4 -7.5t-2 -5.5l-11 -14 q-6 -6 -8 -6l-10 -2q-4 -2 -12 -2h-15v41h2q8 0 19 -6l4 -7q0 -2 1 -3t1 -3v-8h2v59h-2v-8l-4 -10q-10 -10 -19 -10h-4v43h17q16 0 22 -2l8 -6l5 -11l6 -14h4v37h-103v-4h4q8 0 11 -4q6 0 6 -11v-57q0 -16 -17 -16h-4v-2zM756 -170q0 -14 8 -20q6 -8 16 -9q12 0 19 9 q4 12 4 22t-4 23q-4 4 -8.5 7t-10.5 3q-25 0 -24 -35zM793 868v9l4 10l6 8q8 10 18 18l23 11q0 -4 1 -6.5t1 -4.5q-2 -4 -2 -8v-12l-4 -8q-2 -4 -4 -5t-5 -6l-8 -6q-2 0 -3 -1t-5 -1q-2 -2 -8 -2q-4 -4 -8 0q-2 0 -6 4zM844 -166q0 17 4 25q6 14 16 20q10 8 27 8q23 0 31 -8 q10 -6 16 -22q4 -16 4 -27v-6h-72q0 -12 7 -19q6 -6 16 -6q6 0 14 4q4 4 6 9h27q-4 -16 -8 -21q-4 -4 -8 -6t-9 -4q-12 -4 -22 -4q-49 0 -49 57zM852 -2v156h29v-156h-29zM870 -158h43q0 10 -6 17q-4 2 -7 4t-9 2q-16 0 -21 -23zM903 -2v156h29v-156h-29zM905 674 q0 -14 4 -21q4 -4 6.5 -7t6.5 -7q6 -6 18 -10q6 -2 11 -3t12 -1q16 0 26 6q8 4 13.5 9t9.5 9q6 8 6 25q0 10 -4 16q-4 12 -10 17q-4 6 -19 10q-12 6 -22 6q-20 0 -29 -8q-8 -2 -12 -7.5t-9 -9.5q-8 -10 -8 -24zM915 901q0 -8 5 -8q4 -4 6 -5t4 -3h10h12q8 2 14.5 4t12.5 4 l27 14l22 21l19 16l14 21l10 16l6 18q4 10 0 15q0 6 -6 10q0 4 -10 8q-2 0 -6 1t-8 1q-6 0 -19 -4q-4 0 -6 -1l-6 -3l-12 -4l-25 -16q-6 -4 -11 -9.5t-12 -9.5l-16 -18l-12 -19q-10 -16 -13 -26v-23zM928 674q0 4 1 8t1 8l6 12q2 2 3 5.5t3 5.5t4 2t6 2q4 4 13 4q0 -2 2 -2 h4l6 -4l10 -8q0 -4 2 -7.5t4 -9.5q0 -2 1 -7t1 -9q0 -12 -4 -25q-4 -4 -6 -9t-6 -9q-4 -2 -16 -2q-10 0 -13 2q-8 0 -12 10l-6 12q-4 12 -4 21zM940 895v8v4q4 14 10 21q4 6 7.5 11t7.5 11l10 13l8 10l16 20l9.5 9.5l9.5 9.5l8 8l10 4q4 2 11 2l4 -2q2 -2 2 -8q0 -2 -4 -10 l-5 -9l-6 -10q-4 -8 -6 -10l-8 -12l-12 -19l-17 -18l-20 -21q0 -2 -10 -6q-2 -4 -13 -8h-8q-4 0 -4 2zM948 -115h17v9q0 29 30 28h13v-22h-7h-6l-2 -2l-2 -9v-4h19v-20h-19v-86h-26v86h-17v20zM1010 92v21h14v8q0 33 35 33h12v-25h-6h-6q-2 0 -4 -4v-12h20v-21h-20v-94h-31 v94h-14zM1018 -193q0 17 10 23q10 10 21 10l24 4q8 0 8 6q0 16 -14 17q-10 0 -12 -6q-6 -4 -6 -11h-27q0 14 6 21q6 10 14 12q4 2 11 2q4 2 14 2t16.5 -1t12.5 -3q8 -6 12 -12q2 -4 2 -14v-56q0 -10 2 -12q0 -2 4 -6v-4h-31v2q0 2 -1 2t-1 2v6q-4 -2 -5 -4t-3 -4 q-4 -2 -6 -2t-4 -2q-4 -2 -14 -2q-8 0 -15 2q-4 2 -7 4t-7 6q-4 8 -4 18zM1032 627h49v2q-6 0 -10 2h-8l-4 10q-2 2 -2 12v56l80 -82h4v65q0 8 1 12.5t3 8.5q4 4 16 4v4h-47v-4h8q0 -2 4 -2q6 -4 7 -8q4 -4 4 -15v-39l-66 68h-37v-4q8 0 10 -2q2 0 3.5 -1t3.5 -1q2 -4 2 -11 v-53q0 -6 -2 -10t-7 -8q-4 0 -7 -1t-5 -1v-2zM1047 -190q0 -4 4 -9q6 -6 8 -6q4 0 6 4h4q4 2 5 3t5 3q2 4 2 13v12l-8 -4l-14 -2q-4 0 -8 -4t-4 -10zM1051 905q2 0 3 -1t3 -1q4 0 8 2l8 4q0 2 4 6q2 0 2 1.5t2 1.5l4 6q0 4 5 4l16 22l20 21l17 20l22 21l21 20l8 8q4 2 10 9 l10 8l13 4q2 0 2 -2h-2l-4 -4q-2 -6 -9 -8l-4 -7l-12 -14q-4 -4 -6 -7t-6 -7q-10 -12 -15 -23l-14 -20q-2 -4 -3 -9.5t-3 -9.5q-4 -10 0 -16q2 -6 8 -6h19q4 2 9 5t13 7q12 8 19 14l20 21l2 2q-2 -2 -2 -6q0 -6 4 -15q2 -4 10 -8q6 -2 21 2q12 2 24 13l21 14l7 7l7 7l13 13 v-5q0 -2 -1.5 -3t-1.5 -3v-6q-4 -6 0 -10q0 -2 1.5 -3t1.5 -3q0 -6 6 -6h6h10l6 4l8 6l13 6l32 27l17 16l-4 -12q-4 -6 -4 -19v-6q2 0 4 -2q0 -2 6 -2q4 0 8 4q8 0 12 6l11 6l12 13q2 0 10 8l9 9t10 9l18 21v4q0 2 -2 2q-4 0 -8 -4l-2 -4l-13 -15l-10 -12q-10 -6 -12 -12 l-14 -12l-9 -7l-8 -2l-2 -2q-2 0 -4 2h2l8 15q4 8 8 12l7 12q4 2 8 11l63 92q10 10 13 16l16 16l37 43q10 10 17 20.5t16 20.5l10 19v8q-2 2 -8 2q-2 0 -11 -4q-4 0 -6 -2t-6 -4q-4 0 -10 -6l-8 -6q-6 -4 -11.5 -9.5t-11.5 -9.5l-16 -18q-6 -6 -10.5 -11.5t-8.5 -11.5 q-2 -4 -6 -9t-8 -11q-16 -23 -27 -41l-26 -45l-19 -33l-8 -16h-2l-14 -15q-4 -6 -8.5 -10t-10.5 -10l-18 -17l-10 -8l-7 -4l-4 -2l-4 -4h-6h-4l6 10l6 10q0 2 2 4q4 8 8.5 14.5t10.5 12.5q4 6 8 13.5t8 15.5l15 20l8 13q2 4 3 5t3 5l2 2l2 2q0 2 1 2t1 2q6 4 4 8q0 2 -6 2 l-10 -4l-10 -6l-19 -12q-8 -8 -14 -13q0 6 -2 11q0 2 -6 6q-12 2 -21 0q-16 -4 -22 -8q-8 -4 -13.5 -6.5t-11.5 -6.5q-8 -6 -18 -16q-27 -18 -37 -39q-14 -16 -21 -37h-4q-4 -6 -16 -18q-6 -4 -11.5 -8.5t-11.5 -8.5q-2 -4 -12 -8q-4 -4 -10 -4h-2q-2 2 0 4l6 8l6 11l12 14 l21 27q4 6 9 13t9 15l8 17q4 10 2 16q0 6 -2 6q0 4 -6 4t-8 -2l-12 -4l-13 -8q-4 -2 -10 -8q-4 -4 -6 -5t-4 -4q-8 -8 -12 -8l-21 -22q-4 -4 -9 -9.5t-9 -9.5l-11 -12l-10 -10l2 4l25 35l26 37q0 2 1.5 2t1.5 2q2 2 2 4q2 2 2 6l-7 6q-2 0 -3 1t-3 1t-4 -1t-6 -1l-10 -6 l-4 -4q-4 -2 -4 -4t-2 -4l-5 -7l-77 -133q-2 -2 -2 -4v-2zM1083 55q0 6 1 11.5t3 11.5q2 10 11 18q10 10 20 15q6 4 25 4q16 0 24 -4q4 -4 8.5 -5.5t8.5 -5.5t6 -9t6 -11q4 -12 4 -25q0 -16 -8 -30q-2 -8 -18 -21q-10 -8 -31 -8q-20 0 -35 8q-6 4 -10 10t-8 13q-6 12 -7 28z M1114 55q0 -8 2 -13t4 -9q4 -10 23 -10q16 0 20 10q6 6 6 22q0 14 -6 25q-6 10 -20 10q-16 0 -23 -10q-2 -4 -4 -10.5t-2 -14.5zM1128 -170q1 16 11 41q12 16 39 16q10 0 22 -4q8 -2 17 -14q4 -6 7 -11t3 -12h-31q0 4 -4 13q-6 6 -12 6q-10 0 -17 -10q-8 -6 -8 -21 q0 -6 1 -10t1 -8q4 -4 5 -6.5t3 -4.5q4 -4 13 -4q8 0 12 4q6 2 6 13h27q0 -10 -6 -23q-4 -4 -7.5 -7t-7.5 -5q-12 -6 -24 -6q-23 0 -35 12q-6 2 -10 16q-4 12 -5 25zM1167 627h107v41h-2q-4 -4 -4 -6.5t-2 -6.5q-4 -4 -4 -8q-2 -2 -2 -3t-3 -3q-8 -8 -12 -10q-2 0 -6 -1 t-8 -1h-25v73q0 10 6 11q2 4 13 4h6v4h-64v-4h4q16 0 17 -15v-57q0 -16 -17 -16h-4v-2zM1221 -2v115h28v-17q12 18 35 19q14 0 21 -4l14 -13q4 -12 4 -20v-80h-29v70q0 8 -4 16q-6 6 -16 6q-12 0 -19 -8q-4 -4 -4 -19v-65h-30zM1237 -166q0 9 4 25q6 14 16 20q10 8 29 8 q20 0 29 -8q10 -6 14 -22q6 -12 6 -27v-6h-71q0 -12 6 -19q6 -6 16 -6q6 0 14 4q4 4 7 9h26q-4 -16 -10 -21q-8 -8 -14 -10q-12 -4 -23 -4q-49 0 -49 57zM1264 -158h43q0 10 -7 17q-4 2 -7 4t-9 2q-16 0 -20 -23zM1266 963l2 2q0 2 2 4q4 8 6 10l8 10q2 8 6 12q2 4 8 11 l19 24l26 33l7 8l8 6l8 7q2 2 8 2q4 2 8 2l7 -4q0 -2 1 -3.5t1 -3.5q0 -4 -2 -8q0 -2 -5 -6l-16 -22l-12 -23l-17 -14l-16 -19q-2 -2 -4 -3t-6 -5l-13 -10q-2 -2 -4 -3t-6 -5q-4 0 -5 -2t-5 -2q-8 -4 -10 -3h-2q-2 2 -2 5zM1268 717h2q10 0 14 -2l4 -4t4 -6l29 -39v-21 q0 -10 -2 -12q-8 -4 -14 -4h-7v-2h68v2h-8q-8 0 -12 4t-5 12v23l25 34l4 7q8 4 10 4q0 2 4 2q2 0 3.5 1t3.5 1h2v4h-47v-4h6q8 0 10 -2q4 -2 4 -6t-6 -11l-19 -26l-24 30q-4 8 -4 9v2q0 2 2 2q0 2 6 2h8v4h-61v-4zM1337 92v21h19v28h26v-28h21v-21h-21v-61v-6q0 -2 2 -2 q4 0 5.5 -1.5t5.5 -1.5l4 3h4v-25h-21q-14 0 -16 4q-8 0 -10 8v82h-19zM1352 -190h30v-31h-30v31zM1401 -170q0 16 10 41q12 16 39 16q10 0 23 -4q6 -2 18 -14q8 -10 8 -23h-29l-6 13q-6 6 -12 6q-10 0 -16 -10q-6 -6 -6 -21q0 -6 1 -10t1 -8q4 -8 8 -11q2 -4 10 -4 q10 0 12 4q6 2 6 13h31q-4 -12 -8 -23q-4 -4 -8 -7t-8 -5q-10 -6 -25 -6q-20 0 -35 12q-6 2 -10 16q-4 12 -4 25zM1473 31q0 16 8 24q16 8 24 11l27 4q10 0 10 8q0 14 -18 14q-8 0 -13 -4q-6 -2 -8 -14h-26q0 14 6 24q4 6 16 13q4 4 12 4h13q25 0 32 -4l7.5 -7.5t5.5 -7.5 t2 -14v-72q0 -6 8 -6v-6h-33q-2 0 -2 2v2v2q0 4 -1 5t-1 3l-8 -8q-2 -2 -3 -2t-3 -2t-4 -2q-6 0 -9.5 -1t-7.5 -1t-8 1t-8 1q-4 4 -7 6t-7 6q-4 8 -4 21zM1501 31q0 -8 4 -8q4 -4 11 -5h8l4 2q10 4 10 7q4 8 4 14v14q-6 -6 -12 -6l-14 -4q-6 0 -11 -4q-4 -2 -4 -10z M1511 -168q0 13 2 21q4 12 11 18q6 8 16 12q12 4 25 4q10 0 22 -4l8 -4t9 -6q4 -4 5 -9t5 -9q2 -6 2 -23q0 -16 -6 -29q-4 -14 -17 -20q-12 -6 -28 -6q-20 0 -31 8q-12 6 -18 20q-4 16 -5 27zM1538 -168q0 -14 6 -22q2 -4 8.5 -6.5t12.5 -2.5q16 0 18 9q6 8 6 22q0 13 -6 23 q-4 10 -18 10q-16 0 -21 -10q-6 -10 -6 -23zM1567 1167l28 37l13 23l26 35l2 2q0 4 4 4q0 2 2 2q0 -8 -2 -10l-8 -11l-6 -10q-2 -2 -3 -4t-3 -4l-16 -21l-19 -20l-10 -12q-4 -8 -8 -11zM1585 92v21h14v28h33v-28h19v-21h-19v-61v-8q2 0 4 -1.5t6 -1.5l5 3h4v-25h-19 q-14 0 -20 4q-6 0 -8 8q0 2 -2.5 5t-2.5 8v69h-14zM1636 -115h27v-16q8 18 31 18q8 0 16 -4q6 -4 12 -12q2 8 11 12q8 4 16 4q10 0 23 -4q8 -8 10 -14q4 -8 4 -19v-71h-27v63q0 23 -16 23q-18 0 -19 -23v-63h-26v63v11q0 4 -4 8t-15 4q-16 0 -16 -23v-63h-27v106z" />
<glyph unicode="2" d="M70 -193q0 17 8 23q10 10 20 10l27 4q10 0 10 6q0 16 -16 17q-10 0 -13 -6q-8 -2 -8 -11h-24q0 14 6 21q2 8 12 12q4 2 14 2q4 2 13 2q14 0 26 -4q8 -6 13 -12q2 -4 2 -14v-56q0 -10 2 -12q0 -2 4 -6v-4h-29v2v4q-2 2 -2 6l-8 -8q-4 -2 -6 -2t-4 -2q-4 -2 -13 -2 q-12 0 -18 2q-6 4 -10 10q-6 6 -6 18zM96 -190q0 -4 4 -9q4 -2 6.5 -4t4.5 -2q4 0 6 4h4q8 4 10 6q4 8 4 13v12q-2 0 -10 -4l-12 -2q-4 0 -13 -4q-4 -4 -4 -10zM125 565v494l268 59l-10 37l41 12l-8 39l41 8l-6 46l41 2v41h36l4 36l39 -6l9 41l43 -6l10 39l39 -10l16 37 l39 -17l23 39l34 -18l23 35l37 -25l24 33l35 -27l27 29l26 -25l27 23l27 -29l34 23l23 -37l39 20l18 -35l37 17l17 -41l43 12l12 -39l39 10l8 -43l43 4l2 -26l404 88v-496l-185 -41l4 -2l-24 -26l24 -29l-32 -27l22 -34l-37 -23l23 -37l-35 -20l14 -37l-39 -17l13 -43 l-37 -12l6 -39l-41 -8l2 -43l-39 -4v-39h-35l-6 -37l-39 2l-8 -37l-43 6l-10 -40l-39 12l-14 -39l-44 16l-18 -39l-37 21l-22 -35l-37 23l-25 -33l-30 26l-31 -26l-27 24l-26 -24l-25 31l-35 -23l-24 37l-37 -21l-19 35l-39 -16l-18 41l-39 -13l-12 37l-41 -8l-8 43l-43 -4 l-5 41h-40v35l-35 4l4 41l-41 6l8 43l-41 12l12 37l-28 12zM186 -115h25v-18h2q4 8 6 10t3 4t5 4q2 2 15 2h2h4v-28h-8q-27 0 -27 -25v-55h-27v106zM236 76v16q0 4 2 7t2 7q2 12 14 25q4 6 10 10t12 9q14 6 33 6h6q4 0 8.5 -1t8.5 -1q8 0 14 -7q14 -8 21 -18q4 -4 8 -12 q0 -2 1 -3t1 -3v-5h-33v3q0 2 -4 6q-2 4 -4 5t-6 5q-6 4 -19 4h-8h-6l-14 -12q-10 -6 -11 -15q-4 -8 -4 -28q0 -8 1 -14.5t3 -14.5q2 -10 13 -14q6 -4 10 -6t10 -2h4q12 0 19 4q4 0 7 3l5 5q4 6 6 10t2 10h-37v27h66v-84h-21l-4 20q-6 -8 -14 -14q-4 -4 -9 -5t-10 -3 q-4 0 -9 -1t-9 -1q-12 0 -25 6q-14 6 -20 16q-8 6 -16 27q-4 10 -4 33zM236 702h10l8 5l10 10l8 10l11 10q4 8 8 13l63 86l19 30l20 31q6 8 11.5 15.5t9.5 15.5q4 10 8 17t8 16q2 4 0 6t-4 2q-8 0 -10 -2l-8 -4l-17 -21l-16 -20q-6 -6 -15 -19l-16 -20l-55 -80l-27 -41 q-6 -10 -11 -21.5t-11 -21.5l-4 -6v-4v-4v-3zM262 -78h29v-24h-29v24zM262 -115h29v-106h-29v106zM276 889q2 -4 4.5 -6t6.5 -6l18 -7q14 0 23 2q4 0 4 2q2 2 2 5q0 2 -2 2h-4q-4 0 -4 -2q-14 -2 -29 2q-8 4 -10 8q0 4 -1 5t-1 5q0 6 2 12l6 15l16 18q4 4 10.5 8t12.5 9 q6 4 11 7t13 7l25 12q8 0 14 2t15 6l28 4q16 4 27 5q6 0 22 -5q10 0 15 -6l10 -12v-16q0 -12 -2 -21l-10 -18q-4 -6 -7.5 -11.5t-7.5 -9.5q-4 -6 -9 -10t-11 -10q-4 -6 -21 -19l-22 -14l-25 -10l-14 -6q-2 0 -5 -1t-7 -1h-4q-4 0 -7 -3q-2 0 -2 -2q-4 0 -4 -4q0 -2 2 -2h4 q4 0 7 2h4l26 9l27 12l27 10l26 16l23 17l20 18l17 21q4 4 7 9t5 11q4 12 4 19q2 10 0 18q-2 4 -3 7t-3 7q-6 6 -15 11q-6 2 -10 3t-10 1q-8 2 -23 2q-8 0 -24 -4q-14 0 -27.5 -4t-29.5 -9q-29 -8 -54 -22q-6 -4 -13 -7t-13 -7t-12.5 -8.5t-10.5 -10.5l-9 -9l-9 -9l-9 -21 q-4 -10 0 -16zM317 -115h25v-16q12 18 33 18q8 0 20 -4q6 -4 13 -12q4 -8 4 -21v-71h-29v63q0 12 -2 15q-4 8 -16 8q-8 0 -17 -8q-4 -12 -4 -17v-61h-27v106zM395 57q0 20 6 29q4 14 17 20q8 6 15 7.5t18 1.5q23 0 28 -9q12 -6 19 -22q4 -10 4 -31v-8h-78q0 -6 8 -18 q6 -6 19 -7q4 0 7 1.5t5 1.5q8 8 8 10h31q-6 -12 -10 -21q-4 -4 -8.5 -7t-8.5 -5l-12 -3t-12 -1q-55 0 -56 61zM428 68h45q-4 12 -8 16q-8 8 -14 8q-23 0 -23 -24zM430 -166q0 6 2 12.5t4 12.5q6 14 15 20q8 8 24 8q6 0 19 -4l7 -7t5 -7l2 16h24v-100q0 -10 -4 -27 q-6 -10 -16 -14q-12 -6 -33 -6q-4 0 -9 1t-9 1q-6 2 -19 10q-4 4 -4 8q-2 4 -2 11h27q2 -4 6 -9q2 -2 12 -2q12 0 15 2q8 6 8 9q0 2 1 3t1 3v6v12q-12 -14 -29 -14q-6 0 -11 1t-11 3q-10 8 -17 20q-4 6 -6 13.5t-2 17.5zM461 -168q0 -8 2 -14q0 -4 6 -11q8 -4 12 -4 q25 0 25 29q0 14 -8 23q-4 4 -8.5 7t-8.5 3q-8 0 -14 -10q-6 -6 -6 -23zM498 717q20 0 20 -15v-49q0 -8 10 -22l17 -4q4 -2 18 -2q12 0 25 4q8 4 10 6q8 6 8 22v50l10 8l2 2h9v4h-47v-4h10q2 0 4 -2q12 -4 12 -23v-33q0 -12 -10 -22l-12 -8h-15q-12 0 -18 2q-2 0 -10 8 q-4 4 -4 14v49q0 10 4 11q4 4 14 4h6v4h-63v-4zM510 92v21h16v28h31v-28h16v-21h-16v-61q0 -8 2 -8q0 -2 2 -3h8l2 3h2v-25h-16q-14 0 -20 4q-6 0 -9 8q-2 2 -2 13v69h-16zM510 821q2 -8 10 -12q10 -10 23 -6q14 0 26 6q10 2 17.5 6t15.5 8t15.5 9.5t15.5 13.5l24 20l15 15 q0 2 4 6q0 2 2 4l4 6l16 16l15 21q6 4 10 10t8 10l6 -2l4 -6q0 -2 2 -4v-2q0 -2 -2 -4t-4 -6l-16 -17l-14 -20l-13 -19l-4 -18q-2 -2 -2 -8v-6l4 -8h8q10 0 17 2l16 10q4 4 10.5 8t10.5 10q6 4 10 8.5t8 8.5q2 4 4 6t4 6l8 10l5 4l4 6q4 4 4 5l12 16l21 31q0 -4 1 -7.5 t1 -7.5q4 -12 4 -14l4 -8q-16 -4 -25 -13l-20 -14q-4 -4 -7.5 -9t-5.5 -9q-2 -6 -2 -17q0 -6 11 -10h18q12 0 25 8q16 8 22 17q6 4 9 8t8 8l8 18q6 8 6 19v16q0 6 -4 15l-6 16l-7 6q0 4 -4 8q0 2 -2 4v7v4h-8l-4 -4q-4 -2 -6 -4.5t-6 -4.5l-4 -12l-2 -2l-4 -6l-33 -45l-4 -6 l-6 -11h-3v-2q-2 0 -4 -2l-4 -8l-6 -8l-14 -18l-23 -21q-4 -4 -12 -6q-4 -4 -12 -4v2l8 10l6 10l8 11q4 4 6 8l9 14l10 14l4 15q2 6 2 14q-2 2 -2 8l-2 4q0 4 -2 7v22l6 10q4 6 -4 13q-4 6 -17 0q-10 -2 -16 -9q-6 -2 -10 -12q-4 -4 -4 -10q0 -8 2 -12l4 -2l4 -5l-6 -6 l-6 -6l-23 -31l-20 -22q-4 0 -4 -4v-2l-2 -2q0 -2 -2 -2l-11 -15q-8 -6 -14 -12t-14 -10q-12 -12 -33 -23q-12 -4 -21 -8q-12 -4 -18 -2q-6 0 -6 4q-2 2 -2 6q0 2 4 11l2 8l10 16q4 -2 12 -2h19q10 2 26 12q6 2 11.5 6.5t13.5 8.5l14 16q4 4 7.5 8t3.5 8l8 13q0 12 -4 14 q-4 8 -8 10h-19h-9t-9 -4q-4 -2 -10.5 -4t-10.5 -4q-27 -14 -45 -29q-18 -16 -29 -34q-4 -4 -6 -9.5t-6 -11.5q-6 -8 -8 -18v-17zM545 -115h14v27h29v-27h16v-20h-16v-55q0 -6 2 -9q0 -2 2 -2h6l4 2h2v-22h-6h-6h-4q-12 0 -17 2q-10 4 -10 8q-2 2 -2 12v64h-14v20zM567 870 l15 23l18 20l6 9q4 4 6 5t4 3l11 10l12 4q8 2 14 0v-10l-6 -8q-6 -6 -6 -11q-4 -4 -5 -6t-5 -4q0 -2 -8 -10q-2 -2 -3.5 -4t-5.5 -4q-4 -4 -6 -5t-4 -3l-12 -9q-6 -2 -12 -2q-10 0 -13 2zM610 -115h33l21 -78l20 78h31l-35 -102l-2 -2l-8 -23q-4 -10 -6 -12q-6 -6 -11 -6 q-4 0 -7 -1t-7 -1h-6h-8v22h8h8q2 0 6 4v5q2 2 2 6l-37 102zM639 694q0 -2 4 -10q0 -6 6 -6l13 -6q2 -2 20 -6l8 -2q8 -4 12 -5q4 0 9 -4q2 0 2 -2q6 -4 6 -10l-4 -8q-2 -4 -8 -6h-11q-10 0 -16 2l-16 6l-11 10q-10 10 -10 21h-2v-43h2q0 6 4 6q4 4 8 4q2 0 2 -1t5 -1 q2 0 3 -1t3 -1l14 -4q4 -2 14 -2q4 0 17 4q2 0 12 6q2 2 2 4t4 4v21l-6 6q-2 4 -12 8l-17 6h-10l-2 2q-4 2 -8 2t-6 2q-6 0 -8 2q-2 0 -7 4q-2 0 -2 4v2v9l4 4l9 4q2 0 4 1t6 1q6 0 14 -4q8 0 12 -4q8 -4 11 -8q4 -2 5 -7.5t5 -9.5h2v31h-2q-2 -6 -8 -6h-8q-16 10 -31 10 q-8 0 -21 -4l-12 -8q-2 -4 -3 -7.5t-1 -9.5zM641 92v21h14v8q0 33 35 33h15v-25h-9h-6q-4 0 -4 -4v-12h19v-21h-19v-94h-31v94h-14zM723 37v76h29v-70q0 -20 20 -20h10l11 10q0 2 2 5t2 7v68h26v-115h-26v16q-6 -8 -15 -12q-12 -6 -20 -6q-20 0 -29 12q-10 8 -10 29z M731 -115h25v-16h4q2 0 4 2l8 8q4 4 8 6q2 2 8 2q10 0 17 -4q8 -4 12 -8q8 -8 10 -20q6 -10 7 -23q0 -4 -1.5 -6t-1.5 -6t-2 -6t-4 -7q-4 -16 -12 -22q-10 -8 -25 -8q-10 0 -14 2t-8 6q-2 2 -6 2l-2 4v-51h-27v100v45zM741 627h103v39q-4 -4 -4 -7.5t-2 -5.5l-11 -14 q-6 -6 -8 -6l-10 -2q-4 -2 -12 -2h-15v41h2q8 0 19 -6l4 -7q0 -2 1 -3t1 -3v-8h2v59h-2v-8l-4 -10q-10 -10 -19 -10h-4v43h17q16 0 22 -2l8 -6l5 -11l6 -14h4v37h-103v-4h4q8 0 11 -4q6 0 6 -11v-57q0 -16 -17 -16h-4v-2zM756 -170q0 -14 8 -20q6 -8 16 -9q12 0 19 9 q4 12 4 22t-4 23q-4 4 -8.5 7t-10.5 3q-25 0 -24 -35zM793 868v9l4 10l6 8q8 10 18 18l23 11q0 -4 1 -6.5t1 -4.5q-2 -4 -2 -8v-12l-4 -8q-2 -4 -4 -5t-5 -6l-8 -6q-2 0 -3 -1t-5 -1q-2 -2 -8 -2q-4 -4 -8 0q-2 0 -6 4zM844 -166q0 17 4 25q6 14 16 20q10 8 27 8q23 0 31 -8 q10 -6 16 -22q4 -16 4 -27v-6h-72q0 -12 7 -19q6 -6 16 -6q6 0 14 4q4 4 6 9h27q-4 -16 -8 -21q-4 -4 -8 -6t-9 -4q-12 -4 -22 -4q-49 0 -49 57zM852 -2v156h29v-156h-29zM870 -158h43q0 10 -6 17q-4 2 -7 4t-9 2q-16 0 -21 -23zM903 -2v156h29v-156h-29zM905 674 q0 -14 4 -21q4 -4 6.5 -7t6.5 -7q6 -6 18 -10q6 -2 11 -3t12 -1q16 0 26 6q8 4 13.5 9t9.5 9q6 8 6 25q0 10 -4 16q-4 12 -10 17q-4 6 -19 10q-12 6 -22 6q-20 0 -29 -8q-8 -2 -12 -7.5t-9 -9.5q-8 -10 -8 -24zM915 901q0 -8 5 -8q4 -4 6 -5t4 -3h10h12q8 2 14.5 4t12.5 4 l27 14l22 21l19 16l14 21l10 16l6 18q4 10 0 15q0 6 -6 10q0 4 -10 8q-2 0 -6 1t-8 1q-6 0 -19 -4q-4 0 -6 -1l-6 -3l-12 -4l-25 -16q-6 -4 -11 -9.5t-12 -9.5l-16 -18l-12 -19q-10 -16 -13 -26v-23zM928 674q0 4 1 8t1 8l6 12q2 2 3 5.5t3 5.5t4 2t6 2q4 4 13 4q0 -2 2 -2 h4l6 -4l10 -8q0 -4 2 -7.5t4 -9.5q0 -2 1 -7t1 -9q0 -12 -4 -25q-4 -4 -6 -9t-6 -9q-4 -2 -16 -2q-10 0 -13 2q-8 0 -12 10l-6 12q-4 12 -4 21zM940 895v8v4q4 14 10 21q4 6 7.5 11t7.5 11l10 13l8 10l16 20l9.5 9.5l9.5 9.5l8 8l10 4q4 2 11 2l4 -2q2 -2 2 -8q0 -2 -4 -10 l-5 -9l-6 -10q-4 -8 -6 -10l-8 -12l-12 -19l-17 -18l-20 -21q0 -2 -10 -6q-2 -4 -13 -8h-8q-4 0 -4 2zM948 -115h17v9q0 29 30 28h13v-22h-7h-6l-2 -2l-2 -9v-4h19v-20h-19v-86h-26v86h-17v20zM1010 92v21h14v8q0 33 35 33h12v-25h-6h-6q-2 0 -4 -4v-12h20v-21h-20v-94h-31 v94h-14zM1018 -193q0 17 10 23q10 10 21 10l24 4q8 0 8 6q0 16 -14 17q-10 0 -12 -6q-6 -4 -6 -11h-27q0 14 6 21q6 10 14 12q4 2 11 2q4 2 14 2t16.5 -1t12.5 -3q8 -6 12 -12q2 -4 2 -14v-56q0 -10 2 -12q0 -2 4 -6v-4h-31v2q0 2 -1 2t-1 2v6q-4 -2 -5 -4t-3 -4 q-4 -2 -6 -2t-4 -2q-4 -2 -14 -2q-8 0 -15 2q-4 2 -7 4t-7 6q-4 8 -4 18zM1032 627h49v2q-6 0 -10 2h-8l-4 10q-2 2 -2 12v56l80 -82h4v65q0 8 1 12.5t3 8.5q4 4 16 4v4h-47v-4h8q0 -2 4 -2q6 -4 7 -8q4 -4 4 -15v-39l-66 68h-37v-4q8 0 10 -2q2 0 3.5 -1t3.5 -1q2 -4 2 -11 v-53q0 -6 -2 -10t-7 -8q-4 0 -7 -1t-5 -1v-2zM1047 -190q0 -4 4 -9q6 -6 8 -6q4 0 6 4h4q4 2 5 3t5 3q2 4 2 13v12l-8 -4l-14 -2q-4 0 -8 -4t-4 -10zM1051 905q2 0 3 -1t3 -1q4 0 8 2l8 4q0 2 4 6q2 0 2 1.5t2 1.5l4 6q0 4 5 4l16 22l20 21l17 20l22 21l21 20l8 8q4 2 10 9 l10 8l13 4q2 0 2 -2h-2l-4 -4q-2 -6 -9 -8l-4 -7l-12 -14q-4 -4 -6 -7t-6 -7q-10 -12 -15 -23l-14 -20q-2 -4 -3 -9.5t-3 -9.5q-4 -10 0 -16q2 -6 8 -6h19q4 2 9 5t13 7q12 8 19 14l20 21l2 2q-2 -2 -2 -6q0 -6 4 -15q2 -4 10 -8q6 -2 21 2q12 2 24 13l21 14l7 7l7 7l13 13 v-5q0 -2 -1.5 -3t-1.5 -3v-6q-4 -6 0 -10q0 -2 1.5 -3t1.5 -3q0 -6 6 -6h6h10l6 4l8 6l13 6l32 27l17 16l-4 -12q-4 -6 -4 -19v-6q2 0 4 -2q0 -2 6 -2q4 0 8 4q8 0 12 6l11 6l12 13q2 0 10 8l9 9t10 9l18 21v4q0 2 -2 2q-4 0 -8 -4l-2 -4l-13 -15l-10 -12q-10 -6 -12 -12 l-14 -12l-9 -7l-8 -2l-2 -2q-2 0 -4 2h2l8 15q4 8 8 12l7 12q4 2 8 11l63 92q10 10 13 16l16 16l37 43q10 10 17 20.5t16 20.5l10 19v8q-2 2 -8 2q-2 0 -11 -4q-4 0 -6 -2t-6 -4q-4 0 -10 -6l-8 -6q-6 -4 -11.5 -9.5t-11.5 -9.5l-16 -18q-6 -6 -10.5 -11.5t-8.5 -11.5 q-2 -4 -6 -9t-8 -11q-16 -23 -27 -41l-26 -45l-19 -33l-8 -16h-2l-14 -15q-4 -6 -8.5 -10t-10.5 -10l-18 -17l-10 -8l-7 -4l-4 -2l-4 -4h-6h-4l6 10l6 10q0 2 2 4q4 8 8.5 14.5t10.5 12.5q4 6 8 13.5t8 15.5l15 20l8 13q2 4 3 5t3 5l2 2l2 2q0 2 1 2t1 2q6 4 4 8q0 2 -6 2 l-10 -4l-10 -6l-19 -12q-8 -8 -14 -13q0 6 -2 11q0 2 -6 6q-12 2 -21 0q-16 -4 -22 -8q-8 -4 -13.5 -6.5t-11.5 -6.5q-8 -6 -18 -16q-27 -18 -37 -39q-14 -16 -21 -37h-4q-4 -6 -16 -18q-6 -4 -11.5 -8.5t-11.5 -8.5q-2 -4 -12 -8q-4 -4 -10 -4h-2q-2 2 0 4l6 8l6 11l12 14 l21 27q4 6 9 13t9 15l8 17q4 10 2 16q0 6 -2 6q0 4 -6 4t-8 -2l-12 -4l-13 -8q-4 -2 -10 -8q-4 -4 -6 -5t-4 -4q-8 -8 -12 -8l-21 -22q-4 -4 -9 -9.5t-9 -9.5l-11 -12l-10 -10l2 4l25 35l26 37q0 2 1.5 2t1.5 2q2 2 2 4q2 2 2 6l-7 6q-2 0 -3 1t-3 1t-4 -1t-6 -1l-10 -6 l-4 -4q-4 -2 -4 -4t-2 -4l-5 -7l-77 -133q-2 -2 -2 -4v-2zM1083 55q0 6 1 11.5t3 11.5q2 10 11 18q10 10 20 15q6 4 25 4q16 0 24 -4q4 -4 8.5 -5.5t8.5 -5.5t6 -9t6 -11q4 -12 4 -25q0 -16 -8 -30q-2 -8 -18 -21q-10 -8 -31 -8q-20 0 -35 8q-6 4 -10 10t-8 13q-6 12 -7 28z M1114 55q0 -8 2 -13t4 -9q4 -10 23 -10q16 0 20 10q6 6 6 22q0 14 -6 25q-6 10 -20 10q-16 0 -23 -10q-2 -4 -4 -10.5t-2 -14.5zM1128 -170q1 16 11 41q12 16 39 16q10 0 22 -4q8 -2 17 -14q4 -6 7 -11t3 -12h-31q0 4 -4 13q-6 6 -12 6q-10 0 -17 -10q-8 -6 -8 -21 q0 -6 1 -10t1 -8q4 -4 5 -6.5t3 -4.5q4 -4 13 -4q8 0 12 4q6 2 6 13h27q0 -10 -6 -23q-4 -4 -7.5 -7t-7.5 -5q-12 -6 -24 -6q-23 0 -35 12q-6 2 -10 16q-4 12 -5 25zM1167 627h107v41h-2q-4 -4 -4 -6.5t-2 -6.5q-4 -4 -4 -8q-2 -2 -2 -3t-3 -3q-8 -8 -12 -10q-2 0 -6 -1 t-8 -1h-25v73q0 10 6 11q2 4 13 4h6v4h-64v-4h4q16 0 17 -15v-57q0 -16 -17 -16h-4v-2zM1221 -2v115h28v-17q12 18 35 19q14 0 21 -4l14 -13q4 -12 4 -20v-80h-29v70q0 8 -4 16q-6 6 -16 6q-12 0 -19 -8q-4 -4 -4 -19v-65h-30zM1237 -166q0 9 4 25q6 14 16 20q10 8 29 8 q20 0 29 -8q10 -6 14 -22q6 -12 6 -27v-6h-71q0 -12 6 -19q6 -6 16 -6q6 0 14 4q4 4 7 9h26q-4 -16 -10 -21q-8 -8 -14 -10q-12 -4 -23 -4q-49 0 -49 57zM1264 -158h43q0 10 -7 17q-4 2 -7 4t-9 2q-16 0 -20 -23zM1266 963l2 2q0 2 2 4q4 8 6 10l8 10q2 8 6 12q2 4 8 11 l19 24l26 33l7 8l8 6l8 7q2 2 8 2q4 2 8 2l7 -4q0 -2 1 -3.5t1 -3.5q0 -4 -2 -8q0 -2 -5 -6l-16 -22l-12 -23l-17 -14l-16 -19q-2 -2 -4 -3t-6 -5l-13 -10q-2 -2 -4 -3t-6 -5q-4 0 -5 -2t-5 -2q-8 -4 -10 -3h-2q-2 2 -2 5zM1268 717h2q10 0 14 -2l4 -4t4 -6l29 -39v-21 q0 -10 -2 -12q-8 -4 -14 -4h-7v-2h68v2h-8q-8 0 -12 4t-5 12v23l25 34l4 7q8 4 10 4q0 2 4 2q2 0 3.5 1t3.5 1h2v4h-47v-4h6q8 0 10 -2q4 -2 4 -6t-6 -11l-19 -26l-24 30q-4 8 -4 9v2q0 2 2 2q0 2 6 2h8v4h-61v-4zM1337 92v21h19v28h26v-28h21v-21h-21v-61v-6q0 -2 2 -2 q4 0 5.5 -1.5t5.5 -1.5l4 3h4v-25h-21q-14 0 -16 4q-8 0 -10 8v82h-19zM1352 -190h30v-31h-30v31zM1401 -170q0 16 10 41q12 16 39 16q10 0 23 -4q6 -2 18 -14q8 -10 8 -23h-29l-6 13q-6 6 -12 6q-10 0 -16 -10q-6 -6 -6 -21q0 -6 1 -10t1 -8q4 -8 8 -11q2 -4 10 -4 q10 0 12 4q6 2 6 13h31q-4 -12 -8 -23q-4 -4 -8 -7t-8 -5q-10 -6 -25 -6q-20 0 -35 12q-6 2 -10 16q-4 12 -4 25zM1473 31q0 16 8 24q16 8 24 11l27 4q10 0 10 8q0 14 -18 14q-8 0 -13 -4q-6 -2 -8 -14h-26q0 14 6 24q4 6 16 13q4 4 12 4h13q25 0 32 -4l7.5 -7.5t5.5 -7.5 t2 -14v-72q0 -6 8 -6v-6h-33q-2 0 -2 2v2v2q0 4 -1 5t-1 3l-8 -8q-2 -2 -3 -2t-3 -2t-4 -2q-6 0 -9.5 -1t-7.5 -1t-8 1t-8 1q-4 4 -7 6t-7 6q-4 8 -4 21zM1501 31q0 -8 4 -8q4 -4 11 -5h8l4 2q10 4 10 7q4 8 4 14v14q-6 -6 -12 -6l-14 -4q-6 0 -11 -4q-4 -2 -4 -10z M1511 -168q0 13 2 21q4 12 11 18q6 8 16 12q12 4 25 4q10 0 22 -4l8 -4t9 -6q4 -4 5 -9t5 -9q2 -6 2 -23q0 -16 -6 -29q-4 -14 -17 -20q-12 -6 -28 -6q-20 0 -31 8q-12 6 -18 20q-4 16 -5 27zM1538 -168q0 -14 6 -22q2 -4 8.5 -6.5t12.5 -2.5q16 0 18 9q6 8 6 22q0 13 -6 23 q-4 10 -18 10q-16 0 -21 -10q-6 -10 -6 -23zM1567 1167l28 37l13 23l26 35l2 2q0 4 4 4q0 2 2 2q0 -8 -2 -10l-8 -11l-6 -10q-2 -2 -3 -4t-3 -4l-16 -21l-19 -20l-10 -12q-4 -8 -8 -11zM1585 92v21h14v28h33v-28h19v-21h-19v-61v-8q2 0 4 -1.5t6 -1.5l5 3h4v-25h-19 q-14 0 -20 4q-6 0 -8 8q0 2 -2.5 5t-2.5 8v69h-14zM1636 -115h27v-16q8 18 31 18q8 0 16 -4q6 -4 12 -12q2 8 11 12q8 4 16 4q10 0 23 -4q8 -8 10 -14q4 -8 4 -19v-71h-27v63q0 23 -16 23q-18 0 -19 -23v-63h-26v63v11q0 4 -4 8t-15 4q-16 0 -16 -23v-63h-27v106z" />
<glyph unicode="3" d="M70 -193q0 17 8 23q10 10 20 10l27 4q10 0 10 6q0 16 -16 17q-10 0 -13 -6q-8 -2 -8 -11h-24q0 14 6 21q2 8 12 12q4 2 14 2q4 2 13 2q14 0 26 -4q8 -6 13 -12q2 -4 2 -14v-56q0 -10 2 -12q0 -2 4 -6v-4h-29v2v4q-2 2 -2 6l-8 -8q-4 -2 -6 -2t-4 -2q-4 -2 -13 -2 q-12 0 -18 2q-6 4 -10 10q-6 6 -6 18zM96 -190q0 -4 4 -9q4 -2 6.5 -4t4.5 -2q4 0 6 4h4q8 4 10 6q4 8 4 13v12q-2 0 -10 -4l-12 -2q-4 0 -13 -4q-4 -4 -4 -10zM125 565v494l268 59l-10 37l41 12l-8 39l41 8l-6 46l41 2v41h36l4 36l39 -6l9 41l43 -6l10 39l39 -10l16 37 l39 -17l23 39l34 -18l23 35l37 -25l24 33l35 -27l27 29l26 -25l27 23l27 -29l34 23l23 -37l39 20l18 -35l37 17l17 -41l43 12l12 -39l39 10l8 -43l43 4l2 -26l404 88v-496l-185 -41l4 -2l-24 -26l24 -29l-32 -27l22 -34l-37 -23l23 -37l-35 -20l14 -37l-39 -17l13 -43 l-37 -12l6 -39l-41 -8l2 -43l-39 -4v-39h-35l-6 -37l-39 2l-8 -37l-43 6l-10 -40l-39 12l-14 -39l-44 16l-18 -39l-37 21l-22 -35l-37 23l-25 -33l-30 26l-31 -26l-27 24l-26 -24l-25 31l-35 -23l-24 37l-37 -21l-19 35l-39 -16l-18 41l-39 -13l-12 37l-41 -8l-8 43l-43 -4 l-5 41h-40v35l-35 4l4 41l-41 6l8 43l-41 12l12 37l-28 12zM186 -115h25v-18h2q4 8 6 10t3 4t5 4q2 2 15 2h2h4v-28h-8q-27 0 -27 -25v-55h-27v106zM236 76v16q0 4 2 7t2 7q2 12 14 25q4 6 10 10t12 9q14 6 33 6h6q4 0 8.5 -1t8.5 -1q8 0 14 -7q14 -8 21 -18q4 -4 8 -12 q0 -2 1 -3t1 -3v-5h-33v3q0 2 -4 6q-2 4 -4 5t-6 5q-6 4 -19 4h-8h-6l-14 -12q-10 -6 -11 -15q-4 -8 -4 -28q0 -8 1 -14.5t3 -14.5q2 -10 13 -14q6 -4 10 -6t10 -2h4q12 0 19 4q4 0 7 3l5 5q4 6 6 10t2 10h-37v27h66v-84h-21l-4 20q-6 -8 -14 -14q-4 -4 -9 -5t-10 -3 q-4 0 -9 -1t-9 -1q-12 0 -25 6q-14 6 -20 16q-8 6 -16 27q-4 10 -4 33zM236 702h10l8 5l10 10l8 10l11 10q4 8 8 13l63 86l19 30l20 31q6 8 11.5 15.5t9.5 15.5q4 10 8 17t8 16q2 4 0 6t-4 2q-8 0 -10 -2l-8 -4l-17 -21l-16 -20q-6 -6 -15 -19l-16 -20l-55 -80l-27 -41 q-6 -10 -11 -21.5t-11 -21.5l-4 -6v-4v-4v-3zM262 -78h29v-24h-29v24zM262 -115h29v-106h-29v106zM276 889q2 -4 4.5 -6t6.5 -6l18 -7q14 0 23 2q4 0 4 2q2 2 2 5q0 2 -2 2h-4q-4 0 -4 -2q-14 -2 -29 2q-8 4 -10 8q0 4 -1 5t-1 5q0 6 2 12l6 15l16 18q4 4 10.5 8t12.5 9 q6 4 11 7t13 7l25 12q8 0 14 2t15 6l28 4q16 4 27 5q6 0 22 -5q10 0 15 -6l10 -12v-16q0 -12 -2 -21l-10 -18q-4 -6 -7.5 -11.5t-7.5 -9.5q-4 -6 -9 -10t-11 -10q-4 -6 -21 -19l-22 -14l-25 -10l-14 -6q-2 0 -5 -1t-7 -1h-4q-4 0 -7 -3q-2 0 -2 -2q-4 0 -4 -4q0 -2 2 -2h4 q4 0 7 2h4l26 9l27 12l27 10l26 16l23 17l20 18l17 21q4 4 7 9t5 11q4 12 4 19q2 10 0 18q-2 4 -3 7t-3 7q-6 6 -15 11q-6 2 -10 3t-10 1q-8 2 -23 2q-8 0 -24 -4q-14 0 -27.5 -4t-29.5 -9q-29 -8 -54 -22q-6 -4 -13 -7t-13 -7t-12.5 -8.5t-10.5 -10.5l-9 -9l-9 -9l-9 -21 q-4 -10 0 -16zM317 -115h25v-16q12 18 33 18q8 0 20 -4q6 -4 13 -12q4 -8 4 -21v-71h-29v63q0 12 -2 15q-4 8 -16 8q-8 0 -17 -8q-4 -12 -4 -17v-61h-27v106zM395 57q0 20 6 29q4 14 17 20q8 6 15 7.5t18 1.5q23 0 28 -9q12 -6 19 -22q4 -10 4 -31v-8h-78q0 -6 8 -18 q6 -6 19 -7q4 0 7 1.5t5 1.5q8 8 8 10h31q-6 -12 -10 -21q-4 -4 -8.5 -7t-8.5 -5l-12 -3t-12 -1q-55 0 -56 61zM428 68h45q-4 12 -8 16q-8 8 -14 8q-23 0 -23 -24zM430 -166q0 6 2 12.5t4 12.5q6 14 15 20q8 8 24 8q6 0 19 -4l7 -7t5 -7l2 16h24v-100q0 -10 -4 -27 q-6 -10 -16 -14q-12 -6 -33 -6q-4 0 -9 1t-9 1q-6 2 -19 10q-4 4 -4 8q-2 4 -2 11h27q2 -4 6 -9q2 -2 12 -2q12 0 15 2q8 6 8 9q0 2 1 3t1 3v6v12q-12 -14 -29 -14q-6 0 -11 1t-11 3q-10 8 -17 20q-4 6 -6 13.5t-2 17.5zM461 -168q0 -8 2 -14q0 -4 6 -11q8 -4 12 -4 q25 0 25 29q0 14 -8 23q-4 4 -8.5 7t-8.5 3q-8 0 -14 -10q-6 -6 -6 -23zM498 717q20 0 20 -15v-49q0 -8 10 -22l17 -4q4 -2 18 -2q12 0 25 4q8 4 10 6q8 6 8 22v50l10 8l2 2h9v4h-47v-4h10q2 0 4 -2q12 -4 12 -23v-33q0 -12 -10 -22l-12 -8h-15q-12 0 -18 2q-2 0 -10 8 q-4 4 -4 14v49q0 10 4 11q4 4 14 4h6v4h-63v-4zM510 92v21h16v28h31v-28h16v-21h-16v-61q0 -8 2 -8q0 -2 2 -3h8l2 3h2v-25h-16q-14 0 -20 4q-6 0 -9 8q-2 2 -2 13v69h-16zM510 821q2 -8 10 -12q10 -10 23 -6q14 0 26 6q10 2 17.5 6t15.5 8t15.5 9.5t15.5 13.5l24 20l15 15 q0 2 4 6q0 2 2 4l4 6l16 16l15 21q6 4 10 10t8 10l6 -2l4 -6q0 -2 2 -4v-2q0 -2 -2 -4t-4 -6l-16 -17l-14 -20l-13 -19l-4 -18q-2 -2 -2 -8v-6l4 -8h8q10 0 17 2l16 10q4 4 10.5 8t10.5 10q6 4 10 8.5t8 8.5q2 4 4 6t4 6l8 10l5 4l4 6q4 4 4 5l12 16l21 31q0 -4 1 -7.5 t1 -7.5q4 -12 4 -14l4 -8q-16 -4 -25 -13l-20 -14q-4 -4 -7.5 -9t-5.5 -9q-2 -6 -2 -17q0 -6 11 -10h18q12 0 25 8q16 8 22 17q6 4 9 8t8 8l8 18q6 8 6 19v16q0 6 -4 15l-6 16l-7 6q0 4 -4 8q0 2 -2 4v7v4h-8l-4 -4q-4 -2 -6 -4.5t-6 -4.5l-4 -12l-2 -2l-4 -6l-33 -45l-4 -6 l-6 -11h-3v-2q-2 0 -4 -2l-4 -8l-6 -8l-14 -18l-23 -21q-4 -4 -12 -6q-4 -4 -12 -4v2l8 10l6 10l8 11q4 4 6 8l9 14l10 14l4 15q2 6 2 14q-2 2 -2 8l-2 4q0 4 -2 7v22l6 10q4 6 -4 13q-4 6 -17 0q-10 -2 -16 -9q-6 -2 -10 -12q-4 -4 -4 -10q0 -8 2 -12l4 -2l4 -5l-6 -6 l-6 -6l-23 -31l-20 -22q-4 0 -4 -4v-2l-2 -2q0 -2 -2 -2l-11 -15q-8 -6 -14 -12t-14 -10q-12 -12 -33 -23q-12 -4 -21 -8q-12 -4 -18 -2q-6 0 -6 4q-2 2 -2 6q0 2 4 11l2 8l10 16q4 -2 12 -2h19q10 2 26 12q6 2 11.5 6.5t13.5 8.5l14 16q4 4 7.5 8t3.5 8l8 13q0 12 -4 14 q-4 8 -8 10h-19h-9t-9 -4q-4 -2 -10.5 -4t-10.5 -4q-27 -14 -45 -29q-18 -16 -29 -34q-4 -4 -6 -9.5t-6 -11.5q-6 -8 -8 -18v-17zM545 -115h14v27h29v-27h16v-20h-16v-55q0 -6 2 -9q0 -2 2 -2h6l4 2h2v-22h-6h-6h-4q-12 0 -17 2q-10 4 -10 8q-2 2 -2 12v64h-14v20zM567 870 l15 23l18 20l6 9q4 4 6 5t4 3l11 10l12 4q8 2 14 0v-10l-6 -8q-6 -6 -6 -11q-4 -4 -5 -6t-5 -4q0 -2 -8 -10q-2 -2 -3.5 -4t-5.5 -4q-4 -4 -6 -5t-4 -3l-12 -9q-6 -2 -12 -2q-10 0 -13 2zM610 -115h33l21 -78l20 78h31l-35 -102l-2 -2l-8 -23q-4 -10 -6 -12q-6 -6 -11 -6 q-4 0 -7 -1t-7 -1h-6h-8v22h8h8q2 0 6 4v5q2 2 2 6l-37 102zM639 694q0 -2 4 -10q0 -6 6 -6l13 -6q2 -2 20 -6l8 -2q8 -4 12 -5q4 0 9 -4q2 0 2 -2q6 -4 6 -10l-4 -8q-2 -4 -8 -6h-11q-10 0 -16 2l-16 6l-11 10q-10 10 -10 21h-2v-43h2q0 6 4 6q4 4 8 4q2 0 2 -1t5 -1 q2 0 3 -1t3 -1l14 -4q4 -2 14 -2q4 0 17 4q2 0 12 6q2 2 2 4t4 4v21l-6 6q-2 4 -12 8l-17 6h-10l-2 2q-4 2 -8 2t-6 2q-6 0 -8 2q-2 0 -7 4q-2 0 -2 4v2v9l4 4l9 4q2 0 4 1t6 1q6 0 14 -4q8 0 12 -4q8 -4 11 -8q4 -2 5 -7.5t5 -9.5h2v31h-2q-2 -6 -8 -6h-8q-16 10 -31 10 q-8 0 -21 -4l-12 -8q-2 -4 -3 -7.5t-1 -9.5zM641 92v21h14v8q0 33 35 33h15v-25h-9h-6q-4 0 -4 -4v-12h19v-21h-19v-94h-31v94h-14zM723 37v76h29v-70q0 -20 20 -20h10l11 10q0 2 2 5t2 7v68h26v-115h-26v16q-6 -8 -15 -12q-12 -6 -20 -6q-20 0 -29 12q-10 8 -10 29z M731 -115h25v-16h4q2 0 4 2l8 8q4 4 8 6q2 2 8 2q10 0 17 -4q8 -4 12 -8q8 -8 10 -20q6 -10 7 -23q0 -4 -1.5 -6t-1.5 -6t-2 -6t-4 -7q-4 -16 -12 -22q-10 -8 -25 -8q-10 0 -14 2t-8 6q-2 2 -6 2l-2 4v-51h-27v100v45zM741 627h103v39q-4 -4 -4 -7.5t-2 -5.5l-11 -14 q-6 -6 -8 -6l-10 -2q-4 -2 -12 -2h-15v41h2q8 0 19 -6l4 -7q0 -2 1 -3t1 -3v-8h2v59h-2v-8l-4 -10q-10 -10 -19 -10h-4v43h17q16 0 22 -2l8 -6l5 -11l6 -14h4v37h-103v-4h4q8 0 11 -4q6 0 6 -11v-57q0 -16 -17 -16h-4v-2zM756 -170q0 -14 8 -20q6 -8 16 -9q12 0 19 9 q4 12 4 22t-4 23q-4 4 -8.5 7t-10.5 3q-25 0 -24 -35zM793 868v9l4 10l6 8q8 10 18 18l23 11q0 -4 1 -6.5t1 -4.5q-2 -4 -2 -8v-12l-4 -8q-2 -4 -4 -5t-5 -6l-8 -6q-2 0 -3 -1t-5 -1q-2 -2 -8 -2q-4 -4 -8 0q-2 0 -6 4zM844 -166q0 17 4 25q6 14 16 20q10 8 27 8q23 0 31 -8 q10 -6 16 -22q4 -16 4 -27v-6h-72q0 -12 7 -19q6 -6 16 -6q6 0 14 4q4 4 6 9h27q-4 -16 -8 -21q-4 -4 -8 -6t-9 -4q-12 -4 -22 -4q-49 0 -49 57zM852 -2v156h29v-156h-29zM870 -158h43q0 10 -6 17q-4 2 -7 4t-9 2q-16 0 -21 -23zM903 -2v156h29v-156h-29zM905 674 q0 -14 4 -21q4 -4 6.5 -7t6.5 -7q6 -6 18 -10q6 -2 11 -3t12 -1q16 0 26 6q8 4 13.5 9t9.5 9q6 8 6 25q0 10 -4 16q-4 12 -10 17q-4 6 -19 10q-12 6 -22 6q-20 0 -29 -8q-8 -2 -12 -7.5t-9 -9.5q-8 -10 -8 -24zM915 901q0 -8 5 -8q4 -4 6 -5t4 -3h10h12q8 2 14.5 4t12.5 4 l27 14l22 21l19 16l14 21l10 16l6 18q4 10 0 15q0 6 -6 10q0 4 -10 8q-2 0 -6 1t-8 1q-6 0 -19 -4q-4 0 -6 -1l-6 -3l-12 -4l-25 -16q-6 -4 -11 -9.5t-12 -9.5l-16 -18l-12 -19q-10 -16 -13 -26v-23zM928 674q0 4 1 8t1 8l6 12q2 2 3 5.5t3 5.5t4 2t6 2q4 4 13 4q0 -2 2 -2 h4l6 -4l10 -8q0 -4 2 -7.5t4 -9.5q0 -2 1 -7t1 -9q0 -12 -4 -25q-4 -4 -6 -9t-6 -9q-4 -2 -16 -2q-10 0 -13 2q-8 0 -12 10l-6 12q-4 12 -4 21zM940 895v8v4q4 14 10 21q4 6 7.5 11t7.5 11l10 13l8 10l16 20l9.5 9.5l9.5 9.5l8 8l10 4q4 2 11 2l4 -2q2 -2 2 -8q0 -2 -4 -10 l-5 -9l-6 -10q-4 -8 -6 -10l-8 -12l-12 -19l-17 -18l-20 -21q0 -2 -10 -6q-2 -4 -13 -8h-8q-4 0 -4 2zM948 -115h17v9q0 29 30 28h13v-22h-7h-6l-2 -2l-2 -9v-4h19v-20h-19v-86h-26v86h-17v20zM1010 92v21h14v8q0 33 35 33h12v-25h-6h-6q-2 0 -4 -4v-12h20v-21h-20v-94h-31 v94h-14zM1018 -193q0 17 10 23q10 10 21 10l24 4q8 0 8 6q0 16 -14 17q-10 0 -12 -6q-6 -4 -6 -11h-27q0 14 6 21q6 10 14 12q4 2 11 2q4 2 14 2t16.5 -1t12.5 -3q8 -6 12 -12q2 -4 2 -14v-56q0 -10 2 -12q0 -2 4 -6v-4h-31v2q0 2 -1 2t-1 2v6q-4 -2 -5 -4t-3 -4 q-4 -2 -6 -2t-4 -2q-4 -2 -14 -2q-8 0 -15 2q-4 2 -7 4t-7 6q-4 8 -4 18zM1032 627h49v2q-6 0 -10 2h-8l-4 10q-2 2 -2 12v56l80 -82h4v65q0 8 1 12.5t3 8.5q4 4 16 4v4h-47v-4h8q0 -2 4 -2q6 -4 7 -8q4 -4 4 -15v-39l-66 68h-37v-4q8 0 10 -2q2 0 3.5 -1t3.5 -1q2 -4 2 -11 v-53q0 -6 -2 -10t-7 -8q-4 0 -7 -1t-5 -1v-2zM1047 -190q0 -4 4 -9q6 -6 8 -6q4 0 6 4h4q4 2 5 3t5 3q2 4 2 13v12l-8 -4l-14 -2q-4 0 -8 -4t-4 -10zM1051 905q2 0 3 -1t3 -1q4 0 8 2l8 4q0 2 4 6q2 0 2 1.5t2 1.5l4 6q0 4 5 4l16 22l20 21l17 20l22 21l21 20l8 8q4 2 10 9 l10 8l13 4q2 0 2 -2h-2l-4 -4q-2 -6 -9 -8l-4 -7l-12 -14q-4 -4 -6 -7t-6 -7q-10 -12 -15 -23l-14 -20q-2 -4 -3 -9.5t-3 -9.5q-4 -10 0 -16q2 -6 8 -6h19q4 2 9 5t13 7q12 8 19 14l20 21l2 2q-2 -2 -2 -6q0 -6 4 -15q2 -4 10 -8q6 -2 21 2q12 2 24 13l21 14l7 7l7 7l13 13 v-5q0 -2 -1.5 -3t-1.5 -3v-6q-4 -6 0 -10q0 -2 1.5 -3t1.5 -3q0 -6 6 -6h6h10l6 4l8 6l13 6l32 27l17 16l-4 -12q-4 -6 -4 -19v-6q2 0 4 -2q0 -2 6 -2q4 0 8 4q8 0 12 6l11 6l12 13q2 0 10 8l9 9t10 9l18 21v4q0 2 -2 2q-4 0 -8 -4l-2 -4l-13 -15l-10 -12q-10 -6 -12 -12 l-14 -12l-9 -7l-8 -2l-2 -2q-2 0 -4 2h2l8 15q4 8 8 12l7 12q4 2 8 11l63 92q10 10 13 16l16 16l37 43q10 10 17 20.5t16 20.5l10 19v8q-2 2 -8 2q-2 0 -11 -4q-4 0 -6 -2t-6 -4q-4 0 -10 -6l-8 -6q-6 -4 -11.5 -9.5t-11.5 -9.5l-16 -18q-6 -6 -10.5 -11.5t-8.5 -11.5 q-2 -4 -6 -9t-8 -11q-16 -23 -27 -41l-26 -45l-19 -33l-8 -16h-2l-14 -15q-4 -6 -8.5 -10t-10.5 -10l-18 -17l-10 -8l-7 -4l-4 -2l-4 -4h-6h-4l6 10l6 10q0 2 2 4q4 8 8.5 14.5t10.5 12.5q4 6 8 13.5t8 15.5l15 20l8 13q2 4 3 5t3 5l2 2l2 2q0 2 1 2t1 2q6 4 4 8q0 2 -6 2 l-10 -4l-10 -6l-19 -12q-8 -8 -14 -13q0 6 -2 11q0 2 -6 6q-12 2 -21 0q-16 -4 -22 -8q-8 -4 -13.5 -6.5t-11.5 -6.5q-8 -6 -18 -16q-27 -18 -37 -39q-14 -16 -21 -37h-4q-4 -6 -16 -18q-6 -4 -11.5 -8.5t-11.5 -8.5q-2 -4 -12 -8q-4 -4 -10 -4h-2q-2 2 0 4l6 8l6 11l12 14 l21 27q4 6 9 13t9 15l8 17q4 10 2 16q0 6 -2 6q0 4 -6 4t-8 -2l-12 -4l-13 -8q-4 -2 -10 -8q-4 -4 -6 -5t-4 -4q-8 -8 -12 -8l-21 -22q-4 -4 -9 -9.5t-9 -9.5l-11 -12l-10 -10l2 4l25 35l26 37q0 2 1.5 2t1.5 2q2 2 2 4q2 2 2 6l-7 6q-2 0 -3 1t-3 1t-4 -1t-6 -1l-10 -6 l-4 -4q-4 -2 -4 -4t-2 -4l-5 -7l-77 -133q-2 -2 -2 -4v-2zM1083 55q0 6 1 11.5t3 11.5q2 10 11 18q10 10 20 15q6 4 25 4q16 0 24 -4q4 -4 8.5 -5.5t8.5 -5.5t6 -9t6 -11q4 -12 4 -25q0 -16 -8 -30q-2 -8 -18 -21q-10 -8 -31 -8q-20 0 -35 8q-6 4 -10 10t-8 13q-6 12 -7 28z M1114 55q0 -8 2 -13t4 -9q4 -10 23 -10q16 0 20 10q6 6 6 22q0 14 -6 25q-6 10 -20 10q-16 0 -23 -10q-2 -4 -4 -10.5t-2 -14.5zM1128 -170q1 16 11 41q12 16 39 16q10 0 22 -4q8 -2 17 -14q4 -6 7 -11t3 -12h-31q0 4 -4 13q-6 6 -12 6q-10 0 -17 -10q-8 -6 -8 -21 q0 -6 1 -10t1 -8q4 -4 5 -6.5t3 -4.5q4 -4 13 -4q8 0 12 4q6 2 6 13h27q0 -10 -6 -23q-4 -4 -7.5 -7t-7.5 -5q-12 -6 -24 -6q-23 0 -35 12q-6 2 -10 16q-4 12 -5 25zM1167 627h107v41h-2q-4 -4 -4 -6.5t-2 -6.5q-4 -4 -4 -8q-2 -2 -2 -3t-3 -3q-8 -8 -12 -10q-2 0 -6 -1 t-8 -1h-25v73q0 10 6 11q2 4 13 4h6v4h-64v-4h4q16 0 17 -15v-57q0 -16 -17 -16h-4v-2zM1221 -2v115h28v-17q12 18 35 19q14 0 21 -4l14 -13q4 -12 4 -20v-80h-29v70q0 8 -4 16q-6 6 -16 6q-12 0 -19 -8q-4 -4 -4 -19v-65h-30zM1237 -166q0 9 4 25q6 14 16 20q10 8 29 8 q20 0 29 -8q10 -6 14 -22q6 -12 6 -27v-6h-71q0 -12 6 -19q6 -6 16 -6q6 0 14 4q4 4 7 9h26q-4 -16 -10 -21q-8 -8 -14 -10q-12 -4 -23 -4q-49 0 -49 57zM1264 -158h43q0 10 -7 17q-4 2 -7 4t-9 2q-16 0 -20 -23zM1266 963l2 2q0 2 2 4q4 8 6 10l8 10q2 8 6 12q2 4 8 11 l19 24l26 33l7 8l8 6l8 7q2 2 8 2q4 2 8 2l7 -4q0 -2 1 -3.5t1 -3.5q0 -4 -2 -8q0 -2 -5 -6l-16 -22l-12 -23l-17 -14l-16 -19q-2 -2 -4 -3t-6 -5l-13 -10q-2 -2 -4 -3t-6 -5q-4 0 -5 -2t-5 -2q-8 -4 -10 -3h-2q-2 2 -2 5zM1268 717h2q10 0 14 -2l4 -4t4 -6l29 -39v-21 q0 -10 -2 -12q-8 -4 -14 -4h-7v-2h68v2h-8q-8 0 -12 4t-5 12v23l25 34l4 7q8 4 10 4q0 2 4 2q2 0 3.5 1t3.5 1h2v4h-47v-4h6q8 0 10 -2q4 -2 4 -6t-6 -11l-19 -26l-24 30q-4 8 -4 9v2q0 2 2 2q0 2 6 2h8v4h-61v-4zM1337 92v21h19v28h26v-28h21v-21h-21v-61v-6q0 -2 2 -2 q4 0 5.5 -1.5t5.5 -1.5l4 3h4v-25h-21q-14 0 -16 4q-8 0 -10 8v82h-19zM1352 -190h30v-31h-30v31zM1401 -170q0 16 10 41q12 16 39 16q10 0 23 -4q6 -2 18 -14q8 -10 8 -23h-29l-6 13q-6 6 -12 6q-10 0 -16 -10q-6 -6 -6 -21q0 -6 1 -10t1 -8q4 -8 8 -11q2 -4 10 -4 q10 0 12 4q6 2 6 13h31q-4 -12 -8 -23q-4 -4 -8 -7t-8 -5q-10 -6 -25 -6q-20 0 -35 12q-6 2 -10 16q-4 12 -4 25zM1473 31q0 16 8 24q16 8 24 11l27 4q10 0 10 8q0 14 -18 14q-8 0 -13 -4q-6 -2 -8 -14h-26q0 14 6 24q4 6 16 13q4 4 12 4h13q25 0 32 -4l7.5 -7.5t5.5 -7.5 t2 -14v-72q0 -6 8 -6v-6h-33q-2 0 -2 2v2v2q0 4 -1 5t-1 3l-8 -8q-2 -2 -3 -2t-3 -2t-4 -2q-6 0 -9.5 -1t-7.5 -1t-8 1t-8 1q-4 4 -7 6t-7 6q-4 8 -4 21zM1501 31q0 -8 4 -8q4 -4 11 -5h8l4 2q10 4 10 7q4 8 4 14v14q-6 -6 -12 -6l-14 -4q-6 0 -11 -4q-4 -2 -4 -10z M1511 -168q0 13 2 21q4 12 11 18q6 8 16 12q12 4 25 4q10 0 22 -4l8 -4t9 -6q4 -4 5 -9t5 -9q2 -6 2 -23q0 -16 -6 -29q-4 -14 -17 -20q-12 -6 -28 -6q-20 0 -31 8q-12 6 -18 20q-4 16 -5 27zM1538 -168q0 -14 6 -22q2 -4 8.5 -6.5t12.5 -2.5q16 0 18 9q6 8 6 22q0 13 -6 23 q-4 10 -18 10q-16 0 -21 -10q-6 -10 -6 -23zM1567 1167l28 37l13 23l26 35l2 2q0 4 4 4q0 2 2 2q0 -8 -2 -10l-8 -11l-6 -10q-2 -2 -3 -4t-3 -4l-16 -21l-19 -20l-10 -12q-4 -8 -8 -11zM1585 92v21h14v28h33v-28h19v-21h-19v-61v-8q2 0 4 -1.5t6 -1.5l5 3h4v-25h-19 q-14 0 -20 4q-6 0 -8 8q0 2 -2.5 5t-2.5 8v69h-14zM1636 -115h27v-16q8 18 31 18q8 0 16 -4q6 -4 12 -12q2 8 11 12q8 4 16 4q10 0 23 -4q8 -8 10 -14q4 -8 4 -19v-71h-27v63q0 23 -16 23q-18 0 -19 -23v-63h-26v63v11q0 4 -4 8t-15 4q-16 0 -16 -23v-63h-27v106z" />
<glyph unicode="4" d="M70 -193q0 17 8 23q10 10 20 10l27 4q10 0 10 6q0 16 -16 17q-10 0 -13 -6q-8 -2 -8 -11h-24q0 14 6 21q2 8 12 12q4 2 14 2q4 2 13 2q14 0 26 -4q8 -6 13 -12q2 -4 2 -14v-56q0 -10 2 -12q0 -2 4 -6v-4h-29v2v4q-2 2 -2 6l-8 -8q-4 -2 -6 -2t-4 -2q-4 -2 -13 -2 q-12 0 -18 2q-6 4 -10 10q-6 6 -6 18zM96 -190q0 -4 4 -9q4 -2 6.5 -4t4.5 -2q4 0 6 4h4q8 4 10 6q4 8 4 13v12q-2 0 -10 -4l-12 -2q-4 0 -13 -4q-4 -4 -4 -10zM125 565v494l268 59l-10 37l41 12l-8 39l41 8l-6 46l41 2v41h36l4 36l39 -6l9 41l43 -6l10 39l39 -10l16 37 l39 -17l23 39l34 -18l23 35l37 -25l24 33l35 -27l27 29l26 -25l27 23l27 -29l34 23l23 -37l39 20l18 -35l37 17l17 -41l43 12l12 -39l39 10l8 -43l43 4l2 -26l404 88v-496l-185 -41l4 -2l-24 -26l24 -29l-32 -27l22 -34l-37 -23l23 -37l-35 -20l14 -37l-39 -17l13 -43 l-37 -12l6 -39l-41 -8l2 -43l-39 -4v-39h-35l-6 -37l-39 2l-8 -37l-43 6l-10 -40l-39 12l-14 -39l-44 16l-18 -39l-37 21l-22 -35l-37 23l-25 -33l-30 26l-31 -26l-27 24l-26 -24l-25 31l-35 -23l-24 37l-37 -21l-19 35l-39 -16l-18 41l-39 -13l-12 37l-41 -8l-8 43l-43 -4 l-5 41h-40v35l-35 4l4 41l-41 6l8 43l-41 12l12 37l-28 12zM186 -115h25v-18h2q4 8 6 10t3 4t5 4q2 2 15 2h2h4v-28h-8q-27 0 -27 -25v-55h-27v106zM236 76v16q0 4 2 7t2 7q2 12 14 25q4 6 10 10t12 9q14 6 33 6h6q4 0 8.5 -1t8.5 -1q8 0 14 -7q14 -8 21 -18q4 -4 8 -12 q0 -2 1 -3t1 -3v-5h-33v3q0 2 -4 6q-2 4 -4 5t-6 5q-6 4 -19 4h-8h-6l-14 -12q-10 -6 -11 -15q-4 -8 -4 -28q0 -8 1 -14.5t3 -14.5q2 -10 13 -14q6 -4 10 -6t10 -2h4q12 0 19 4q4 0 7 3l5 5q4 6 6 10t2 10h-37v27h66v-84h-21l-4 20q-6 -8 -14 -14q-4 -4 -9 -5t-10 -3 q-4 0 -9 -1t-9 -1q-12 0 -25 6q-14 6 -20 16q-8 6 -16 27q-4 10 -4 33zM236 702h10l8 5l10 10l8 10l11 10q4 8 8 13l63 86l19 30l20 31q6 8 11.5 15.5t9.5 15.5q4 10 8 17t8 16q2 4 0 6t-4 2q-8 0 -10 -2l-8 -4l-17 -21l-16 -20q-6 -6 -15 -19l-16 -20l-55 -80l-27 -41 q-6 -10 -11 -21.5t-11 -21.5l-4 -6v-4v-4v-3zM262 -78h29v-24h-29v24zM262 -115h29v-106h-29v106zM276 889q2 -4 4.5 -6t6.5 -6l18 -7q14 0 23 2q4 0 4 2q2 2 2 5q0 2 -2 2h-4q-4 0 -4 -2q-14 -2 -29 2q-8 4 -10 8q0 4 -1 5t-1 5q0 6 2 12l6 15l16 18q4 4 10.5 8t12.5 9 q6 4 11 7t13 7l25 12q8 0 14 2t15 6l28 4q16 4 27 5q6 0 22 -5q10 0 15 -6l10 -12v-16q0 -12 -2 -21l-10 -18q-4 -6 -7.5 -11.5t-7.5 -9.5q-4 -6 -9 -10t-11 -10q-4 -6 -21 -19l-22 -14l-25 -10l-14 -6q-2 0 -5 -1t-7 -1h-4q-4 0 -7 -3q-2 0 -2 -2q-4 0 -4 -4q0 -2 2 -2h4 q4 0 7 2h4l26 9l27 12l27 10l26 16l23 17l20 18l17 21q4 4 7 9t5 11q4 12 4 19q2 10 0 18q-2 4 -3 7t-3 7q-6 6 -15 11q-6 2 -10 3t-10 1q-8 2 -23 2q-8 0 -24 -4q-14 0 -27.5 -4t-29.5 -9q-29 -8 -54 -22q-6 -4 -13 -7t-13 -7t-12.5 -8.5t-10.5 -10.5l-9 -9l-9 -9l-9 -21 q-4 -10 0 -16zM317 -115h25v-16q12 18 33 18q8 0 20 -4q6 -4 13 -12q4 -8 4 -21v-71h-29v63q0 12 -2 15q-4 8 -16 8q-8 0 -17 -8q-4 -12 -4 -17v-61h-27v106zM395 57q0 20 6 29q4 14 17 20q8 6 15 7.5t18 1.5q23 0 28 -9q12 -6 19 -22q4 -10 4 -31v-8h-78q0 -6 8 -18 q6 -6 19 -7q4 0 7 1.5t5 1.5q8 8 8 10h31q-6 -12 -10 -21q-4 -4 -8.5 -7t-8.5 -5l-12 -3t-12 -1q-55 0 -56 61zM428 68h45q-4 12 -8 16q-8 8 -14 8q-23 0 -23 -24zM430 -166q0 6 2 12.5t4 12.5q6 14 15 20q8 8 24 8q6 0 19 -4l7 -7t5 -7l2 16h24v-100q0 -10 -4 -27 q-6 -10 -16 -14q-12 -6 -33 -6q-4 0 -9 1t-9 1q-6 2 -19 10q-4 4 -4 8q-2 4 -2 11h27q2 -4 6 -9q2 -2 12 -2q12 0 15 2q8 6 8 9q0 2 1 3t1 3v6v12q-12 -14 -29 -14q-6 0 -11 1t-11 3q-10 8 -17 20q-4 6 -6 13.5t-2 17.5zM461 -168q0 -8 2 -14q0 -4 6 -11q8 -4 12 -4 q25 0 25 29q0 14 -8 23q-4 4 -8.5 7t-8.5 3q-8 0 -14 -10q-6 -6 -6 -23zM498 717q20 0 20 -15v-49q0 -8 10 -22l17 -4q4 -2 18 -2q12 0 25 4q8 4 10 6q8 6 8 22v50l10 8l2 2h9v4h-47v-4h10q2 0 4 -2q12 -4 12 -23v-33q0 -12 -10 -22l-12 -8h-15q-12 0 -18 2q-2 0 -10 8 q-4 4 -4 14v49q0 10 4 11q4 4 14 4h6v4h-63v-4zM510 92v21h16v28h31v-28h16v-21h-16v-61q0 -8 2 -8q0 -2 2 -3h8l2 3h2v-25h-16q-14 0 -20 4q-6 0 -9 8q-2 2 -2 13v69h-16zM510 821q2 -8 10 -12q10 -10 23 -6q14 0 26 6q10 2 17.5 6t15.5 8t15.5 9.5t15.5 13.5l24 20l15 15 q0 2 4 6q0 2 2 4l4 6l16 16l15 21q6 4 10 10t8 10l6 -2l4 -6q0 -2 2 -4v-2q0 -2 -2 -4t-4 -6l-16 -17l-14 -20l-13 -19l-4 -18q-2 -2 -2 -8v-6l4 -8h8q10 0 17 2l16 10q4 4 10.5 8t10.5 10q6 4 10 8.5t8 8.5q2 4 4 6t4 6l8 10l5 4l4 6q4 4 4 5l12 16l21 31q0 -4 1 -7.5 t1 -7.5q4 -12 4 -14l4 -8q-16 -4 -25 -13l-20 -14q-4 -4 -7.5 -9t-5.5 -9q-2 -6 -2 -17q0 -6 11 -10h18q12 0 25 8q16 8 22 17q6 4 9 8t8 8l8 18q6 8 6 19v16q0 6 -4 15l-6 16l-7 6q0 4 -4 8q0 2 -2 4v7v4h-8l-4 -4q-4 -2 -6 -4.5t-6 -4.5l-4 -12l-2 -2l-4 -6l-33 -45l-4 -6 l-6 -11h-3v-2q-2 0 -4 -2l-4 -8l-6 -8l-14 -18l-23 -21q-4 -4 -12 -6q-4 -4 -12 -4v2l8 10l6 10l8 11q4 4 6 8l9 14l10 14l4 15q2 6 2 14q-2 2 -2 8l-2 4q0 4 -2 7v22l6 10q4 6 -4 13q-4 6 -17 0q-10 -2 -16 -9q-6 -2 -10 -12q-4 -4 -4 -10q0 -8 2 -12l4 -2l4 -5l-6 -6 l-6 -6l-23 -31l-20 -22q-4 0 -4 -4v-2l-2 -2q0 -2 -2 -2l-11 -15q-8 -6 -14 -12t-14 -10q-12 -12 -33 -23q-12 -4 -21 -8q-12 -4 -18 -2q-6 0 -6 4q-2 2 -2 6q0 2 4 11l2 8l10 16q4 -2 12 -2h19q10 2 26 12q6 2 11.5 6.5t13.5 8.5l14 16q4 4 7.5 8t3.5 8l8 13q0 12 -4 14 q-4 8 -8 10h-19h-9t-9 -4q-4 -2 -10.5 -4t-10.5 -4q-27 -14 -45 -29q-18 -16 -29 -34q-4 -4 -6 -9.5t-6 -11.5q-6 -8 -8 -18v-17zM545 -115h14v27h29v-27h16v-20h-16v-55q0 -6 2 -9q0 -2 2 -2h6l4 2h2v-22h-6h-6h-4q-12 0 -17 2q-10 4 -10 8q-2 2 -2 12v64h-14v20zM567 870 l15 23l18 20l6 9q4 4 6 5t4 3l11 10l12 4q8 2 14 0v-10l-6 -8q-6 -6 -6 -11q-4 -4 -5 -6t-5 -4q0 -2 -8 -10q-2 -2 -3.5 -4t-5.5 -4q-4 -4 -6 -5t-4 -3l-12 -9q-6 -2 -12 -2q-10 0 -13 2zM610 -115h33l21 -78l20 78h31l-35 -102l-2 -2l-8 -23q-4 -10 -6 -12q-6 -6 -11 -6 q-4 0 -7 -1t-7 -1h-6h-8v22h8h8q2 0 6 4v5q2 2 2 6l-37 102zM639 694q0 -2 4 -10q0 -6 6 -6l13 -6q2 -2 20 -6l8 -2q8 -4 12 -5q4 0 9 -4q2 0 2 -2q6 -4 6 -10l-4 -8q-2 -4 -8 -6h-11q-10 0 -16 2l-16 6l-11 10q-10 10 -10 21h-2v-43h2q0 6 4 6q4 4 8 4q2 0 2 -1t5 -1 q2 0 3 -1t3 -1l14 -4q4 -2 14 -2q4 0 17 4q2 0 12 6q2 2 2 4t4 4v21l-6 6q-2 4 -12 8l-17 6h-10l-2 2q-4 2 -8 2t-6 2q-6 0 -8 2q-2 0 -7 4q-2 0 -2 4v2v9l4 4l9 4q2 0 4 1t6 1q6 0 14 -4q8 0 12 -4q8 -4 11 -8q4 -2 5 -7.5t5 -9.5h2v31h-2q-2 -6 -8 -6h-8q-16 10 -31 10 q-8 0 -21 -4l-12 -8q-2 -4 -3 -7.5t-1 -9.5zM641 92v21h14v8q0 33 35 33h15v-25h-9h-6q-4 0 -4 -4v-12h19v-21h-19v-94h-31v94h-14zM723 37v76h29v-70q0 -20 20 -20h10l11 10q0 2 2 5t2 7v68h26v-115h-26v16q-6 -8 -15 -12q-12 -6 -20 -6q-20 0 -29 12q-10 8 -10 29z M731 -115h25v-16h4q2 0 4 2l8 8q4 4 8 6q2 2 8 2q10 0 17 -4q8 -4 12 -8q8 -8 10 -20q6 -10 7 -23q0 -4 -1.5 -6t-1.5 -6t-2 -6t-4 -7q-4 -16 -12 -22q-10 -8 -25 -8q-10 0 -14 2t-8 6q-2 2 -6 2l-2 4v-51h-27v100v45zM741 627h103v39q-4 -4 -4 -7.5t-2 -5.5l-11 -14 q-6 -6 -8 -6l-10 -2q-4 -2 -12 -2h-15v41h2q8 0 19 -6l4 -7q0 -2 1 -3t1 -3v-8h2v59h-2v-8l-4 -10q-10 -10 -19 -10h-4v43h17q16 0 22 -2l8 -6l5 -11l6 -14h4v37h-103v-4h4q8 0 11 -4q6 0 6 -11v-57q0 -16 -17 -16h-4v-2zM756 -170q0 -14 8 -20q6 -8 16 -9q12 0 19 9 q4 12 4 22t-4 23q-4 4 -8.5 7t-10.5 3q-25 0 -24 -35zM793 868v9l4 10l6 8q8 10 18 18l23 11q0 -4 1 -6.5t1 -4.5q-2 -4 -2 -8v-12l-4 -8q-2 -4 -4 -5t-5 -6l-8 -6q-2 0 -3 -1t-5 -1q-2 -2 -8 -2q-4 -4 -8 0q-2 0 -6 4zM844 -166q0 17 4 25q6 14 16 20q10 8 27 8q23 0 31 -8 q10 -6 16 -22q4 -16 4 -27v-6h-72q0 -12 7 -19q6 -6 16 -6q6 0 14 4q4 4 6 9h27q-4 -16 -8 -21q-4 -4 -8 -6t-9 -4q-12 -4 -22 -4q-49 0 -49 57zM852 -2v156h29v-156h-29zM870 -158h43q0 10 -6 17q-4 2 -7 4t-9 2q-16 0 -21 -23zM903 -2v156h29v-156h-29zM905 674 q0 -14 4 -21q4 -4 6.5 -7t6.5 -7q6 -6 18 -10q6 -2 11 -3t12 -1q16 0 26 6q8 4 13.5 9t9.5 9q6 8 6 25q0 10 -4 16q-4 12 -10 17q-4 6 -19 10q-12 6 -22 6q-20 0 -29 -8q-8 -2 -12 -7.5t-9 -9.5q-8 -10 -8 -24zM915 901q0 -8 5 -8q4 -4 6 -5t4 -3h10h12q8 2 14.5 4t12.5 4 l27 14l22 21l19 16l14 21l10 16l6 18q4 10 0 15q0 6 -6 10q0 4 -10 8q-2 0 -6 1t-8 1q-6 0 -19 -4q-4 0 -6 -1l-6 -3l-12 -4l-25 -16q-6 -4 -11 -9.5t-12 -9.5l-16 -18l-12 -19q-10 -16 -13 -26v-23zM928 674q0 4 1 8t1 8l6 12q2 2 3 5.5t3 5.5t4 2t6 2q4 4 13 4q0 -2 2 -2 h4l6 -4l10 -8q0 -4 2 -7.5t4 -9.5q0 -2 1 -7t1 -9q0 -12 -4 -25q-4 -4 -6 -9t-6 -9q-4 -2 -16 -2q-10 0 -13 2q-8 0 -12 10l-6 12q-4 12 -4 21zM940 895v8v4q4 14 10 21q4 6 7.5 11t7.5 11l10 13l8 10l16 20l9.5 9.5l9.5 9.5l8 8l10 4q4 2 11 2l4 -2q2 -2 2 -8q0 -2 -4 -10 l-5 -9l-6 -10q-4 -8 -6 -10l-8 -12l-12 -19l-17 -18l-20 -21q0 -2 -10 -6q-2 -4 -13 -8h-8q-4 0 -4 2zM948 -115h17v9q0 29 30 28h13v-22h-7h-6l-2 -2l-2 -9v-4h19v-20h-19v-86h-26v86h-17v20zM1010 92v21h14v8q0 33 35 33h12v-25h-6h-6q-2 0 -4 -4v-12h20v-21h-20v-94h-31 v94h-14zM1018 -193q0 17 10 23q10 10 21 10l24 4q8 0 8 6q0 16 -14 17q-10 0 -12 -6q-6 -4 -6 -11h-27q0 14 6 21q6 10 14 12q4 2 11 2q4 2 14 2t16.5 -1t12.5 -3q8 -6 12 -12q2 -4 2 -14v-56q0 -10 2 -12q0 -2 4 -6v-4h-31v2q0 2 -1 2t-1 2v6q-4 -2 -5 -4t-3 -4 q-4 -2 -6 -2t-4 -2q-4 -2 -14 -2q-8 0 -15 2q-4 2 -7 4t-7 6q-4 8 -4 18zM1032 627h49v2q-6 0 -10 2h-8l-4 10q-2 2 -2 12v56l80 -82h4v65q0 8 1 12.5t3 8.5q4 4 16 4v4h-47v-4h8q0 -2 4 -2q6 -4 7 -8q4 -4 4 -15v-39l-66 68h-37v-4q8 0 10 -2q2 0 3.5 -1t3.5 -1q2 -4 2 -11 v-53q0 -6 -2 -10t-7 -8q-4 0 -7 -1t-5 -1v-2zM1047 -190q0 -4 4 -9q6 -6 8 -6q4 0 6 4h4q4 2 5 3t5 3q2 4 2 13v12l-8 -4l-14 -2q-4 0 -8 -4t-4 -10zM1051 905q2 0 3 -1t3 -1q4 0 8 2l8 4q0 2 4 6q2 0 2 1.5t2 1.5l4 6q0 4 5 4l16 22l20 21l17 20l22 21l21 20l8 8q4 2 10 9 l10 8l13 4q2 0 2 -2h-2l-4 -4q-2 -6 -9 -8l-4 -7l-12 -14q-4 -4 -6 -7t-6 -7q-10 -12 -15 -23l-14 -20q-2 -4 -3 -9.5t-3 -9.5q-4 -10 0 -16q2 -6 8 -6h19q4 2 9 5t13 7q12 8 19 14l20 21l2 2q-2 -2 -2 -6q0 -6 4 -15q2 -4 10 -8q6 -2 21 2q12 2 24 13l21 14l7 7l7 7l13 13 v-5q0 -2 -1.5 -3t-1.5 -3v-6q-4 -6 0 -10q0 -2 1.5 -3t1.5 -3q0 -6 6 -6h6h10l6 4l8 6l13 6l32 27l17 16l-4 -12q-4 -6 -4 -19v-6q2 0 4 -2q0 -2 6 -2q4 0 8 4q8 0 12 6l11 6l12 13q2 0 10 8l9 9t10 9l18 21v4q0 2 -2 2q-4 0 -8 -4l-2 -4l-13 -15l-10 -12q-10 -6 -12 -12 l-14 -12l-9 -7l-8 -2l-2 -2q-2 0 -4 2h2l8 15q4 8 8 12l7 12q4 2 8 11l63 92q10 10 13 16l16 16l37 43q10 10 17 20.5t16 20.5l10 19v8q-2 2 -8 2q-2 0 -11 -4q-4 0 -6 -2t-6 -4q-4 0 -10 -6l-8 -6q-6 -4 -11.5 -9.5t-11.5 -9.5l-16 -18q-6 -6 -10.5 -11.5t-8.5 -11.5 q-2 -4 -6 -9t-8 -11q-16 -23 -27 -41l-26 -45l-19 -33l-8 -16h-2l-14 -15q-4 -6 -8.5 -10t-10.5 -10l-18 -17l-10 -8l-7 -4l-4 -2l-4 -4h-6h-4l6 10l6 10q0 2 2 4q4 8 8.5 14.5t10.5 12.5q4 6 8 13.5t8 15.5l15 20l8 13q2 4 3 5t3 5l2 2l2 2q0 2 1 2t1 2q6 4 4 8q0 2 -6 2 l-10 -4l-10 -6l-19 -12q-8 -8 -14 -13q0 6 -2 11q0 2 -6 6q-12 2 -21 0q-16 -4 -22 -8q-8 -4 -13.5 -6.5t-11.5 -6.5q-8 -6 -18 -16q-27 -18 -37 -39q-14 -16 -21 -37h-4q-4 -6 -16 -18q-6 -4 -11.5 -8.5t-11.5 -8.5q-2 -4 -12 -8q-4 -4 -10 -4h-2q-2 2 0 4l6 8l6 11l12 14 l21 27q4 6 9 13t9 15l8 17q4 10 2 16q0 6 -2 6q0 4 -6 4t-8 -2l-12 -4l-13 -8q-4 -2 -10 -8q-4 -4 -6 -5t-4 -4q-8 -8 -12 -8l-21 -22q-4 -4 -9 -9.5t-9 -9.5l-11 -12l-10 -10l2 4l25 35l26 37q0 2 1.5 2t1.5 2q2 2 2 4q2 2 2 6l-7 6q-2 0 -3 1t-3 1t-4 -1t-6 -1l-10 -6 l-4 -4q-4 -2 -4 -4t-2 -4l-5 -7l-77 -133q-2 -2 -2 -4v-2zM1083 55q0 6 1 11.5t3 11.5q2 10 11 18q10 10 20 15q6 4 25 4q16 0 24 -4q4 -4 8.5 -5.5t8.5 -5.5t6 -9t6 -11q4 -12 4 -25q0 -16 -8 -30q-2 -8 -18 -21q-10 -8 -31 -8q-20 0 -35 8q-6 4 -10 10t-8 13q-6 12 -7 28z M1114 55q0 -8 2 -13t4 -9q4 -10 23 -10q16 0 20 10q6 6 6 22q0 14 -6 25q-6 10 -20 10q-16 0 -23 -10q-2 -4 -4 -10.5t-2 -14.5zM1128 -170q1 16 11 41q12 16 39 16q10 0 22 -4q8 -2 17 -14q4 -6 7 -11t3 -12h-31q0 4 -4 13q-6 6 -12 6q-10 0 -17 -10q-8 -6 -8 -21 q0 -6 1 -10t1 -8q4 -4 5 -6.5t3 -4.5q4 -4 13 -4q8 0 12 4q6 2 6 13h27q0 -10 -6 -23q-4 -4 -7.5 -7t-7.5 -5q-12 -6 -24 -6q-23 0 -35 12q-6 2 -10 16q-4 12 -5 25zM1167 627h107v41h-2q-4 -4 -4 -6.5t-2 -6.5q-4 -4 -4 -8q-2 -2 -2 -3t-3 -3q-8 -8 -12 -10q-2 0 -6 -1 t-8 -1h-25v73q0 10 6 11q2 4 13 4h6v4h-64v-4h4q16 0 17 -15v-57q0 -16 -17 -16h-4v-2zM1221 -2v115h28v-17q12 18 35 19q14 0 21 -4l14 -13q4 -12 4 -20v-80h-29v70q0 8 -4 16q-6 6 -16 6q-12 0 -19 -8q-4 -4 -4 -19v-65h-30zM1237 -166q0 9 4 25q6 14 16 20q10 8 29 8 q20 0 29 -8q10 -6 14 -22q6 -12 6 -27v-6h-71q0 -12 6 -19q6 -6 16 -6q6 0 14 4q4 4 7 9h26q-4 -16 -10 -21q-8 -8 -14 -10q-12 -4 -23 -4q-49 0 -49 57zM1264 -158h43q0 10 -7 17q-4 2 -7 4t-9 2q-16 0 -20 -23zM1266 963l2 2q0 2 2 4q4 8 6 10l8 10q2 8 6 12q2 4 8 11 l19 24l26 33l7 8l8 6l8 7q2 2 8 2q4 2 8 2l7 -4q0 -2 1 -3.5t1 -3.5q0 -4 -2 -8q0 -2 -5 -6l-16 -22l-12 -23l-17 -14l-16 -19q-2 -2 -4 -3t-6 -5l-13 -10q-2 -2 -4 -3t-6 -5q-4 0 -5 -2t-5 -2q-8 -4 -10 -3h-2q-2 2 -2 5zM1268 717h2q10 0 14 -2l4 -4t4 -6l29 -39v-21 q0 -10 -2 -12q-8 -4 -14 -4h-7v-2h68v2h-8q-8 0 -12 4t-5 12v23l25 34l4 7q8 4 10 4q0 2 4 2q2 0 3.5 1t3.5 1h2v4h-47v-4h6q8 0 10 -2q4 -2 4 -6t-6 -11l-19 -26l-24 30q-4 8 -4 9v2q0 2 2 2q0 2 6 2h8v4h-61v-4zM1337 92v21h19v28h26v-28h21v-21h-21v-61v-6q0 -2 2 -2 q4 0 5.5 -1.5t5.5 -1.5l4 3h4v-25h-21q-14 0 -16 4q-8 0 -10 8v82h-19zM1352 -190h30v-31h-30v31zM1401 -170q0 16 10 41q12 16 39 16q10 0 23 -4q6 -2 18 -14q8 -10 8 -23h-29l-6 13q-6 6 -12 6q-10 0 -16 -10q-6 -6 -6 -21q0 -6 1 -10t1 -8q4 -8 8 -11q2 -4 10 -4 q10 0 12 4q6 2 6 13h31q-4 -12 -8 -23q-4 -4 -8 -7t-8 -5q-10 -6 -25 -6q-20 0 -35 12q-6 2 -10 16q-4 12 -4 25zM1473 31q0 16 8 24q16 8 24 11l27 4q10 0 10 8q0 14 -18 14q-8 0 -13 -4q-6 -2 -8 -14h-26q0 14 6 24q4 6 16 13q4 4 12 4h13q25 0 32 -4l7.5 -7.5t5.5 -7.5 t2 -14v-72q0 -6 8 -6v-6h-33q-2 0 -2 2v2v2q0 4 -1 5t-1 3l-8 -8q-2 -2 -3 -2t-3 -2t-4 -2q-6 0 -9.5 -1t-7.5 -1t-8 1t-8 1q-4 4 -7 6t-7 6q-4 8 -4 21zM1501 31q0 -8 4 -8q4 -4 11 -5h8l4 2q10 4 10 7q4 8 4 14v14q-6 -6 -12 -6l-14 -4q-6 0 -11 -4q-4 -2 -4 -10z M1511 -168q0 13 2 21q4 12 11 18q6 8 16 12q12 4 25 4q10 0 22 -4l8 -4t9 -6q4 -4 5 -9t5 -9q2 -6 2 -23q0 -16 -6 -29q-4 -14 -17 -20q-12 -6 -28 -6q-20 0 -31 8q-12 6 -18 20q-4 16 -5 27zM1538 -168q0 -14 6 -22q2 -4 8.5 -6.5t12.5 -2.5q16 0 18 9q6 8 6 22q0 13 -6 23 q-4 10 -18 10q-16 0 -21 -10q-6 -10 -6 -23zM1567 1167l28 37l13 23l26 35l2 2q0 4 4 4q0 2 2 2q0 -8 -2 -10l-8 -11l-6 -10q-2 -2 -3 -4t-3 -4l-16 -21l-19 -20l-10 -12q-4 -8 -8 -11zM1585 92v21h14v28h33v-28h19v-21h-19v-61v-8q2 0 4 -1.5t6 -1.5l5 3h4v-25h-19 q-14 0 -20 4q-6 0 -8 8q0 2 -2.5 5t-2.5 8v69h-14zM1636 -115h27v-16q8 18 31 18q8 0 16 -4q6 -4 12 -12q2 8 11 12q8 4 16 4q10 0 23 -4q8 -8 10 -14q4 -8 4 -19v-71h-27v63q0 23 -16 23q-18 0 -19 -23v-63h-26v63v11q0 4 -4 8t-15 4q-16 0 -16 -23v-63h-27v106z" />
<glyph unicode="5" d="M70 -193q0 17 8 23q10 10 20 10l27 4q10 0 10 6q0 16 -16 17q-10 0 -13 -6q-8 -2 -8 -11h-24q0 14 6 21q2 8 12 12q4 2 14 2q4 2 13 2q14 0 26 -4q8 -6 13 -12q2 -4 2 -14v-56q0 -10 2 -12q0 -2 4 -6v-4h-29v2v4q-2 2 -2 6l-8 -8q-4 -2 -6 -2t-4 -2q-4 -2 -13 -2 q-12 0 -18 2q-6 4 -10 10q-6 6 -6 18zM96 -190q0 -4 4 -9q4 -2 6.5 -4t4.5 -2q4 0 6 4h4q8 4 10 6q4 8 4 13v12q-2 0 -10 -4l-12 -2q-4 0 -13 -4q-4 -4 -4 -10zM125 565v494l268 59l-10 37l41 12l-8 39l41 8l-6 46l41 2v41h36l4 36l39 -6l9 41l43 -6l10 39l39 -10l16 37 l39 -17l23 39l34 -18l23 35l37 -25l24 33l35 -27l27 29l26 -25l27 23l27 -29l34 23l23 -37l39 20l18 -35l37 17l17 -41l43 12l12 -39l39 10l8 -43l43 4l2 -26l404 88v-496l-185 -41l4 -2l-24 -26l24 -29l-32 -27l22 -34l-37 -23l23 -37l-35 -20l14 -37l-39 -17l13 -43 l-37 -12l6 -39l-41 -8l2 -43l-39 -4v-39h-35l-6 -37l-39 2l-8 -37l-43 6l-10 -40l-39 12l-14 -39l-44 16l-18 -39l-37 21l-22 -35l-37 23l-25 -33l-30 26l-31 -26l-27 24l-26 -24l-25 31l-35 -23l-24 37l-37 -21l-19 35l-39 -16l-18 41l-39 -13l-12 37l-41 -8l-8 43l-43 -4 l-5 41h-40v35l-35 4l4 41l-41 6l8 43l-41 12l12 37l-28 12zM186 -115h25v-18h2q4 8 6 10t3 4t5 4q2 2 15 2h2h4v-28h-8q-27 0 -27 -25v-55h-27v106zM236 76v16q0 4 2 7t2 7q2 12 14 25q4 6 10 10t12 9q14 6 33 6h6q4 0 8.5 -1t8.5 -1q8 0 14 -7q14 -8 21 -18q4 -4 8 -12 q0 -2 1 -3t1 -3v-5h-33v3q0 2 -4 6q-2 4 -4 5t-6 5q-6 4 -19 4h-8h-6l-14 -12q-10 -6 -11 -15q-4 -8 -4 -28q0 -8 1 -14.5t3 -14.5q2 -10 13 -14q6 -4 10 -6t10 -2h4q12 0 19 4q4 0 7 3l5 5q4 6 6 10t2 10h-37v27h66v-84h-21l-4 20q-6 -8 -14 -14q-4 -4 -9 -5t-10 -3 q-4 0 -9 -1t-9 -1q-12 0 -25 6q-14 6 -20 16q-8 6 -16 27q-4 10 -4 33zM236 702h10l8 5l10 10l8 10l11 10q4 8 8 13l63 86l19 30l20 31q6 8 11.5 15.5t9.5 15.5q4 10 8 17t8 16q2 4 0 6t-4 2q-8 0 -10 -2l-8 -4l-17 -21l-16 -20q-6 -6 -15 -19l-16 -20l-55 -80l-27 -41 q-6 -10 -11 -21.5t-11 -21.5l-4 -6v-4v-4v-3zM262 -78h29v-24h-29v24zM262 -115h29v-106h-29v106zM276 889q2 -4 4.5 -6t6.5 -6l18 -7q14 0 23 2q4 0 4 2q2 2 2 5q0 2 -2 2h-4q-4 0 -4 -2q-14 -2 -29 2q-8 4 -10 8q0 4 -1 5t-1 5q0 6 2 12l6 15l16 18q4 4 10.5 8t12.5 9 q6 4 11 7t13 7l25 12q8 0 14 2t15 6l28 4q16 4 27 5q6 0 22 -5q10 0 15 -6l10 -12v-16q0 -12 -2 -21l-10 -18q-4 -6 -7.5 -11.5t-7.5 -9.5q-4 -6 -9 -10t-11 -10q-4 -6 -21 -19l-22 -14l-25 -10l-14 -6q-2 0 -5 -1t-7 -1h-4q-4 0 -7 -3q-2 0 -2 -2q-4 0 -4 -4q0 -2 2 -2h4 q4 0 7 2h4l26 9l27 12l27 10l26 16l23 17l20 18l17 21q4 4 7 9t5 11q4 12 4 19q2 10 0 18q-2 4 -3 7t-3 7q-6 6 -15 11q-6 2 -10 3t-10 1q-8 2 -23 2q-8 0 -24 -4q-14 0 -27.5 -4t-29.5 -9q-29 -8 -54 -22q-6 -4 -13 -7t-13 -7t-12.5 -8.5t-10.5 -10.5l-9 -9l-9 -9l-9 -21 q-4 -10 0 -16zM317 -115h25v-16q12 18 33 18q8 0 20 -4q6 -4 13 -12q4 -8 4 -21v-71h-29v63q0 12 -2 15q-4 8 -16 8q-8 0 -17 -8q-4 -12 -4 -17v-61h-27v106zM395 57q0 20 6 29q4 14 17 20q8 6 15 7.5t18 1.5q23 0 28 -9q12 -6 19 -22q4 -10 4 -31v-8h-78q0 -6 8 -18 q6 -6 19 -7q4 0 7 1.5t5 1.5q8 8 8 10h31q-6 -12 -10 -21q-4 -4 -8.5 -7t-8.5 -5l-12 -3t-12 -1q-55 0 -56 61zM428 68h45q-4 12 -8 16q-8 8 -14 8q-23 0 -23 -24zM430 -166q0 6 2 12.5t4 12.5q6 14 15 20q8 8 24 8q6 0 19 -4l7 -7t5 -7l2 16h24v-100q0 -10 -4 -27 q-6 -10 -16 -14q-12 -6 -33 -6q-4 0 -9 1t-9 1q-6 2 -19 10q-4 4 -4 8q-2 4 -2 11h27q2 -4 6 -9q2 -2 12 -2q12 0 15 2q8 6 8 9q0 2 1 3t1 3v6v12q-12 -14 -29 -14q-6 0 -11 1t-11 3q-10 8 -17 20q-4 6 -6 13.5t-2 17.5zM461 -168q0 -8 2 -14q0 -4 6 -11q8 -4 12 -4 q25 0 25 29q0 14 -8 23q-4 4 -8.5 7t-8.5 3q-8 0 -14 -10q-6 -6 -6 -23zM498 717q20 0 20 -15v-49q0 -8 10 -22l17 -4q4 -2 18 -2q12 0 25 4q8 4 10 6q8 6 8 22v50l10 8l2 2h9v4h-47v-4h10q2 0 4 -2q12 -4 12 -23v-33q0 -12 -10 -22l-12 -8h-15q-12 0 -18 2q-2 0 -10 8 q-4 4 -4 14v49q0 10 4 11q4 4 14 4h6v4h-63v-4zM510 92v21h16v28h31v-28h16v-21h-16v-61q0 -8 2 -8q0 -2 2 -3h8l2 3h2v-25h-16q-14 0 -20 4q-6 0 -9 8q-2 2 -2 13v69h-16zM510 821q2 -8 10 -12q10 -10 23 -6q14 0 26 6q10 2 17.5 6t15.5 8t15.5 9.5t15.5 13.5l24 20l15 15 q0 2 4 6q0 2 2 4l4 6l16 16l15 21q6 4 10 10t8 10l6 -2l4 -6q0 -2 2 -4v-2q0 -2 -2 -4t-4 -6l-16 -17l-14 -20l-13 -19l-4 -18q-2 -2 -2 -8v-6l4 -8h8q10 0 17 2l16 10q4 4 10.5 8t10.5 10q6 4 10 8.5t8 8.5q2 4 4 6t4 6l8 10l5 4l4 6q4 4 4 5l12 16l21 31q0 -4 1 -7.5 t1 -7.5q4 -12 4 -14l4 -8q-16 -4 -25 -13l-20 -14q-4 -4 -7.5 -9t-5.5 -9q-2 -6 -2 -17q0 -6 11 -10h18q12 0 25 8q16 8 22 17q6 4 9 8t8 8l8 18q6 8 6 19v16q0 6 -4 15l-6 16l-7 6q0 4 -4 8q0 2 -2 4v7v4h-8l-4 -4q-4 -2 -6 -4.5t-6 -4.5l-4 -12l-2 -2l-4 -6l-33 -45l-4 -6 l-6 -11h-3v-2q-2 0 -4 -2l-4 -8l-6 -8l-14 -18l-23 -21q-4 -4 -12 -6q-4 -4 -12 -4v2l8 10l6 10l8 11q4 4 6 8l9 14l10 14l4 15q2 6 2 14q-2 2 -2 8l-2 4q0 4 -2 7v22l6 10q4 6 -4 13q-4 6 -17 0q-10 -2 -16 -9q-6 -2 -10 -12q-4 -4 -4 -10q0 -8 2 -12l4 -2l4 -5l-6 -6 l-6 -6l-23 -31l-20 -22q-4 0 -4 -4v-2l-2 -2q0 -2 -2 -2l-11 -15q-8 -6 -14 -12t-14 -10q-12 -12 -33 -23q-12 -4 -21 -8q-12 -4 -18 -2q-6 0 -6 4q-2 2 -2 6q0 2 4 11l2 8l10 16q4 -2 12 -2h19q10 2 26 12q6 2 11.5 6.5t13.5 8.5l14 16q4 4 7.5 8t3.5 8l8 13q0 12 -4 14 q-4 8 -8 10h-19h-9t-9 -4q-4 -2 -10.5 -4t-10.5 -4q-27 -14 -45 -29q-18 -16 -29 -34q-4 -4 -6 -9.5t-6 -11.5q-6 -8 -8 -18v-17zM545 -115h14v27h29v-27h16v-20h-16v-55q0 -6 2 -9q0 -2 2 -2h6l4 2h2v-22h-6h-6h-4q-12 0 -17 2q-10 4 -10 8q-2 2 -2 12v64h-14v20zM567 870 l15 23l18 20l6 9q4 4 6 5t4 3l11 10l12 4q8 2 14 0v-10l-6 -8q-6 -6 -6 -11q-4 -4 -5 -6t-5 -4q0 -2 -8 -10q-2 -2 -3.5 -4t-5.5 -4q-4 -4 -6 -5t-4 -3l-12 -9q-6 -2 -12 -2q-10 0 -13 2zM610 -115h33l21 -78l20 78h31l-35 -102l-2 -2l-8 -23q-4 -10 -6 -12q-6 -6 -11 -6 q-4 0 -7 -1t-7 -1h-6h-8v22h8h8q2 0 6 4v5q2 2 2 6l-37 102zM639 694q0 -2 4 -10q0 -6 6 -6l13 -6q2 -2 20 -6l8 -2q8 -4 12 -5q4 0 9 -4q2 0 2 -2q6 -4 6 -10l-4 -8q-2 -4 -8 -6h-11q-10 0 -16 2l-16 6l-11 10q-10 10 -10 21h-2v-43h2q0 6 4 6q4 4 8 4q2 0 2 -1t5 -1 q2 0 3 -1t3 -1l14 -4q4 -2 14 -2q4 0 17 4q2 0 12 6q2 2 2 4t4 4v21l-6 6q-2 4 -12 8l-17 6h-10l-2 2q-4 2 -8 2t-6 2q-6 0 -8 2q-2 0 -7 4q-2 0 -2 4v2v9l4 4l9 4q2 0 4 1t6 1q6 0 14 -4q8 0 12 -4q8 -4 11 -8q4 -2 5 -7.5t5 -9.5h2v31h-2q-2 -6 -8 -6h-8q-16 10 -31 10 q-8 0 -21 -4l-12 -8q-2 -4 -3 -7.5t-1 -9.5zM641 92v21h14v8q0 33 35 33h15v-25h-9h-6q-4 0 -4 -4v-12h19v-21h-19v-94h-31v94h-14zM723 37v76h29v-70q0 -20 20 -20h10l11 10q0 2 2 5t2 7v68h26v-115h-26v16q-6 -8 -15 -12q-12 -6 -20 -6q-20 0 -29 12q-10 8 -10 29z M731 -115h25v-16h4q2 0 4 2l8 8q4 4 8 6q2 2 8 2q10 0 17 -4q8 -4 12 -8q8 -8 10 -20q6 -10 7 -23q0 -4 -1.5 -6t-1.5 -6t-2 -6t-4 -7q-4 -16 -12 -22q-10 -8 -25 -8q-10 0 -14 2t-8 6q-2 2 -6 2l-2 4v-51h-27v100v45zM741 627h103v39q-4 -4 -4 -7.5t-2 -5.5l-11 -14 q-6 -6 -8 -6l-10 -2q-4 -2 -12 -2h-15v41h2q8 0 19 -6l4 -7q0 -2 1 -3t1 -3v-8h2v59h-2v-8l-4 -10q-10 -10 -19 -10h-4v43h17q16 0 22 -2l8 -6l5 -11l6 -14h4v37h-103v-4h4q8 0 11 -4q6 0 6 -11v-57q0 -16 -17 -16h-4v-2zM756 -170q0 -14 8 -20q6 -8 16 -9q12 0 19 9 q4 12 4 22t-4 23q-4 4 -8.5 7t-10.5 3q-25 0 -24 -35zM793 868v9l4 10l6 8q8 10 18 18l23 11q0 -4 1 -6.5t1 -4.5q-2 -4 -2 -8v-12l-4 -8q-2 -4 -4 -5t-5 -6l-8 -6q-2 0 -3 -1t-5 -1q-2 -2 -8 -2q-4 -4 -8 0q-2 0 -6 4zM844 -166q0 17 4 25q6 14 16 20q10 8 27 8q23 0 31 -8 q10 -6 16 -22q4 -16 4 -27v-6h-72q0 -12 7 -19q6 -6 16 -6q6 0 14 4q4 4 6 9h27q-4 -16 -8 -21q-4 -4 -8 -6t-9 -4q-12 -4 -22 -4q-49 0 -49 57zM852 -2v156h29v-156h-29zM870 -158h43q0 10 -6 17q-4 2 -7 4t-9 2q-16 0 -21 -23zM903 -2v156h29v-156h-29zM905 674 q0 -14 4 -21q4 -4 6.5 -7t6.5 -7q6 -6 18 -10q6 -2 11 -3t12 -1q16 0 26 6q8 4 13.5 9t9.5 9q6 8 6 25q0 10 -4 16q-4 12 -10 17q-4 6 -19 10q-12 6 -22 6q-20 0 -29 -8q-8 -2 -12 -7.5t-9 -9.5q-8 -10 -8 -24zM915 901q0 -8 5 -8q4 -4 6 -5t4 -3h10h12q8 2 14.5 4t12.5 4 l27 14l22 21l19 16l14 21l10 16l6 18q4 10 0 15q0 6 -6 10q0 4 -10 8q-2 0 -6 1t-8 1q-6 0 -19 -4q-4 0 -6 -1l-6 -3l-12 -4l-25 -16q-6 -4 -11 -9.5t-12 -9.5l-16 -18l-12 -19q-10 -16 -13 -26v-23zM928 674q0 4 1 8t1 8l6 12q2 2 3 5.5t3 5.5t4 2t6 2q4 4 13 4q0 -2 2 -2 h4l6 -4l10 -8q0 -4 2 -7.5t4 -9.5q0 -2 1 -7t1 -9q0 -12 -4 -25q-4 -4 -6 -9t-6 -9q-4 -2 -16 -2q-10 0 -13 2q-8 0 -12 10l-6 12q-4 12 -4 21zM940 895v8v4q4 14 10 21q4 6 7.5 11t7.5 11l10 13l8 10l16 20l9.5 9.5l9.5 9.5l8 8l10 4q4 2 11 2l4 -2q2 -2 2 -8q0 -2 -4 -10 l-5 -9l-6 -10q-4 -8 -6 -10l-8 -12l-12 -19l-17 -18l-20 -21q0 -2 -10 -6q-2 -4 -13 -8h-8q-4 0 -4 2zM948 -115h17v9q0 29 30 28h13v-22h-7h-6l-2 -2l-2 -9v-4h19v-20h-19v-86h-26v86h-17v20zM1010 92v21h14v8q0 33 35 33h12v-25h-6h-6q-2 0 -4 -4v-12h20v-21h-20v-94h-31 v94h-14zM1018 -193q0 17 10 23q10 10 21 10l24 4q8 0 8 6q0 16 -14 17q-10 0 -12 -6q-6 -4 -6 -11h-27q0 14 6 21q6 10 14 12q4 2 11 2q4 2 14 2t16.5 -1t12.5 -3q8 -6 12 -12q2 -4 2 -14v-56q0 -10 2 -12q0 -2 4 -6v-4h-31v2q0 2 -1 2t-1 2v6q-4 -2 -5 -4t-3 -4 q-4 -2 -6 -2t-4 -2q-4 -2 -14 -2q-8 0 -15 2q-4 2 -7 4t-7 6q-4 8 -4 18zM1032 627h49v2q-6 0 -10 2h-8l-4 10q-2 2 -2 12v56l80 -82h4v65q0 8 1 12.5t3 8.5q4 4 16 4v4h-47v-4h8q0 -2 4 -2q6 -4 7 -8q4 -4 4 -15v-39l-66 68h-37v-4q8 0 10 -2q2 0 3.5 -1t3.5 -1q2 -4 2 -11 v-53q0 -6 -2 -10t-7 -8q-4 0 -7 -1t-5 -1v-2zM1047 -190q0 -4 4 -9q6 -6 8 -6q4 0 6 4h4q4 2 5 3t5 3q2 4 2 13v12l-8 -4l-14 -2q-4 0 -8 -4t-4 -10zM1051 905q2 0 3 -1t3 -1q4 0 8 2l8 4q0 2 4 6q2 0 2 1.5t2 1.5l4 6q0 4 5 4l16 22l20 21l17 20l22 21l21 20l8 8q4 2 10 9 l10 8l13 4q2 0 2 -2h-2l-4 -4q-2 -6 -9 -8l-4 -7l-12 -14q-4 -4 -6 -7t-6 -7q-10 -12 -15 -23l-14 -20q-2 -4 -3 -9.5t-3 -9.5q-4 -10 0 -16q2 -6 8 -6h19q4 2 9 5t13 7q12 8 19 14l20 21l2 2q-2 -2 -2 -6q0 -6 4 -15q2 -4 10 -8q6 -2 21 2q12 2 24 13l21 14l7 7l7 7l13 13 v-5q0 -2 -1.5 -3t-1.5 -3v-6q-4 -6 0 -10q0 -2 1.5 -3t1.5 -3q0 -6 6 -6h6h10l6 4l8 6l13 6l32 27l17 16l-4 -12q-4 -6 -4 -19v-6q2 0 4 -2q0 -2 6 -2q4 0 8 4q8 0 12 6l11 6l12 13q2 0 10 8l9 9t10 9l18 21v4q0 2 -2 2q-4 0 -8 -4l-2 -4l-13 -15l-10 -12q-10 -6 -12 -12 l-14 -12l-9 -7l-8 -2l-2 -2q-2 0 -4 2h2l8 15q4 8 8 12l7 12q4 2 8 11l63 92q10 10 13 16l16 16l37 43q10 10 17 20.5t16 20.5l10 19v8q-2 2 -8 2q-2 0 -11 -4q-4 0 -6 -2t-6 -4q-4 0 -10 -6l-8 -6q-6 -4 -11.5 -9.5t-11.5 -9.5l-16 -18q-6 -6 -10.5 -11.5t-8.5 -11.5 q-2 -4 -6 -9t-8 -11q-16 -23 -27 -41l-26 -45l-19 -33l-8 -16h-2l-14 -15q-4 -6 -8.5 -10t-10.5 -10l-18 -17l-10 -8l-7 -4l-4 -2l-4 -4h-6h-4l6 10l6 10q0 2 2 4q4 8 8.5 14.5t10.5 12.5q4 6 8 13.5t8 15.5l15 20l8 13q2 4 3 5t3 5l2 2l2 2q0 2 1 2t1 2q6 4 4 8q0 2 -6 2 l-10 -4l-10 -6l-19 -12q-8 -8 -14 -13q0 6 -2 11q0 2 -6 6q-12 2 -21 0q-16 -4 -22 -8q-8 -4 -13.5 -6.5t-11.5 -6.5q-8 -6 -18 -16q-27 -18 -37 -39q-14 -16 -21 -37h-4q-4 -6 -16 -18q-6 -4 -11.5 -8.5t-11.5 -8.5q-2 -4 -12 -8q-4 -4 -10 -4h-2q-2 2 0 4l6 8l6 11l12 14 l21 27q4 6 9 13t9 15l8 17q4 10 2 16q0 6 -2 6q0 4 -6 4t-8 -2l-12 -4l-13 -8q-4 -2 -10 -8q-4 -4 -6 -5t-4 -4q-8 -8 -12 -8l-21 -22q-4 -4 -9 -9.5t-9 -9.5l-11 -12l-10 -10l2 4l25 35l26 37q0 2 1.5 2t1.5 2q2 2 2 4q2 2 2 6l-7 6q-2 0 -3 1t-3 1t-4 -1t-6 -1l-10 -6 l-4 -4q-4 -2 -4 -4t-2 -4l-5 -7l-77 -133q-2 -2 -2 -4v-2zM1083 55q0 6 1 11.5t3 11.5q2 10 11 18q10 10 20 15q6 4 25 4q16 0 24 -4q4 -4 8.5 -5.5t8.5 -5.5t6 -9t6 -11q4 -12 4 -25q0 -16 -8 -30q-2 -8 -18 -21q-10 -8 -31 -8q-20 0 -35 8q-6 4 -10 10t-8 13q-6 12 -7 28z M1114 55q0 -8 2 -13t4 -9q4 -10 23 -10q16 0 20 10q6 6 6 22q0 14 -6 25q-6 10 -20 10q-16 0 -23 -10q-2 -4 -4 -10.5t-2 -14.5zM1128 -170q1 16 11 41q12 16 39 16q10 0 22 -4q8 -2 17 -14q4 -6 7 -11t3 -12h-31q0 4 -4 13q-6 6 -12 6q-10 0 -17 -10q-8 -6 -8 -21 q0 -6 1 -10t1 -8q4 -4 5 -6.5t3 -4.5q4 -4 13 -4q8 0 12 4q6 2 6 13h27q0 -10 -6 -23q-4 -4 -7.5 -7t-7.5 -5q-12 -6 -24 -6q-23 0 -35 12q-6 2 -10 16q-4 12 -5 25zM1167 627h107v41h-2q-4 -4 -4 -6.5t-2 -6.5q-4 -4 -4 -8q-2 -2 -2 -3t-3 -3q-8 -8 -12 -10q-2 0 -6 -1 t-8 -1h-25v73q0 10 6 11q2 4 13 4h6v4h-64v-4h4q16 0 17 -15v-57q0 -16 -17 -16h-4v-2zM1221 -2v115h28v-17q12 18 35 19q14 0 21 -4l14 -13q4 -12 4 -20v-80h-29v70q0 8 -4 16q-6 6 -16 6q-12 0 -19 -8q-4 -4 -4 -19v-65h-30zM1237 -166q0 9 4 25q6 14 16 20q10 8 29 8 q20 0 29 -8q10 -6 14 -22q6 -12 6 -27v-6h-71q0 -12 6 -19q6 -6 16 -6q6 0 14 4q4 4 7 9h26q-4 -16 -10 -21q-8 -8 -14 -10q-12 -4 -23 -4q-49 0 -49 57zM1264 -158h43q0 10 -7 17q-4 2 -7 4t-9 2q-16 0 -20 -23zM1266 963l2 2q0 2 2 4q4 8 6 10l8 10q2 8 6 12q2 4 8 11 l19 24l26 33l7 8l8 6l8 7q2 2 8 2q4 2 8 2l7 -4q0 -2 1 -3.5t1 -3.5q0 -4 -2 -8q0 -2 -5 -6l-16 -22l-12 -23l-17 -14l-16 -19q-2 -2 -4 -3t-6 -5l-13 -10q-2 -2 -4 -3t-6 -5q-4 0 -5 -2t-5 -2q-8 -4 -10 -3h-2q-2 2 -2 5zM1268 717h2q10 0 14 -2l4 -4t4 -6l29 -39v-21 q0 -10 -2 -12q-8 -4 -14 -4h-7v-2h68v2h-8q-8 0 -12 4t-5 12v23l25 34l4 7q8 4 10 4q0 2 4 2q2 0 3.5 1t3.5 1h2v4h-47v-4h6q8 0 10 -2q4 -2 4 -6t-6 -11l-19 -26l-24 30q-4 8 -4 9v2q0 2 2 2q0 2 6 2h8v4h-61v-4zM1337 92v21h19v28h26v-28h21v-21h-21v-61v-6q0 -2 2 -2 q4 0 5.5 -1.5t5.5 -1.5l4 3h4v-25h-21q-14 0 -16 4q-8 0 -10 8v82h-19zM1352 -190h30v-31h-30v31zM1401 -170q0 16 10 41q12 16 39 16q10 0 23 -4q6 -2 18 -14q8 -10 8 -23h-29l-6 13q-6 6 -12 6q-10 0 -16 -10q-6 -6 -6 -21q0 -6 1 -10t1 -8q4 -8 8 -11q2 -4 10 -4 q10 0 12 4q6 2 6 13h31q-4 -12 -8 -23q-4 -4 -8 -7t-8 -5q-10 -6 -25 -6q-20 0 -35 12q-6 2 -10 16q-4 12 -4 25zM1473 31q0 16 8 24q16 8 24 11l27 4q10 0 10 8q0 14 -18 14q-8 0 -13 -4q-6 -2 -8 -14h-26q0 14 6 24q4 6 16 13q4 4 12 4h13q25 0 32 -4l7.5 -7.5t5.5 -7.5 t2 -14v-72q0 -6 8 -6v-6h-33q-2 0 -2 2v2v2q0 4 -1 5t-1 3l-8 -8q-2 -2 -3 -2t-3 -2t-4 -2q-6 0 -9.5 -1t-7.5 -1t-8 1t-8 1q-4 4 -7 6t-7 6q-4 8 -4 21zM1501 31q0 -8 4 -8q4 -4 11 -5h8l4 2q10 4 10 7q4 8 4 14v14q-6 -6 -12 -6l-14 -4q-6 0 -11 -4q-4 -2 -4 -10z M1511 -168q0 13 2 21q4 12 11 18q6 8 16 12q12 4 25 4q10 0 22 -4l8 -4t9 -6q4 -4 5 -9t5 -9q2 -6 2 -23q0 -16 -6 -29q-4 -14 -17 -20q-12 -6 -28 -6q-20 0 -31 8q-12 6 -18 20q-4 16 -5 27zM1538 -168q0 -14 6 -22q2 -4 8.5 -6.5t12.5 -2.5q16 0 18 9q6 8 6 22q0 13 -6 23 q-4 10 -18 10q-16 0 -21 -10q-6 -10 -6 -23zM1567 1167l28 37l13 23l26 35l2 2q0 4 4 4q0 2 2 2q0 -8 -2 -10l-8 -11l-6 -10q-2 -2 -3 -4t-3 -4l-16 -21l-19 -20l-10 -12q-4 -8 -8 -11zM1585 92v21h14v28h33v-28h19v-21h-19v-61v-8q2 0 4 -1.5t6 -1.5l5 3h4v-25h-19 q-14 0 -20 4q-6 0 -8 8q0 2 -2.5 5t-2.5 8v69h-14zM1636 -115h27v-16q8 18 31 18q8 0 16 -4q6 -4 12 -12q2 8 11 12q8 4 16 4q10 0 23 -4q8 -8 10 -14q4 -8 4 -19v-71h-27v63q0 23 -16 23q-18 0 -19 -23v-63h-26v63v11q0 4 -4 8t-15 4q-16 0 -16 -23v-63h-27v106z" />
<glyph unicode="6" d="M70 -193q0 17 8 23q10 10 20 10l27 4q10 0 10 6q0 16 -16 17q-10 0 -13 -6q-8 -2 -8 -11h-24q0 14 6 21q2 8 12 12q4 2 14 2q4 2 13 2q14 0 26 -4q8 -6 13 -12q2 -4 2 -14v-56q0 -10 2 -12q0 -2 4 -6v-4h-29v2v4q-2 2 -2 6l-8 -8q-4 -2 -6 -2t-4 -2q-4 -2 -13 -2 q-12 0 -18 2q-6 4 -10 10q-6 6 -6 18zM96 -190q0 -4 4 -9q4 -2 6.5 -4t4.5 -2q4 0 6 4h4q8 4 10 6q4 8 4 13v12q-2 0 -10 -4l-12 -2q-4 0 -13 -4q-4 -4 -4 -10zM125 565v494l268 59l-10 37l41 12l-8 39l41 8l-6 46l41 2v41h36l4 36l39 -6l9 41l43 -6l10 39l39 -10l16 37 l39 -17l23 39l34 -18l23 35l37 -25l24 33l35 -27l27 29l26 -25l27 23l27 -29l34 23l23 -37l39 20l18 -35l37 17l17 -41l43 12l12 -39l39 10l8 -43l43 4l2 -26l404 88v-496l-185 -41l4 -2l-24 -26l24 -29l-32 -27l22 -34l-37 -23l23 -37l-35 -20l14 -37l-39 -17l13 -43 l-37 -12l6 -39l-41 -8l2 -43l-39 -4v-39h-35l-6 -37l-39 2l-8 -37l-43 6l-10 -40l-39 12l-14 -39l-44 16l-18 -39l-37 21l-22 -35l-37 23l-25 -33l-30 26l-31 -26l-27 24l-26 -24l-25 31l-35 -23l-24 37l-37 -21l-19 35l-39 -16l-18 41l-39 -13l-12 37l-41 -8l-8 43l-43 -4 l-5 41h-40v35l-35 4l4 41l-41 6l8 43l-41 12l12 37l-28 12zM186 -115h25v-18h2q4 8 6 10t3 4t5 4q2 2 15 2h2h4v-28h-8q-27 0 -27 -25v-55h-27v106zM236 76v16q0 4 2 7t2 7q2 12 14 25q4 6 10 10t12 9q14 6 33 6h6q4 0 8.5 -1t8.5 -1q8 0 14 -7q14 -8 21 -18q4 -4 8 -12 q0 -2 1 -3t1 -3v-5h-33v3q0 2 -4 6q-2 4 -4 5t-6 5q-6 4 -19 4h-8h-6l-14 -12q-10 -6 -11 -15q-4 -8 -4 -28q0 -8 1 -14.5t3 -14.5q2 -10 13 -14q6 -4 10 -6t10 -2h4q12 0 19 4q4 0 7 3l5 5q4 6 6 10t2 10h-37v27h66v-84h-21l-4 20q-6 -8 -14 -14q-4 -4 -9 -5t-10 -3 q-4 0 -9 -1t-9 -1q-12 0 -25 6q-14 6 -20 16q-8 6 -16 27q-4 10 -4 33zM236 702h10l8 5l10 10l8 10l11 10q4 8 8 13l63 86l19 30l20 31q6 8 11.5 15.5t9.5 15.5q4 10 8 17t8 16q2 4 0 6t-4 2q-8 0 -10 -2l-8 -4l-17 -21l-16 -20q-6 -6 -15 -19l-16 -20l-55 -80l-27 -41 q-6 -10 -11 -21.5t-11 -21.5l-4 -6v-4v-4v-3zM262 -78h29v-24h-29v24zM262 -115h29v-106h-29v106zM276 889q2 -4 4.5 -6t6.5 -6l18 -7q14 0 23 2q4 0 4 2q2 2 2 5q0 2 -2 2h-4q-4 0 -4 -2q-14 -2 -29 2q-8 4 -10 8q0 4 -1 5t-1 5q0 6 2 12l6 15l16 18q4 4 10.5 8t12.5 9 q6 4 11 7t13 7l25 12q8 0 14 2t15 6l28 4q16 4 27 5q6 0 22 -5q10 0 15 -6l10 -12v-16q0 -12 -2 -21l-10 -18q-4 -6 -7.5 -11.5t-7.5 -9.5q-4 -6 -9 -10t-11 -10q-4 -6 -21 -19l-22 -14l-25 -10l-14 -6q-2 0 -5 -1t-7 -1h-4q-4 0 -7 -3q-2 0 -2 -2q-4 0 -4 -4q0 -2 2 -2h4 q4 0 7 2h4l26 9l27 12l27 10l26 16l23 17l20 18l17 21q4 4 7 9t5 11q4 12 4 19q2 10 0 18q-2 4 -3 7t-3 7q-6 6 -15 11q-6 2 -10 3t-10 1q-8 2 -23 2q-8 0 -24 -4q-14 0 -27.5 -4t-29.5 -9q-29 -8 -54 -22q-6 -4 -13 -7t-13 -7t-12.5 -8.5t-10.5 -10.5l-9 -9l-9 -9l-9 -21 q-4 -10 0 -16zM317 -115h25v-16q12 18 33 18q8 0 20 -4q6 -4 13 -12q4 -8 4 -21v-71h-29v63q0 12 -2 15q-4 8 -16 8q-8 0 -17 -8q-4 -12 -4 -17v-61h-27v106zM395 57q0 20 6 29q4 14 17 20q8 6 15 7.5t18 1.5q23 0 28 -9q12 -6 19 -22q4 -10 4 -31v-8h-78q0 -6 8 -18 q6 -6 19 -7q4 0 7 1.5t5 1.5q8 8 8 10h31q-6 -12 -10 -21q-4 -4 -8.5 -7t-8.5 -5l-12 -3t-12 -1q-55 0 -56 61zM428 68h45q-4 12 -8 16q-8 8 -14 8q-23 0 -23 -24zM430 -166q0 6 2 12.5t4 12.5q6 14 15 20q8 8 24 8q6 0 19 -4l7 -7t5 -7l2 16h24v-100q0 -10 -4 -27 q-6 -10 -16 -14q-12 -6 -33 -6q-4 0 -9 1t-9 1q-6 2 -19 10q-4 4 -4 8q-2 4 -2 11h27q2 -4 6 -9q2 -2 12 -2q12 0 15 2q8 6 8 9q0 2 1 3t1 3v6v12q-12 -14 -29 -14q-6 0 -11 1t-11 3q-10 8 -17 20q-4 6 -6 13.5t-2 17.5zM461 -168q0 -8 2 -14q0 -4 6 -11q8 -4 12 -4 q25 0 25 29q0 14 -8 23q-4 4 -8.5 7t-8.5 3q-8 0 -14 -10q-6 -6 -6 -23zM498 717q20 0 20 -15v-49q0 -8 10 -22l17 -4q4 -2 18 -2q12 0 25 4q8 4 10 6q8 6 8 22v50l10 8l2 2h9v4h-47v-4h10q2 0 4 -2q12 -4 12 -23v-33q0 -12 -10 -22l-12 -8h-15q-12 0 -18 2q-2 0 -10 8 q-4 4 -4 14v49q0 10 4 11q4 4 14 4h6v4h-63v-4zM510 92v21h16v28h31v-28h16v-21h-16v-61q0 -8 2 -8q0 -2 2 -3h8l2 3h2v-25h-16q-14 0 -20 4q-6 0 -9 8q-2 2 -2 13v69h-16zM510 821q2 -8 10 -12q10 -10 23 -6q14 0 26 6q10 2 17.5 6t15.5 8t15.5 9.5t15.5 13.5l24 20l15 15 q0 2 4 6q0 2 2 4l4 6l16 16l15 21q6 4 10 10t8 10l6 -2l4 -6q0 -2 2 -4v-2q0 -2 -2 -4t-4 -6l-16 -17l-14 -20l-13 -19l-4 -18q-2 -2 -2 -8v-6l4 -8h8q10 0 17 2l16 10q4 4 10.5 8t10.5 10q6 4 10 8.5t8 8.5q2 4 4 6t4 6l8 10l5 4l4 6q4 4 4 5l12 16l21 31q0 -4 1 -7.5 t1 -7.5q4 -12 4 -14l4 -8q-16 -4 -25 -13l-20 -14q-4 -4 -7.5 -9t-5.5 -9q-2 -6 -2 -17q0 -6 11 -10h18q12 0 25 8q16 8 22 17q6 4 9 8t8 8l8 18q6 8 6 19v16q0 6 -4 15l-6 16l-7 6q0 4 -4 8q0 2 -2 4v7v4h-8l-4 -4q-4 -2 -6 -4.5t-6 -4.5l-4 -12l-2 -2l-4 -6l-33 -45l-4 -6 l-6 -11h-3v-2q-2 0 -4 -2l-4 -8l-6 -8l-14 -18l-23 -21q-4 -4 -12 -6q-4 -4 -12 -4v2l8 10l6 10l8 11q4 4 6 8l9 14l10 14l4 15q2 6 2 14q-2 2 -2 8l-2 4q0 4 -2 7v22l6 10q4 6 -4 13q-4 6 -17 0q-10 -2 -16 -9q-6 -2 -10 -12q-4 -4 -4 -10q0 -8 2 -12l4 -2l4 -5l-6 -6 l-6 -6l-23 -31l-20 -22q-4 0 -4 -4v-2l-2 -2q0 -2 -2 -2l-11 -15q-8 -6 -14 -12t-14 -10q-12 -12 -33 -23q-12 -4 -21 -8q-12 -4 -18 -2q-6 0 -6 4q-2 2 -2 6q0 2 4 11l2 8l10 16q4 -2 12 -2h19q10 2 26 12q6 2 11.5 6.5t13.5 8.5l14 16q4 4 7.5 8t3.5 8l8 13q0 12 -4 14 q-4 8 -8 10h-19h-9t-9 -4q-4 -2 -10.5 -4t-10.5 -4q-27 -14 -45 -29q-18 -16 -29 -34q-4 -4 -6 -9.5t-6 -11.5q-6 -8 -8 -18v-17zM545 -115h14v27h29v-27h16v-20h-16v-55q0 -6 2 -9q0 -2 2 -2h6l4 2h2v-22h-6h-6h-4q-12 0 -17 2q-10 4 -10 8q-2 2 -2 12v64h-14v20zM567 870 l15 23l18 20l6 9q4 4 6 5t4 3l11 10l12 4q8 2 14 0v-10l-6 -8q-6 -6 -6 -11q-4 -4 -5 -6t-5 -4q0 -2 -8 -10q-2 -2 -3.5 -4t-5.5 -4q-4 -4 -6 -5t-4 -3l-12 -9q-6 -2 -12 -2q-10 0 -13 2zM610 -115h33l21 -78l20 78h31l-35 -102l-2 -2l-8 -23q-4 -10 -6 -12q-6 -6 -11 -6 q-4 0 -7 -1t-7 -1h-6h-8v22h8h8q2 0 6 4v5q2 2 2 6l-37 102zM639 694q0 -2 4 -10q0 -6 6 -6l13 -6q2 -2 20 -6l8 -2q8 -4 12 -5q4 0 9 -4q2 0 2 -2q6 -4 6 -10l-4 -8q-2 -4 -8 -6h-11q-10 0 -16 2l-16 6l-11 10q-10 10 -10 21h-2v-43h2q0 6 4 6q4 4 8 4q2 0 2 -1t5 -1 q2 0 3 -1t3 -1l14 -4q4 -2 14 -2q4 0 17 4q2 0 12 6q2 2 2 4t4 4v21l-6 6q-2 4 -12 8l-17 6h-10l-2 2q-4 2 -8 2t-6 2q-6 0 -8 2q-2 0 -7 4q-2 0 -2 4v2v9l4 4l9 4q2 0 4 1t6 1q6 0 14 -4q8 0 12 -4q8 -4 11 -8q4 -2 5 -7.5t5 -9.5h2v31h-2q-2 -6 -8 -6h-8q-16 10 -31 10 q-8 0 -21 -4l-12 -8q-2 -4 -3 -7.5t-1 -9.5zM641 92v21h14v8q0 33 35 33h15v-25h-9h-6q-4 0 -4 -4v-12h19v-21h-19v-94h-31v94h-14zM723 37v76h29v-70q0 -20 20 -20h10l11 10q0 2 2 5t2 7v68h26v-115h-26v16q-6 -8 -15 -12q-12 -6 -20 -6q-20 0 -29 12q-10 8 -10 29z M731 -115h25v-16h4q2 0 4 2l8 8q4 4 8 6q2 2 8 2q10 0 17 -4q8 -4 12 -8q8 -8 10 -20q6 -10 7 -23q0 -4 -1.5 -6t-1.5 -6t-2 -6t-4 -7q-4 -16 -12 -22q-10 -8 -25 -8q-10 0 -14 2t-8 6q-2 2 -6 2l-2 4v-51h-27v100v45zM741 627h103v39q-4 -4 -4 -7.5t-2 -5.5l-11 -14 q-6 -6 -8 -6l-10 -2q-4 -2 -12 -2h-15v41h2q8 0 19 -6l4 -7q0 -2 1 -3t1 -3v-8h2v59h-2v-8l-4 -10q-10 -10 -19 -10h-4v43h17q16 0 22 -2l8 -6l5 -11l6 -14h4v37h-103v-4h4q8 0 11 -4q6 0 6 -11v-57q0 -16 -17 -16h-4v-2zM756 -170q0 -14 8 -20q6 -8 16 -9q12 0 19 9 q4 12 4 22t-4 23q-4 4 -8.5 7t-10.5 3q-25 0 -24 -35zM793 868v9l4 10l6 8q8 10 18 18l23 11q0 -4 1 -6.5t1 -4.5q-2 -4 -2 -8v-12l-4 -8q-2 -4 -4 -5t-5 -6l-8 -6q-2 0 -3 -1t-5 -1q-2 -2 -8 -2q-4 -4 -8 0q-2 0 -6 4zM844 -166q0 17 4 25q6 14 16 20q10 8 27 8q23 0 31 -8 q10 -6 16 -22q4 -16 4 -27v-6h-72q0 -12 7 -19q6 -6 16 -6q6 0 14 4q4 4 6 9h27q-4 -16 -8 -21q-4 -4 -8 -6t-9 -4q-12 -4 -22 -4q-49 0 -49 57zM852 -2v156h29v-156h-29zM870 -158h43q0 10 -6 17q-4 2 -7 4t-9 2q-16 0 -21 -23zM903 -2v156h29v-156h-29zM905 674 q0 -14 4 -21q4 -4 6.5 -7t6.5 -7q6 -6 18 -10q6 -2 11 -3t12 -1q16 0 26 6q8 4 13.5 9t9.5 9q6 8 6 25q0 10 -4 16q-4 12 -10 17q-4 6 -19 10q-12 6 -22 6q-20 0 -29 -8q-8 -2 -12 -7.5t-9 -9.5q-8 -10 -8 -24zM915 901q0 -8 5 -8q4 -4 6 -5t4 -3h10h12q8 2 14.5 4t12.5 4 l27 14l22 21l19 16l14 21l10 16l6 18q4 10 0 15q0 6 -6 10q0 4 -10 8q-2 0 -6 1t-8 1q-6 0 -19 -4q-4 0 -6 -1l-6 -3l-12 -4l-25 -16q-6 -4 -11 -9.5t-12 -9.5l-16 -18l-12 -19q-10 -16 -13 -26v-23zM928 674q0 4 1 8t1 8l6 12q2 2 3 5.5t3 5.5t4 2t6 2q4 4 13 4q0 -2 2 -2 h4l6 -4l10 -8q0 -4 2 -7.5t4 -9.5q0 -2 1 -7t1 -9q0 -12 -4 -25q-4 -4 -6 -9t-6 -9q-4 -2 -16 -2q-10 0 -13 2q-8 0 -12 10l-6 12q-4 12 -4 21zM940 895v8v4q4 14 10 21q4 6 7.5 11t7.5 11l10 13l8 10l16 20l9.5 9.5l9.5 9.5l8 8l10 4q4 2 11 2l4 -2q2 -2 2 -8q0 -2 -4 -10 l-5 -9l-6 -10q-4 -8 -6 -10l-8 -12l-12 -19l-17 -18l-20 -21q0 -2 -10 -6q-2 -4 -13 -8h-8q-4 0 -4 2zM948 -115h17v9q0 29 30 28h13v-22h-7h-6l-2 -2l-2 -9v-4h19v-20h-19v-86h-26v86h-17v20zM1010 92v21h14v8q0 33 35 33h12v-25h-6h-6q-2 0 -4 -4v-12h20v-21h-20v-94h-31 v94h-14zM1018 -193q0 17 10 23q10 10 21 10l24 4q8 0 8 6q0 16 -14 17q-10 0 -12 -6q-6 -4 -6 -11h-27q0 14 6 21q6 10 14 12q4 2 11 2q4 2 14 2t16.5 -1t12.5 -3q8 -6 12 -12q2 -4 2 -14v-56q0 -10 2 -12q0 -2 4 -6v-4h-31v2q0 2 -1 2t-1 2v6q-4 -2 -5 -4t-3 -4 q-4 -2 -6 -2t-4 -2q-4 -2 -14 -2q-8 0 -15 2q-4 2 -7 4t-7 6q-4 8 -4 18zM1032 627h49v2q-6 0 -10 2h-8l-4 10q-2 2 -2 12v56l80 -82h4v65q0 8 1 12.5t3 8.5q4 4 16 4v4h-47v-4h8q0 -2 4 -2q6 -4 7 -8q4 -4 4 -15v-39l-66 68h-37v-4q8 0 10 -2q2 0 3.5 -1t3.5 -1q2 -4 2 -11 v-53q0 -6 -2 -10t-7 -8q-4 0 -7 -1t-5 -1v-2zM1047 -190q0 -4 4 -9q6 -6 8 -6q4 0 6 4h4q4 2 5 3t5 3q2 4 2 13v12l-8 -4l-14 -2q-4 0 -8 -4t-4 -10zM1051 905q2 0 3 -1t3 -1q4 0 8 2l8 4q0 2 4 6q2 0 2 1.5t2 1.5l4 6q0 4 5 4l16 22l20 21l17 20l22 21l21 20l8 8q4 2 10 9 l10 8l13 4q2 0 2 -2h-2l-4 -4q-2 -6 -9 -8l-4 -7l-12 -14q-4 -4 -6 -7t-6 -7q-10 -12 -15 -23l-14 -20q-2 -4 -3 -9.5t-3 -9.5q-4 -10 0 -16q2 -6 8 -6h19q4 2 9 5t13 7q12 8 19 14l20 21l2 2q-2 -2 -2 -6q0 -6 4 -15q2 -4 10 -8q6 -2 21 2q12 2 24 13l21 14l7 7l7 7l13 13 v-5q0 -2 -1.5 -3t-1.5 -3v-6q-4 -6 0 -10q0 -2 1.5 -3t1.5 -3q0 -6 6 -6h6h10l6 4l8 6l13 6l32 27l17 16l-4 -12q-4 -6 -4 -19v-6q2 0 4 -2q0 -2 6 -2q4 0 8 4q8 0 12 6l11 6l12 13q2 0 10 8l9 9t10 9l18 21v4q0 2 -2 2q-4 0 -8 -4l-2 -4l-13 -15l-10 -12q-10 -6 -12 -12 l-14 -12l-9 -7l-8 -2l-2 -2q-2 0 -4 2h2l8 15q4 8 8 12l7 12q4 2 8 11l63 92q10 10 13 16l16 16l37 43q10 10 17 20.5t16 20.5l10 19v8q-2 2 -8 2q-2 0 -11 -4q-4 0 -6 -2t-6 -4q-4 0 -10 -6l-8 -6q-6 -4 -11.5 -9.5t-11.5 -9.5l-16 -18q-6 -6 -10.5 -11.5t-8.5 -11.5 q-2 -4 -6 -9t-8 -11q-16 -23 -27 -41l-26 -45l-19 -33l-8 -16h-2l-14 -15q-4 -6 -8.5 -10t-10.5 -10l-18 -17l-10 -8l-7 -4l-4 -2l-4 -4h-6h-4l6 10l6 10q0 2 2 4q4 8 8.5 14.5t10.5 12.5q4 6 8 13.5t8 15.5l15 20l8 13q2 4 3 5t3 5l2 2l2 2q0 2 1 2t1 2q6 4 4 8q0 2 -6 2 l-10 -4l-10 -6l-19 -12q-8 -8 -14 -13q0 6 -2 11q0 2 -6 6q-12 2 -21 0q-16 -4 -22 -8q-8 -4 -13.5 -6.5t-11.5 -6.5q-8 -6 -18 -16q-27 -18 -37 -39q-14 -16 -21 -37h-4q-4 -6 -16 -18q-6 -4 -11.5 -8.5t-11.5 -8.5q-2 -4 -12 -8q-4 -4 -10 -4h-2q-2 2 0 4l6 8l6 11l12 14 l21 27q4 6 9 13t9 15l8 17q4 10 2 16q0 6 -2 6q0 4 -6 4t-8 -2l-12 -4l-13 -8q-4 -2 -10 -8q-4 -4 -6 -5t-4 -4q-8 -8 -12 -8l-21 -22q-4 -4 -9 -9.5t-9 -9.5l-11 -12l-10 -10l2 4l25 35l26 37q0 2 1.5 2t1.5 2q2 2 2 4q2 2 2 6l-7 6q-2 0 -3 1t-3 1t-4 -1t-6 -1l-10 -6 l-4 -4q-4 -2 -4 -4t-2 -4l-5 -7l-77 -133q-2 -2 -2 -4v-2zM1083 55q0 6 1 11.5t3 11.5q2 10 11 18q10 10 20 15q6 4 25 4q16 0 24 -4q4 -4 8.5 -5.5t8.5 -5.5t6 -9t6 -11q4 -12 4 -25q0 -16 -8 -30q-2 -8 -18 -21q-10 -8 -31 -8q-20 0 -35 8q-6 4 -10 10t-8 13q-6 12 -7 28z M1114 55q0 -8 2 -13t4 -9q4 -10 23 -10q16 0 20 10q6 6 6 22q0 14 -6 25q-6 10 -20 10q-16 0 -23 -10q-2 -4 -4 -10.5t-2 -14.5zM1128 -170q1 16 11 41q12 16 39 16q10 0 22 -4q8 -2 17 -14q4 -6 7 -11t3 -12h-31q0 4 -4 13q-6 6 -12 6q-10 0 -17 -10q-8 -6 -8 -21 q0 -6 1 -10t1 -8q4 -4 5 -6.5t3 -4.5q4 -4 13 -4q8 0 12 4q6 2 6 13h27q0 -10 -6 -23q-4 -4 -7.5 -7t-7.5 -5q-12 -6 -24 -6q-23 0 -35 12q-6 2 -10 16q-4 12 -5 25zM1167 627h107v41h-2q-4 -4 -4 -6.5t-2 -6.5q-4 -4 -4 -8q-2 -2 -2 -3t-3 -3q-8 -8 -12 -10q-2 0 -6 -1 t-8 -1h-25v73q0 10 6 11q2 4 13 4h6v4h-64v-4h4q16 0 17 -15v-57q0 -16 -17 -16h-4v-2zM1221 -2v115h28v-17q12 18 35 19q14 0 21 -4l14 -13q4 -12 4 -20v-80h-29v70q0 8 -4 16q-6 6 -16 6q-12 0 -19 -8q-4 -4 -4 -19v-65h-30zM1237 -166q0 9 4 25q6 14 16 20q10 8 29 8 q20 0 29 -8q10 -6 14 -22q6 -12 6 -27v-6h-71q0 -12 6 -19q6 -6 16 -6q6 0 14 4q4 4 7 9h26q-4 -16 -10 -21q-8 -8 -14 -10q-12 -4 -23 -4q-49 0 -49 57zM1264 -158h43q0 10 -7 17q-4 2 -7 4t-9 2q-16 0 -20 -23zM1266 963l2 2q0 2 2 4q4 8 6 10l8 10q2 8 6 12q2 4 8 11 l19 24l26 33l7 8l8 6l8 7q2 2 8 2q4 2 8 2l7 -4q0 -2 1 -3.5t1 -3.5q0 -4 -2 -8q0 -2 -5 -6l-16 -22l-12 -23l-17 -14l-16 -19q-2 -2 -4 -3t-6 -5l-13 -10q-2 -2 -4 -3t-6 -5q-4 0 -5 -2t-5 -2q-8 -4 -10 -3h-2q-2 2 -2 5zM1268 717h2q10 0 14 -2l4 -4t4 -6l29 -39v-21 q0 -10 -2 -12q-8 -4 -14 -4h-7v-2h68v2h-8q-8 0 -12 4t-5 12v23l25 34l4 7q8 4 10 4q0 2 4 2q2 0 3.5 1t3.5 1h2v4h-47v-4h6q8 0 10 -2q4 -2 4 -6t-6 -11l-19 -26l-24 30q-4 8 -4 9v2q0 2 2 2q0 2 6 2h8v4h-61v-4zM1337 92v21h19v28h26v-28h21v-21h-21v-61v-6q0 -2 2 -2 q4 0 5.5 -1.5t5.5 -1.5l4 3h4v-25h-21q-14 0 -16 4q-8 0 -10 8v82h-19zM1352 -190h30v-31h-30v31zM1401 -170q0 16 10 41q12 16 39 16q10 0 23 -4q6 -2 18 -14q8 -10 8 -23h-29l-6 13q-6 6 -12 6q-10 0 -16 -10q-6 -6 -6 -21q0 -6 1 -10t1 -8q4 -8 8 -11q2 -4 10 -4 q10 0 12 4q6 2 6 13h31q-4 -12 -8 -23q-4 -4 -8 -7t-8 -5q-10 -6 -25 -6q-20 0 -35 12q-6 2 -10 16q-4 12 -4 25zM1473 31q0 16 8 24q16 8 24 11l27 4q10 0 10 8q0 14 -18 14q-8 0 -13 -4q-6 -2 -8 -14h-26q0 14 6 24q4 6 16 13q4 4 12 4h13q25 0 32 -4l7.5 -7.5t5.5 -7.5 t2 -14v-72q0 -6 8 -6v-6h-33q-2 0 -2 2v2v2q0 4 -1 5t-1 3l-8 -8q-2 -2 -3 -2t-3 -2t-4 -2q-6 0 -9.5 -1t-7.5 -1t-8 1t-8 1q-4 4 -7 6t-7 6q-4 8 -4 21zM1501 31q0 -8 4 -8q4 -4 11 -5h8l4 2q10 4 10 7q4 8 4 14v14q-6 -6 -12 -6l-14 -4q-6 0 -11 -4q-4 -2 -4 -10z M1511 -168q0 13 2 21q4 12 11 18q6 8 16 12q12 4 25 4q10 0 22 -4l8 -4t9 -6q4 -4 5 -9t5 -9q2 -6 2 -23q0 -16 -6 -29q-4 -14 -17 -20q-12 -6 -28 -6q-20 0 -31 8q-12 6 -18 20q-4 16 -5 27zM1538 -168q0 -14 6 -22q2 -4 8.5 -6.5t12.5 -2.5q16 0 18 9q6 8 6 22q0 13 -6 23 q-4 10 -18 10q-16 0 -21 -10q-6 -10 -6 -23zM1567 1167l28 37l13 23l26 35l2 2q0 4 4 4q0 2 2 2q0 -8 -2 -10l-8 -11l-6 -10q-2 -2 -3 -4t-3 -4l-16 -21l-19 -20l-10 -12q-4 -8 -8 -11zM1585 92v21h14v28h33v-28h19v-21h-19v-61v-8q2 0 4 -1.5t6 -1.5l5 3h4v-25h-19 q-14 0 -20 4q-6 0 -8 8q0 2 -2.5 5t-2.5 8v69h-14zM1636 -115h27v-16q8 18 31 18q8 0 16 -4q6 -4 12 -12q2 8 11 12q8 4 16 4q10 0 23 -4q8 -8 10 -14q4 -8 4 -19v-71h-27v63q0 23 -16 23q-18 0 -19 -23v-63h-26v63v11q0 4 -4 8t-15 4q-16 0 -16 -23v-63h-27v106z" />
<glyph unicode="7" d="M70 -193q0 17 8 23q10 10 20 10l27 4q10 0 10 6q0 16 -16 17q-10 0 -13 -6q-8 -2 -8 -11h-24q0 14 6 21q2 8 12 12q4 2 14 2q4 2 13 2q14 0 26 -4q8 -6 13 -12q2 -4 2 -14v-56q0 -10 2 -12q0 -2 4 -6v-4h-29v2v4q-2 2 -2 6l-8 -8q-4 -2 -6 -2t-4 -2q-4 -2 -13 -2 q-12 0 -18 2q-6 4 -10 10q-6 6 -6 18zM96 -190q0 -4 4 -9q4 -2 6.5 -4t4.5 -2q4 0 6 4h4q8 4 10 6q4 8 4 13v12q-2 0 -10 -4l-12 -2q-4 0 -13 -4q-4 -4 -4 -10zM125 565v494l268 59l-10 37l41 12l-8 39l41 8l-6 46l41 2v41h36l4 36l39 -6l9 41l43 -6l10 39l39 -10l16 37 l39 -17l23 39l34 -18l23 35l37 -25l24 33l35 -27l27 29l26 -25l27 23l27 -29l34 23l23 -37l39 20l18 -35l37 17l17 -41l43 12l12 -39l39 10l8 -43l43 4l2 -26l404 88v-496l-185 -41l4 -2l-24 -26l24 -29l-32 -27l22 -34l-37 -23l23 -37l-35 -20l14 -37l-39 -17l13 -43 l-37 -12l6 -39l-41 -8l2 -43l-39 -4v-39h-35l-6 -37l-39 2l-8 -37l-43 6l-10 -40l-39 12l-14 -39l-44 16l-18 -39l-37 21l-22 -35l-37 23l-25 -33l-30 26l-31 -26l-27 24l-26 -24l-25 31l-35 -23l-24 37l-37 -21l-19 35l-39 -16l-18 41l-39 -13l-12 37l-41 -8l-8 43l-43 -4 l-5 41h-40v35l-35 4l4 41l-41 6l8 43l-41 12l12 37l-28 12zM186 -115h25v-18h2q4 8 6 10t3 4t5 4q2 2 15 2h2h4v-28h-8q-27 0 -27 -25v-55h-27v106zM236 76v16q0 4 2 7t2 7q2 12 14 25q4 6 10 10t12 9q14 6 33 6h6q4 0 8.5 -1t8.5 -1q8 0 14 -7q14 -8 21 -18q4 -4 8 -12 q0 -2 1 -3t1 -3v-5h-33v3q0 2 -4 6q-2 4 -4 5t-6 5q-6 4 -19 4h-8h-6l-14 -12q-10 -6 -11 -15q-4 -8 -4 -28q0 -8 1 -14.5t3 -14.5q2 -10 13 -14q6 -4 10 -6t10 -2h4q12 0 19 4q4 0 7 3l5 5q4 6 6 10t2 10h-37v27h66v-84h-21l-4 20q-6 -8 -14 -14q-4 -4 -9 -5t-10 -3 q-4 0 -9 -1t-9 -1q-12 0 -25 6q-14 6 -20 16q-8 6 -16 27q-4 10 -4 33zM236 702h10l8 5l10 10l8 10l11 10q4 8 8 13l63 86l19 30l20 31q6 8 11.5 15.5t9.5 15.5q4 10 8 17t8 16q2 4 0 6t-4 2q-8 0 -10 -2l-8 -4l-17 -21l-16 -20q-6 -6 -15 -19l-16 -20l-55 -80l-27 -41 q-6 -10 -11 -21.5t-11 -21.5l-4 -6v-4v-4v-3zM262 -78h29v-24h-29v24zM262 -115h29v-106h-29v106zM276 889q2 -4 4.5 -6t6.5 -6l18 -7q14 0 23 2q4 0 4 2q2 2 2 5q0 2 -2 2h-4q-4 0 -4 -2q-14 -2 -29 2q-8 4 -10 8q0 4 -1 5t-1 5q0 6 2 12l6 15l16 18q4 4 10.5 8t12.5 9 q6 4 11 7t13 7l25 12q8 0 14 2t15 6l28 4q16 4 27 5q6 0 22 -5q10 0 15 -6l10 -12v-16q0 -12 -2 -21l-10 -18q-4 -6 -7.5 -11.5t-7.5 -9.5q-4 -6 -9 -10t-11 -10q-4 -6 -21 -19l-22 -14l-25 -10l-14 -6q-2 0 -5 -1t-7 -1h-4q-4 0 -7 -3q-2 0 -2 -2q-4 0 -4 -4q0 -2 2 -2h4 q4 0 7 2h4l26 9l27 12l27 10l26 16l23 17l20 18l17 21q4 4 7 9t5 11q4 12 4 19q2 10 0 18q-2 4 -3 7t-3 7q-6 6 -15 11q-6 2 -10 3t-10 1q-8 2 -23 2q-8 0 -24 -4q-14 0 -27.5 -4t-29.5 -9q-29 -8 -54 -22q-6 -4 -13 -7t-13 -7t-12.5 -8.5t-10.5 -10.5l-9 -9l-9 -9l-9 -21 q-4 -10 0 -16zM317 -115h25v-16q12 18 33 18q8 0 20 -4q6 -4 13 -12q4 -8 4 -21v-71h-29v63q0 12 -2 15q-4 8 -16 8q-8 0 -17 -8q-4 -12 -4 -17v-61h-27v106zM395 57q0 20 6 29q4 14 17 20q8 6 15 7.5t18 1.5q23 0 28 -9q12 -6 19 -22q4 -10 4 -31v-8h-78q0 -6 8 -18 q6 -6 19 -7q4 0 7 1.5t5 1.5q8 8 8 10h31q-6 -12 -10 -21q-4 -4 -8.5 -7t-8.5 -5l-12 -3t-12 -1q-55 0 -56 61zM428 68h45q-4 12 -8 16q-8 8 -14 8q-23 0 -23 -24zM430 -166q0 6 2 12.5t4 12.5q6 14 15 20q8 8 24 8q6 0 19 -4l7 -7t5 -7l2 16h24v-100q0 -10 -4 -27 q-6 -10 -16 -14q-12 -6 -33 -6q-4 0 -9 1t-9 1q-6 2 -19 10q-4 4 -4 8q-2 4 -2 11h27q2 -4 6 -9q2 -2 12 -2q12 0 15 2q8 6 8 9q0 2 1 3t1 3v6v12q-12 -14 -29 -14q-6 0 -11 1t-11 3q-10 8 -17 20q-4 6 -6 13.5t-2 17.5zM461 -168q0 -8 2 -14q0 -4 6 -11q8 -4 12 -4 q25 0 25 29q0 14 -8 23q-4 4 -8.5 7t-8.5 3q-8 0 -14 -10q-6 -6 -6 -23zM498 717q20 0 20 -15v-49q0 -8 10 -22l17 -4q4 -2 18 -2q12 0 25 4q8 4 10 6q8 6 8 22v50l10 8l2 2h9v4h-47v-4h10q2 0 4 -2q12 -4 12 -23v-33q0 -12 -10 -22l-12 -8h-15q-12 0 -18 2q-2 0 -10 8 q-4 4 -4 14v49q0 10 4 11q4 4 14 4h6v4h-63v-4zM510 92v21h16v28h31v-28h16v-21h-16v-61q0 -8 2 -8q0 -2 2 -3h8l2 3h2v-25h-16q-14 0 -20 4q-6 0 -9 8q-2 2 -2 13v69h-16zM510 821q2 -8 10 -12q10 -10 23 -6q14 0 26 6q10 2 17.5 6t15.5 8t15.5 9.5t15.5 13.5l24 20l15 15 q0 2 4 6q0 2 2 4l4 6l16 16l15 21q6 4 10 10t8 10l6 -2l4 -6q0 -2 2 -4v-2q0 -2 -2 -4t-4 -6l-16 -17l-14 -20l-13 -19l-4 -18q-2 -2 -2 -8v-6l4 -8h8q10 0 17 2l16 10q4 4 10.5 8t10.5 10q6 4 10 8.5t8 8.5q2 4 4 6t4 6l8 10l5 4l4 6q4 4 4 5l12 16l21 31q0 -4 1 -7.5 t1 -7.5q4 -12 4 -14l4 -8q-16 -4 -25 -13l-20 -14q-4 -4 -7.5 -9t-5.5 -9q-2 -6 -2 -17q0 -6 11 -10h18q12 0 25 8q16 8 22 17q6 4 9 8t8 8l8 18q6 8 6 19v16q0 6 -4 15l-6 16l-7 6q0 4 -4 8q0 2 -2 4v7v4h-8l-4 -4q-4 -2 -6 -4.5t-6 -4.5l-4 -12l-2 -2l-4 -6l-33 -45l-4 -6 l-6 -11h-3v-2q-2 0 -4 -2l-4 -8l-6 -8l-14 -18l-23 -21q-4 -4 -12 -6q-4 -4 -12 -4v2l8 10l6 10l8 11q4 4 6 8l9 14l10 14l4 15q2 6 2 14q-2 2 -2 8l-2 4q0 4 -2 7v22l6 10q4 6 -4 13q-4 6 -17 0q-10 -2 -16 -9q-6 -2 -10 -12q-4 -4 -4 -10q0 -8 2 -12l4 -2l4 -5l-6 -6 l-6 -6l-23 -31l-20 -22q-4 0 -4 -4v-2l-2 -2q0 -2 -2 -2l-11 -15q-8 -6 -14 -12t-14 -10q-12 -12 -33 -23q-12 -4 -21 -8q-12 -4 -18 -2q-6 0 -6 4q-2 2 -2 6q0 2 4 11l2 8l10 16q4 -2 12 -2h19q10 2 26 12q6 2 11.5 6.5t13.5 8.5l14 16q4 4 7.5 8t3.5 8l8 13q0 12 -4 14 q-4 8 -8 10h-19h-9t-9 -4q-4 -2 -10.5 -4t-10.5 -4q-27 -14 -45 -29q-18 -16 -29 -34q-4 -4 -6 -9.5t-6 -11.5q-6 -8 -8 -18v-17zM545 -115h14v27h29v-27h16v-20h-16v-55q0 -6 2 -9q0 -2 2 -2h6l4 2h2v-22h-6h-6h-4q-12 0 -17 2q-10 4 -10 8q-2 2 -2 12v64h-14v20zM567 870 l15 23l18 20l6 9q4 4 6 5t4 3l11 10l12 4q8 2 14 0v-10l-6 -8q-6 -6 -6 -11q-4 -4 -5 -6t-5 -4q0 -2 -8 -10q-2 -2 -3.5 -4t-5.5 -4q-4 -4 -6 -5t-4 -3l-12 -9q-6 -2 -12 -2q-10 0 -13 2zM610 -115h33l21 -78l20 78h31l-35 -102l-2 -2l-8 -23q-4 -10 -6 -12q-6 -6 -11 -6 q-4 0 -7 -1t-7 -1h-6h-8v22h8h8q2 0 6 4v5q2 2 2 6l-37 102zM639 694q0 -2 4 -10q0 -6 6 -6l13 -6q2 -2 20 -6l8 -2q8 -4 12 -5q4 0 9 -4q2 0 2 -2q6 -4 6 -10l-4 -8q-2 -4 -8 -6h-11q-10 0 -16 2l-16 6l-11 10q-10 10 -10 21h-2v-43h2q0 6 4 6q4 4 8 4q2 0 2 -1t5 -1 q2 0 3 -1t3 -1l14 -4q4 -2 14 -2q4 0 17 4q2 0 12 6q2 2 2 4t4 4v21l-6 6q-2 4 -12 8l-17 6h-10l-2 2q-4 2 -8 2t-6 2q-6 0 -8 2q-2 0 -7 4q-2 0 -2 4v2v9l4 4l9 4q2 0 4 1t6 1q6 0 14 -4q8 0 12 -4q8 -4 11 -8q4 -2 5 -7.5t5 -9.5h2v31h-2q-2 -6 -8 -6h-8q-16 10 -31 10 q-8 0 -21 -4l-12 -8q-2 -4 -3 -7.5t-1 -9.5zM641 92v21h14v8q0 33 35 33h15v-25h-9h-6q-4 0 -4 -4v-12h19v-21h-19v-94h-31v94h-14zM723 37v76h29v-70q0 -20 20 -20h10l11 10q0 2 2 5t2 7v68h26v-115h-26v16q-6 -8 -15 -12q-12 -6 -20 -6q-20 0 -29 12q-10 8 -10 29z M731 -115h25v-16h4q2 0 4 2l8 8q4 4 8 6q2 2 8 2q10 0 17 -4q8 -4 12 -8q8 -8 10 -20q6 -10 7 -23q0 -4 -1.5 -6t-1.5 -6t-2 -6t-4 -7q-4 -16 -12 -22q-10 -8 -25 -8q-10 0 -14 2t-8 6q-2 2 -6 2l-2 4v-51h-27v100v45zM741 627h103v39q-4 -4 -4 -7.5t-2 -5.5l-11 -14 q-6 -6 -8 -6l-10 -2q-4 -2 -12 -2h-15v41h2q8 0 19 -6l4 -7q0 -2 1 -3t1 -3v-8h2v59h-2v-8l-4 -10q-10 -10 -19 -10h-4v43h17q16 0 22 -2l8 -6l5 -11l6 -14h4v37h-103v-4h4q8 0 11 -4q6 0 6 -11v-57q0 -16 -17 -16h-4v-2zM756 -170q0 -14 8 -20q6 -8 16 -9q12 0 19 9 q4 12 4 22t-4 23q-4 4 -8.5 7t-10.5 3q-25 0 -24 -35zM793 868v9l4 10l6 8q8 10 18 18l23 11q0 -4 1 -6.5t1 -4.5q-2 -4 -2 -8v-12l-4 -8q-2 -4 -4 -5t-5 -6l-8 -6q-2 0 -3 -1t-5 -1q-2 -2 -8 -2q-4 -4 -8 0q-2 0 -6 4zM844 -166q0 17 4 25q6 14 16 20q10 8 27 8q23 0 31 -8 q10 -6 16 -22q4 -16 4 -27v-6h-72q0 -12 7 -19q6 -6 16 -6q6 0 14 4q4 4 6 9h27q-4 -16 -8 -21q-4 -4 -8 -6t-9 -4q-12 -4 -22 -4q-49 0 -49 57zM852 -2v156h29v-156h-29zM870 -158h43q0 10 -6 17q-4 2 -7 4t-9 2q-16 0 -21 -23zM903 -2v156h29v-156h-29zM905 674 q0 -14 4 -21q4 -4 6.5 -7t6.5 -7q6 -6 18 -10q6 -2 11 -3t12 -1q16 0 26 6q8 4 13.5 9t9.5 9q6 8 6 25q0 10 -4 16q-4 12 -10 17q-4 6 -19 10q-12 6 -22 6q-20 0 -29 -8q-8 -2 -12 -7.5t-9 -9.5q-8 -10 -8 -24zM915 901q0 -8 5 -8q4 -4 6 -5t4 -3h10h12q8 2 14.5 4t12.5 4 l27 14l22 21l19 16l14 21l10 16l6 18q4 10 0 15q0 6 -6 10q0 4 -10 8q-2 0 -6 1t-8 1q-6 0 -19 -4q-4 0 -6 -1l-6 -3l-12 -4l-25 -16q-6 -4 -11 -9.5t-12 -9.5l-16 -18l-12 -19q-10 -16 -13 -26v-23zM928 674q0 4 1 8t1 8l6 12q2 2 3 5.5t3 5.5t4 2t6 2q4 4 13 4q0 -2 2 -2 h4l6 -4l10 -8q0 -4 2 -7.5t4 -9.5q0 -2 1 -7t1 -9q0 -12 -4 -25q-4 -4 -6 -9t-6 -9q-4 -2 -16 -2q-10 0 -13 2q-8 0 -12 10l-6 12q-4 12 -4 21zM940 895v8v4q4 14 10 21q4 6 7.5 11t7.5 11l10 13l8 10l16 20l9.5 9.5l9.5 9.5l8 8l10 4q4 2 11 2l4 -2q2 -2 2 -8q0 -2 -4 -10 l-5 -9l-6 -10q-4 -8 -6 -10l-8 -12l-12 -19l-17 -18l-20 -21q0 -2 -10 -6q-2 -4 -13 -8h-8q-4 0 -4 2zM948 -115h17v9q0 29 30 28h13v-22h-7h-6l-2 -2l-2 -9v-4h19v-20h-19v-86h-26v86h-17v20zM1010 92v21h14v8q0 33 35 33h12v-25h-6h-6q-2 0 -4 -4v-12h20v-21h-20v-94h-31 v94h-14zM1018 -193q0 17 10 23q10 10 21 10l24 4q8 0 8 6q0 16 -14 17q-10 0 -12 -6q-6 -4 -6 -11h-27q0 14 6 21q6 10 14 12q4 2 11 2q4 2 14 2t16.5 -1t12.5 -3q8 -6 12 -12q2 -4 2 -14v-56q0 -10 2 -12q0 -2 4 -6v-4h-31v2q0 2 -1 2t-1 2v6q-4 -2 -5 -4t-3 -4 q-4 -2 -6 -2t-4 -2q-4 -2 -14 -2q-8 0 -15 2q-4 2 -7 4t-7 6q-4 8 -4 18zM1032 627h49v2q-6 0 -10 2h-8l-4 10q-2 2 -2 12v56l80 -82h4v65q0 8 1 12.5t3 8.5q4 4 16 4v4h-47v-4h8q0 -2 4 -2q6 -4 7 -8q4 -4 4 -15v-39l-66 68h-37v-4q8 0 10 -2q2 0 3.5 -1t3.5 -1q2 -4 2 -11 v-53q0 -6 -2 -10t-7 -8q-4 0 -7 -1t-5 -1v-2zM1047 -190q0 -4 4 -9q6 -6 8 -6q4 0 6 4h4q4 2 5 3t5 3q2 4 2 13v12l-8 -4l-14 -2q-4 0 -8 -4t-4 -10zM1051 905q2 0 3 -1t3 -1q4 0 8 2l8 4q0 2 4 6q2 0 2 1.5t2 1.5l4 6q0 4 5 4l16 22l20 21l17 20l22 21l21 20l8 8q4 2 10 9 l10 8l13 4q2 0 2 -2h-2l-4 -4q-2 -6 -9 -8l-4 -7l-12 -14q-4 -4 -6 -7t-6 -7q-10 -12 -15 -23l-14 -20q-2 -4 -3 -9.5t-3 -9.5q-4 -10 0 -16q2 -6 8 -6h19q4 2 9 5t13 7q12 8 19 14l20 21l2 2q-2 -2 -2 -6q0 -6 4 -15q2 -4 10 -8q6 -2 21 2q12 2 24 13l21 14l7 7l7 7l13 13 v-5q0 -2 -1.5 -3t-1.5 -3v-6q-4 -6 0 -10q0 -2 1.5 -3t1.5 -3q0 -6 6 -6h6h10l6 4l8 6l13 6l32 27l17 16l-4 -12q-4 -6 -4 -19v-6q2 0 4 -2q0 -2 6 -2q4 0 8 4q8 0 12 6l11 6l12 13q2 0 10 8l9 9t10 9l18 21v4q0 2 -2 2q-4 0 -8 -4l-2 -4l-13 -15l-10 -12q-10 -6 -12 -12 l-14 -12l-9 -7l-8 -2l-2 -2q-2 0 -4 2h2l8 15q4 8 8 12l7 12q4 2 8 11l63 92q10 10 13 16l16 16l37 43q10 10 17 20.5t16 20.5l10 19v8q-2 2 -8 2q-2 0 -11 -4q-4 0 -6 -2t-6 -4q-4 0 -10 -6l-8 -6q-6 -4 -11.5 -9.5t-11.5 -9.5l-16 -18q-6 -6 -10.5 -11.5t-8.5 -11.5 q-2 -4 -6 -9t-8 -11q-16 -23 -27 -41l-26 -45l-19 -33l-8 -16h-2l-14 -15q-4 -6 -8.5 -10t-10.5 -10l-18 -17l-10 -8l-7 -4l-4 -2l-4 -4h-6h-4l6 10l6 10q0 2 2 4q4 8 8.5 14.5t10.5 12.5q4 6 8 13.5t8 15.5l15 20l8 13q2 4 3 5t3 5l2 2l2 2q0 2 1 2t1 2q6 4 4 8q0 2 -6 2 l-10 -4l-10 -6l-19 -12q-8 -8 -14 -13q0 6 -2 11q0 2 -6 6q-12 2 -21 0q-16 -4 -22 -8q-8 -4 -13.5 -6.5t-11.5 -6.5q-8 -6 -18 -16q-27 -18 -37 -39q-14 -16 -21 -37h-4q-4 -6 -16 -18q-6 -4 -11.5 -8.5t-11.5 -8.5q-2 -4 -12 -8q-4 -4 -10 -4h-2q-2 2 0 4l6 8l6 11l12 14 l21 27q4 6 9 13t9 15l8 17q4 10 2 16q0 6 -2 6q0 4 -6 4t-8 -2l-12 -4l-13 -8q-4 -2 -10 -8q-4 -4 -6 -5t-4 -4q-8 -8 -12 -8l-21 -22q-4 -4 -9 -9.5t-9 -9.5l-11 -12l-10 -10l2 4l25 35l26 37q0 2 1.5 2t1.5 2q2 2 2 4q2 2 2 6l-7 6q-2 0 -3 1t-3 1t-4 -1t-6 -1l-10 -6 l-4 -4q-4 -2 -4 -4t-2 -4l-5 -7l-77 -133q-2 -2 -2 -4v-2zM1083 55q0 6 1 11.5t3 11.5q2 10 11 18q10 10 20 15q6 4 25 4q16 0 24 -4q4 -4 8.5 -5.5t8.5 -5.5t6 -9t6 -11q4 -12 4 -25q0 -16 -8 -30q-2 -8 -18 -21q-10 -8 -31 -8q-20 0 -35 8q-6 4 -10 10t-8 13q-6 12 -7 28z M1114 55q0 -8 2 -13t4 -9q4 -10 23 -10q16 0 20 10q6 6 6 22q0 14 -6 25q-6 10 -20 10q-16 0 -23 -10q-2 -4 -4 -10.5t-2 -14.5zM1128 -170q1 16 11 41q12 16 39 16q10 0 22 -4q8 -2 17 -14q4 -6 7 -11t3 -12h-31q0 4 -4 13q-6 6 -12 6q-10 0 -17 -10q-8 -6 -8 -21 q0 -6 1 -10t1 -8q4 -4 5 -6.5t3 -4.5q4 -4 13 -4q8 0 12 4q6 2 6 13h27q0 -10 -6 -23q-4 -4 -7.5 -7t-7.5 -5q-12 -6 -24 -6q-23 0 -35 12q-6 2 -10 16q-4 12 -5 25zM1167 627h107v41h-2q-4 -4 -4 -6.5t-2 -6.5q-4 -4 -4 -8q-2 -2 -2 -3t-3 -3q-8 -8 -12 -10q-2 0 -6 -1 t-8 -1h-25v73q0 10 6 11q2 4 13 4h6v4h-64v-4h4q16 0 17 -15v-57q0 -16 -17 -16h-4v-2zM1221 -2v115h28v-17q12 18 35 19q14 0 21 -4l14 -13q4 -12 4 -20v-80h-29v70q0 8 -4 16q-6 6 -16 6q-12 0 -19 -8q-4 -4 -4 -19v-65h-30zM1237 -166q0 9 4 25q6 14 16 20q10 8 29 8 q20 0 29 -8q10 -6 14 -22q6 -12 6 -27v-6h-71q0 -12 6 -19q6 -6 16 -6q6 0 14 4q4 4 7 9h26q-4 -16 -10 -21q-8 -8 -14 -10q-12 -4 -23 -4q-49 0 -49 57zM1264 -158h43q0 10 -7 17q-4 2 -7 4t-9 2q-16 0 -20 -23zM1266 963l2 2q0 2 2 4q4 8 6 10l8 10q2 8 6 12q2 4 8 11 l19 24l26 33l7 8l8 6l8 7q2 2 8 2q4 2 8 2l7 -4q0 -2 1 -3.5t1 -3.5q0 -4 -2 -8q0 -2 -5 -6l-16 -22l-12 -23l-17 -14l-16 -19q-2 -2 -4 -3t-6 -5l-13 -10q-2 -2 -4 -3t-6 -5q-4 0 -5 -2t-5 -2q-8 -4 -10 -3h-2q-2 2 -2 5zM1268 717h2q10 0 14 -2l4 -4t4 -6l29 -39v-21 q0 -10 -2 -12q-8 -4 -14 -4h-7v-2h68v2h-8q-8 0 -12 4t-5 12v23l25 34l4 7q8 4 10 4q0 2 4 2q2 0 3.5 1t3.5 1h2v4h-47v-4h6q8 0 10 -2q4 -2 4 -6t-6 -11l-19 -26l-24 30q-4 8 -4 9v2q0 2 2 2q0 2 6 2h8v4h-61v-4zM1337 92v21h19v28h26v-28h21v-21h-21v-61v-6q0 -2 2 -2 q4 0 5.5 -1.5t5.5 -1.5l4 3h4v-25h-21q-14 0 -16 4q-8 0 -10 8v82h-19zM1352 -190h30v-31h-30v31zM1401 -170q0 16 10 41q12 16 39 16q10 0 23 -4q6 -2 18 -14q8 -10 8 -23h-29l-6 13q-6 6 -12 6q-10 0 -16 -10q-6 -6 -6 -21q0 -6 1 -10t1 -8q4 -8 8 -11q2 -4 10 -4 q10 0 12 4q6 2 6 13h31q-4 -12 -8 -23q-4 -4 -8 -7t-8 -5q-10 -6 -25 -6q-20 0 -35 12q-6 2 -10 16q-4 12 -4 25zM1473 31q0 16 8 24q16 8 24 11l27 4q10 0 10 8q0 14 -18 14q-8 0 -13 -4q-6 -2 -8 -14h-26q0 14 6 24q4 6 16 13q4 4 12 4h13q25 0 32 -4l7.5 -7.5t5.5 -7.5 t2 -14v-72q0 -6 8 -6v-6h-33q-2 0 -2 2v2v2q0 4 -1 5t-1 3l-8 -8q-2 -2 -3 -2t-3 -2t-4 -2q-6 0 -9.5 -1t-7.5 -1t-8 1t-8 1q-4 4 -7 6t-7 6q-4 8 -4 21zM1501 31q0 -8 4 -8q4 -4 11 -5h8l4 2q10 4 10 7q4 8 4 14v14q-6 -6 -12 -6l-14 -4q-6 0 -11 -4q-4 -2 -4 -10z M1511 -168q0 13 2 21q4 12 11 18q6 8 16 12q12 4 25 4q10 0 22 -4l8 -4t9 -6q4 -4 5 -9t5 -9q2 -6 2 -23q0 -16 -6 -29q-4 -14 -17 -20q-12 -6 -28 -6q-20 0 -31 8q-12 6 -18 20q-4 16 -5 27zM1538 -168q0 -14 6 -22q2 -4 8.5 -6.5t12.5 -2.5q16 0 18 9q6 8 6 22q0 13 -6 23 q-4 10 -18 10q-16 0 -21 -10q-6 -10 -6 -23zM1567 1167l28 37l13 23l26 35l2 2q0 4 4 4q0 2 2 2q0 -8 -2 -10l-8 -11l-6 -10q-2 -2 -3 -4t-3 -4l-16 -21l-19 -20l-10 -12q-4 -8 -8 -11zM1585 92v21h14v28h33v-28h19v-21h-19v-61v-8q2 0 4 -1.5t6 -1.5l5 3h4v-25h-19 q-14 0 -20 4q-6 0 -8 8q0 2 -2.5 5t-2.5 8v69h-14zM1636 -115h27v-16q8 18 31 18q8 0 16 -4q6 -4 12 -12q2 8 11 12q8 4 16 4q10 0 23 -4q8 -8 10 -14q4 -8 4 -19v-71h-27v63q0 23 -16 23q-18 0 -19 -23v-63h-26v63v11q0 4 -4 8t-15 4q-16 0 -16 -23v-63h-27v106z" />
<glyph unicode="8" d="M70 -193q0 17 8 23q10 10 20 10l27 4q10 0 10 6q0 16 -16 17q-10 0 -13 -6q-8 -2 -8 -11h-24q0 14 6 21q2 8 12 12q4 2 14 2q4 2 13 2q14 0 26 -4q8 -6 13 -12q2 -4 2 -14v-56q0 -10 2 -12q0 -2 4 -6v-4h-29v2v4q-2 2 -2 6l-8 -8q-4 -2 -6 -2t-4 -2q-4 -2 -13 -2 q-12 0 -18 2q-6 4 -10 10q-6 6 -6 18zM96 -190q0 -4 4 -9q4 -2 6.5 -4t4.5 -2q4 0 6 4h4q8 4 10 6q4 8 4 13v12q-2 0 -10 -4l-12 -2q-4 0 -13 -4q-4 -4 -4 -10zM125 565v494l268 59l-10 37l41 12l-8 39l41 8l-6 46l41 2v41h36l4 36l39 -6l9 41l43 -6l10 39l39 -10l16 37 l39 -17l23 39l34 -18l23 35l37 -25l24 33l35 -27l27 29l26 -25l27 23l27 -29l34 23l23 -37l39 20l18 -35l37 17l17 -41l43 12l12 -39l39 10l8 -43l43 4l2 -26l404 88v-496l-185 -41l4 -2l-24 -26l24 -29l-32 -27l22 -34l-37 -23l23 -37l-35 -20l14 -37l-39 -17l13 -43 l-37 -12l6 -39l-41 -8l2 -43l-39 -4v-39h-35l-6 -37l-39 2l-8 -37l-43 6l-10 -40l-39 12l-14 -39l-44 16l-18 -39l-37 21l-22 -35l-37 23l-25 -33l-30 26l-31 -26l-27 24l-26 -24l-25 31l-35 -23l-24 37l-37 -21l-19 35l-39 -16l-18 41l-39 -13l-12 37l-41 -8l-8 43l-43 -4 l-5 41h-40v35l-35 4l4 41l-41 6l8 43l-41 12l12 37l-28 12zM186 -115h25v-18h2q4 8 6 10t3 4t5 4q2 2 15 2h2h4v-28h-8q-27 0 -27 -25v-55h-27v106zM236 76v16q0 4 2 7t2 7q2 12 14 25q4 6 10 10t12 9q14 6 33 6h6q4 0 8.5 -1t8.5 -1q8 0 14 -7q14 -8 21 -18q4 -4 8 -12 q0 -2 1 -3t1 -3v-5h-33v3q0 2 -4 6q-2 4 -4 5t-6 5q-6 4 -19 4h-8h-6l-14 -12q-10 -6 -11 -15q-4 -8 -4 -28q0 -8 1 -14.5t3 -14.5q2 -10 13 -14q6 -4 10 -6t10 -2h4q12 0 19 4q4 0 7 3l5 5q4 6 6 10t2 10h-37v27h66v-84h-21l-4 20q-6 -8 -14 -14q-4 -4 -9 -5t-10 -3 q-4 0 -9 -1t-9 -1q-12 0 -25 6q-14 6 -20 16q-8 6 -16 27q-4 10 -4 33zM236 702h10l8 5l10 10l8 10l11 10q4 8 8 13l63 86l19 30l20 31q6 8 11.5 15.5t9.5 15.5q4 10 8 17t8 16q2 4 0 6t-4 2q-8 0 -10 -2l-8 -4l-17 -21l-16 -20q-6 -6 -15 -19l-16 -20l-55 -80l-27 -41 q-6 -10 -11 -21.5t-11 -21.5l-4 -6v-4v-4v-3zM262 -78h29v-24h-29v24zM262 -115h29v-106h-29v106zM276 889q2 -4 4.5 -6t6.5 -6l18 -7q14 0 23 2q4 0 4 2q2 2 2 5q0 2 -2 2h-4q-4 0 -4 -2q-14 -2 -29 2q-8 4 -10 8q0 4 -1 5t-1 5q0 6 2 12l6 15l16 18q4 4 10.5 8t12.5 9 q6 4 11 7t13 7l25 12q8 0 14 2t15 6l28 4q16 4 27 5q6 0 22 -5q10 0 15 -6l10 -12v-16q0 -12 -2 -21l-10 -18q-4 -6 -7.5 -11.5t-7.5 -9.5q-4 -6 -9 -10t-11 -10q-4 -6 -21 -19l-22 -14l-25 -10l-14 -6q-2 0 -5 -1t-7 -1h-4q-4 0 -7 -3q-2 0 -2 -2q-4 0 -4 -4q0 -2 2 -2h4 q4 0 7 2h4l26 9l27 12l27 10l26 16l23 17l20 18l17 21q4 4 7 9t5 11q4 12 4 19q2 10 0 18q-2 4 -3 7t-3 7q-6 6 -15 11q-6 2 -10 3t-10 1q-8 2 -23 2q-8 0 -24 -4q-14 0 -27.5 -4t-29.5 -9q-29 -8 -54 -22q-6 -4 -13 -7t-13 -7t-12.5 -8.5t-10.5 -10.5l-9 -9l-9 -9l-9 -21 q-4 -10 0 -16zM317 -115h25v-16q12 18 33 18q8 0 20 -4q6 -4 13 -12q4 -8 4 -21v-71h-29v63q0 12 -2 15q-4 8 -16 8q-8 0 -17 -8q-4 -12 -4 -17v-61h-27v106zM395 57q0 20 6 29q4 14 17 20q8 6 15 7.5t18 1.5q23 0 28 -9q12 -6 19 -22q4 -10 4 -31v-8h-78q0 -6 8 -18 q6 -6 19 -7q4 0 7 1.5t5 1.5q8 8 8 10h31q-6 -12 -10 -21q-4 -4 -8.5 -7t-8.5 -5l-12 -3t-12 -1q-55 0 -56 61zM428 68h45q-4 12 -8 16q-8 8 -14 8q-23 0 -23 -24zM430 -166q0 6 2 12.5t4 12.5q6 14 15 20q8 8 24 8q6 0 19 -4l7 -7t5 -7l2 16h24v-100q0 -10 -4 -27 q-6 -10 -16 -14q-12 -6 -33 -6q-4 0 -9 1t-9 1q-6 2 -19 10q-4 4 -4 8q-2 4 -2 11h27q2 -4 6 -9q2 -2 12 -2q12 0 15 2q8 6 8 9q0 2 1 3t1 3v6v12q-12 -14 -29 -14q-6 0 -11 1t-11 3q-10 8 -17 20q-4 6 -6 13.5t-2 17.5zM461 -168q0 -8 2 -14q0 -4 6 -11q8 -4 12 -4 q25 0 25 29q0 14 -8 23q-4 4 -8.5 7t-8.5 3q-8 0 -14 -10q-6 -6 -6 -23zM498 717q20 0 20 -15v-49q0 -8 10 -22l17 -4q4 -2 18 -2q12 0 25 4q8 4 10 6q8 6 8 22v50l10 8l2 2h9v4h-47v-4h10q2 0 4 -2q12 -4 12 -23v-33q0 -12 -10 -22l-12 -8h-15q-12 0 -18 2q-2 0 -10 8 q-4 4 -4 14v49q0 10 4 11q4 4 14 4h6v4h-63v-4zM510 92v21h16v28h31v-28h16v-21h-16v-61q0 -8 2 -8q0 -2 2 -3h8l2 3h2v-25h-16q-14 0 -20 4q-6 0 -9 8q-2 2 -2 13v69h-16zM510 821q2 -8 10 -12q10 -10 23 -6q14 0 26 6q10 2 17.5 6t15.5 8t15.5 9.5t15.5 13.5l24 20l15 15 q0 2 4 6q0 2 2 4l4 6l16 16l15 21q6 4 10 10t8 10l6 -2l4 -6q0 -2 2 -4v-2q0 -2 -2 -4t-4 -6l-16 -17l-14 -20l-13 -19l-4 -18q-2 -2 -2 -8v-6l4 -8h8q10 0 17 2l16 10q4 4 10.5 8t10.5 10q6 4 10 8.5t8 8.5q2 4 4 6t4 6l8 10l5 4l4 6q4 4 4 5l12 16l21 31q0 -4 1 -7.5 t1 -7.5q4 -12 4 -14l4 -8q-16 -4 -25 -13l-20 -14q-4 -4 -7.5 -9t-5.5 -9q-2 -6 -2 -17q0 -6 11 -10h18q12 0 25 8q16 8 22 17q6 4 9 8t8 8l8 18q6 8 6 19v16q0 6 -4 15l-6 16l-7 6q0 4 -4 8q0 2 -2 4v7v4h-8l-4 -4q-4 -2 -6 -4.5t-6 -4.5l-4 -12l-2 -2l-4 -6l-33 -45l-4 -6 l-6 -11h-3v-2q-2 0 -4 -2l-4 -8l-6 -8l-14 -18l-23 -21q-4 -4 -12 -6q-4 -4 -12 -4v2l8 10l6 10l8 11q4 4 6 8l9 14l10 14l4 15q2 6 2 14q-2 2 -2 8l-2 4q0 4 -2 7v22l6 10q4 6 -4 13q-4 6 -17 0q-10 -2 -16 -9q-6 -2 -10 -12q-4 -4 -4 -10q0 -8 2 -12l4 -2l4 -5l-6 -6 l-6 -6l-23 -31l-20 -22q-4 0 -4 -4v-2l-2 -2q0 -2 -2 -2l-11 -15q-8 -6 -14 -12t-14 -10q-12 -12 -33 -23q-12 -4 -21 -8q-12 -4 -18 -2q-6 0 -6 4q-2 2 -2 6q0 2 4 11l2 8l10 16q4 -2 12 -2h19q10 2 26 12q6 2 11.5 6.5t13.5 8.5l14 16q4 4 7.5 8t3.5 8l8 13q0 12 -4 14 q-4 8 -8 10h-19h-9t-9 -4q-4 -2 -10.5 -4t-10.5 -4q-27 -14 -45 -29q-18 -16 -29 -34q-4 -4 -6 -9.5t-6 -11.5q-6 -8 -8 -18v-17zM545 -115h14v27h29v-27h16v-20h-16v-55q0 -6 2 -9q0 -2 2 -2h6l4 2h2v-22h-6h-6h-4q-12 0 -17 2q-10 4 -10 8q-2 2 -2 12v64h-14v20zM567 870 l15 23l18 20l6 9q4 4 6 5t4 3l11 10l12 4q8 2 14 0v-10l-6 -8q-6 -6 -6 -11q-4 -4 -5 -6t-5 -4q0 -2 -8 -10q-2 -2 -3.5 -4t-5.5 -4q-4 -4 -6 -5t-4 -3l-12 -9q-6 -2 -12 -2q-10 0 -13 2zM610 -115h33l21 -78l20 78h31l-35 -102l-2 -2l-8 -23q-4 -10 -6 -12q-6 -6 -11 -6 q-4 0 -7 -1t-7 -1h-6h-8v22h8h8q2 0 6 4v5q2 2 2 6l-37 102zM639 694q0 -2 4 -10q0 -6 6 -6l13 -6q2 -2 20 -6l8 -2q8 -4 12 -5q4 0 9 -4q2 0 2 -2q6 -4 6 -10l-4 -8q-2 -4 -8 -6h-11q-10 0 -16 2l-16 6l-11 10q-10 10 -10 21h-2v-43h2q0 6 4 6q4 4 8 4q2 0 2 -1t5 -1 q2 0 3 -1t3 -1l14 -4q4 -2 14 -2q4 0 17 4q2 0 12 6q2 2 2 4t4 4v21l-6 6q-2 4 -12 8l-17 6h-10l-2 2q-4 2 -8 2t-6 2q-6 0 -8 2q-2 0 -7 4q-2 0 -2 4v2v9l4 4l9 4q2 0 4 1t6 1q6 0 14 -4q8 0 12 -4q8 -4 11 -8q4 -2 5 -7.5t5 -9.5h2v31h-2q-2 -6 -8 -6h-8q-16 10 -31 10 q-8 0 -21 -4l-12 -8q-2 -4 -3 -7.5t-1 -9.5zM641 92v21h14v8q0 33 35 33h15v-25h-9h-6q-4 0 -4 -4v-12h19v-21h-19v-94h-31v94h-14zM723 37v76h29v-70q0 -20 20 -20h10l11 10q0 2 2 5t2 7v68h26v-115h-26v16q-6 -8 -15 -12q-12 -6 -20 -6q-20 0 -29 12q-10 8 -10 29z M731 -115h25v-16h4q2 0 4 2l8 8q4 4 8 6q2 2 8 2q10 0 17 -4q8 -4 12 -8q8 -8 10 -20q6 -10 7 -23q0 -4 -1.5 -6t-1.5 -6t-2 -6t-4 -7q-4 -16 -12 -22q-10 -8 -25 -8q-10 0 -14 2t-8 6q-2 2 -6 2l-2 4v-51h-27v100v45zM741 627h103v39q-4 -4 -4 -7.5t-2 -5.5l-11 -14 q-6 -6 -8 -6l-10 -2q-4 -2 -12 -2h-15v41h2q8 0 19 -6l4 -7q0 -2 1 -3t1 -3v-8h2v59h-2v-8l-4 -10q-10 -10 -19 -10h-4v43h17q16 0 22 -2l8 -6l5 -11l6 -14h4v37h-103v-4h4q8 0 11 -4q6 0 6 -11v-57q0 -16 -17 -16h-4v-2zM756 -170q0 -14 8 -20q6 -8 16 -9q12 0 19 9 q4 12 4 22t-4 23q-4 4 -8.5 7t-10.5 3q-25 0 -24 -35zM793 868v9l4 10l6 8q8 10 18 18l23 11q0 -4 1 -6.5t1 -4.5q-2 -4 -2 -8v-12l-4 -8q-2 -4 -4 -5t-5 -6l-8 -6q-2 0 -3 -1t-5 -1q-2 -2 -8 -2q-4 -4 -8 0q-2 0 -6 4zM844 -166q0 17 4 25q6 14 16 20q10 8 27 8q23 0 31 -8 q10 -6 16 -22q4 -16 4 -27v-6h-72q0 -12 7 -19q6 -6 16 -6q6 0 14 4q4 4 6 9h27q-4 -16 -8 -21q-4 -4 -8 -6t-9 -4q-12 -4 -22 -4q-49 0 -49 57zM852 -2v156h29v-156h-29zM870 -158h43q0 10 -6 17q-4 2 -7 4t-9 2q-16 0 -21 -23zM903 -2v156h29v-156h-29zM905 674 q0 -14 4 -21q4 -4 6.5 -7t6.5 -7q6 -6 18 -10q6 -2 11 -3t12 -1q16 0 26 6q8 4 13.5 9t9.5 9q6 8 6 25q0 10 -4 16q-4 12 -10 17q-4 6 -19 10q-12 6 -22 6q-20 0 -29 -8q-8 -2 -12 -7.5t-9 -9.5q-8 -10 -8 -24zM915 901q0 -8 5 -8q4 -4 6 -5t4 -3h10h12q8 2 14.5 4t12.5 4 l27 14l22 21l19 16l14 21l10 16l6 18q4 10 0 15q0 6 -6 10q0 4 -10 8q-2 0 -6 1t-8 1q-6 0 -19 -4q-4 0 -6 -1l-6 -3l-12 -4l-25 -16q-6 -4 -11 -9.5t-12 -9.5l-16 -18l-12 -19q-10 -16 -13 -26v-23zM928 674q0 4 1 8t1 8l6 12q2 2 3 5.5t3 5.5t4 2t6 2q4 4 13 4q0 -2 2 -2 h4l6 -4l10 -8q0 -4 2 -7.5t4 -9.5q0 -2 1 -7t1 -9q0 -12 -4 -25q-4 -4 -6 -9t-6 -9q-4 -2 -16 -2q-10 0 -13 2q-8 0 -12 10l-6 12q-4 12 -4 21zM940 895v8v4q4 14 10 21q4 6 7.5 11t7.5 11l10 13l8 10l16 20l9.5 9.5l9.5 9.5l8 8l10 4q4 2 11 2l4 -2q2 -2 2 -8q0 -2 -4 -10 l-5 -9l-6 -10q-4 -8 -6 -10l-8 -12l-12 -19l-17 -18l-20 -21q0 -2 -10 -6q-2 -4 -13 -8h-8q-4 0 -4 2zM948 -115h17v9q0 29 30 28h13v-22h-7h-6l-2 -2l-2 -9v-4h19v-20h-19v-86h-26v86h-17v20zM1010 92v21h14v8q0 33 35 33h12v-25h-6h-6q-2 0 -4 -4v-12h20v-21h-20v-94h-31 v94h-14zM1018 -193q0 17 10 23q10 10 21 10l24 4q8 0 8 6q0 16 -14 17q-10 0 -12 -6q-6 -4 -6 -11h-27q0 14 6 21q6 10 14 12q4 2 11 2q4 2 14 2t16.5 -1t12.5 -3q8 -6 12 -12q2 -4 2 -14v-56q0 -10 2 -12q0 -2 4 -6v-4h-31v2q0 2 -1 2t-1 2v6q-4 -2 -5 -4t-3 -4 q-4 -2 -6 -2t-4 -2q-4 -2 -14 -2q-8 0 -15 2q-4 2 -7 4t-7 6q-4 8 -4 18zM1032 627h49v2q-6 0 -10 2h-8l-4 10q-2 2 -2 12v56l80 -82h4v65q0 8 1 12.5t3 8.5q4 4 16 4v4h-47v-4h8q0 -2 4 -2q6 -4 7 -8q4 -4 4 -15v-39l-66 68h-37v-4q8 0 10 -2q2 0 3.5 -1t3.5 -1q2 -4 2 -11 v-53q0 -6 -2 -10t-7 -8q-4 0 -7 -1t-5 -1v-2zM1047 -190q0 -4 4 -9q6 -6 8 -6q4 0 6 4h4q4 2 5 3t5 3q2 4 2 13v12l-8 -4l-14 -2q-4 0 -8 -4t-4 -10zM1051 905q2 0 3 -1t3 -1q4 0 8 2l8 4q0 2 4 6q2 0 2 1.5t2 1.5l4 6q0 4 5 4l16 22l20 21l17 20l22 21l21 20l8 8q4 2 10 9 l10 8l13 4q2 0 2 -2h-2l-4 -4q-2 -6 -9 -8l-4 -7l-12 -14q-4 -4 -6 -7t-6 -7q-10 -12 -15 -23l-14 -20q-2 -4 -3 -9.5t-3 -9.5q-4 -10 0 -16q2 -6 8 -6h19q4 2 9 5t13 7q12 8 19 14l20 21l2 2q-2 -2 -2 -6q0 -6 4 -15q2 -4 10 -8q6 -2 21 2q12 2 24 13l21 14l7 7l7 7l13 13 v-5q0 -2 -1.5 -3t-1.5 -3v-6q-4 -6 0 -10q0 -2 1.5 -3t1.5 -3q0 -6 6 -6h6h10l6 4l8 6l13 6l32 27l17 16l-4 -12q-4 -6 -4 -19v-6q2 0 4 -2q0 -2 6 -2q4 0 8 4q8 0 12 6l11 6l12 13q2 0 10 8l9 9t10 9l18 21v4q0 2 -2 2q-4 0 -8 -4l-2 -4l-13 -15l-10 -12q-10 -6 -12 -12 l-14 -12l-9 -7l-8 -2l-2 -2q-2 0 -4 2h2l8 15q4 8 8 12l7 12q4 2 8 11l63 92q10 10 13 16l16 16l37 43q10 10 17 20.5t16 20.5l10 19v8q-2 2 -8 2q-2 0 -11 -4q-4 0 -6 -2t-6 -4q-4 0 -10 -6l-8 -6q-6 -4 -11.5 -9.5t-11.5 -9.5l-16 -18q-6 -6 -10.5 -11.5t-8.5 -11.5 q-2 -4 -6 -9t-8 -11q-16 -23 -27 -41l-26 -45l-19 -33l-8 -16h-2l-14 -15q-4 -6 -8.5 -10t-10.5 -10l-18 -17l-10 -8l-7 -4l-4 -2l-4 -4h-6h-4l6 10l6 10q0 2 2 4q4 8 8.5 14.5t10.5 12.5q4 6 8 13.5t8 15.5l15 20l8 13q2 4 3 5t3 5l2 2l2 2q0 2 1 2t1 2q6 4 4 8q0 2 -6 2 l-10 -4l-10 -6l-19 -12q-8 -8 -14 -13q0 6 -2 11q0 2 -6 6q-12 2 -21 0q-16 -4 -22 -8q-8 -4 -13.5 -6.5t-11.5 -6.5q-8 -6 -18 -16q-27 -18 -37 -39q-14 -16 -21 -37h-4q-4 -6 -16 -18q-6 -4 -11.5 -8.5t-11.5 -8.5q-2 -4 -12 -8q-4 -4 -10 -4h-2q-2 2 0 4l6 8l6 11l12 14 l21 27q4 6 9 13t9 15l8 17q4 10 2 16q0 6 -2 6q0 4 -6 4t-8 -2l-12 -4l-13 -8q-4 -2 -10 -8q-4 -4 -6 -5t-4 -4q-8 -8 -12 -8l-21 -22q-4 -4 -9 -9.5t-9 -9.5l-11 -12l-10 -10l2 4l25 35l26 37q0 2 1.5 2t1.5 2q2 2 2 4q2 2 2 6l-7 6q-2 0 -3 1t-3 1t-4 -1t-6 -1l-10 -6 l-4 -4q-4 -2 -4 -4t-2 -4l-5 -7l-77 -133q-2 -2 -2 -4v-2zM1083 55q0 6 1 11.5t3 11.5q2 10 11 18q10 10 20 15q6 4 25 4q16 0 24 -4q4 -4 8.5 -5.5t8.5 -5.5t6 -9t6 -11q4 -12 4 -25q0 -16 -8 -30q-2 -8 -18 -21q-10 -8 -31 -8q-20 0 -35 8q-6 4 -10 10t-8 13q-6 12 -7 28z M1114 55q0 -8 2 -13t4 -9q4 -10 23 -10q16 0 20 10q6 6 6 22q0 14 -6 25q-6 10 -20 10q-16 0 -23 -10q-2 -4 -4 -10.5t-2 -14.5zM1128 -170q1 16 11 41q12 16 39 16q10 0 22 -4q8 -2 17 -14q4 -6 7 -11t3 -12h-31q0 4 -4 13q-6 6 -12 6q-10 0 -17 -10q-8 -6 -8 -21 q0 -6 1 -10t1 -8q4 -4 5 -6.5t3 -4.5q4 -4 13 -4q8 0 12 4q6 2 6 13h27q0 -10 -6 -23q-4 -4 -7.5 -7t-7.5 -5q-12 -6 -24 -6q-23 0 -35 12q-6 2 -10 16q-4 12 -5 25zM1167 627h107v41h-2q-4 -4 -4 -6.5t-2 -6.5q-4 -4 -4 -8q-2 -2 -2 -3t-3 -3q-8 -8 -12 -10q-2 0 -6 -1 t-8 -1h-25v73q0 10 6 11q2 4 13 4h6v4h-64v-4h4q16 0 17 -15v-57q0 -16 -17 -16h-4v-2zM1221 -2v115h28v-17q12 18 35 19q14 0 21 -4l14 -13q4 -12 4 -20v-80h-29v70q0 8 -4 16q-6 6 -16 6q-12 0 -19 -8q-4 -4 -4 -19v-65h-30zM1237 -166q0 9 4 25q6 14 16 20q10 8 29 8 q20 0 29 -8q10 -6 14 -22q6 -12 6 -27v-6h-71q0 -12 6 -19q6 -6 16 -6q6 0 14 4q4 4 7 9h26q-4 -16 -10 -21q-8 -8 -14 -10q-12 -4 -23 -4q-49 0 -49 57zM1264 -158h43q0 10 -7 17q-4 2 -7 4t-9 2q-16 0 -20 -23zM1266 963l2 2q0 2 2 4q4 8 6 10l8 10q2 8 6 12q2 4 8 11 l19 24l26 33l7 8l8 6l8 7q2 2 8 2q4 2 8 2l7 -4q0 -2 1 -3.5t1 -3.5q0 -4 -2 -8q0 -2 -5 -6l-16 -22l-12 -23l-17 -14l-16 -19q-2 -2 -4 -3t-6 -5l-13 -10q-2 -2 -4 -3t-6 -5q-4 0 -5 -2t-5 -2q-8 -4 -10 -3h-2q-2 2 -2 5zM1268 717h2q10 0 14 -2l4 -4t4 -6l29 -39v-21 q0 -10 -2 -12q-8 -4 -14 -4h-7v-2h68v2h-8q-8 0 -12 4t-5 12v23l25 34l4 7q8 4 10 4q0 2 4 2q2 0 3.5 1t3.5 1h2v4h-47v-4h6q8 0 10 -2q4 -2 4 -6t-6 -11l-19 -26l-24 30q-4 8 -4 9v2q0 2 2 2q0 2 6 2h8v4h-61v-4zM1337 92v21h19v28h26v-28h21v-21h-21v-61v-6q0 -2 2 -2 q4 0 5.5 -1.5t5.5 -1.5l4 3h4v-25h-21q-14 0 -16 4q-8 0 -10 8v82h-19zM1352 -190h30v-31h-30v31zM1401 -170q0 16 10 41q12 16 39 16q10 0 23 -4q6 -2 18 -14q8 -10 8 -23h-29l-6 13q-6 6 -12 6q-10 0 -16 -10q-6 -6 -6 -21q0 -6 1 -10t1 -8q4 -8 8 -11q2 -4 10 -4 q10 0 12 4q6 2 6 13h31q-4 -12 -8 -23q-4 -4 -8 -7t-8 -5q-10 -6 -25 -6q-20 0 -35 12q-6 2 -10 16q-4 12 -4 25zM1473 31q0 16 8 24q16 8 24 11l27 4q10 0 10 8q0 14 -18 14q-8 0 -13 -4q-6 -2 -8 -14h-26q0 14 6 24q4 6 16 13q4 4 12 4h13q25 0 32 -4l7.5 -7.5t5.5 -7.5 t2 -14v-72q0 -6 8 -6v-6h-33q-2 0 -2 2v2v2q0 4 -1 5t-1 3l-8 -8q-2 -2 -3 -2t-3 -2t-4 -2q-6 0 -9.5 -1t-7.5 -1t-8 1t-8 1q-4 4 -7 6t-7 6q-4 8 -4 21zM1501 31q0 -8 4 -8q4 -4 11 -5h8l4 2q10 4 10 7q4 8 4 14v14q-6 -6 -12 -6l-14 -4q-6 0 -11 -4q-4 -2 -4 -10z M1511 -168q0 13 2 21q4 12 11 18q6 8 16 12q12 4 25 4q10 0 22 -4l8 -4t9 -6q4 -4 5 -9t5 -9q2 -6 2 -23q0 -16 -6 -29q-4 -14 -17 -20q-12 -6 -28 -6q-20 0 -31 8q-12 6 -18 20q-4 16 -5 27zM1538 -168q0 -14 6 -22q2 -4 8.5 -6.5t12.5 -2.5q16 0 18 9q6 8 6 22q0 13 -6 23 q-4 10 -18 10q-16 0 -21 -10q-6 -10 -6 -23zM1567 1167l28 37l13 23l26 35l2 2q0 4 4 4q0 2 2 2q0 -8 -2 -10l-8 -11l-6 -10q-2 -2 -3 -4t-3 -4l-16 -21l-19 -20l-10 -12q-4 -8 -8 -11zM1585 92v21h14v28h33v-28h19v-21h-19v-61v-8q2 0 4 -1.5t6 -1.5l5 3h4v-25h-19 q-14 0 -20 4q-6 0 -8 8q0 2 -2.5 5t-2.5 8v69h-14zM1636 -115h27v-16q8 18 31 18q8 0 16 -4q6 -4 12 -12q2 8 11 12q8 4 16 4q10 0 23 -4q8 -8 10 -14q4 -8 4 -19v-71h-27v63q0 23 -16 23q-18 0 -19 -23v-63h-26v63v11q0 4 -4 8t-15 4q-16 0 -16 -23v-63h-27v106z" />
<glyph unicode="9" d="M70 -193q0 17 8 23q10 10 20 10l27 4q10 0 10 6q0 16 -16 17q-10 0 -13 -6q-8 -2 -8 -11h-24q0 14 6 21q2 8 12 12q4 2 14 2q4 2 13 2q14 0 26 -4q8 -6 13 -12q2 -4 2 -14v-56q0 -10 2 -12q0 -2 4 -6v-4h-29v2v4q-2 2 -2 6l-8 -8q-4 -2 -6 -2t-4 -2q-4 -2 -13 -2 q-12 0 -18 2q-6 4 -10 10q-6 6 -6 18zM96 -190q0 -4 4 -9q4 -2 6.5 -4t4.5 -2q4 0 6 4h4q8 4 10 6q4 8 4 13v12q-2 0 -10 -4l-12 -2q-4 0 -13 -4q-4 -4 -4 -10zM125 565v494l268 59l-10 37l41 12l-8 39l41 8l-6 46l41 2v41h36l4 36l39 -6l9 41l43 -6l10 39l39 -10l16 37 l39 -17l23 39l34 -18l23 35l37 -25l24 33l35 -27l27 29l26 -25l27 23l27 -29l34 23l23 -37l39 20l18 -35l37 17l17 -41l43 12l12 -39l39 10l8 -43l43 4l2 -26l404 88v-496l-185 -41l4 -2l-24 -26l24 -29l-32 -27l22 -34l-37 -23l23 -37l-35 -20l14 -37l-39 -17l13 -43 l-37 -12l6 -39l-41 -8l2 -43l-39 -4v-39h-35l-6 -37l-39 2l-8 -37l-43 6l-10 -40l-39 12l-14 -39l-44 16l-18 -39l-37 21l-22 -35l-37 23l-25 -33l-30 26l-31 -26l-27 24l-26 -24l-25 31l-35 -23l-24 37l-37 -21l-19 35l-39 -16l-18 41l-39 -13l-12 37l-41 -8l-8 43l-43 -4 l-5 41h-40v35l-35 4l4 41l-41 6l8 43l-41 12l12 37l-28 12zM186 -115h25v-18h2q4 8 6 10t3 4t5 4q2 2 15 2h2h4v-28h-8q-27 0 -27 -25v-55h-27v106zM236 76v16q0 4 2 7t2 7q2 12 14 25q4 6 10 10t12 9q14 6 33 6h6q4 0 8.5 -1t8.5 -1q8 0 14 -7q14 -8 21 -18q4 -4 8 -12 q0 -2 1 -3t1 -3v-5h-33v3q0 2 -4 6q-2 4 -4 5t-6 5q-6 4 -19 4h-8h-6l-14 -12q-10 -6 -11 -15q-4 -8 -4 -28q0 -8 1 -14.5t3 -14.5q2 -10 13 -14q6 -4 10 -6t10 -2h4q12 0 19 4q4 0 7 3l5 5q4 6 6 10t2 10h-37v27h66v-84h-21l-4 20q-6 -8 -14 -14q-4 -4 -9 -5t-10 -3 q-4 0 -9 -1t-9 -1q-12 0 -25 6q-14 6 -20 16q-8 6 -16 27q-4 10 -4 33zM236 702h10l8 5l10 10l8 10l11 10q4 8 8 13l63 86l19 30l20 31q6 8 11.5 15.5t9.5 15.5q4 10 8 17t8 16q2 4 0 6t-4 2q-8 0 -10 -2l-8 -4l-17 -21l-16 -20q-6 -6 -15 -19l-16 -20l-55 -80l-27 -41 q-6 -10 -11 -21.5t-11 -21.5l-4 -6v-4v-4v-3zM262 -78h29v-24h-29v24zM262 -115h29v-106h-29v106zM276 889q2 -4 4.5 -6t6.5 -6l18 -7q14 0 23 2q4 0 4 2q2 2 2 5q0 2 -2 2h-4q-4 0 -4 -2q-14 -2 -29 2q-8 4 -10 8q0 4 -1 5t-1 5q0 6 2 12l6 15l16 18q4 4 10.5 8t12.5 9 q6 4 11 7t13 7l25 12q8 0 14 2t15 6l28 4q16 4 27 5q6 0 22 -5q10 0 15 -6l10 -12v-16q0 -12 -2 -21l-10 -18q-4 -6 -7.5 -11.5t-7.5 -9.5q-4 -6 -9 -10t-11 -10q-4 -6 -21 -19l-22 -14l-25 -10l-14 -6q-2 0 -5 -1t-7 -1h-4q-4 0 -7 -3q-2 0 -2 -2q-4 0 -4 -4q0 -2 2 -2h4 q4 0 7 2h4l26 9l27 12l27 10l26 16l23 17l20 18l17 21q4 4 7 9t5 11q4 12 4 19q2 10 0 18q-2 4 -3 7t-3 7q-6 6 -15 11q-6 2 -10 3t-10 1q-8 2 -23 2q-8 0 -24 -4q-14 0 -27.5 -4t-29.5 -9q-29 -8 -54 -22q-6 -4 -13 -7t-13 -7t-12.5 -8.5t-10.5 -10.5l-9 -9l-9 -9l-9 -21 q-4 -10 0 -16zM317 -115h25v-16q12 18 33 18q8 0 20 -4q6 -4 13 -12q4 -8 4 -21v-71h-29v63q0 12 -2 15q-4 8 -16 8q-8 0 -17 -8q-4 -12 -4 -17v-61h-27v106zM395 57q0 20 6 29q4 14 17 20q8 6 15 7.5t18 1.5q23 0 28 -9q12 -6 19 -22q4 -10 4 -31v-8h-78q0 -6 8 -18 q6 -6 19 -7q4 0 7 1.5t5 1.5q8 8 8 10h31q-6 -12 -10 -21q-4 -4 -8.5 -7t-8.5 -5l-12 -3t-12 -1q-55 0 -56 61zM428 68h45q-4 12 -8 16q-8 8 -14 8q-23 0 -23 -24zM430 -166q0 6 2 12.5t4 12.5q6 14 15 20q8 8 24 8q6 0 19 -4l7 -7t5 -7l2 16h24v-100q0 -10 -4 -27 q-6 -10 -16 -14q-12 -6 -33 -6q-4 0 -9 1t-9 1q-6 2 -19 10q-4 4 -4 8q-2 4 -2 11h27q2 -4 6 -9q2 -2 12 -2q12 0 15 2q8 6 8 9q0 2 1 3t1 3v6v12q-12 -14 -29 -14q-6 0 -11 1t-11 3q-10 8 -17 20q-4 6 -6 13.5t-2 17.5zM461 -168q0 -8 2 -14q0 -4 6 -11q8 -4 12 -4 q25 0 25 29q0 14 -8 23q-4 4 -8.5 7t-8.5 3q-8 0 -14 -10q-6 -6 -6 -23zM498 717q20 0 20 -15v-49q0 -8 10 -22l17 -4q4 -2 18 -2q12 0 25 4q8 4 10 6q8 6 8 22v50l10 8l2 2h9v4h-47v-4h10q2 0 4 -2q12 -4 12 -23v-33q0 -12 -10 -22l-12 -8h-15q-12 0 -18 2q-2 0 -10 8 q-4 4 -4 14v49q0 10 4 11q4 4 14 4h6v4h-63v-4zM510 92v21h16v28h31v-28h16v-21h-16v-61q0 -8 2 -8q0 -2 2 -3h8l2 3h2v-25h-16q-14 0 -20 4q-6 0 -9 8q-2 2 -2 13v69h-16zM510 821q2 -8 10 -12q10 -10 23 -6q14 0 26 6q10 2 17.5 6t15.5 8t15.5 9.5t15.5 13.5l24 20l15 15 q0 2 4 6q0 2 2 4l4 6l16 16l15 21q6 4 10 10t8 10l6 -2l4 -6q0 -2 2 -4v-2q0 -2 -2 -4t-4 -6l-16 -17l-14 -20l-13 -19l-4 -18q-2 -2 -2 -8v-6l4 -8h8q10 0 17 2l16 10q4 4 10.5 8t10.5 10q6 4 10 8.5t8 8.5q2 4 4 6t4 6l8 10l5 4l4 6q4 4 4 5l12 16l21 31q0 -4 1 -7.5 t1 -7.5q4 -12 4 -14l4 -8q-16 -4 -25 -13l-20 -14q-4 -4 -7.5 -9t-5.5 -9q-2 -6 -2 -17q0 -6 11 -10h18q12 0 25 8q16 8 22 17q6 4 9 8t8 8l8 18q6 8 6 19v16q0 6 -4 15l-6 16l-7 6q0 4 -4 8q0 2 -2 4v7v4h-8l-4 -4q-4 -2 -6 -4.5t-6 -4.5l-4 -12l-2 -2l-4 -6l-33 -45l-4 -6 l-6 -11h-3v-2q-2 0 -4 -2l-4 -8l-6 -8l-14 -18l-23 -21q-4 -4 -12 -6q-4 -4 -12 -4v2l8 10l6 10l8 11q4 4 6 8l9 14l10 14l4 15q2 6 2 14q-2 2 -2 8l-2 4q0 4 -2 7v22l6 10q4 6 -4 13q-4 6 -17 0q-10 -2 -16 -9q-6 -2 -10 -12q-4 -4 -4 -10q0 -8 2 -12l4 -2l4 -5l-6 -6 l-6 -6l-23 -31l-20 -22q-4 0 -4 -4v-2l-2 -2q0 -2 -2 -2l-11 -15q-8 -6 -14 -12t-14 -10q-12 -12 -33 -23q-12 -4 -21 -8q-12 -4 -18 -2q-6 0 -6 4q-2 2 -2 6q0 2 4 11l2 8l10 16q4 -2 12 -2h19q10 2 26 12q6 2 11.5 6.5t13.5 8.5l14 16q4 4 7.5 8t3.5 8l8 13q0 12 -4 14 q-4 8 -8 10h-19h-9t-9 -4q-4 -2 -10.5 -4t-10.5 -4q-27 -14 -45 -29q-18 -16 -29 -34q-4 -4 -6 -9.5t-6 -11.5q-6 -8 -8 -18v-17zM545 -115h14v27h29v-27h16v-20h-16v-55q0 -6 2 -9q0 -2 2 -2h6l4 2h2v-22h-6h-6h-4q-12 0 -17 2q-10 4 -10 8q-2 2 -2 12v64h-14v20zM567 870 l15 23l18 20l6 9q4 4 6 5t4 3l11 10l12 4q8 2 14 0v-10l-6 -8q-6 -6 -6 -11q-4 -4 -5 -6t-5 -4q0 -2 -8 -10q-2 -2 -3.5 -4t-5.5 -4q-4 -4 -6 -5t-4 -3l-12 -9q-6 -2 -12 -2q-10 0 -13 2zM610 -115h33l21 -78l20 78h31l-35 -102l-2 -2l-8 -23q-4 -10 -6 -12q-6 -6 -11 -6 q-4 0 -7 -1t-7 -1h-6h-8v22h8h8q2 0 6 4v5q2 2 2 6l-37 102zM639 694q0 -2 4 -10q0 -6 6 -6l13 -6q2 -2 20 -6l8 -2q8 -4 12 -5q4 0 9 -4q2 0 2 -2q6 -4 6 -10l-4 -8q-2 -4 -8 -6h-11q-10 0 -16 2l-16 6l-11 10q-10 10 -10 21h-2v-43h2q0 6 4 6q4 4 8 4q2 0 2 -1t5 -1 q2 0 3 -1t3 -1l14 -4q4 -2 14 -2q4 0 17 4q2 0 12 6q2 2 2 4t4 4v21l-6 6q-2 4 -12 8l-17 6h-10l-2 2q-4 2 -8 2t-6 2q-6 0 -8 2q-2 0 -7 4q-2 0 -2 4v2v9l4 4l9 4q2 0 4 1t6 1q6 0 14 -4q8 0 12 -4q8 -4 11 -8q4 -2 5 -7.5t5 -9.5h2v31h-2q-2 -6 -8 -6h-8q-16 10 -31 10 q-8 0 -21 -4l-12 -8q-2 -4 -3 -7.5t-1 -9.5zM641 92v21h14v8q0 33 35 33h15v-25h-9h-6q-4 0 -4 -4v-12h19v-21h-19v-94h-31v94h-14zM723 37v76h29v-70q0 -20 20 -20h10l11 10q0 2 2 5t2 7v68h26v-115h-26v16q-6 -8 -15 -12q-12 -6 -20 -6q-20 0 -29 12q-10 8 -10 29z M731 -115h25v-16h4q2 0 4 2l8 8q4 4 8 6q2 2 8 2q10 0 17 -4q8 -4 12 -8q8 -8 10 -20q6 -10 7 -23q0 -4 -1.5 -6t-1.5 -6t-2 -6t-4 -7q-4 -16 -12 -22q-10 -8 -25 -8q-10 0 -14 2t-8 6q-2 2 -6 2l-2 4v-51h-27v100v45zM741 627h103v39q-4 -4 -4 -7.5t-2 -5.5l-11 -14 q-6 -6 -8 -6l-10 -2q-4 -2 -12 -2h-15v41h2q8 0 19 -6l4 -7q0 -2 1 -3t1 -3v-8h2v59h-2v-8l-4 -10q-10 -10 -19 -10h-4v43h17q16 0 22 -2l8 -6l5 -11l6 -14h4v37h-103v-4h4q8 0 11 -4q6 0 6 -11v-57q0 -16 -17 -16h-4v-2zM756 -170q0 -14 8 -20q6 -8 16 -9q12 0 19 9 q4 12 4 22t-4 23q-4 4 -8.5 7t-10.5 3q-25 0 -24 -35zM793 868v9l4 10l6 8q8 10 18 18l23 11q0 -4 1 -6.5t1 -4.5q-2 -4 -2 -8v-12l-4 -8q-2 -4 -4 -5t-5 -6l-8 -6q-2 0 -3 -1t-5 -1q-2 -2 -8 -2q-4 -4 -8 0q-2 0 -6 4zM844 -166q0 17 4 25q6 14 16 20q10 8 27 8q23 0 31 -8 q10 -6 16 -22q4 -16 4 -27v-6h-72q0 -12 7 -19q6 -6 16 -6q6 0 14 4q4 4 6 9h27q-4 -16 -8 -21q-4 -4 -8 -6t-9 -4q-12 -4 -22 -4q-49 0 -49 57zM852 -2v156h29v-156h-29zM870 -158h43q0 10 -6 17q-4 2 -7 4t-9 2q-16 0 -21 -23zM903 -2v156h29v-156h-29zM905 674 q0 -14 4 -21q4 -4 6.5 -7t6.5 -7q6 -6 18 -10q6 -2 11 -3t12 -1q16 0 26 6q8 4 13.5 9t9.5 9q6 8 6 25q0 10 -4 16q-4 12 -10 17q-4 6 -19 10q-12 6 -22 6q-20 0 -29 -8q-8 -2 -12 -7.5t-9 -9.5q-8 -10 -8 -24zM915 901q0 -8 5 -8q4 -4 6 -5t4 -3h10h12q8 2 14.5 4t12.5 4 l27 14l22 21l19 16l14 21l10 16l6 18q4 10 0 15q0 6 -6 10q0 4 -10 8q-2 0 -6 1t-8 1q-6 0 -19 -4q-4 0 -6 -1l-6 -3l-12 -4l-25 -16q-6 -4 -11 -9.5t-12 -9.5l-16 -18l-12 -19q-10 -16 -13 -26v-23zM928 674q0 4 1 8t1 8l6 12q2 2 3 5.5t3 5.5t4 2t6 2q4 4 13 4q0 -2 2 -2 h4l6 -4l10 -8q0 -4 2 -7.5t4 -9.5q0 -2 1 -7t1 -9q0 -12 -4 -25q-4 -4 -6 -9t-6 -9q-4 -2 -16 -2q-10 0 -13 2q-8 0 -12 10l-6 12q-4 12 -4 21zM940 895v8v4q4 14 10 21q4 6 7.5 11t7.5 11l10 13l8 10l16 20l9.5 9.5l9.5 9.5l8 8l10 4q4 2 11 2l4 -2q2 -2 2 -8q0 -2 -4 -10 l-5 -9l-6 -10q-4 -8 -6 -10l-8 -12l-12 -19l-17 -18l-20 -21q0 -2 -10 -6q-2 -4 -13 -8h-8q-4 0 -4 2zM948 -115h17v9q0 29 30 28h13v-22h-7h-6l-2 -2l-2 -9v-4h19v-20h-19v-86h-26v86h-17v20zM1010 92v21h14v8q0 33 35 33h12v-25h-6h-6q-2 0 -4 -4v-12h20v-21h-20v-94h-31 v94h-14zM1018 -193q0 17 10 23q10 10 21 10l24 4q8 0 8 6q0 16 -14 17q-10 0 -12 -6q-6 -4 -6 -11h-27q0 14 6 21q6 10 14 12q4 2 11 2q4 2 14 2t16.5 -1t12.5 -3q8 -6 12 -12q2 -4 2 -14v-56q0 -10 2 -12q0 -2 4 -6v-4h-31v2q0 2 -1 2t-1 2v6q-4 -2 -5 -4t-3 -4 q-4 -2 -6 -2t-4 -2q-4 -2 -14 -2q-8 0 -15 2q-4 2 -7 4t-7 6q-4 8 -4 18zM1032 627h49v2q-6 0 -10 2h-8l-4 10q-2 2 -2 12v56l80 -82h4v65q0 8 1 12.5t3 8.5q4 4 16 4v4h-47v-4h8q0 -2 4 -2q6 -4 7 -8q4 -4 4 -15v-39l-66 68h-37v-4q8 0 10 -2q2 0 3.5 -1t3.5 -1q2 -4 2 -11 v-53q0 -6 -2 -10t-7 -8q-4 0 -7 -1t-5 -1v-2zM1047 -190q0 -4 4 -9q6 -6 8 -6q4 0 6 4h4q4 2 5 3t5 3q2 4 2 13v12l-8 -4l-14 -2q-4 0 -8 -4t-4 -10zM1051 905q2 0 3 -1t3 -1q4 0 8 2l8 4q0 2 4 6q2 0 2 1.5t2 1.5l4 6q0 4 5 4l16 22l20 21l17 20l22 21l21 20l8 8q4 2 10 9 l10 8l13 4q2 0 2 -2h-2l-4 -4q-2 -6 -9 -8l-4 -7l-12 -14q-4 -4 -6 -7t-6 -7q-10 -12 -15 -23l-14 -20q-2 -4 -3 -9.5t-3 -9.5q-4 -10 0 -16q2 -6 8 -6h19q4 2 9 5t13 7q12 8 19 14l20 21l2 2q-2 -2 -2 -6q0 -6 4 -15q2 -4 10 -8q6 -2 21 2q12 2 24 13l21 14l7 7l7 7l13 13 v-5q0 -2 -1.5 -3t-1.5 -3v-6q-4 -6 0 -10q0 -2 1.5 -3t1.5 -3q0 -6 6 -6h6h10l6 4l8 6l13 6l32 27l17 16l-4 -12q-4 -6 -4 -19v-6q2 0 4 -2q0 -2 6 -2q4 0 8 4q8 0 12 6l11 6l12 13q2 0 10 8l9 9t10 9l18 21v4q0 2 -2 2q-4 0 -8 -4l-2 -4l-13 -15l-10 -12q-10 -6 -12 -12 l-14 -12l-9 -7l-8 -2l-2 -2q-2 0 -4 2h2l8 15q4 8 8 12l7 12q4 2 8 11l63 92q10 10 13 16l16 16l37 43q10 10 17 20.5t16 20.5l10 19v8q-2 2 -8 2q-2 0 -11 -4q-4 0 -6 -2t-6 -4q-4 0 -10 -6l-8 -6q-6 -4 -11.5 -9.5t-11.5 -9.5l-16 -18q-6 -6 -10.5 -11.5t-8.5 -11.5 q-2 -4 -6 -9t-8 -11q-16 -23 -27 -41l-26 -45l-19 -33l-8 -16h-2l-14 -15q-4 -6 -8.5 -10t-10.5 -10l-18 -17l-10 -8l-7 -4l-4 -2l-4 -4h-6h-4l6 10l6 10q0 2 2 4q4 8 8.5 14.5t10.5 12.5q4 6 8 13.5t8 15.5l15 20l8 13q2 4 3 5t3 5l2 2l2 2q0 2 1 2t1 2q6 4 4 8q0 2 -6 2 l-10 -4l-10 -6l-19 -12q-8 -8 -14 -13q0 6 -2 11q0 2 -6 6q-12 2 -21 0q-16 -4 -22 -8q-8 -4 -13.5 -6.5t-11.5 -6.5q-8 -6 -18 -16q-27 -18 -37 -39q-14 -16 -21 -37h-4q-4 -6 -16 -18q-6 -4 -11.5 -8.5t-11.5 -8.5q-2 -4 -12 -8q-4 -4 -10 -4h-2q-2 2 0 4l6 8l6 11l12 14 l21 27q4 6 9 13t9 15l8 17q4 10 2 16q0 6 -2 6q0 4 -6 4t-8 -2l-12 -4l-13 -8q-4 -2 -10 -8q-4 -4 -6 -5t-4 -4q-8 -8 -12 -8l-21 -22q-4 -4 -9 -9.5t-9 -9.5l-11 -12l-10 -10l2 4l25 35l26 37q0 2 1.5 2t1.5 2q2 2 2 4q2 2 2 6l-7 6q-2 0 -3 1t-3 1t-4 -1t-6 -1l-10 -6 l-4 -4q-4 -2 -4 -4t-2 -4l-5 -7l-77 -133q-2 -2 -2 -4v-2zM1083 55q0 6 1 11.5t3 11.5q2 10 11 18q10 10 20 15q6 4 25 4q16 0 24 -4q4 -4 8.5 -5.5t8.5 -5.5t6 -9t6 -11q4 -12 4 -25q0 -16 -8 -30q-2 -8 -18 -21q-10 -8 -31 -8q-20 0 -35 8q-6 4 -10 10t-8 13q-6 12 -7 28z M1114 55q0 -8 2 -13t4 -9q4 -10 23 -10q16 0 20 10q6 6 6 22q0 14 -6 25q-6 10 -20 10q-16 0 -23 -10q-2 -4 -4 -10.5t-2 -14.5zM1128 -170q1 16 11 41q12 16 39 16q10 0 22 -4q8 -2 17 -14q4 -6 7 -11t3 -12h-31q0 4 -4 13q-6 6 -12 6q-10 0 -17 -10q-8 -6 -8 -21 q0 -6 1 -10t1 -8q4 -4 5 -6.5t3 -4.5q4 -4 13 -4q8 0 12 4q6 2 6 13h27q0 -10 -6 -23q-4 -4 -7.5 -7t-7.5 -5q-12 -6 -24 -6q-23 0 -35 12q-6 2 -10 16q-4 12 -5 25zM1167 627h107v41h-2q-4 -4 -4 -6.5t-2 -6.5q-4 -4 -4 -8q-2 -2 -2 -3t-3 -3q-8 -8 -12 -10q-2 0 -6 -1 t-8 -1h-25v73q0 10 6 11q2 4 13 4h6v4h-64v-4h4q16 0 17 -15v-57q0 -16 -17 -16h-4v-2zM1221 -2v115h28v-17q12 18 35 19q14 0 21 -4l14 -13q4 -12 4 -20v-80h-29v70q0 8 -4 16q-6 6 -16 6q-12 0 -19 -8q-4 -4 -4 -19v-65h-30zM1237 -166q0 9 4 25q6 14 16 20q10 8 29 8 q20 0 29 -8q10 -6 14 -22q6 -12 6 -27v-6h-71q0 -12 6 -19q6 -6 16 -6q6 0 14 4q4 4 7 9h26q-4 -16 -10 -21q-8 -8 -14 -10q-12 -4 -23 -4q-49 0 -49 57zM1264 -158h43q0 10 -7 17q-4 2 -7 4t-9 2q-16 0 -20 -23zM1266 963l2 2q0 2 2 4q4 8 6 10l8 10q2 8 6 12q2 4 8 11 l19 24l26 33l7 8l8 6l8 7q2 2 8 2q4 2 8 2l7 -4q0 -2 1 -3.5t1 -3.5q0 -4 -2 -8q0 -2 -5 -6l-16 -22l-12 -23l-17 -14l-16 -19q-2 -2 -4 -3t-6 -5l-13 -10q-2 -2 -4 -3t-6 -5q-4 0 -5 -2t-5 -2q-8 -4 -10 -3h-2q-2 2 -2 5zM1268 717h2q10 0 14 -2l4 -4t4 -6l29 -39v-21 q0 -10 -2 -12q-8 -4 -14 -4h-7v-2h68v2h-8q-8 0 -12 4t-5 12v23l25 34l4 7q8 4 10 4q0 2 4 2q2 0 3.5 1t3.5 1h2v4h-47v-4h6q8 0 10 -2q4 -2 4 -6t-6 -11l-19 -26l-24 30q-4 8 -4 9v2q0 2 2 2q0 2 6 2h8v4h-61v-4zM1337 92v21h19v28h26v-28h21v-21h-21v-61v-6q0 -2 2 -2 q4 0 5.5 -1.5t5.5 -1.5l4 3h4v-25h-21q-14 0 -16 4q-8 0 -10 8v82h-19zM1352 -190h30v-31h-30v31zM1401 -170q0 16 10 41q12 16 39 16q10 0 23 -4q6 -2 18 -14q8 -10 8 -23h-29l-6 13q-6 6 -12 6q-10 0 -16 -10q-6 -6 -6 -21q0 -6 1 -10t1 -8q4 -8 8 -11q2 -4 10 -4 q10 0 12 4q6 2 6 13h31q-4 -12 -8 -23q-4 -4 -8 -7t-8 -5q-10 -6 -25 -6q-20 0 -35 12q-6 2 -10 16q-4 12 -4 25zM1473 31q0 16 8 24q16 8 24 11l27 4q10 0 10 8q0 14 -18 14q-8 0 -13 -4q-6 -2 -8 -14h-26q0 14 6 24q4 6 16 13q4 4 12 4h13q25 0 32 -4l7.5 -7.5t5.5 -7.5 t2 -14v-72q0 -6 8 -6v-6h-33q-2 0 -2 2v2v2q0 4 -1 5t-1 3l-8 -8q-2 -2 -3 -2t-3 -2t-4 -2q-6 0 -9.5 -1t-7.5 -1t-8 1t-8 1q-4 4 -7 6t-7 6q-4 8 -4 21zM1501 31q0 -8 4 -8q4 -4 11 -5h8l4 2q10 4 10 7q4 8 4 14v14q-6 -6 -12 -6l-14 -4q-6 0 -11 -4q-4 -2 -4 -10z M1511 -168q0 13 2 21q4 12 11 18q6 8 16 12q12 4 25 4q10 0 22 -4l8 -4t9 -6q4 -4 5 -9t5 -9q2 -6 2 -23q0 -16 -6 -29q-4 -14 -17 -20q-12 -6 -28 -6q-20 0 -31 8q-12 6 -18 20q-4 16 -5 27zM1538 -168q0 -14 6 -22q2 -4 8.5 -6.5t12.5 -2.5q16 0 18 9q6 8 6 22q0 13 -6 23 q-4 10 -18 10q-16 0 -21 -10q-6 -10 -6 -23zM1567 1167l28 37l13 23l26 35l2 2q0 4 4 4q0 2 2 2q0 -8 -2 -10l-8 -11l-6 -10q-2 -2 -3 -4t-3 -4l-16 -21l-19 -20l-10 -12q-4 -8 -8 -11zM1585 92v21h14v28h33v-28h19v-21h-19v-61v-8q2 0 4 -1.5t6 -1.5l5 3h4v-25h-19 q-14 0 -20 4q-6 0 -8 8q0 2 -2.5 5t-2.5 8v69h-14zM1636 -115h27v-16q8 18 31 18q8 0 16 -4q6 -4 12 -12q2 8 11 12q8 4 16 4q10 0 23 -4q8 -8 10 -14q4 -8 4 -19v-71h-27v63q0 23 -16 23q-18 0 -19 -23v-63h-26v63v11q0 4 -4 8t-15 4q-16 0 -16 -23v-63h-27v106z" />
<glyph unicode=":" horiz-adv-x="370" d="M0 96q0 43 27.5 71t68.5 28t70 -28t29 -71q0 -39 -29 -67.5t-70 -28.5t-68.5 28.5t-27.5 67.5zM143 602q0 43 28 70.5t69 27.5t69.5 -27.5t28.5 -70.5q0 -39 -28.5 -67.5t-69.5 -28.5t-69 28.5t-28 67.5z" />
<glyph unicode=";" horiz-adv-x="370" d="M-35 -104l58 139q-23 27 -23 61q0 43 27.5 71t68.5 28t72 -28t27 -71q-2 -31 -18.5 -51t-43.5 -42.5t-61.5 -51.5t-73.5 -74zM143 602q0 43 28 70.5t69 27.5t69.5 -27.5t28.5 -70.5q0 -39 -28.5 -67.5t-69.5 -28.5t-69 28.5t-28 67.5z" />
<glyph unicode="&#x3c;" horiz-adv-x="651" d="M145 379l13 47l379 203l14 -45l-266 -228l116 -233l-28 -12z" />
<glyph unicode="=" horiz-adv-x="749" d="M106 270v72h422v-72h-422zM168 434v72h422v-72h-422z" />
<glyph unicode="&#x3e;" horiz-adv-x="651" d="M127 158l266 227l-117 233l29 13l227 -269l-12 -47l-379 -202z" />
<glyph unicode="?" horiz-adv-x="880" d="M102 96q0 43 28 71t69 28t69.5 -28t28.5 -71q0 -39 -28.5 -67.5t-69.5 -28.5t-69 28.5t-28 67.5zM258 350q25 92 89.5 153.5t144 116t161.5 113t142 144.5q43 61 57 124.5t2 116.5t-51 90t-105 45q-57 10 -94 -8t-52 -52t-11 -75t25.5 -79t60.5 -64.5t92 -28.5 q-10 -35 -39 -63.5t-69 -44t-87 -14.5t-92 26q-86 49 -111.5 124t1 147.5t102.5 128t192 65.5q160 12 262.5 -31t145.5 -116.5t26.5 -166t-92.5 -174.5q-86 -94 -188 -158.5t-193.5 -116.5t-159 -99t-81.5 -103h-78z" />
<glyph unicode="@" horiz-adv-x="1044" d="M65.5 185.5q-2.5 99.5 30.5 213.5q31 115 93.5 216.5t143.5 176t173 117.5t182 43q106 0 177 -43t107 -117.5t37 -176t-32 -216.5q-4 -12 -16.5 -46t-33 -75.5t-48 -88t-64.5 -85t-80 -66.5t-94 -32h-16q-37 0 -70 21.5t-37 87.5q-43 -45 -100.5 -77t-112.5 -32 q-39 0 -65.5 25.5t-32.5 78t11.5 132.5t64.5 186q47 109 120.5 185.5t156.5 119.5t166 51.5t151 -22.5q-33 -109 -62 -205q-25 -82 -49.5 -163t-36.5 -122q-25 -78 -18.5 -99t22.5 -26q31 -8 62.5 22t58.5 74t46.5 89t25.5 67q72 242 3 377t-257 135q-80 0 -161 -41 t-153.5 -111.5t-128 -162.5t-82.5 -197q-29 -102 -28.5 -192t31 -157.5t92 -106.5t155.5 -39q78 0 150 33l18 -43q-92 -43 -186 -44q-102 0 -171 43.5t-104.5 118t-38 174zM406.5 200q5.5 -38 31.5 -38q20 0 45 15.5t41 27.5q6 31 19 67l121 404q-12 4 -25 4 q-33 0 -67.5 -38t-65.5 -96.5t-56.5 -125t-37 -124.5t-6 -96z" />
<glyph unicode="A" horiz-adv-x="1038" d="M10 462q20 138 76.5 282.5t147 281.5t208.5 242q118 106 260 168q126 54 265 54q18 0 37 -1q125 -6 196.5 -41t101.5 -85q25 -42 26 -89q0 -8 -1 -18q-6 -58 -36.5 -106t-82 -80t-110.5 -32q-39 0 -65.5 7.5t-43 16.5t-27 20.5t-16.5 21.5q41 0 73 22.5t51 56.5 q20 35 24 75q1 9 1 17q1 31 -11 58q-14 35 -51.5 58.5t-100.5 25.5h-13q-83 0 -162 -49q-85 -53 -160 -142t-135.5 -206t-103.5 -240q-44 -122 -66 -240q-20 -104 -19 -188v-22q3 -92 33 -148.5t93 -56.5q51 0 100.5 42t94.5 108.5t84 149.5t72 165l114 395h240 q-41 -141 -78 -268q-16 -53 -31.5 -109.5t-31 -106.5t-28.5 -93t-22 -70q-33 -103 -33 -153v-12q4 -50 33 -58q12 -4 30 8t38 35.5t40.5 57.5t39.5 71h43q-37 -88 -75 -144.5t-77 -89.5t-77.5 -45t-75.5 -12q-31 0 -60.5 10t-51 36t-33.5 70q-7 26 -6 60q0 24 3 51 q-68 -109 -154.5 -180.5t-197.5 -71.5q-123 0 -193 67q-68 66 -92 176q-13 60 -13 129q0 56 9 119z" />
<glyph unicode="B" horiz-adv-x="1433" d="M1 654q1 110 39 223.5t112.5 224t183 196.5t249 138.5t312.5 52.5q162 0 277.5 -35t189.5 -92t110 -131q34 -74 40 -154q1 -14 1 -29q0 -66 -20 -130q-25 -78 -72 -144.5t-113.5 -114t-146.5 -65.5q80 -55 125 -126q46 -72 60 -148q7 -38 6.5 -76.5t-6.5 -77.5 q-14 -78 -52.5 -144.5t-97.5 -119t-134 -78.5q-65 -22 -139 -22q-12 0 -24 1q-88 4 -186 50q-63 31 -115 77q-55 -49 -118.5 -77.5t-141.5 -28.5q-53 0 -103.5 14.5t-84.5 45.5q-34 32 -46 82q-4 18 -4 38q0 38 15 86q12 49 48 77t78 37q22 5 45 5q20 0 40 -4 q43 -8 69.5 -31.5t30.5 -61.5v-8q0 -35 -31 -79q-27 23 -50 22.5t-41.5 -14t-28 -35t-5.5 -41.5t23.5 -35.5t58.5 -15.5q55 0 99.5 57t83 151.5t76.5 215.5t79 246.5t89 247.5t107.5 218.5t135.5 155.5t172 64q-53 61 -142 101t-220 40q-176 0 -299 -78t-197 -194.5 t-102 -252.5q-22 -104 -22 -196q0 -30 2 -58q9 -116 53 -194t118 -78q33 0 53.5 23.5t19.5 52.5t-29 52.5t-91 23.5q0 55 43 87t95 33h3q50 0 92 -32q43 -33 43 -107q0 -49 -22.5 -89t-59 -68.5t-84 -45t-96.5 -16.5q-121 0 -199.5 52.5t-116.5 138.5q-37 84 -37 191v6z M655 -10q41 -37 95 -62q39 -18 78 -19q31 0 61 12q69 26 125.5 86.5t94.5 143t47 165.5q2 22 2 44q0 58 -18 109q-24 70 -96 102q-53 25 -104 31q-29 -86 -58.5 -171t-64.5 -165t-75 -150.5t-87 -125.5zM969 686q31 -16 61.5 -22.5t54.5 -6.5q68 0 119 57.5t75 143.5 q16 58 16 122q1 32 -3 64q-12 100 -67 181q-41 -29 -75 -81t-64.5 -124t-59.5 -157t-57 -177z" />
<glyph unicode="C" horiz-adv-x="948" d="M12 352q22 150 81 306.5t151 307t207.5 268.5t250 189.5t275.5 71.5q106 0 171 -41q66 -42 95 -102q22 -47 23 -98q0 -14 -2 -30q-8 -68 -48 -126t-113 -92q-57 -27 -129 -27q-21 0 -44 2q-59 4 -94 29.5t-56 54.5q-23 33 -32 72q34 -11 66 -11q21 0 41 5q50 12 87 39 q38 28 58 65q17 31 17 59q0 4 -1 10q-4 32 -36 56t-99 24q-96 0 -183.5 -62t-160 -165.5t-129 -234.5t-92.5 -270q-38 -138 -52 -269q-7 -66 -7 -125q-1 -58 7 -110q14 -104 56 -166t120 -62q53 0 105.5 19.5t102.5 52.5t96.5 73.5t86.5 84.5q94 100 179 231h53 q-86 -156 -199 -279q-47 -53 -104.5 -102t-123 -89t-139 -63.5t-153.5 -23.5q-143 0 -222 72q-80 71 -106 189q-15 65 -14 140q0 60 10 127z" />
<glyph unicode="D" horiz-adv-x="1617" d="M1 654q1 110 40 223.5t113.5 224t183 196.5t250 138.5t313.5 52.5q115 0 206 -18.5t159 -47.5q152 -66 236.5 -180.5t115.5 -255.5q19 -88 20 -182q0 -57 -8 -115q-18 -156 -75.5 -302t-146.5 -271t-199.5 -204t-236.5 -101q-32 -6 -65 -5q-95 0 -192 46q-68 35 -115 79 q-55 -51 -119.5 -79.5t-142.5 -28.5q-53 0 -101.5 14.5t-82.5 45.5q-34 32 -46 82q-5 20 -4 43q0 36 11 81q14 49 50 77t79 37q23 5 46 5l40 -4q43 -8 69.5 -31.5t30.5 -61.5v-8q0 -35 -29 -79q-27 23 -51 22.5t-41.5 -14t-28 -35t-6 -41.5t21.5 -35.5t56 -15.5 q55 0 100.5 59.5t85.5 155.5t77.5 219t79.5 251t92.5 250t112.5 217q64 96 142 152q73 53 166 52h13l-21 18q-57 43 -148 83t-214 40q-176 0 -299 -78t-198 -194.5t-103 -252.5q-22 -107 -23 -201q0 -27 2 -53q8 -116 52 -194t118 -78q33 0 53.5 23.5t19.5 52.5t-30 52.5 t-92 23.5q0 55 43 87t95 33h3q50 0 92 -32q43 -33 43 -107q0 -49 -21.5 -89t-57 -68.5t-84 -45t-99.5 -16.5q-121 0 -198.5 52.5t-115.5 138.5q-37 84 -37 191v6zM655 -10q20 -18 44 -33.5t49 -28.5q68 -35 133 -35q22 -1 43 3q86 16 160.5 75.5t137 154.5t104.5 211t64 243 q16 96 16 188q0 30 -2 60q-7 120 -45 226.5t-112 182.5q-59 -29 -105 -109.5t-88 -190.5t-82 -239t-86 -258t-102.5 -246.5t-128.5 -203.5z" />
<glyph unicode="E" horiz-adv-x="993" d="M1 259q7 114 57.5 213t143.5 171t228 82q-80 41 -108 121q-18 51 -19 107q1 32 7 66q16 93 74 187t152.5 165t221.5 105q72 20 153 20q60 0 125 -11q104 -16 169 -63.5t91 -107.5q20 -44 21 -90q0 -16 -3 -32q-9 -62 -51 -113t-115 -79q-54 -21 -123 -22q-24 0 -50 3 q-61 4 -97 29.5t-57 54.5q-23 33 -33 72q37 -12 70 -12q18 0 36 4q50 10 86 34.5t54 60.5q14 28 15 55q1 9 -1 17q-6 36 -37.5 65.5t-97.5 41.5q-26 5 -51 5q-54 0 -102 -24q-70 -34 -118 -100.5t-70 -151.5q-13 -50 -14 -101q0 -35 6 -69q16 -85 72 -157t165 -111l-4 -20 q-158 0 -268.5 -56.5t-176.5 -139.5q-68 -83 -90 -181q-13 -56 -12 -107q0 -38 7 -74q17 -83 73.5 -139.5t148.5 -56.5q55 0 108.5 19.5t103.5 52.5t96.5 73.5t86.5 84.5q94 100 177 231h57q-86 -156 -199 -279q-47 -53 -105.5 -102t-124 -89t-140 -63.5t-154.5 -23.5 q-137 0 -224 63.5t-127 160.5q-34 83 -34 177q0 17 1 34z" />
<glyph unicode="F" horiz-adv-x="1140" d="M3 726q11 122 65.5 246t151 235.5t231.5 187.5t274 91q72 8 143 8q66 0 132 -7q136 -14 262 -44q126 -31 240 -45q57 -7 109.5 -6.5t99.5 6.5q95 14 167 91q-63 -104 -136 -162.5t-153 -82.5q-71 -22 -147 -22h-18q-85 3 -173 19q-59 -25 -106 -98.5t-88 -179t-81 -232.5 t-85 -254h221l-20 -67h-226q-43 -117 -93 -222.5t-114.5 -186.5t-145.5 -129t-181 -48q-53 0 -102.5 14.5t-83.5 45.5q-34 32 -46 82q-5 19 -4 41q0 37 13 83q14 49 50 77t78 37q22 5 45 5q20 0 40 -4q43 -8 69.5 -31.5t30.5 -61.5v-8q0 -35 -29 -79q-27 23 -50.5 22.5 t-41.5 -14t-27.5 -35t-6.5 -41.5t21.5 -35.5t57.5 -15.5q53 0 97 56t83 147.5t76 210t78 242.5t88 245t105.5 218t131 160.5t166.5 74.5q-98 23 -195 49q-98 25 -190 37q-43 5 -83 6q-48 0 -95 -8q-86 -14 -162 -68q-88 -63 -141 -154.5t-79 -191.5q-25 -97 -24 -193v-8 q1 -100 22.5 -180t62.5 -129t96 -49q33 0 53.5 23.5t20.5 53t-27 53t-90 23.5q0 37 20.5 63.5t50 41t65.5 14.5t65.5 -14.5t50 -45t20.5 -79.5q0 -47 -21.5 -87t-57 -69t-83 -45t-96.5 -16q-131 0 -213 61q-81 60 -115 158q-25 74 -26 161q0 29 3 59z" />
<glyph unicode="G" horiz-adv-x="1069" d="M6 558q17 108 70 222.5t137 223t190.5 194.5t231.5 138.5t260 52.5q96 0 157.5 -40t87.5 -99q22 -49 22 -103q0 -12 -1 -25q-6 -67 -44 -123.5t-109 -90.5q-53 -26 -123 -26q-23 0 -47 3q-61 4 -96 28.5t-52 51.5q-20 31 -24 67q35 -11 68 -11q20 0 39 4q50 11 88 39 t57 64q17 31 17 59q0 6 -1 12q-4 34 -37 57.5t-98 23.5q-84 0 -160 -44t-141.5 -116.5t-116.5 -166t-85 -189.5t-47 -190q-8 -55 -8 -103q0 -33 4 -63q9 -72 44 -116t100 -44q53 0 101.5 24.5t91.5 66.5t78.5 94t64.5 108q68 127 121 293h237q-39 -127 -67 -228 q-12 -43 -24.5 -85t-23 -74.5t-16.5 -53t-6 -22.5q-45 -125 -97 -242t-118.5 -208t-151.5 -146.5t-194 -55.5q-53 0 -102.5 14.5t-83 46.5t-45.5 82q-5 19 -5 41q0 37 13 83q12 49 48 76.5t78 37.5q22 5 45 5q20 0 40 -5q43 -8 70.5 -31.5t31.5 -61.5v-8q0 -35 -29 -79 q-27 23 -50 23t-41.5 -13.5t-28 -35t-6 -42t21.5 -36t57 -15.5q49 0 90 48.5t77 128t70 183t71 216.5q-66 -86 -156 -145.5t-213 -59.5q-135 0 -213 52t-107 138q-18 55 -18 119q0 37 6 77z" />
<glyph unicode="H" horiz-adv-x="1490" d="M1 654q1 110 39 223.5t111.5 224t182 196.5t249 138.5t312.5 52.5q117 0 220.5 -28.5t174.5 -90.5q0 -2 -2 -2h-4q-66 -10 -117 -89t-94 -197.5t-84 -266t-88 -297.5l336 184l225 764h238q-82 -276 -150 -510q-29 -98 -58.5 -197.5t-54 -183t-44 -147t-27.5 -90.5 q-32 -106 -32 -158v-9q3 -52 28 -56q5 -1 10 -1l68 45q39 52 73 128h43q-35 -88 -71.5 -144.5t-75.5 -89.5t-78 -45t-78 -12q-37 0 -72.5 15.5t-56 56.5t-20.5 112.5t35 186.5l69 237l-340 -186q-41 -121 -90 -228.5t-110.5 -188.5t-138 -129t-175.5 -48q-53 0 -102 14.5 t-83 46t-46 81.5q-5 20 -5 44q0 36 11 80q12 49 48 77t79 37q23 5 45 5q20 0 40 -4q42 -8 69.5 -31.5t30.5 -61.5v-6q0 -36 -31 -81q-27 23 -50.5 22.5t-41 -14t-26.5 -35t-4 -41.5t23.5 -35.5t57.5 -15.5q53 0 96 58.5t80 155.5t71.5 223t73.5 258t82 262t98.5 237.5 t125 180.5t157.5 93q-51 23 -118.5 31t-139.5 8q-133 0 -237.5 -46t-182.5 -119.5t-129 -169t-79.5 -196t-34.5 -195.5q-1 -24 -1 -46q1 -67 13 -123q16 -74 52 -120t91 -46q33 0 53.5 23.5t19.5 52.5t-29 52.5t-91 23.5q0 55 43 87t94 33h3q49 0 91 -32q43 -33 43 -107 q0 -49 -21.5 -89t-58 -68.5t-84 -45t-96.5 -16.5q-121 0 -199.5 52.5t-116.5 138.5q-37 84 -37 191v6z" />
<glyph unicode="I" horiz-adv-x="964" d="M1 654q1 110 40 223.5t113.5 224t183 196.5t250 138.5t313.5 52.5q115 0 218.5 -28.5t174.5 -90.5q0 -2 -2 -2h-4q-63 -10 -112.5 -82t-91.5 -182.5t-80.5 -247.5t-81.5 -279.5t-93.5 -277.5t-118 -240.5t-153.5 -170t-199 -64.5q-53 0 -103 14.5t-84 46t-46 81.5 q-4 18 -4 38q0 38 14 86q12 49 47 77t78 37q23 5 45 5q20 0 40 -4q42 -8 68.5 -31.5t30.5 -61.5q1 -5 1 -9q0 -35 -29 -78q-27 23 -50.5 22.5t-42 -14t-27.5 -35t-5 -41.5t23.5 -35.5t58.5 -15.5q53 0 96 58.5t80 155.5t71.5 223t73.5 258t82 262t98.5 237.5t125 180.5 t157.5 93q-51 23 -117.5 31t-138.5 8q-133 0 -237.5 -46t-182.5 -119.5t-131 -169t-80.5 -196t-33.5 -195.5q-2 -28 -2 -54q0 -63 10 -115q16 -74 52 -120t91 -46q33 0 53.5 23.5t19.5 52.5t-29 52.5t-91 23.5q0 55 43 87t94 33h3q49 0 91 -32q43 -33 43 -107 q0 -49 -21.5 -89t-57 -68.5t-84 -45t-99.5 -16.5q-121 0 -198.5 52.5t-115.5 138.5q-37 84 -37 191v6z" />
<glyph unicode="J" horiz-adv-x="1021" d="M2 -68q-2 14 -2 30q0 53 25 114q25 63 72.5 99t102.5 46q23 4 46 4q30 0 59 -7q51 -13 82 -45t34 -81v-6q0 -47 -40 -104q-39 47 -80 51q-6 1 -13 1q-33 0 -60 -18q-31 -22 -48 -60q-14 -28 -14 -56q0 -10 2 -19q6 -37 43 -63.5t115 -26.5q72 0 128 63.5t103 168 t87 239.5t81 278.5t86 284t100.5 255t124 193.5t156.5 99q-49 23 -117.5 32t-140.5 9q-176 0 -301 -61.5t-202 -152.5t-109 -197q-28 -90 -28 -169q0 -15 1 -29q6 -91 48 -152.5t116 -61.5q31 0 51 23.5t20 53t-26.5 53t-87.5 23.5q0 55 42 87t93 32t93 -32.5t42 -106.5 q0 -47 -21.5 -88t-57.5 -69.5t-84 -45t-99 -16.5q-160 0 -248 72.5t-108 181.5q-7 34 -7 69q0 80 33 169q47 128 157.5 237.5t282 182.5t400.5 73q115 0 218 -28.5t171 -90.5l-4 -2q-63 -10 -110.5 -85t-88.5 -192.5t-81 -264t-86 -298t-104 -296t-138 -257t-186.5 -181 t-248.5 -68.5q-68 0 -128 24.5t-98 70.5t-48 111z" />
<glyph unicode="K" horiz-adv-x="1468" d="M1 654q1 110 39 223.5t111.5 224t182 196.5t250 138.5t313.5 52.5q117 0 220.5 -28.5t174.5 -90.5q0 -2 -2 -2h-4q-55 -8 -98 -62.5t-80 -139.5t-70.5 -194.5t-68.5 -228.5q76 2 136 41t111.5 99.5t97.5 135.5t95 148.5t104.5 140t125 110.5t158.5 58q28 5 59 5 q66 0 145 -21q-68 -16 -132.5 -75.5t-130 -139.5t-136 -170t-150.5 -169t-170 -137t-195 -75q45 -6 105 -18q45 -55 66.5 -132t33 -160t17.5 -164t19 -143.5t41 -98.5q24 -30 66 -30q7 0 15 1q-6 -23 -25.5 -47.5t-48 -41t-64.5 -22.5q-12 -2 -24 -2q-24 0 -49 8 q-66 23 -92.5 82.5t-34.5 137.5q-7 70 -7 150v20v15q-1 84 -11 160q-12 83 -43 151.5t-105 103.5q-45 -154 -96 -303.5t-121 -269.5t-160 -193.5t-213 -73.5q-53 0 -103 14.5t-84 46t-46 81.5q-5 19 -5 41q0 37 13 83q12 49 48 77t79 37q23 5 45 5q20 0 40 -4 q42 -8 69.5 -31.5t30.5 -61.5v-6q0 -36 -31 -81q-27 23 -50.5 22.5t-42 -14t-27.5 -35t-5 -41.5t23.5 -35.5t58.5 -15.5q53 0 96 58.5t80 155.5t72.5 223t73.5 258t82 262t99.5 237.5t124 180.5t158.5 93q-51 23 -118.5 31t-139.5 8q-133 0 -237.5 -46t-182.5 -119.5 t-130 -169t-80.5 -196t-34.5 -195.5q-2 -27 -2 -52q0 -64 12 -117q16 -74 52 -120t89 -46q33 0 54.5 23.5t21.5 52.5t-26.5 52.5t-90.5 23.5q0 55 43 87t94 33h3q49 0 91 -32q43 -33 43 -107q0 -49 -21.5 -89t-58 -68.5t-83.5 -45t-97 -16.5q-121 0 -199.5 52.5 t-117.5 138.5q-38 84 -38 191v6z" />
<glyph unicode="L" horiz-adv-x="1251" d="M1 654q1 110 39 223.5t112.5 224t183 196.5t250 138.5t313.5 52.5q115 0 219.5 -28.5t175.5 -90.5q0 -2 -2 -2h-4q-66 -10 -115 -84t-91 -185.5t-80.5 -251.5t-83 -284.5t-96.5 -280t-120 -239.5q63 27 117.5 27t103 -13.5t92.5 -30t89 -22.5q13 -2 26 -2q32 0 65 10 q46 14 99 64q-70 -111 -126 -169.5t-103 -78.5q-32 -14 -60 -15q-13 -1 -26 3q-39 10 -74 33.5t-66.5 52t-65.5 48.5q-35 19 -71 21h-4q-35 0 -77 -30q-53 -53 -118 -85t-143 -32q68 39 119 124t92 195.5t77 240.5t72 261t76 255t90 223.5t115.5 167t151.5 83.5 q-49 23 -116.5 31t-137.5 8q-133 0 -237.5 -46t-182.5 -119.5t-131 -169t-80.5 -196t-33.5 -195.5q-2 -28 -2 -54q0 -63 10 -115q16 -74 52 -120t91 -46q33 0 53.5 23.5t19.5 52.5t-28 52.5t-88 23.5q0 55 42 87t93 33h3q49 0 90 -32q42 -33 42 -107q0 -49 -21.5 -89 t-57 -68.5t-83 -45t-98.5 -16.5q-121 0 -198.5 52.5t-115.5 138.5q-37 84 -37 191v6z" />
<glyph unicode="M" horiz-adv-x="1712" d="M1 654q1 110 40 223.5t112.5 224t182 196.5t250 138.5t313.5 52.5q115 0 219.5 -28.5t175.5 -90.5l-207 -989q51 125 101.5 262t106 267t118 244t138 192.5t166.5 113.5q50 19 106 19q47 0 98 -13q-78 -276 -145 -510q-29 -98 -57.5 -197.5t-53.5 -183t-44.5 -147 t-27.5 -90.5q-33 -107 -33 -160v-7q2 -52 29 -56q5 -1 10 -1l68 45q39 52 74 128h39q-35 -88 -72 -144.5t-76 -89.5t-77.5 -45t-75.5 -12t-72 15.5t-55.5 56.5t-20.5 112.5t35 186.5l274 944q-82 -98 -149.5 -238.5t-129 -295t-121.5 -307.5t-126.5 -273.5t-144.5 -196.5 t-174 -76l241 1268q-72 -100 -124 -241.5t-98 -293t-90 -301t-96.5 -268.5t-118 -191.5t-153.5 -72.5q-53 0 -102 14.5t-83 46t-47 81.5q-5 19 -5 40q0 37 14 84q12 49 48 77t79 37q23 5 45 5q20 0 40 -4q42 -8 68.5 -31.5t30.5 -61.5q1 -4 1 -9q0 -35 -31 -78 q-27 23 -50.5 22.5t-42 -14t-27.5 -35t-5 -41.5t23.5 -35.5t58.5 -15.5q53 0 95 58.5t80 155.5t72.5 222t72.5 258t82 262t100.5 236.5t125 180.5t158.5 93q-51 23 -118.5 32t-139.5 9q-133 0 -237.5 -46t-182.5 -119.5t-130 -169t-80.5 -196t-34.5 -195.5q-2 -27 -2 -52 q0 -64 12 -117q16 -74 52 -120t89 -46q33 0 54.5 23.5t21.5 52.5t-27.5 52.5t-91.5 23.5q0 55 43 87t95 33h3q50 0 92 -32q43 -33 43 -107q0 -49 -22.5 -89t-59 -68.5t-83.5 -45t-97 -16.5q-121 0 -199.5 52.5t-117.5 138.5q-38 84 -38 191v6z" />
<glyph unicode="N" horiz-adv-x="1505" d="M2 654q2 110 40 223.5t112.5 224t183 196.5t249 138.5t312.5 52.5q117 0 191.5 -24.5t116.5 -78.5q43 -55 57 -142q11 -68 11 -160q0 -25 -1 -52q-2 -72 -7 -176t-10.5 -217t-10.5 -221.5t-9 -184.5q49 111 81 235t56.5 250t44 246.5t46 224t63.5 182.5t93 120 q52 38 124 38q6 -1 13 -1q81 -4 196 -62q-92 -33 -162 -116.5t-127 -198.5t-103 -250t-91.5 -271t-91.5 -264t-101 -225.5t-125 -157t-160 -59.5l62 1366q-72 -98 -121 -243.5t-89 -305t-80 -319.5t-93.5 -289t-129 -214t-186.5 -95q-16 -2 -32 -2q-36 0 -71 10 q-50 14 -84 47t-47 85q-5 20 -5 44q0 37 12 82q14 49 50 77t78 37q22 5 45 5q20 0 40 -4q43 -8 69.5 -31.5t30.5 -61.5v-9q0 -35 -28 -78q-27 23 -50.5 21.5t-42 -15t-27.5 -36t-7 -43t18.5 -33.5t50.5 -9q63 8 111.5 65.5t87.5 147.5t71.5 206.5t64.5 241.5t66 252t77 239 t96 201t123 138q-78 12 -154 12q-133 0 -237.5 -46t-182.5 -119.5t-131 -169t-80.5 -196t-33.5 -195.5q-2 -28 -2 -54q0 -63 10 -115q16 -74 52 -120t91 -46q33 0 53.5 23.5t19.5 52.5t-29 52.5t-91 23.5q0 55 43 87t94 33h3q49 0 91 -32q43 -33 43 -107q0 -49 -21.5 -89 t-57 -68.5t-83 -45t-98.5 -16.5q-121 0 -198.5 52.5t-115.5 138.5q-36 82 -36 186v11z" />
<glyph unicode="O" horiz-adv-x="1142" d="M8 332q16 152 80 325q63 174 155.5 327t203 266.5t235.5 179t258 65.5q109 0 181.5 -65.5t102.5 -179.5q20 -76 21 -169q0 -46 -5 -97q-15 -153 -81 -327q-66 -172 -159 -324.5t-203.5 -265t-234.5 -178t-255 -65.5q-109 0 -181 66q-74 66 -104 178q-20 75 -20 166 q1 47 6 98zM263 146q7 -98 45 -155t114 -57q74 0 143.5 56.5t130 155t112.5 230t93 281.5q43 152 65 284q17 103 16 186q0 23 -1 45q-6 98 -43 155t-113 57q-74 0 -143.5 -57t-132 -155.5t-115.5 -230.5t-94 -284q-44 -149 -64 -281q-15 -98 -15 -178q0 -27 2 -52z" />
<glyph unicode="P" horiz-adv-x="1296" d="M1 654q1 110 39 223.5t112.5 224t183 196.5t249 138.5t312.5 52.5q229 0 365 -67q136 -66 198 -166q56 -91 56 -196v-22q-6 -118 -62.5 -218.5t-154 -167t-218.5 -66.5q-76 0 -139 22q-47 -141 -100.5 -281.5t-124 -252t-162.5 -181t-215 -69.5q-53 0 -102.5 14.5 t-83.5 45.5q-34 32 -46 82q-5 19 -4 41q0 37 13 83q12 49 48 77t78 37q22 5 45 5q20 0 40 -4q43 -8 69.5 -31.5t30.5 -61.5v-8q0 -35 -31 -79q-27 23 -50 22.5t-41.5 -14t-28 -35t-5.5 -41.5t23.5 -35.5t58.5 -15.5q55 0 99.5 57t84.5 151.5t76.5 215.5t78.5 248t90 247.5 t108.5 217t136.5 155.5t172 64q-55 61 -144 101t-220 40q-176 0 -299 -78t-197 -194.5t-102 -252.5q-22 -104 -22 -196q0 -30 2 -58q9 -116 53 -194t116 -78q33 0 53.5 23.5t19.5 52.5t-29 52.5t-91 23.5q0 55 43 87t95 33h3q50 0 92 -32q43 -33 43 -107q0 -49 -22.5 -89 t-59 -68.5t-84 -45t-96.5 -16.5q-121 0 -199.5 52.5t-116.5 138.5q-37 84 -37 191v6zM969 688q35 -16 63.5 -23.5t54.5 -7.5q70 0 121.5 57.5t75.5 143.5q16 58 15 122q1 32 -3 64q-12 100 -67 181q-41 -27 -76 -80t-65.5 -124t-59.5 -156t-59 -177z" />
<glyph unicode="Q" horiz-adv-x="1142" d="M8 386q17 146 82 319q66 172 155 317t195.5 250.5t228.5 164t253 58.5q106 0 182 -58.5t110 -164.5q27 -79 27 -182q0 -33 -3 -68q-11 -145 -77 -317q-78 -205 -192.5 -370t-255.5 -272q47 -59 101 -107.5t132 -68.5q-82 -82 -146 -105q-35 -12 -67 -12q-24 0 -46 8 q-50 17 -91 66.5t-76 110.5q-113 -45 -221 -45q-109 0 -179.5 59.5t-99.5 164.5q-18 67 -18 150q0 48 6 102zM262 276q-1 -18 -1 -34q0 -97 30 -154q35 -68 123 -68q37 0 65 11q-25 45 -49 89t-50 77.5t-55.5 55t-62.5 23.5zM266 334q35 5 67 5q34 0 65 -6q57 -11 101 -37 t79.5 -63.5t68.5 -80.5q78 92 145.5 232.5t116.5 320.5q43 152 59 277q10 74 10 136q0 42 -4 78q-11 90 -53 139t-118 49q-74 0 -139.5 -49t-122 -139t-105.5 -215t-90 -276q-61 -211 -80 -371z" />
<glyph unicode="R" horiz-adv-x="1447" d="M1 654q1 110 39 223.5t112.5 224t183 196.5t251 138.5t314.5 52.5q227 0 363 -67q138 -66 198 -166q55 -91 54 -196v-22q-6 -118 -62.5 -218.5t-154 -167t-218.5 -66.5h-2q27 -10 51.5 -21.5t51.5 -25.5q47 -55 67.5 -122t28.5 -134.5t11 -130t15 -110.5t38 -74 q21 -21 61 -20q9 0 20 1q-6 -23 -26.5 -47.5t-50 -41t-64.5 -22.5q-12 -2 -24 -2q-24 0 -48 8q-66 23 -91 78t-33 130q-6 59 -5 123v35v33q0 65 -6 127q-8 76 -36.5 138.5t-98.5 93.5q-47 -141 -100.5 -280.5t-124 -250t-161.5 -179t-214 -68.5q-53 0 -102.5 14.5 t-83.5 45.5q-34 32 -46 82q-5 20 -4 43q0 36 11 81q12 49 48 77t79 37q23 5 45 5q20 0 40 -4q42 -8 69.5 -31.5t30.5 -61.5v-6q0 -36 -32 -81q-27 23 -50 22.5t-40.5 -14t-27 -35t-4 -41.5t23.5 -35.5t57 -15.5q55 0 99.5 57t84.5 151.5t76.5 215.5t77.5 246.5t89 247.5 t108.5 218.5t137.5 155.5t173 64q-55 61 -145 101t-221 40q-176 0 -299 -78t-197 -194.5t-102 -252.5q-22 -104 -22 -196q0 -30 2 -58q9 -116 53 -194t118 -78q33 0 53.5 23.5t19.5 52.5t-29 52.5t-91 23.5q0 55 43 87t94 33h3q49 0 91 -32q43 -33 43 -107q0 -49 -21.5 -89 t-57 -68.5t-82.5 -45t-99 -16.5q-121 0 -199.5 52.5t-116.5 138.5q-37 84 -37 191v6zM969 686q59 -29 116 -29q70 0 122.5 57.5t76.5 143.5q16 58 15 121q1 31 -3 63q-12 98 -67 183q-41 -29 -76 -81t-65.5 -124t-59.5 -157t-59 -177z" />
<glyph unicode="S" horiz-adv-x="1153" d="M3 308q9 112 59.5 207t139.5 156.5t210 61.5q80 0 131 -31.5t77 -79.5q28 -49 28 -107q0 -52 -22 -97q-22 -47 -67 -79q-42 -30 -102 -30h-8q21 33 21 65v11q-4 37 -26 65q-22 26 -57 42q-28 12 -59 13q-8 0 -17 -1q-63 -2 -106 -44t-65 -104q-18 -53 -18 -113 q0 -11 1 -23q4 -73 38 -138.5t97.5 -112.5t161.5 -59q25 -3 49 -3q72 -1 135 27q84 36 145.5 106.5t95.5 161.5q33 88 33 181v5q-1 95 -42 185.5t-129 155.5q-88 68 -139.5 151t-65.5 168q-6 34 -6 68q0 50 12 98q22 80 78.5 142.5t147.5 100.5t214 38q100 0 168 -39 t102 -98q36 -60 40 -128q1 -9 0 -17q0 -57 -25 -109q-29 -60 -88.5 -98.5t-149.5 -38.5q-57 0 -95 22.5t-56 54.5q-17 30 -18 64v5q2 36 22 63q52 -18 96 -18q11 0 22 1q52 6 84 31q30 24 44 59q7 19 8 38q0 16 -6 31q-12 34 -48 61.5t-100 37.5q-22 3 -43 3q-71 0 -123 -32 q-68 -40 -88 -113q-9 -29 -9 -61q-1 -48 19 -101q32 -89 136 -171q127 -102 186 -230q58 -128 62 -258q0 -9 1 -17q-1 -121 -47 -233q-50 -120 -138.5 -209t-214.5 -136q-91 -34 -195 -34q-40 0 -82 5q-152 18 -244 92t-133 174q-34 82 -34 173q0 19 2 39z" />
<glyph unicode="T" horiz-adv-x="1071" d="M4 726q12 122 66.5 246t151 235.5t231.5 187.5q133 76 271 91q71 8 142 8q66 0 132 -7q136 -14 264 -44q126 -31 240 -45q57 -7 109.5 -6.5t99.5 6.5q95 14 167 91q-63 -104 -137 -162.5t-154 -82.5q-71 -22 -147 -22h-18q-85 3 -173 19q-57 -23 -103 -96.5t-87 -177 t-80 -228.5t-83 -253t-96 -246.5t-120 -210.5t-153 -148.5t-195 -56.5q-53 0 -102.5 14.5t-83.5 45.5q-32 32 -46 82q-5 18 -5 40q0 37 14 84q14 49 49 77t78 37q23 5 45 5q19 0 39 -4q42 -8 70 -31.5t31 -61.5v-6q0 -36 -32 -81q-27 23 -50.5 22.5t-41.5 -14t-27.5 -35 t-5.5 -41.5t23.5 -35.5t58.5 -15.5q53 0 97 56t83 148.5t76 211t78 242.5t87 245t105.5 218t132 159.5t166.5 73.5q-98 23 -195 49q-96 25 -190 37q-43 5 -85 6q-49 0 -96 -8q-87 -14 -163 -68q-86 -63 -140 -154.5t-78 -191.5q-24 -97 -24 -193v-8q1 -100 23.5 -180 t64.5 -129t97 -49q33 0 53.5 23.5t19.5 53t-29 53t-91 23.5q0 55 43 87t95 32t95 -32.5t43 -106.5q0 -47 -22.5 -87t-59 -69t-84 -45t-96.5 -16q-131 0 -212 61q-80 60 -114 158q-25 72 -25 157q0 31 3 63z" />
<glyph unicode="U" horiz-adv-x="1568" d="M3 654q11 110 59.5 223.5t133.5 224t200.5 196.5t261 138.5t315.5 52.5q119 0 223 -28.5t172 -90.5q-2 -2 -6 -2t-8 -1t-8 -1q-53 -12 -112.5 -80.5t-118 -171t-113 -230.5t-97.5 -259t-73 -255t-38 -222q-3 -35 -2 -64q0 -54 10 -92q16 -58 62 -58q59 0 116.5 61.5 t109 153t94.5 197t73 195.5l273 934h233q-78 -281 -145 -514q-29 -100 -57.5 -199.5t-53 -184.5t-44 -148.5t-27.5 -90.5q-34 -106 -34 -159v-8q3 -52 28 -56q20 -4 39.5 8t39 35.5t38 57.5t36.5 71h43q-37 -88 -75 -144.5t-76.5 -89.5t-77.5 -45t-76 -12q-53 0 -97 29.5 t-50 115.5q-35 -66 -77 -123t-91.5 -100t-106.5 -68.5t-121 -25.5q-92 0 -142 62q-50 64 -64 166q-7 48 -7 102q1 62 9 132q16 132 59 272t106.5 277.5t141 250t167 190.5t183.5 98q-53 23 -118.5 31t-139.5 8q-133 0 -241.5 -46t-194.5 -119.5t-147.5 -169t-99.5 -196 t-54 -195.5q-10 -59 -9 -110q-1 -31 3 -59q10 -74 40.5 -120t85.5 -46q31 0 51.5 23.5t19.5 52.5t-28.5 52.5t-91.5 23.5q0 55 43 87q44 32 96 33h3q51 0 92 -32q43 -33 43 -107q0 -49 -22.5 -89t-59.5 -68.5t-84 -45t-96 -16.5q-121 0 -195 52q-75 53 -105 139 q-22 63 -22 140q0 28 3 57z" />
<glyph unicode="V" horiz-adv-x="1456" d="M3 654q11 110 59.5 223.5t132.5 224t199.5 196.5t262 138.5t318.5 52.5q115 0 219 -28.5t176 -90.5q-2 -2 -6 -2t-8 -1t-8 -1q-53 -12 -112.5 -80.5t-118 -172t-113 -230.5t-98.5 -258t-72 -255t-38 -222q-3 -36 -4 -66q0 -54 10 -90q16 -58 64 -58q43 0 102.5 58.5 t125 163t134 248t131 314.5t116 363.5t90.5 393.5h94q-20 -135 -62.5 -309.5t-103.5 -357.5t-139 -360.5t-169 -315.5t-193.5 -223t-211.5 -85q-92 0 -142 62q-50 64 -66 166q-7 48 -7 102q-1 61 9 131q18 131 60 271t105.5 277.5t141 251t167 191.5t183.5 98 q-51 20 -117.5 29.5t-138.5 9.5q-176 0 -311.5 -79t-228.5 -196.5t-144 -255.5q-51 -136 -61 -254q-3 -30 -3 -57q0 -80 23 -140q31 -79 102 -79q33 0 54.5 23.5t21.5 52.5t-27.5 52.5t-91.5 23.5q0 55 43 87q44 32 96 33h3q51 0 92 -32q43 -33 43 -107q0 -49 -22.5 -89 t-59.5 -68.5t-84 -45t-96 -16.5q-121 0 -196 52q-76 53 -106 139q-22 63 -22 140q0 28 3 57z" />
<glyph unicode="W" horiz-adv-x="1931" d="M3 654q11 110 59.5 223.5t132.5 224t199.5 196.5t262 138.5t318.5 52.5q117 0 220 -28.5t175 -90.5q-2 -2 -6 -2t-8 -1t-8 -1q-53 -12 -112.5 -80.5t-118 -171t-113 -230.5t-97.5 -259t-73 -255t-38 -222q-3 -35 -2 -64q0 -54 10 -92q16 -58 62 -58q72 0 195 134 q-10 60 -10 132q0 30 2 64q6 110 27.5 230t58.5 244t86 238t106.5 210t122 163.5t134.5 97.5q41 18 81 17q28 0 57 -8q56 -16 64 -90q2 -16 2 -33q0 -63 -22 -147q-28 -106 -84 -237.5t-123.5 -263.5t-139 -255t-133.5 -215q-4 -47 -4 -88q0 -67 10 -115q16 -78 70 -78 q43 0 102.5 58.5t125 163t134 248t132 314.5t117 363.5t87.5 393.5h97q-20 -135 -63.5 -309.5t-105 -357.5t-139 -360.5t-169 -315.5t-193.5 -223t-211 -85q-72 0 -119 41t-76 112q-76 -72 -152.5 -112.5t-152.5 -40.5q-92 0 -142 62q-50 64 -64 166q-7 48 -7 102 q1 62 9 132q16 132 58 272t105.5 277.5t141 250t167 190.5t183.5 98q-51 23 -117.5 31t-138.5 8q-176 0 -311.5 -79t-228.5 -196.5t-144 -255.5q-51 -136 -61 -254q-3 -30 -3 -57q0 -80 23 -140q31 -79 102 -79q33 0 55.5 23.5t21.5 52.5t-28.5 52.5t-91.5 23.5q0 55 43 87 q44 32 96 33h3q51 0 92 -32q43 -33 43 -107q0 -49 -22.5 -89t-59.5 -68.5t-84 -45t-96 -16.5q-121 0 -196 52q-76 53 -106 139q-22 63 -22 140q0 28 3 57zM1313 420q39 66 89 159t100 195.5t94 204.5t74 186q30 85 38 139q2 15 3 26q0 31 -17 36q-4 1 -9 1q-24 0 -52 -35 q-34 -42 -69.5 -117.5t-73.5 -176t-72 -208t-61.5 -215t-43.5 -195.5z" />
<glyph unicode="X" horiz-adv-x="1429" d="M4 -34q-4 19 -4 41q0 37 12 83q12 49 48 77t78 37q22 5 45 5q20 0 40 -4q43 -8 71 -31.5t32 -61.5v-8q0 -35 -29 -79q-27 23 -50.5 22.5t-42 -14t-27.5 -35t-5.5 -41.5t21.5 -35.5t57 -15.5q43 0 92 42t104.5 113.5t117 169t129 207t139 226t147.5 229.5 q-18 133 -34.5 244.5t-29.5 191.5q-14 94 -24 170l115 -10q10 -66 20 -141q10 -66 20.5 -149t24.5 -173q82 113 170 208t179 160q92 64 186 91q47 14 94.5 14t95.5 -14q-70 0 -147.5 -68.5t-162.5 -180.5t-177 -256t-189 -296q31 -203 59.5 -328t57.5 -187.5t55.5 -73.5 t53 12.5t53 72.5t53.5 107h43q-55 -139 -119 -217q-53 -65 -105 -65l-21 3q-64 16 -122.5 140t-101.5 393q-92 -141 -188.5 -270.5t-195.5 -228.5t-200.5 -158.5t-205.5 -59.5q-53 0 -102.5 14.5t-83.5 46t-46 81.5z" />
<glyph unicode="Y" horiz-adv-x="1439" d="M5 654q11 110 59.5 223.5t132.5 224t199.5 196.5t261 138.5t317.5 52.5q100 0 179 -28.5t151 -90.5q-6 0 -13 -2q-12 -4 -24 -4q-70 -18 -136.5 -92t-122 -175.5t-93 -214t-50.5 -206.5q-4 -36 -4 -67q0 -51 12 -89q21 -63 82 -63q59 0 121 60.5t119 150.5 q45 152 97.5 291t119 239t151.5 150q54 32 121 32q36 0 76 -10q-66 -6 -114 -81t-89.5 -191.5t-80.5 -264t-86.5 -300t-105.5 -298t-139 -258t-187.5 -182t-249.5 -69.5q-66 0 -126.5 24.5t-98.5 70.5t-49 111q-3 16 -3 33q0 51 25 111q25 63 73 99t102 46q23 4 46 4 q30 0 59 -7q51 -13 84 -45t36 -81v-7q0 -46 -38 -103q-41 47 -83 51q-7 1 -13 1q-34 0 -61 -18q-31 -22 -50 -60q-13 -29 -13 -57q0 -9 1 -18q6 -37 43 -63.5t115 -26.5q68 0 121 56.5t98 151.5t85 219t79 257q-59 -57 -126 -92t-145 -35q-90 0 -146 42t-81 110 q-21 59 -21 132v26q5 90 31.5 184t74.5 185t112.5 167t142.5 126t164 62q-35 16 -75 23.5t-97 7.5q-176 0 -311.5 -79t-228.5 -196.5t-144 -255t-61 -254.5q-2 -27 -2 -52q0 -84 25 -145q32 -79 103 -79q33 0 53.5 23.5t19.5 52.5t-28.5 52.5t-91.5 23.5q0 55 43 87t96 33h3 q50 0 92 -32q43 -33 43 -107q0 -49 -22.5 -89t-59.5 -68.5t-84 -45t-96 -16.5q-121 0 -195 52.5t-105 138.5q-22 63 -22 140q0 27 3 57z" />
<glyph unicode="Z" horiz-adv-x="1185" d="M0 840v9q0 95 41 193q43 102 132 194.5t230 158.5t271 77q56 5 111 5q71 -1 139 -9q118 -14 227 -40t204 -38q38 -5 74 -5q55 1 105 11q84 18 154 93q-57 -96 -118 -152.5t-126 -85.5h2q-63 -41 -131 -120.5t-142.5 -183t-153.5 -223.5t-164 -239.5t-174 -232.5 t-181 -203q20 10 37.5 16.5t31.5 10.5q38 7 75 7q25 0 49 -3q61 -8 116 -22.5t107.5 -31t102.5 -20.5q11 -1 22 -1q39 -1 77 11q49 14 99 60q-68 -106 -129 -164q-60 -56 -116 -78q-44 -17 -85 -17q-11 0 -23 1q-51 6 -100 27.5t-95 50t-90 50.5q-45 22 -89 30q-14 3 -27 2 q-30 0 -60 -13q-84 -66 -168.5 -103.5t-173.5 -37.5q55 0 127 76.5t155 198.5t178 274.5t198.5 304t214 286t225.5 222.5q41 8 78 16t72 19q-16 -1 -32 -1q-60 0 -121 12q-77 15 -154.5 36.5t-155.5 43.5t-155 30q-28 3 -55 3q-48 -1 -96 -9q-74 -14 -147 -60 q-70 -47 -111.5 -112.5t-57.5 -135.5q-11 -50 -11 -100q0 -18 2 -38q6 -68 31.5 -121.5t68.5 -87.5t99 -34q33 0 53 26.5t19 59.5t-27.5 59.5t-87.5 26.5q0 55 42 86t93 31t93 -33t42 -104q0 -47 -21.5 -96.5t-59.5 -89.5t-89 -66.5t-111 -32.5q-22 -2 -42 -2q-88 0 -152 35 q-80 43 -122 118t-44 175z" />
<glyph unicode="[" horiz-adv-x="598" d="M18 -266l422 1403h469v-72h-307l-377 -1260h291v-71h-498z" />
<glyph unicode="\" horiz-adv-x="571" d="M6 1137h100l449 -1137h-102z" />
<glyph unicode="]" horiz-adv-x="606" d="M-221 -195h305l377 1260h-289v72h498l-422 -1403h-469v71z" />
<glyph unicode="^" horiz-adv-x="559" d="M203 735l270 209h49l111 -217l-39 -27l-166 115l-205 -104z" />
<glyph unicode="_" horiz-adv-x="444" d="M-109 -57h445v-72h-445v72z" />
<glyph unicode="`" horiz-adv-x="579" d="M111 1055v137l352 -199l-8 -28z" />
<glyph unicode="a" horiz-adv-x="628" d="M-10 110q-2 14 -2 29q0 44 13 103q17 80 65 186q47 109 120.5 185.5t156.5 119.5t165 51q18 2 35 2q62 0 116 -24q-33 -109 -61 -205q-25 -82 -49.5 -163t-36.5 -122q-20 -62 -20 -88q0 -7 2 -11q6 -21 22 -26q23 -6 58.5 15.5t60.5 75.5h29q-25 -63 -58 -107.5 t-68.5 -72t-69.5 -40t-60 -12.5q-37 0 -70 21.5t-37 87.5q-43 -45 -100.5 -77t-112.5 -32q-39 0 -65.5 26t-32.5 78zM190 200q6 -38 31 -38q20 0 45 15.5t41 27.5q6 31 19 67l120 404q-12 4 -24 4q-33 0 -68 -38t-65.5 -96.5t-56.5 -125.5q-24 -66 -36 -124q-8 -39 -9 -69 q1 -15 3 -27z" />
<glyph unicode="b" horiz-adv-x="518" d="M-10 97q-3 17 -3 36q0 31 8 71q13 64 36 144l276 903h185q-68 -223 -123 -411q-25 -80 -48.5 -160t-45 -147.5t-38 -116.5t-22.5 -68q-14 -49 -28.5 -92t-20.5 -74.5t0 -51t35 -19.5q31 0 64.5 29.5t64 76.5t56.5 108.5t42 125.5q-44 12 -66 59q-19 40 -19 104q0 11 1 23 l201 135q-6 -39 -6 -68q0 -27 5 -47q11 -41 35.5 -57t57.5 -13t63 17q-55 -66 -106 -102.5t-96 -48.5q-23 -80 -59 -159t-82 -143.5t-103 -104.5t-123 -40q-68 0 -100.5 23.5t-40.5 67.5z" />
<glyph unicode="c" horiz-adv-x="567" d="M7 210q-3 26 -3 54q0 62 16 132q24 100 83 185t147 142t203 57q59 0 96 -25.5t51 -64.5q10 -27 10 -57q0 -13 -2 -26q-6 -44 -30.5 -83t-64.5 -64.5t-95 -25.5q-61 0 -84 37q-17 28 -17 59q-1 10 1 21q8 43 42 73q25 22 59 22q13 0 27 -3q-12 -10 -14 -25.5t2 -29 t14.5 -22.5t22.5 -9q16 0 23.5 24.5t3.5 54.5t-24.5 54.5t-59.5 24.5q-47 0 -86 -44t-67 -110.5t-42 -143.5q-12 -63 -11 -120v-23q3 -66 23.5 -110.5t63.5 -44.5q68 0 127 42t106 93q53 59 99 137h35q-47 -109 -115 -190q-29 -37 -63.5 -71t-75.5 -60.5t-88.5 -43 t-100.5 -16.5q-96 0 -148.5 57.5t-63.5 142.5z" />
<glyph unicode="d" horiz-adv-x="628" d="M-10 110q-2 14 -2 29q0 44 13 103q17 80 65 186q33 76 78.5 137.5t101 106.5t115 71.5t118.5 36.5l142 471h186q-74 -246 -133 -448q-25 -86 -50.5 -173t-47 -160t-38 -125.5t-22.5 -72.5q-20 -62 -20 -88q0 -7 2 -11q6 -21 24 -26q23 -6 55.5 15.5t57.5 75.5h35 q-25 -63 -58.5 -107.5t-69.5 -72t-70 -40t-60 -12.5q-41 0 -74 22.5t-37 88.5q-41 -47 -98.5 -79t-114.5 -32q-41 0 -66.5 26t-31.5 78zM185 200q5 -38 32 -38q23 0 50.5 17.5t41.5 27.5q4 16 7 31.5t10 33.5l120 402q-12 6 -28 6q-33 0 -68 -38t-65.5 -96.5t-56.5 -125.5 q-24 -66 -36 -124q-8 -40 -9 -71q0 -13 2 -25z" />
<glyph unicode="e" horiz-adv-x="567" d="M9 210q-3 26 -3 54q0 62 16 132q24 100 83 185t147 142t203 57q69 0 101 -39q34 -40 33 -99q1 -54 -25 -118q-26 -66 -77 -119t-121 -85q-54 -24 -116 -23q-20 0 -41 2q-1 -19 -1 -37q0 -54 14 -94q18 -53 75 -53q68 0 128 42t107 95q53 61 99 139h33q-49 -109 -117 -190 q-29 -37 -63.5 -71t-75.5 -60.5t-88.5 -43t-98.5 -16.5q-96 0 -148.5 57.5t-63.5 142.5zM217 367q13 -4 25 -4q22 0 44 13q34 21 62.5 61t49.5 89q22 50 31 94q7 33 7 58q0 8 -1 16q-3 30 -23 29q-27 0 -56.5 -33t-56.5 -84t-48.5 -114.5t-33.5 -124.5z" />
<glyph unicode="f" horiz-adv-x="468" d="M-117 -162q66 229 129 441q27 90 54.5 184t54 182t50.5 165t40 132q33 113 80 182.5t101 108.5t115 52t122 13t98 -25.5t53 -63.5q10 -26 10 -54q0 -14 -2 -28q-8 -44 -31.5 -81.5t-64.5 -63.5t-96 -26q-61 0 -84 38q-17 28 -17 58q0 11 3 22q8 42 42 73q25 22 59 22 q14 0 30 -4q-12 -10 -15.5 -25.5t-0.5 -28.5t13.5 -22.5t22.5 -9.5q16 0 23.5 24.5t3.5 54.5t-24.5 54.5t-59.5 24.5q-53 0 -98 -58.5t-74 -150.5q-6 -16 -17.5 -55t-27 -94.5t-36 -124t-40.5 -142.5l168 117q-4 -32 -4 -58q0 -34 7 -57q13 -41 37.5 -57t57.5 -13t64 17 q-66 -76 -126.5 -114.5t-109.5 -42.5h-10q-42 0 -71 28q-31 31 -40 94q-35 -123 -70.5 -245.5t-64.5 -221.5q-35 -115 -63 -221h-191z" />
<glyph unicode="g" horiz-adv-x="569" d="M-120 -222q-2 12 -2 25q0 29 11 60q23 66 75 88q36 15 70 15q15 0 30 -3q49 -10 76 -50q14 -20 14 -45q0 -24 -13 -52q-30 21 -54 21q-11 0 -21 -5q-31 -16 -41.5 -46t1 -59.5t52.5 -29.5q35 0 61.5 37t48 93t40 123t36.5 126q0 2 1 4t1 6q-41 -35 -88 -57.5t-90 -22.5 q-41 0 -66.5 25.5t-31.5 78.5q-2 14 -2 30q0 44 12 102q16 80 63 186q47 109 120 185.5t155 119.5t165 51q18 2 35 2q62 0 115 -24q-33 -117 -69 -236q-31 -104 -67 -224t-66 -230q-27 -88 -60 -166t-78 -137.5t-103 -94t-136 -34.5q-53 0 -95 18t-67 49t-32 71zM184 200 q4 -38 33 -38q20 0 45 15.5t41 25.5q18 61 37.5 125.5t38 128t35 119t28.5 98.5q-12 6 -26 6q-31 0 -66 -38t-66.5 -96.5t-56 -125t-35.5 -124.5q-9 -43 -9 -75q0 -11 1 -21z" />
<glyph unicode="h" horiz-adv-x="575" d="M-70 0l371 1251h184l-180 -606q41 59 89 97t102 38q68 0 82 -47q7 -24 7 -54q-1 -29 -7 -63q-14 -70 -44 -152.5t-55.5 -152t-34 -117t22.5 -47.5q23 0 55.5 18.5t59.5 72.5h32q-25 -63 -58.5 -107.5t-68 -72t-68.5 -40t-61 -12.5q-53 0 -76 26q-24 26 -27 72q-1 9 -1 19 q0 38 10 83q12 56 31.5 115.5t41 116t36 101.5t17.5 71.5t-13 26.5q-18 0 -38 -25.5t-40 -64.5t-37.5 -82t-32.5 -80l-114 -385h-185z" />
<glyph unicode="i" horiz-adv-x="313" d="M-15 138q1 52 25 134l158 508h184q-35 -115 -65 -213q-27 -86 -52.5 -170t-37.5 -125q-12 -39 -16.5 -62.5t-1.5 -36.5t10.5 -18t15.5 -8q18 -6 54 15.5t60 75.5h29q-25 -63 -57.5 -107.5t-67.5 -72t-69.5 -40t-63.5 -12.5q-27 0 -52 12q-24 12 -39 40q-14 27 -14 74v6z M219 1071q0 53 36 88t89 35q49 0 86 -35t37 -88q0 -51 -37 -88t-86 -37q-53 0 -89 37t-36 88z" />
<glyph unicode="j" horiz-adv-x="282" d="M-435 -222q-2 12 -2 25q0 29 11 60q23 66 76 88q36 15 71 15q15 0 30 -3q48 -10 76 -50q14 -20 14 -43q0 -25 -15 -54q-30 21 -53 21q-12 0 -22 -5q-30 -16 -40 -46t3.5 -59.5t54.5 -29.5q33 0 58.5 37t47 93t41 123t37.5 126q12 43 27.5 96t33 110.5t36 117t34.5 114.5 q39 129 80 266h184q-37 -121 -74 -245q-33 -106 -68.5 -229.5t-70.5 -233.5q-25 -88 -56.5 -166t-76.5 -137.5t-104.5 -94t-139.5 -34.5q-51 0 -92 18t-67.5 49t-33.5 71zM211 1071q0 53 37 88t86 35q51 0 88 -35t37 -88q0 -51 -37 -88t-88 -37q-49 0 -86 37t-37 88z" />
<glyph unicode="k" horiz-adv-x="577" d="M-70 0l373 1251h189l-181 -604q41 59 87 96t100 37q62 0 84 -57q12 -31 12 -67q0 -31 -8 -66q-18 -76 -73.5 -148.5t-143.5 -103.5q0 -33 5 -69t17 -66.5t30.5 -50t43.5 -19.5t58.5 25.5t60.5 79.5h32q-25 -63 -58.5 -107.5t-69 -72t-69.5 -40t-61 -12.5q-43 0 -70.5 31 t-45 76t-25.5 95t-12 91l-88 -299h-187zM227 373q55 8 96.5 51t64 90t22.5 85t-27 38q-18 0 -36.5 -21.5t-37 -54.5t-36 -71.5t-31.5 -73.5z" />
<glyph unicode="l" horiz-adv-x="313" d="M-14 138q0 52 24 134l295 979h187q-74 -246 -134 -448q-27 -86 -52 -173t-46.5 -160t-37 -125.5t-21.5 -72.5q-20 -63 -20 -89q0 -6 1 -10q6 -21 23 -26q23 -6 56.5 15.5t57.5 75.5h33q-25 -63 -57.5 -107.5t-68.5 -72t-69.5 -40t-60.5 -12.5q-29 0 -54.5 11.5t-40.5 40 t-15 80.5z" />
<glyph unicode="m" horiz-adv-x="827" d="M-70 0l232 780h186l-29 -92q35 41 75 66.5t83 25.5q41 0 67 -24q23 -21 24 -79q0 -9 -1 -18q41 53 86 87t95 34q66 0 81 -47q8 -25 8 -56q-1 -29 -7 -61q-14 -70 -44 -152.5t-55.5 -152t-34 -117t22.5 -47.5q23 0 56.5 18.5t58.5 72.5h32q-25 -63 -58.5 -107.5t-68 -72 t-68.5 -40t-61 -12.5q-53 0 -76 26q-24 26 -27 72q-1 9 -1 19q0 38 10 83q12 56 31.5 115.5t41 116t36 101.5t17.5 71.5t-13 26.5q-18 0 -40 -29.5t-44 -72.5l-6 -21l-154 -508h-184q33 115 63 213q12 43 25.5 86t25 83t21.5 73t16 53q12 41 18.5 64.5t7.5 36t-3 16.5t-13 6 q-23 2 -43 -26.5t-43 -69.5l-161 -541h-185z" />
<glyph unicode="n" horiz-adv-x="575" d="M-70 0l234 780h186l-39 -129q41 57 87 93t100 36q66 0 81 -47q8 -24 8 -54q1 -29 -7 -63q-14 -70 -45 -152.5t-56.5 -152t-34 -117t24.5 -47.5q16 0 52 18.5t61 72.5h28q-25 -63 -57.5 -107.5t-68 -72t-69.5 -40t-61 -12.5q-70 0 -88 47q-12 30 -12 70q0 22 4 47 q10 70 39 151.5t54.5 151.5t38 117t-10.5 47q-16 0 -34.5 -19.5t-35 -49t-33 -66.5t-30.5 -72l-129 -430h-187z" />
<glyph unicode="o" horiz-adv-x="595" d="M4 244q8 70 31 151q23 80 64.5 150.5t94 123t111 82t115.5 29.5q78 0 121 -30t59 -82q11 -36 11 -78q0 -22 -3 -44q-8 -70 -30 -151q-25 -80 -68 -150.5t-95.5 -122.5t-109.5 -82t-112 -30q-78 0 -121 30q-44 30 -60 82q-11 35 -11 78q0 21 3 44zM198 139q4 -43 27 -43 q25 0 52.5 43t54 108.5t48.5 140.5q22 74 32 140q8 47 7 84q0 14 -1 25q-4 43 -31 43t-55.5 -43t-54 -108.5t-45.5 -140.5q-19 -74 -28 -140q-6 -47 -7 -83q0 -14 1 -26z" />
<glyph unicode="p" horiz-adv-x="577" d="M-176 -356l342 1136h184l-39 -131q41 59 87 95t100 36q66 0 81 -47q8 -25 8 -56q0 -28 -7 -61q-13 -69 -43.5 -152t-56 -152.5t-34 -117t22.5 -47.5q23 0 56.5 18.5t58.5 72.5h32q-25 -63 -57.5 -107.5t-68 -72t-69.5 -40t-61 -12.5q-53 0 -76.5 26.5t-26.5 71.5 q-1 9 -1 19q0 38 10 83q13 56 32 115.5t40.5 116t36 101.5t17.5 71.5t-13 26.5t-35.5 -25.5t-40 -63.5t-39 -81t-33.5 -80l-223 -743h-184z" />
<glyph unicode="q" horiz-adv-x="587" d="M-10 110q-2 13 -2 27q0 45 14 105q18 80 66 186q47 109 119.5 185.5t154.5 119.5t165 51q18 2 35 2q62 0 115 -24l-331 -1114h-187l131 438q-41 -35 -88 -57.5t-90 -22.5q-41 0 -68.5 25.5t-33.5 78.5zM188 200q4 -38 33 -38q18 0 43 14t41 27l141 471q-12 6 -26 6 q-33 0 -68 -38t-65.5 -96.5t-55 -125t-35.5 -124.5q-9 -43 -9 -75q0 -11 1 -21z" />
<glyph unicode="r" horiz-adv-x="436" d="M-70 0l234 780h186l-28 -92l176 117q-6 -39 -6 -68q0 -27 5 -46q11 -40 35.5 -57.5t57.5 -14t63 17.5q-66 -78 -127 -116t-109 -41h-8q-43 0 -72 29q-32 32 -40 97l-180 -606h-187z" />
<glyph unicode="s" horiz-adv-x="544" d="M-2 156q-4 17 -4 34q0 24 8 48q14 47 44 71.5t64 30.5q13 2 26 2q21 0 43 -6q34 -10 58.5 -32.5t34.5 -55.5q4 -14 5 -28q0 -21 -9 -44q-30 28 -55 28q-7 0 -15 -2q-32 -12 -45.5 -39.5t-4 -58t52.5 -36.5q8 -1 16 -1q39 1 65 25q32 30 40 73q3 16 4 33q0 29 -10 59 q-16 48 -62 81q-80 55 -112 132q-20 50 -20 97q0 25 6 49q17 70 82.5 119t180.5 49q99 0 153 -51q39 -37 39 -91q0 -20 -5 -42q-18 -60 -66 -84q-35 -18 -69 -18q-12 0 -23 2q-45 8 -74 44q-16 20 -16 47q0 21 10 46q32 -23 57 -23q7 0 15 2q30 10 40.5 34t-3 48.5 t-58.5 24.5q-41 0 -69 -25q-28 -26 -38 -64q-4 -14 -4 -30q0 -25 10 -51q16 -43 64 -76q88 -57 116 -138q16 -45 16 -88q0 -35 -10 -67q-22 -74 -94.5 -126t-184.5 -52q-49 0 -91.5 20.5t-70 54.5t-37.5 75z" />
<glyph unicode="t" horiz-adv-x="358" d="M7 94q-12 34 -12 78q0 73 32 176l102 332h-74v92h103l102 336h184l-30 -102q-14 -47 -31.5 -107.5t-38.5 -126.5h129v-92h-156l-100 -332q-34 -101 -34 -154q0 -55 34 -55q31 0 66.5 39t69.5 91.5t61.5 104.5t40.5 79h32q-18 -49 -55 -126t-85 -147.5t-103.5 -122 t-112.5 -51.5q-92 0 -124 88z" />
<glyph unicode="u" horiz-adv-x="575" d="M-14 138q0 52 24 134l154 508h184q-35 -115 -63 -213q-27 -86 -51.5 -170t-36.5 -125q-21 -65 -21 -92q0 -6 1 -10q5 -24 16 -23q12 0 35.5 35t39.5 76l4 14l158 508h184q-35 -115 -65 -213q-27 -86 -52.5 -170t-37.5 -125q-12 -39 -16.5 -62.5t-1.5 -36.5t10.5 -18 t15.5 -8q18 -6 54 15.5t61 75.5h32q-27 -63 -60.5 -107.5t-68 -72t-68.5 -40t-63 -12.5q-20 0 -39.5 6t-35 20.5t-23.5 39t-8 63.5q-35 -63 -72 -96t-84 -33q-27 0 -52.5 11.5t-39.5 40t-14 80.5z" />
<glyph unicode="v" horiz-adv-x="507" d="M-12 97q-3 17 -3 36q0 31 8 71q13 64 36 144l133 432h186q-29 -94 -53 -176q-23 -72 -44.5 -144.5t-35.5 -111.5q-14 -49 -27.5 -92t-17.5 -74.5t2 -51t29 -19.5q31 0 64.5 29.5t64 76.5t56.5 108.5t42 125.5q-42 12 -66 59q-20 40 -21 104q0 11 1 23l201 135 q-6 -39 -6 -68q0 -27 5 -47q11 -41 36.5 -57t58.5 -13t63 17q-55 -66 -107 -102.5t-97 -48.5q-23 -80 -59 -159t-82 -143.5t-103 -104.5t-123 -40q-68 0 -100.5 23.5t-40.5 67.5z" />
<glyph unicode="w" horiz-adv-x="770" d="M-14 138q0 52 24 134l158 508h184q-35 -115 -65 -213q-27 -86 -52.5 -170t-37.5 -125q-21 -65 -21 -92q0 -6 1 -10q5 -24 20 -23q10 0 32.5 34t40.5 75q4 23 11.5 45.5l15.5 46.5l127 432h190q-31 -94 -55 -176q-23 -72 -44 -144.5t-34 -111.5q-16 -49 -29.5 -92 t-18.5 -74.5t2 -51t32 -19.5q31 0 63.5 29.5t62.5 76.5t55.5 108.5t41.5 125.5q-44 12 -66 59q-19 40 -19 104q0 11 1 23l199 135q-6 -39 -6 -68q0 -27 5 -47q11 -41 36.5 -57t58.5 -13t64 17q-111 -129 -205 -151q-23 -80 -58.5 -159t-82 -143.5t-103.5 -104.5t-123 -40 q-85 0 -115 34q-29 32 -28 89v8q-35 -66 -72 -98.5t-84 -32.5q-27 0 -52.5 11.5t-39.5 40t-14 80.5z" />
<glyph unicode="x" horiz-adv-x="522" d="M-98 0l260 311q-2 36 -2 73q0 46 3 92q5 83 13 151q8 80 21 153h184q-6 -35 -12 -73q-4 -35 -9.5 -78t-9.5 -92l203 243h94l-305 -364q-1 -26 -1 -52t1 -50q2 -48 10 -84.5t23.5 -59.5t40.5 -23q23 0 55.5 18.5t56.5 72.5h35q-25 -63 -58.5 -107.5t-69.5 -72t-69.5 -40 t-60.5 -12.5q-61 0 -92 58.5t-43 148.5l-178 -213h-90z" />
<glyph unicode="y" horiz-adv-x="534" d="M-169 -222q-2 12 -2 25q0 29 11 60q23 66 75 88q36 15 70 15q15 0 30 -3q48 -10 76 -50q14 -20 14 -45q0 -24 -13 -52q-30 21 -53 21q-12 0 -21 -5q-30 -16 -41.5 -46t1 -59.5t51.5 -29.5q35 0 61.5 37t48 93t40 123t36.5 126q-51 -70 -119 -70q-29 0 -54.5 11.5 t-40.5 40.5q-14 26 -14 74v6q1 52 27 134l154 508h184q-35 -115 -63 -213q-27 -86 -51.5 -170t-36.5 -125q-23 -72 -23 -98q0 -27 19 -27q10 0 31.5 31t37.5 70q27 90 55.5 183t51.5 171q27 90 51 178h186q-35 -121 -71 -245q-31 -106 -67 -229.5t-71 -233.5 q-27 -88 -58.5 -166t-75.5 -137.5t-103.5 -94t-138.5 -34.5q-53 0 -95.5 18t-67 49t-31.5 71z" />
<glyph unicode="z" horiz-adv-x="528" d="M-92 0l514 621q-42 -11 -78 -11h-18q-43 4 -82 4t-74 -16t-72 -70q59 113 116.5 167.5t109.5 73.5q41 15 78 15q10 0 20 -1q47 -5 88 -14t76 -11h5q32 0 58 22l-497 -596l194 125q4 -68 22.5 -115t53.5 -47q23 0 55.5 18.5t57.5 72.5h28q-25 -63 -57.5 -107.5t-67.5 -72 t-68.5 -40t-62.5 -12.5q-45 0 -77.5 32t-51.5 91l-180 -129h-90z" />
<glyph unicode="{" horiz-adv-x="544" d="M124 105.5q3 72.5 21.5 142t34 129t18.5 106.5t-28 76q53 29 81 66t48 80t43 90t66 97t117.5 100t199.5 100l14 -35q-86 -47 -131 -121t-79.5 -151.5t-77.5 -146.5t-125 -106q29 -49 30.5 -100t-9.5 -105.5t-32.5 -111.5t-37 -116.5t-21.5 -122t10 -128.5l-33 -24 q-68 66 -90 137.5t-19 144z" />
<glyph unicode="|" horiz-adv-x="643" d="M23 -145l483 1595h82l-484 -1595h-81z" />
<glyph unicode="}" horiz-adv-x="692" d="M-119 -141q57 31 95 74.5t66 94t50.5 103.5t49 101.5t62.5 87t91 63.5q-29 49 -31 100.5t9.5 105.5t33 111.5t36.5 117t21.5 121.5t-10.5 128l33 25q68 -66 90.5 -137.5t19.5 -144.5t-21.5 -142.5t-34 -129t-18.5 -106.5t28 -76q-55 -29 -82 -65.5t-47.5 -79.5t-43 -90 t-65.5 -97.5t-118 -100.5t-199 -99z" />
<glyph unicode="~" horiz-adv-x="796" d="M160 356q29 53 69.5 96.5t86.5 65t93.5 13t86.5 -55.5q33 -41 64.5 -44t57.5 9q31 14 58 47l35 -28q-47 -53 -94.5 -92t-92.5 -55.5t-87 -7.5t-75 52q-35 41 -65.5 42t-52.5 -15q-27 -20 -51 -59z" />
<glyph unicode="&#xa1;" horiz-adv-x="284" d="M0 0l326 844h112l-233 -844h-205zM379 1180q0 39 28.5 67.5t69.5 28.5t68.5 -28.5t27.5 -67.5q0 -43 -27.5 -71t-68.5 -28t-69.5 28t-28.5 71z" />
<glyph unicode="&#xa2;" horiz-adv-x="567" d="M5 221q-9 82 15.5 175t77 175t132 139.5t184.5 67.5l57 191h82l-59 -193q72 -14 98 -69.5t13 -116t-62 -108.5t-125 -48q-18 0 -27 2l-94 -317q66 0 126 43t105 94q53 59 99 135h35q-43 -94 -103 -174q-51 -68 -125 -128t-170 -75l-57 -194h-82l57 192q-82 10 -125 68.5 t-52 140.5zM208 304q-3 -87 21 -138l97 317q-16 35 -4 80t47 68l24 82q-53 -12 -94 -80t-64.5 -155t-26.5 -174zM436 582q10 -25 35 -25q12 0 19.5 15.5t8.5 37t-6.5 44t-23.5 38.5z" />
<glyph unicode="&#xa3;" horiz-adv-x="1509" d="M360 -176q55 45 98.5 112.5t80 149.5t67.5 176t60 193h-86v71h106q45 160 95 316.5t119 280.5t166 201t239 77q133 0 215 -52.5t116.5 -131t27.5 -171t-52 -171t-123 -131t-182 -52.5t-168 60.5t-64 158.5q0 74 42 107t93.5 32t93.5 -33t42 -87q-61 0 -93 -23.5 t-38.5 -52.5t10 -52.5t49.5 -23.5q55 0 95 41t63.5 101.5t28.5 131t-10 131t-51 101.5t-95 41q-92 0 -152.5 -72.5t-102.5 -187.5t-73 -257t-64 -282h152v-71h-170q-35 -133 -79 -243t-114 -169q63 27 117.5 27t103 -13.5t92.5 -30t89 -22.5t91 8.5t99 63.5 q-70 -111 -126 -169.5t-103 -79t-86 -11t-74 33t-66.5 52t-65.5 48t-70.5 21.5t-81.5 -30q-53 -53 -118 -85t-143 -32z" />
<glyph unicode="&#xa4;" horiz-adv-x="858" d="M18 186l148 60q-4 59 39 149q23 51 52.5 91t64.5 71l-134 55l121 131l76 -141q84 47 176 47q35 0 64 -14l129 149l49 -151l-133 -55q16 -63 -39 -183q-25 -53 -53.5 -93t-59.5 -69l129 -53l-121 -131l-73 135q-74 -41 -162 -41q-72 0 -101 35l-122 -143zM319.5 268.5 q8.5 -30.5 45.5 -30.5q41 0 70.5 30.5t58.5 126.5q29 92 29.5 127t-40.5 35q-39 0 -76.5 -35t-66.5 -127q-29 -96 -20.5 -126.5z" />
<glyph unicode="&#xa5;" horiz-adv-x="1439" d="M5 653.5q11 110.5 59.5 224t132.5 224t199.5 196.5t261 138.5t317.5 52.5q100 0 179 -28.5t151 -90.5q-6 0 -13 -2q-12 -4 -24 -4q-70 -18 -136.5 -92t-122 -175.5t-93 -214t-50 -206.5t8 -156.5t81.5 -62.5q59 0 121 60.5t119 150.5q45 152 97.5 291t119 239 t151.5 149.5t197 22.5q-51 -6 -91 -52t-74.5 -123t-65.5 -177t-62.5 -213t-66.5 -231.5t-76 -233.5h64v-72h-93q-10 -25 -19 -47t-20 -45h70v-72h-104q-43 -82 -95.5 -151.5t-116 -119.5t-138 -78.5t-164.5 -28.5q-66 0 -126.5 24.5t-98.5 70.5t-49 110.5t22 144.5 q25 63 73 99t102 46t105 -3t84 -45t36 -81t-38 -110q-41 47 -83 51t-73.5 -17.5t-50 -59.5t-12.5 -75t43 -63.5t115 -26.5q84 0 147.5 87t116.5 226h-117v72h144l30 92h-112v72h133l41 135q-59 -57 -126 -92t-145 -35q-90 0 -146 42t-81 110.5t-20.5 158t31 183.5t74.5 185 t112.5 167t142.5 126t164 62q-35 16 -75 23.5t-97 7.5q-176 0 -311.5 -79t-228.5 -196.5t-144 -255t-60.5 -255t22.5 -196.5t103 -79q33 0 53.5 23.5t19.5 52.5t-28.5 52.5t-91.5 23.5q0 55 43 87t95.5 33t95.5 -32t43 -107q0 -49 -22.5 -89t-59.5 -68.5t-84 -45t-96 -16.5 q-121 0 -195 52.5t-104.5 138.5t-19.5 196.5z" />
<glyph unicode="&#xa6;" horiz-adv-x="583" d="M23 -145l206 702h82l-207 -702h-81zM266 709l217 723h82l-217 -723h-82z" />
<glyph unicode="&#xa7;" horiz-adv-x="686" d="M-2 156q-10 41 4 82q14 47 44 71.5t64.5 30.5t68.5 -4t58.5 -32.5t35 -55.5t-4.5 -72q-39 37 -70.5 25.5t-45 -39t-4 -58t52.5 -36.5q49 -6 80.5 23.5t41 73.5t-7 92t-61.5 81q-63 43 -96 100.5t-36 115.5t24.5 110.5t84.5 83.5q-31 57 -29.5 116.5t31 107.5t89 78.5 t149.5 30.5q100 0 153.5 -51t32.5 -133q-18 -61 -65 -85t-92 -15.5t-74 44.5t-6 93q43 -31 72.5 -20.5t40 34t-3 48t-58.5 24.5q-41 0 -69.5 -25.5t-38 -63.5t6 -81t64.5 -76q63 -43 96 -100.5t35 -115.5t-24.5 -111.5t-77.5 -90.5q27 -59 21.5 -121.5t-40 -112.5t-97 -83 t-150.5 -33q-49 0 -91.5 20.5t-70 54.5t-37.5 75zM282 622q-3 -24 3 -49.5t23.5 -50t45.5 -45.5l41 -33q16 47 3 101.5t-64 89.5q-10 6 -20.5 14t-18.5 17q-10 -20 -13 -44z" />
<glyph unicode="&#xa8;" horiz-adv-x="741" d="M125 1053q0 47 29.5 75.5t76.5 28.5q41 0 73 -28.5t32 -75.5q0 -43 -32 -75t-73 -32q-47 0 -76.5 32t-29.5 75zM367 1053q0 47 29.5 75.5t76.5 28.5q41 0 73 -28.5t32 -75.5q0 -43 -32 -75t-73 -32q-47 0 -76.5 32t-29.5 75z" />
<glyph unicode="&#xa9;" horiz-adv-x="1034" d="M30.5 185q-2.5 99 30.5 214q31 115 93.5 216.5t143.5 176t173 117.5t182 43q92 0 161 -43t108 -117.5t46 -176t-26 -216.5q-31 -115 -94.5 -214t-145 -173.5t-174 -118t-184.5 -43.5q-102 0 -171 43.5t-104.5 118t-38 173.5zM84 207q0 -90 30.5 -157.5t92 -106.5 t155.5 -39q80 0 163 39t155 106.5t128 157.5t83 192q31 121 25.5 216.5t-41 161t-97 100t-141.5 34.5t-161 -41t-153.5 -111.5t-127.5 -163t-82 -196.5q-29 -102 -29 -192zM175 210q-11 85 13.5 185.5t83 185.5t146.5 142t203 57q59 0 96 -25.5t51 -64.5t8 -83t-30.5 -83 t-64.5 -64.5t-95 -25.5q-61 0 -84 37t-15.5 80t42 73.5t85.5 18.5q-12 -10 -14 -25.5t2 -29t14.5 -22.5t22.5 -9q16 0 23.5 24.5t3.5 54.5t-24.5 54.5t-59.5 24.5q-47 0 -86 -44t-67 -110.5t-42 -143.5t-11 -143.5t23.5 -110.5t63.5 -44q68 0 127 42t106 93q53 59 99 137h34 q-47 -109 -114 -190q-29 -37 -64 -71t-75.5 -60.5t-88 -43t-100.5 -16.5q-96 0 -148.5 57.5t-63.5 142.5z" />
<glyph unicode="&#xaa;" horiz-adv-x="628" d="M169 684q-5 39 8 98.5t48 139.5q35 82 89.5 139t116 89t124 37t113.5 -18q-25 -82 -47 -151q-18 -61 -36 -121.5t-28 -91.5q-18 -59 -13 -73.5t17 -18.5q16 -4 43 11t45 54h21q-18 -47 -43 -79.5t-50.5 -53t-51 -30t-46.5 -9.5q-29 0 -52.5 16.5t-27.5 65.5 q-31 -35 -73.5 -58.5t-83.5 -23.5q-29 0 -48.5 19.5t-24.5 58.5zM316 751.5q3 -28.5 24 -28.5q16 0 35 10.5t31 20.5q4 25 12 51l90 299q-8 4 -19 4q-23 0 -49 -28.5t-48.5 -71.5t-41 -92.5t-28 -92.5t-6.5 -71.5z" />
<glyph unicode="&#xab;" horiz-adv-x="952" d="M145 379l13 47l379 203l14 -45l-266 -228l116 -233l-28 -12zM391 379l12 47l379 203l15 -45l-267 -228l117 -233l-29 -12z" />
<glyph unicode="&#xac;" horiz-adv-x="710" d="M106 379v72h457l-65 -248h-74l45 176h-363z" />
<glyph unicode="&#xad;" horiz-adv-x="600" d="M113 358v72h417v-72h-417z" />
<glyph unicode="&#xae;" horiz-adv-x="1021" d="M30.5 185q-2.5 99 30.5 214q31 115 93.5 216.5t143.5 176t173 117.5t182 43q92 0 161 -43t108 -117.5t46 -176t-26 -216.5q-31 -115 -94.5 -214t-145 -173.5t-174 -118t-184.5 -43.5q-102 0 -171 43.5t-104.5 118t-38 173.5zM84 207q0 -90 30.5 -157.5t92 -106.5 t155.5 -39q80 0 163 39t155 106.5t128 157.5t83 192q31 121 25.5 216.5t-41 161t-97 100t-141.5 34.5t-161 -41t-153.5 -111.5t-127.5 -163t-82 -196.5q-29 -102 -29 -192zM188 0l234 780h186l-28 -92l176 117q-12 -74 -1 -114t35.5 -57.5t57.5 -14t63 17.5 q-66 -78 -127 -116t-109 -41t-80 29t-40 97l-180 -606h-187z" />
<glyph unicode="&#xaf;" horiz-adv-x="600" d="M106 985v72h418v-72h-418z" />
<glyph unicode="&#xb0;" horiz-adv-x="550" d="M104 950q0 66 43 107t109 41q59 0 103 -41t44 -107q0 -61 -44 -106t-103 -45q-66 0 -109 45t-43 106zM147 948q0 -43 30 -74.5t77 -31.5q41 0 72.5 31.5t31.5 74.5q0 47 -31.5 76t-72.5 29q-47 0 -77 -29t-30 -76z" />
<glyph unicode="&#xb1;" horiz-adv-x="641" d="M27 12v72h458v-72h-458zM106 379v72h203l51 192h80l-51 -192h176v-72h-196l-52 -195h-79l51 195h-183z" />
<glyph unicode="&#xb2;" horiz-adv-x="757" d="M0 10q125 47 242.5 140.5t213 206t165 231.5t101.5 220t19.5 171t-79.5 82q-86 16 -146.5 -8.5t-97.5 -72.5t-52.5 -112.5t-13.5 -125t18.5 -110.5t43.5 -71q-12 -31 -44 -54.5t-70 -27.5t-75 18.5t-59 88.5q-18 51 -15 113.5t26.5 126t65.5 122t102.5 102.5t138 68.5 t171.5 18.5q150 -10 220.5 -69.5t78 -148t-42 -198t-136.5 -220t-206.5 -213t-255.5 -175.5q72 23 131.5 40t83.5 15q53 -6 87 -12t62 -3t54.5 22.5t63.5 68.5q-47 -113 -97.5 -173.5t-102.5 -83t-103.5 -16.5t-102.5 22.5t-99 36t-93 25.5q-47 -23 -96.5 -38t-96.5 -25z " />
<glyph unicode="&#xb3;" horiz-adv-x="745" d="M13.5 389q23.5 90 92.5 143q61 49 120 50.5t102 -24.5t67.5 -70t20.5 -82q-61 27 -112.5 11t-85.5 -53.5t-49 -90t-4 -98.5t52 -79t117 -33q61 0 111.5 37t85 93.5t51 122t11.5 122t-35 93t-87 36.5l25 37q51 2 98 34t83 81t58.5 105.5t23.5 107.5t-22.5 87t-77.5 44 q-45 6 -83.5 -12.5t-68.5 -50t-47.5 -72.5t-20.5 -81t11.5 -74t49.5 -50q-10 -31 -48 -47.5t-82 -13t-83 27t-54 76.5q-23 82 3 153.5t84.5 122t145.5 77t191 18.5q115 -8 183.5 -49t96.5 -98.5t18.5 -125t-46.5 -129t-98 -108.5t-139 -64q59 -35 87.5 -90t27.5 -117.5 t-30.5 -127t-88 -116t-142 -84t-192.5 -32.5q-135 0 -214 63.5t-104.5 151.5t-2 178z" />
<glyph unicode="&#xb4;" horiz-adv-x="622" d="M111 993l352 199v-137l-344 -90z" />
<glyph unicode="&#xb5;" horiz-adv-x="647" d="M-180 -360l344 1140h184q-35 -115 -63 -213q-27 -86 -51.5 -170t-36.5 -125q-25 -78 -20 -101.5t16 -23.5q12 0 35.5 35t39.5 76q0 4 2 6v4l2 4l158 508h184q-35 -115 -65 -213q-27 -86 -52.5 -170t-37.5 -125q-12 -39 -16.5 -62.5t-1.5 -36.5t10.5 -18t15.5 -8 q18 -6 54 15.5t61 75.5h32q-27 -63 -60.5 -107.5t-68 -72t-68.5 -40t-63 -12.5q-20 0 -39.5 6t-35 20.5t-23.5 39t-8 63.5q-35 -63 -72 -96t-84 -33q-35 0 -62.5 17.5t-31.5 72.5l-96 -456h-82z" />
<glyph unicode="&#xb6;" horiz-adv-x="669" d="M2 -145l242 790q-41 23 -66.5 61t-25.5 85q0 35 16 65.5t43 54t60.5 37t68.5 13.5h344v-72h-78l-315 -1034h-82l315 1034h-125l-315 -1034h-82z" />
<glyph unicode="&#xb7;" horiz-adv-x="397" d="M90 391q0 43 27.5 70.5t68.5 27.5t70 -27.5t29 -70.5q0 -39 -29 -67.5t-70 -28.5t-68.5 28.5t-27.5 67.5z" />
<glyph unicode="&#xb8;" horiz-adv-x="313" d="M27 -250q23 0 61.5 8.5t63 27.5t19.5 53t-69 85l2 2q12 18 23.5 40t22.5 40q10 23 20 43l49 -12l-55 -107q84 -53 110.5 -100t5 -79t-87 -42t-165.5 12v29z" />
<glyph unicode="&#xb9;" horiz-adv-x="405" d="M0 0l231 780h-55l162 357h184l-336 -1137h-186z" />
<glyph unicode="&#xba;" horiz-adv-x="595" d="M149.5 933q8.5 71 30.5 150q23 80 65 151t94 123t110.5 81.5t115.5 29.5q78 0 121 -29.5t59.5 -81.5t8 -123t-30.5 -151q-25 -80 -68 -150.5t-95 -122.5t-109.5 -82t-112.5 -30q-78 0 -121 30t-59.5 82t-8 123zM344 827q4 -43 27 -43q25 0 52.5 43t54 108.5t48 140.5 t31.5 140.5t6 108.5t-31 43t-55 -43t-54 -108.5t-45.5 -140.5t-28.5 -140.5t-5 -108.5z" />
<glyph unicode="&#xbb;" horiz-adv-x="919" d="M127 158l266 227l-117 233l29 13l227 -269l-12 -47l-379 -202zM373 158l266 227l-117 233l29 13l227 -269l-12 -47l-379 -202z" />
<glyph unicode="&#xbc;" horiz-adv-x="1523" d="M12 0l232 780h-56l162 357h185l-336 -1137h-187zM242 0l694 1137h100l-692 -1137h-102zM690 334q27 84 66 185.5t91 199.5t117.5 186t146.5 146.5t179.5 79t214.5 -16.5l-205 -690h58v-90h-84l-98 -334h-185l99 334h-400zM918 424h198l195 668q-76 -37 -134.5 -112 t-105.5 -168t-84 -194.5t-69 -193.5z" />
<glyph unicode="&#xbd;" horiz-adv-x="1724" d="M14 0l232 780h-56l162 357h185l-336 -1137h-187zM227 0l695 1137h100l-692 -1137h-103zM719 10q125 47 242.5 140.5t213 206t165 231.5t101.5 220t19.5 171t-80.5 82q-88 16 -147 -8.5t-96 -72.5t-52.5 -112.5t-13.5 -125t18.5 -110.5t43.5 -71q-12 -31 -44 -54.5 t-70 -27.5t-75 18.5t-59 88.5q-18 51 -15.5 113.5t26.5 126t66 122t102 102.5t138 68.5t172 18.5q150 -10 220.5 -69.5t77.5 -148t-42 -198t-136 -220t-207 -213t-255 -175.5q72 23 131.5 40t83.5 15q53 -6 87 -12t61.5 -3t54.5 22.5t63 68.5q-47 -113 -97 -173.5t-102 -83 t-103.5 -16.5t-102.5 22.5t-99 36t-94 25.5q-47 -23 -96 -38t-96 -25z" />
<glyph unicode="&#xbe;" horiz-adv-x="1980" d="M17.5 389q23.5 90 93.5 143q61 49 119.5 50.5t101.5 -24.5t67.5 -70t20.5 -82q-61 27 -112.5 11t-85.5 -53.5t-49 -90t-4 -98.5t52 -79t117 -33q61 0 111.5 37t85 93.5t51 122t11.5 122t-35 93t-87 36.5l25 37q51 2 98 34t83 81t58.5 105.5t23.5 107.5t-22.5 87t-76.5 44 q-45 6 -84 -12.5t-69 -50t-47.5 -72.5t-20.5 -81t11.5 -74t49.5 -50q-10 -31 -48 -47.5t-82 -13t-83 27t-53 76.5q-23 82 2.5 153.5t84 122t145.5 77t192 18.5q115 -8 183 -49t96 -98.5t18.5 -125t-46 -129t-98 -108.5t-139.5 -64q59 -35 88 -90t28 -117.5t-31 -127 t-88.5 -116t-142 -84t-192.5 -32.5q-135 0 -214 63.5t-104.5 151.5t-2 178zM688 0l694 1137h101l-692 -1137h-103zM1145 334q29 84 66.5 185.5t90 199.5t118 186t146.5 146.5t179 79t215 -16.5l-205 -690h57v-90h-83l-99 -334h-184l98 334h-399zM1372 424h199l194 668 q-76 -37 -134 -112t-105 -168t-84 -194.5t-70 -193.5z" />
<glyph unicode="&#xbf;" horiz-adv-x="880" d="M18.5 304q16.5 91 92.5 175q86 94 188 158.5t193.5 117t158 99.5t82.5 102h78q-25 -92 -89.5 -153.5t-144 -115.5t-161.5 -112.5t-142 -144.5q-43 -61 -57 -124.5t-2 -117t51 -90.5t105 -45q59 -10 95 8.5t51 52t11 74.5t-25.5 79t-60.5 63.5t-92 29.5q8 33 38 63t70 45 t87 14t92 -25q86 -49 111.5 -124t-1 -147.5t-102.5 -128t-192 -65.5q-160 -12 -262.5 31t-145.5 116.5t-26.5 164.5zM772 1210q0 39 28.5 68t69.5 29t69 -29t28 -68q0 -43 -28 -70.5t-69 -27.5t-69.5 27.5t-28.5 70.5z" />
<glyph unicode="&#xc0;" horiz-adv-x="1038" d="M9.5 462q19.5 138 76.5 282.5t147.5 281.5t208 242.5t260 167t302.5 53.5q125 -6 196.5 -41t102 -85t24.5 -107.5t-36.5 -105.5t-82 -80t-110.5 -32q-39 0 -65.5 7.5t-43 16.5t-27 20.5t-16.5 21.5q41 0 73 22.5t51.5 56.5t23.5 74.5t-10.5 75.5t-51.5 58.5t-100 25.5 q-90 4 -175 -49t-160 -142t-135.5 -206t-103.5 -240t-65.5 -240.5t-19.5 -209.5t33 -148.5t93 -56.5q51 0 100.5 42t94.5 108.5t84 149.5t72 165l114 395h240q-41 -141 -78 -268q-16 -53 -31.5 -109.5t-31 -106.5t-28.5 -93t-22 -70q-37 -115 -32.5 -165t32.5 -58 q12 -4 30 8t38 35.5t40.5 57.5t39.5 71h43q-37 -88 -75 -144.5t-77 -89.5t-77.5 -45t-75.5 -12q-31 0 -60.5 10t-51 36t-33 70t-3.5 111q-68 -109 -154.5 -180.5t-197.5 -71.5q-123 0 -192.5 66.5t-93 176.5t-4 248zM834 1632v137l352 -198l-8 -29z" />
<glyph unicode="&#xc1;" horiz-adv-x="1038" d="M9.5 462q19.5 138 76.5 282.5t147.5 281.5t208 242.5t260 167t302.5 53.5q125 -6 196.5 -41t102 -85t24.5 -107.5t-36.5 -105.5t-82 -80t-110.5 -32q-39 0 -65.5 7.5t-43 16.5t-27 20.5t-16.5 21.5q41 0 73 22.5t51.5 56.5t23.5 74.5t-10.5 75.5t-51.5 58.5t-100 25.5 q-90 4 -175 -49t-160 -142t-135.5 -206t-103.5 -240t-65.5 -240.5t-19.5 -209.5t33 -148.5t93 -56.5q51 0 100.5 42t94.5 108.5t84 149.5t72 165l114 395h240q-41 -141 -78 -268q-16 -53 -31.5 -109.5t-31 -106.5t-28.5 -93t-22 -70q-37 -115 -32.5 -165t32.5 -58 q12 -4 30 8t38 35.5t40.5 57.5t39.5 71h43q-37 -88 -75 -144.5t-77 -89.5t-77.5 -45t-75.5 -12q-31 0 -60.5 10t-51 36t-33 70t-3.5 111q-68 -109 -154.5 -180.5t-197.5 -71.5q-123 0 -192.5 66.5t-93 176.5t-4 248zM897 1577l352 199v-138l-344 -90z" />
<glyph unicode="&#xc2;" horiz-adv-x="1038" d="M9.5 462q-19.5 -138 4 -248t93 -176.5t192.5 -66.5q111 0 198 72t154 180q-8 -68 3.5 -111.5t33 -69.5t51 -36t60.5 -10q37 0 75.5 12t77.5 45t77 89.5t75 144.5h-43q-18 -37 -39 -71t-41 -57.5t-37.5 -35.5t-30.5 -8q-29 8 -32.5 58t32.5 165q8 27 21.5 70t29 93 t31 106.5t31.5 109.5q37 127 78 268h-240l-114 -395q-33 -82 -72 -165t-84 -149.5t-94 -108.5t-101 -42q-63 0 -93 56.5t-33 148.5t19.5 209.5t65.5 240.5t103.5 240t135.5 206t160 142t175 49q63 -2 100 -25.5t51.5 -58.5t10.5 -75.5t-23.5 -74.5t-51.5 -56.5t-73 -22.5 q6 -10 16.5 -21.5t27 -20.5t43 -16.5t65.5 -7.5q59 0 110.5 32t82 80t36.5 105.5t-24.5 107.5t-102.5 85t-196 41q-160 8 -302.5 -53.5t-260 -167t-208 -242.5t-147.5 -281.5t-76.5 -282.5zM799 1563l270 209h49l111 -218l-39 -26l-166 114l-205 -104z" />
<glyph unicode="&#xc3;" horiz-adv-x="1038" d="M9.5 462q19.5 138 76.5 282.5t147.5 281.5t208 242.5t260 167t302.5 53.5q125 -6 196.5 -41t102 -85t24.5 -107.5t-36.5 -105.5t-82 -80t-110.5 -32q-39 0 -65.5 7.5t-43 16.5t-27 20.5t-16.5 21.5q41 0 73 22.5t51.5 56.5t23.5 74.5t-10.5 75.5t-51.5 58.5t-100 25.5 q-90 4 -175 -49t-160 -142t-135.5 -206t-103.5 -240t-65.5 -240.5t-19.5 -209.5t33 -148.5t93 -56.5q51 0 100.5 42t94.5 108.5t84 149.5t72 165l114 395h240q-41 -141 -78 -268q-16 -53 -31.5 -109.5t-31 -106.5t-28.5 -93t-22 -70q-37 -115 -32.5 -165t32.5 -58 q12 -4 30 8t38 35.5t40.5 57.5t39.5 71h43q-37 -88 -75 -144.5t-77 -89.5t-77.5 -45t-75.5 -12q-31 0 -60.5 10t-51 36t-33 70t-3.5 111q-68 -109 -154.5 -180.5t-197.5 -71.5q-123 0 -192.5 66.5t-93 176.5t-4 248zM805 1604q29 53 69.5 96t87 64.5t93.5 13t86 -55.5 q33 -41 64.5 -44t58.5 10q31 14 57 47l35 -29q-47 -53 -94.5 -92t-92.5 -55.5t-87 -7t-74 52.5q-35 41 -66 42t-53 -16q-27 -20 -51 -59z" />
</font>
</defs>
</svg>
