<?xml version="1.0" standalone="no"?>
<!DOCTYPE svg PUBLIC "-//W3C//DTD SVG 1.1//EN" "http://www.w3.org/Graphics/SVG/1.1/DTD/svg11.dtd" >
<svg>
<metadata>
Created by FontForge 20120731 at Wed Aug  7 07:35:07 2019
 By www-data
Copyright (c) 2019 by neogrey creative, Ivan Filipov. All rights reserved.
</metadata>
<defs>
<font id="ArkitechStencil-Medium" horiz-adv-x="1017" >
  <font-face 
    font-family="Arkitech Stencil"
    font-weight="500"
    font-stretch="normal"
    units-per-em="1000"
    panose-1="2 0 0 0 0 0 0 0 0 0"
    ascent="800"
    descent="-200"
    x-height="692"
    cap-height="693"
    bbox="-180 -258 2001 1073"
    underline-thickness="50"
    underline-position="-75"
    unicode-range="U+0020-FB02"
  />
<missing-glyph horiz-adv-x="375" 
 />
    <glyph glyph-name=".notdef" horiz-adv-x="375" 
 />
    <glyph glyph-name=".null" horiz-adv-x="0" 
 />
    <glyph glyph-name="nonmarkingreturn" horiz-adv-x="375" 
 />
    <glyph glyph-name="space" unicode=" " horiz-adv-x="375" 
 />
    <glyph glyph-name="numbersign" unicode="#" horiz-adv-x="850" 
d="M332 56h-104v89h-126v103h126v224h-126v104h126v88h104v-416v-192zM659 472v-224h126v-103h-126v-89h-103v89h-153v103h153v224h-153v104h153v88h103v-88h126v-104h-126z" />
    <glyph glyph-name="dollar" unicode="$" horiz-adv-x="1013" 
d="M753 394q40 0 76 -15.5t62.5 -42t42 -62.5t15.5 -77t-15 -76.5t-41.5 -62t-61.5 -42.5t-75 -16v107q35 1 60.5 27t25.5 62q0 38 -25.5 64t-63.5 26h-69v-365h-108v79h-78v-79h-108v79h-290v107h290v179h-92q-40 0 -75.5 15.5t-62.5 42t-42.5 62t-15.5 76.5q0 42 15.5 78
t42 62.5t62 41.5t76.5 15h20v-108h-20q-38 0 -62 -25t-27 -61q3 -39 28 -65t61 -26h92v362h108v-77h78v77h108v-77h228v-108h-228v-177h69zM576 286h-78v-179h78v179zM576 571h-78v-177h78v177z" />
    <glyph glyph-name="percent" unicode="%" horiz-adv-x="1182" 
d="M573 522q0 -32 -12 -60.5t-33 -49.5t-49.5 -33.5t-61.5 -12.5h-164q-31 0 -59 12.5t-49 34t-33 49.5t-12 60v14q0 33 12.5 61.5t33.5 49.5t49.5 33.5t60.5 12.5h145v-101h-145q-23 0 -39 -16.5t-16 -39.5v-14q0 -23 16 -39.5t39 -16.5h161q23 0 39 16.5t16 42.5v158
q45 -17 73 -56.5t28 -90.5v-14zM881 703l-447 -703h-123l447 703h123zM939 328q32 0 60.5 -12.5t49.5 -34t33.5 -50t12.5 -61.5v-14q0 -50 -28 -89.5t-73 -56.5v161q0 23 -16 39.5t-39 16.5h-160q-24 0 -39 -17q-8 -8 -12.5 -18t-4.5 -22v-14q0 -23 16.5 -39t39.5 -16h144
v-101h-146q-32 0 -60 12.5t-49 34t-33.5 50t-12.5 59.5v14q0 33 12.5 61.5t34 50t50 34t60.5 12.5h160z" />
    <glyph glyph-name="ampersand" unicode="&#x26;" horiz-adv-x="1134" 
d="M274 676q19 3 37 3h655v-108h-655q-19 0 -37 -6v111zM1064 406v-108h-93v-298h-663q-48 0 -87 16t-67 43.5t-43.5 64.5t-15.5 79t17.5 80t48.5 66q-32 25 -49 62t-17 78q0 34 8.5 60.5t23.5 47t34.5 35t40.5 24.5v-169q0 -19 9.5 -34t24.5 -25.5t34 -16t37 -5.5h485v-109
h-486q-21 0 -40 -7.5t-33 -20.5t-22.5 -30.5t-8.5 -36.5q0 -7 4.5 -23t16.5 -32t32 -28t51 -12h557v299h201z" />
    <glyph glyph-name="quoteright" unicode="&#x2019;" horiz-adv-x="327" 
d="M96 442l66 243h117l-67 -243h-116z" />
    <glyph glyph-name="parenleft" unicode="(" horiz-adv-x="475" 
d="M231 -57q-42 0 -74 23.5t-50 57.5q-10 20 -15.5 42.5t-5.5 48.5v450q0 34 10 63.5t27 52.5q19 26 47 41t61 15h118v-107h-118q-17 -3 -27 -24q-10 -17 -10 -41v-450q0 -33 15 -51q11 -13 23 -14h117v-107h-118v0z" />
    <glyph glyph-name="parenright" unicode=")" horiz-adv-x="479" 
d="M86 -57v107h119q10 1 21 14q7 8 11.5 21.5t4.5 29.5v450q0 12 -2.5 22t-7.5 19q-11 21 -27 24h-119v107h119q32 0 60 -15t47 -41q17 -23 27 -52.5t10 -63.5v-450q0 -51 -21 -91q-17 -34 -49 -57.5t-74 -23.5h-119z" />
    <glyph glyph-name="asterisk" unicode="*" horiz-adv-x="479" 
d="M420 521h-112l78 -79l-40 -41l-79 80v-111h-58v112l-79 -78l-41 40l79 79h-110v58h112l-79 79l41 41l80 -79v110h57v-112l79 79l41 -41l-80 -80h111v-57z" />
    <glyph glyph-name="plus" unicode="+" horiz-adv-x="714" 
d="M598 293h-201v-201h-96v201h-202v96h202v202h96v-202h201v-96z" />
    <glyph glyph-name="comma" unicode="," horiz-adv-x="311" 
d="M88 -109l33 199h118l-34 -199h-117z" />
    <glyph glyph-name="hyphen" unicode="-" horiz-adv-x="675" 
d="M68 394h514v-92h-514v92z" />
    <glyph glyph-name="hyphen" unicode="&#xad;" horiz-adv-x="675" 
d="M68 394h514v-92h-514v92z" />
    <glyph glyph-name="period" unicode="." horiz-adv-x="313" 
d="M99 0v120h117v-120h-117z" />
    <glyph glyph-name="slash" unicode="/" horiz-adv-x="594" 
d="M53 -51l407 799h107l-407 -799h-107z" />
    <glyph glyph-name="zero" unicode="0" horiz-adv-x="1202" 
d="M553 1h-171q-58 0 -109 22t-89.5 60.5t-60.5 89.5t-22 109v128q0 58 22 109.5t60.5 89.5t89.5 60.5t109 22.5h171v-108h-171q-36 0 -67.5 -14t-55 -37.5t-37.5 -55t-14 -67.5v-128q0 -36 14 -67.5t37.5 -55t55 -37.5t67.5 -14h171v-107zM796 692q58 0 109.5 -22.5
t90 -60.5t60.5 -89.5t22 -109.5v-128q0 -58 -22 -109t-60.5 -89.5t-90 -60.5t-109.5 -22h-171v107h171q36 0 68 14t55.5 37.5t37.5 55t14 67.5v128q0 36 -14 67.5t-37.5 55t-55.5 37.5t-68 14h-171v108h171z" />
    <glyph glyph-name="one" unicode="1" horiz-adv-x="424" 
d="M53 586v108h115q24 0 46 -9t41 -24t32 -34.5t19 -40.5h-253zM309 514v-514h-106v514h106z" />
    <glyph glyph-name="two" unicode="2" horiz-adv-x="1134" 
d="M209 433h-107v111q0 33 13.5 60t36 47t51 31t57.5 11h590v-109h-587q-18 0 -36 -10.5t-18 -33.5v-107zM207 0h-107v184q0 33 12.5 60.5t34 49t49.5 35.5t59 19l638 99q8 2 18 6t10 17v212q45 -14 76.5 -45.5t31.5 -80.5v-101q0 -30 -12.5 -50.5t-32 -34.5t-44.5 -21.5
t-50 -11.5l-614 -95q-31 -5 -50 -22t-19 -37v-183zM1033 107v-107h-754v107h754z" />
    <glyph glyph-name="three" unicode="3" horiz-adv-x="1142" 
d="M206 482h-107v57q0 36 14.5 68.5t41.5 52.5q24 17 56 25t61 8h565v-108h-575q-10 0 -22 -2.5t-19 -8.5q-9 -6 -12 -15.5t-3 -23.5v-53zM908 682q45 -16 74 -48.5t34 -74.5v-162q-2 -23 -7 -34t-15 -22q14 -15 18 -32t4 -36v-94h-108v83q0 11 -8 17t-16 6h-660v109h661
q7 0 15 4.5t8 18.5v129v136zM1011 107q-8 -31 -32 -56q-26 -28 -59 -39.5t-75 -11.5h-573q-9 0 -23.5 1.5t-30 5.5t-31.5 10t-28 14q-60 46 -60 126v54h107v-59q0 -25 17 -35t39 -10h749z" />
    <glyph glyph-name="four" unicode="4" horiz-adv-x="1106" 
d="M142 239q-17 0 -30.5 8.5t-19.5 22.5q-6 15 -3 31t15 29l354 362h152l-445 -453h-23zM981 693v-693h-107v239h-609l105 107h504v347h107z" />
    <glyph glyph-name="five" unicode="5" horiz-adv-x="1150" 
d="M238 331q-39 5 -69 25q-26 17 -47 51t-21 95v191h107v-191q0 -22 8 -34.5t17.5 -19t18 -8t10.5 -1.5h647q36 -2 64 -17q24 -13 44.5 -41.5t20.5 -80.5v-121h-108v121q0 3 -0.5 8t-2.5 10.5t-6.5 9t-12.5 3.5h-670zM1037 585h-758v108h758v-108zM1033 107q-5 -15 -15 -34
t-29 -35t-48.5 -27t-73.5 -11h-593l-13 1t-32.5 5.5t-41.5 14.5t-41.5 28t-32 45t-12.5 67v87h107v-87q0 -18 8.5 -29t19.5 -16q12 -7 28 -9h769z" />
    <glyph glyph-name="six" unicode="6" horiz-adv-x="1144" 
d="M271 0q-54 0 -87 17t-52 40t-25.5 47t-6.5 38v417q5 45 35 79t73 48v-270q4 1 8.5 1.5t12.5 0.5h670q3 0 23.5 -3.5t43.5 -17t42 -39.5t19 -71v-133q0 -36 -14.5 -68.5t-42.5 -52.5q-25 -17 -50 -24v278q0 17 -9 20t-12 3h-675q-2 0 -9 -3t-7 -20v-140q1 -15 14.5 -26.5
t33.5 -11.5h592v-109h-577zM280 693h586q25 0 51.5 -7t49.5 -24q31 -22 45.5 -53.5t14.5 -72.5v-54h-107v54q0 11 -3 20.5t-11 17.5q-8 7 -20.5 9.5t-24.5 2.5h-581v107z" />
    <glyph glyph-name="seven" unicode="7" horiz-adv-x="1054" 
d="M977 514q-7 -26 -21 -48.5t-32 -34.5l-636 -431h-209l775 514h123zM125 584v110h724q48 -6 81.5 -37t45.5 -73h-851z" />
    <glyph glyph-name="eight" unicode="8" horiz-adv-x="1142" 
d="M1037 405q-2 -23 -7 -34t-15 -22q14 -15 18 -32t4 -36v-146q-2 -21 -10.5 -42t-26.5 -41q-29 -31 -71 -43v271q0 8 -8 10.5t-16 2.5h-674q-8 0 -16 -2.5t-8 -10.5v-139q0 -18 20 -25t43 -9h587v-107h-602q-29 0 -56 10.5t-48 29t-34.5 43t-16.5 52.5v146q0 19 3.5 36
t17.5 32q-9 10 -14 21t-7 35v155q4 42 33 75.5t74 48.5v-270q0 -6 7.5 -9t15.5 -3h678q6 0 13 2.5t8 9.5v123q0 19 -18.5 33t-37.5 14h-595v109h589q33 -1 62.5 -11.5t52.5 -28t37.5 -41.5t17.5 -52v-155z" />
    <glyph glyph-name="nine" unicode="9" horiz-adv-x="1151" 
d="M848 693q54 0 87 -17t52 -40t25.5 -47t6.5 -38v-417q-5 -45 -35 -79t-73 -48v270q-4 -1 -8.5 -1.5t-12.5 -0.5h-670q-3 0 -23.5 3.5t-43.5 17t-42 39.5t-19 71v133q0 36 14.5 68.5t42.5 52.5q25 17 50 24v-278q0 -17 9 -20t12 -3h675q2 0 9 3t7 20v140q-1 15 -14.5 26.5
t-33.5 11.5h-592v109h577zM839 0h-586q-25 0 -51.5 7t-49.5 24q-31 22 -45.5 53.5t-14.5 72.5v54h107v-54q0 -11 3 -20.5t11 -17.5q8 -7 20.5 -9.5t24.5 -2.5h581v-107z" />
    <glyph glyph-name="colon" unicode=":" horiz-adv-x="302" 
d="M211 152v-152h-111v152h111zM211 420v-151h-111v151h111z" />
    <glyph glyph-name="semicolon" unicode=";" horiz-adv-x="322" 
d="M111 269v120h122v-120h-122zM65 -106l61 225h99l-62 -225h-98z" />
    <glyph glyph-name="semicolon" unicode="&#x37e;" horiz-adv-x="322" 
d="M111 269v120h122v-120h-122zM65 -106l61 225h99l-62 -225h-98z" />
    <glyph glyph-name="less" unicode="&#x3c;" horiz-adv-x="625" 
 />
    <glyph glyph-name="equal" unicode="=" horiz-adv-x="675" 
d="M88 293h504v-102h-504v102zM88 478h504v-102h-504v102z" />
    <glyph glyph-name="greater" unicode="&#x3e;" horiz-adv-x="617" 
 />
    <glyph glyph-name="question" unicode="?" horiz-adv-x="1043" 
d="M208 545q-2 -10 -2 -11v-101h-107v101q0 37 10 63.5t25.5 44t35 27.5t38.5 15v-139zM279 692h485q9 0 36.5 -3.5t57.5 -19t53 -47t23 -88.5v-29h-107v31q0 3 -1.5 11t-7.5 16t-19 14.5t-35 6.5h-485v108zM375 106h107v-106h-107v106zM934 433q-5 -39 -25 -60t-43 -32
q-26 -12 -59 -15h-268q-21 0 -32.5 -7.5t-17 -17t-6.5 -18.5t-1 -13v-109h-107v109q0 59 22 92t50.5 48.5t55.5 19t37 3.5h394z" />
    <glyph glyph-name="at" unicode="@" horiz-adv-x="1102" 
d="M218 148q8 -8 18 -12.5t21 -4.5h698v-101h-698q-32 0 -60.5 12.5t-49.5 33.5q-22 22 -34.5 50.5t-12.5 60.5v322q0 51 28.5 90.5t73.5 56.5v-144q-1 -1 -1 -3v-322q0 -22 17 -39zM916 620q22 -21 34 -49.5t12 -61.5v-194q0 -45 -18 -81q-16 -30 -42.5 -52.5t-64.5 -22.5
q-30 0 -55.5 13.5t-42.5 38.5q-30 44 -30 104v47q0 23 -17 40q-8 7 -18.5 11.5t-21.5 4.5h-264q-12 0 -22 -4.5t-18 -11.5q-16 -16 -16 -40v-34q0 -24 16 -40q8 -7 18 -11.5t22 -4.5h291v-102h-291q-32 0 -61 12.5t-51 34.5q-22 21 -33.5 50t-11.5 61v34q0 66 45 111
q22 22 51 34t61 12h264q32 0 61 -12t50 -34t33.5 -50.5t12.5 -60.5v-47q0 -4 0.5 -13t2.5 -18t7.5 -16t14.5 -7t14.5 4.5t8 12t3.5 16t1 17.5v198q0 23 -16 39q-17 17 -39 17h-533v102h533q31 0 59.5 -12.5t50.5 -34.5z" />
    <glyph glyph-name="bracketleft" unicode="[" horiz-adv-x="411" 
d="M83 -69v817h218v-107h-111v-603h120v-107h-227z" />
    <glyph glyph-name="backslash" unicode="\" horiz-adv-x="578" 
d="M528 -50h-66l-412 800h66z" />
    <glyph glyph-name="bracketright" unicode="]" horiz-adv-x="442" 
d="M83 -69v107h120v603h-121v107h228v-817h-227z" />
    <glyph glyph-name="asciicircum" unicode="^" horiz-adv-x="652" 
d="M364 700l248 -461h-68l-218 411l-218 -411h-68l248 461h76z" />
    <glyph glyph-name="underscore" unicode="_" horiz-adv-x="1000" 
d="M0 -70h1000v-60h-1000v60z" />
    <glyph glyph-name="quoteleft" unicode="&#x2018;" horiz-adv-x="322" 
d="M152 442l-66 243h116l67 -243h-117z" />
    <glyph glyph-name="a" unicode="a" horiz-adv-x="1062" 
d="M728 692q47 0 88 -17.5t72 -48t48.5 -71.5t17.5 -88v-467h-107v321h-530q-22 0 -44 -8v113q21 3 41 3h533v38q0 24 -10 45.5t-26 37.5t-37.5 25t-45.5 9h-484v108h484zM775 0h-458q-44 0 -84.5 17t-71.5 46.5t-49.5 68t-18.5 82.5q0 60 30.5 108t78.5 76v-185
q0 -22 9 -41.5t24.5 -33.5t35.5 -22.5t43 -8.5h461v-107z" />
    <glyph glyph-name="b" unicode="b" horiz-adv-x="1105" 
d="M929 357q32 -29 50 -67.5t18 -82.5q0 -43 -17.5 -81t-47.5 -66t-69.5 -44t-82.5 -16h-499v110h501q20 0 39 7.5t34 20t24 30t9 38.5q0 19 -8.5 37t-23.5 31.5t-34 21.5t-40 8h-573v-304h-109v693h109v-279h572q19 0 38 6t34.5 17t25 26.5t9.5 35.5t-10 35.5t-25.5 26.5
t-35.5 17t-40 6h-496v109h496q42 0 81.5 -13.5t70.5 -39t49.5 -61.5t18.5 -80q0 -40 -17.5 -78t-50.5 -64z" />
    <glyph glyph-name="c" unicode="c" horiz-adv-x="1034" 
d="M202 84q-40 40 -62.5 92t-22.5 112v118q0 69 29.5 127.5t80.5 97.5v-343q0 -36 14 -68.5t38 -57t56 -38.5t69 -14h583v-110h-581q-60 0 -112.5 22.5t-91.5 61.5zM406 693h581v-109h-581q-37 0 -70 -14v114q33 9 70 9z" />
    <glyph glyph-name="d" unicode="d" horiz-adv-x="1047" 
d="M209 0h-109v693h109v-693zM714 693q60 0 112.5 -23t91.5 -62t61.5 -91t22.5 -111v-118q0 -60 -23 -112.5t-62 -91.5t-91.5 -61.5t-111.5 -22.5h-433v110h435q36 0 68 14t56 38t38 56.5t14 69.5v120q0 36 -14 68t-38.5 56t-57 38t-68.5 14h-433v109h433z" />
    <glyph glyph-name="e" unicode="e" horiz-adv-x="1073" 
d="M207 26q-45 22 -76 60.5t-31 91.5v305q0 56 29.5 102.5t77.5 74.5v-290h551q22 0 43 8.5t36.5 22.5t25 33.5t9.5 42.5t-9.5 42.5t-25.5 33.5t-37 22t-44 8h-2h-440v108l11 1h433q44 0 84 -17t70.5 -46.5t48.5 -68.5t18 -83q0 -45 -18 -84t-49 -68.5t-72 -46t-86 -16.5
h-547v-81v-155zM960 107v-107h-646v107h646z" />
    <glyph glyph-name="f" unicode="f" horiz-adv-x="1033" 
d="M210 398h707v-109h-707v-289h-110v405q0 60 22.5 112t61.5 91q12 12 26 23v-226v-7zM959 693v-109h-571q-36 0 -69 -14v115q35 8 69 8h571z" />
    <glyph glyph-name="h" unicode="h" 
d="M206 585v-585h-107v832h107v-139h437q67 0 124.5 -29t95.5 -79h-657zM904 514q20 -49 20 -104v-410h-107v410q0 29 -9 55.5t-25 48.5h121z" />
    <glyph glyph-name="i" unicode="i" horiz-adv-x="265" 
d="M100 0v693h110v-693h-110z" />
    <glyph glyph-name="j" unicode="j" horiz-adv-x="1021" 
d="M743 20q-49 -20 -102 -20h-262q-59 0 -110 22t-89 60q-39 39 -61 90.5t-22 108.5v74h107v-74q0 -35 13.5 -66.5t37 -55.5t55 -38t67.5 -14h264q29 0 54.5 9t47.5 25v-121zM922 692v-411q0 -57 -22 -108.5t-61 -90.5l-24 -21v523h-604v108h711z" />
    <glyph glyph-name="k" unicode="k" horiz-adv-x="1087" 
d="M745 386q45 -12 83 -38t65.5 -62t43 -80t15.5 -92v-114h-107v116q0 35 -14 66.5t-38 55t-55.5 37t-67.5 13.5h-391v108h332q61 72 123.5 148t122.5 148h146zM207 0h-107v692h107v-692z" />
    <glyph glyph-name="l" unicode="l" horiz-adv-x="969" 
d="M381 107h560v-107h-560q-17 0 -34 1.5t-33 6.5v112q32 -13 67 -13zM207 693v-633q-7 5 -13 11l-12 12q-38 38 -60 89.5t-22 109.5v411h107z" />
    <glyph glyph-name="m" unicode="m" horiz-adv-x="1508" 
d="M1272 631q49 -38 78 -95.5t29 -125.5v-410h-107v410v221zM655 692h443q27 0 52.5 -5t49.5 -14v-122q-22 16 -47 25t-53 9h-337v-585h-108v585v107zM99 0v692h484v-107h-377v-585h-107z" />
    <glyph glyph-name="n" unicode="n" horiz-adv-x="1042" 
d="M207 584v-584h-107v693h564q67 0 124.5 -29.5t95.5 -79.5h-677zM925 514q20 -49 20 -104v-410h-107v410q0 29 -9 55.5t-25 48.5h121z" />
    <glyph glyph-name="p" unicode="p" horiz-adv-x="1050" 
d="M209 0h-109v692h693q11 0 21 -1t20 -3v-113q-21 9 -46 9h-579v-584zM906 660q48 -29 77.5 -77.5t29.5 -105.5q0 -45 -18.5 -84t-49.5 -68.5t-72 -46t-85 -16.5h-507v107h509q23 0 44 8.5t37 23t25.5 34t9.5 41.5v184z" />
    <glyph glyph-name="q" unicode="q" horiz-adv-x="1248" 
d="M671 -139h-107v139h-182q-58 0 -109 22t-89.5 60.5t-60.5 89.5t-22 109v128q0 53 19 102h122q-16 -22 -25 -47.5t-9 -54.5v-128q0 -36 14 -67.5t37.5 -55t55 -37.5t67.5 -14h182v127h107v-127v-246zM858 692q58 0 110 -22.5t90 -61t60.5 -90t22.5 -109.5v-128
q0 -58 -22.5 -109t-60.5 -89.5t-90 -60.5t-110 -22h-115v107h115q36 0 68 14t56 37.5t37.5 55t13.5 67.5v128q0 36 -13.5 67.5t-37.5 55.5t-56 38t-68 14h-697q39 50 96 79t125 29h476z" />
    <glyph glyph-name="r" unicode="r" horiz-adv-x="981" 
d="M209 0h-110v404q0 70 29.5 128t80.5 99v-631zM387 583q-31 0 -58 -10t-49 -27v126q25 10 51.5 15.5t55.5 5.5h571v-110h-571z" />
    <glyph glyph-name="s" unicode="s" horiz-adv-x="1018" 
d="M246 694l19 1h644v-109h-644q-5 0 -9.5 -0.5t-9.5 -1.5v110zM745 402q41 0 77.5 -16t63.5 -43t43 -63.5t16 -77.5q0 -60 -30.5 -108t-79.5 -73v180q0 38 -26 64.5t-64 26.5h-480q-41 0 -77.5 15.5t-64 43t-43.5 64t-16 78.5q0 60 30 107t80 73v-178q3 -39 28.5 -66
t62.5 -27h480zM763 1q-5 -1 -9 -1h-9h-645v110h645h9t9 2v-111z" />
    <glyph glyph-name="t" unicode="t" horiz-adv-x="1043" 
d="M207 61q-51 39 -79 96.5t-28 124.5v519h107v-109h613v-108h-613v-523zM941 107v-107h-560q-54 0 -103 20v120q22 -15 48 -24t55 -9h560z" />
    <glyph glyph-name="u" unicode="u" horiz-adv-x="1065" 
d="M207 61q-49 39 -78 97t-29 125v410h107v-632zM945 693v-693h-564q-54 0 -103 20v122q22 -16 47.5 -25t53.5 -9h459v585h107z" />
    <glyph glyph-name="v" unicode="v" horiz-adv-x="1172" 
d="M436 109l-438 583h136l367 -494zM953 692h134l-513 -692h-57l-37 49z" />
    <glyph glyph-name="w" unicode="w" horiz-adv-x="1508" 
d="M206 61q-49 38 -78 95.5t-29 125.5v410h107v-410v-221zM823 0h-443q-27 0 -52.5 5t-49.5 14v122q22 -16 47 -25t53 -9h337v585h108v-585v-107zM1379 692v-692h-484v107h377v585h107z" />
    <glyph glyph-name="x" unicode="x" 
d="M245 222q-17 -23 -26 -50t-9 -56v-116h-110v116q0 55 20 106h125zM799 475q17 23 26 50t9 57v111h110v-111q0 -56 -20 -107h-125zM210 693v-113q0 -35 13.5 -67t36.5 -56t54 -38.5t66 -14.5h502q-13 -17 -26 -29.5t-30 -25.5q8 -6 16.5 -13.5t16.5 -15.5q40 -40 62.5 -92
t22.5 -112v-116h-110v118q0 36 -14 68t-38.5 56t-56.5 38t-68 14h-495q5 7 11 13t12 13q8 8 15.5 14.5t18.5 13.5q-9 7 -17 14.5t-17 15.5q-40 40 -62.5 92t-22.5 112v111h110z" />
    <glyph glyph-name="y" unicode="y" 
d="M360 278q-58 0 -109 22.5t-89.5 60.5t-60.5 89.5t-22 109.5v133h107v-133q0 -35 13.5 -67t37 -56t55 -38t66.5 -14h439v308h107v-412q0 -27 -4.5 -53t-14.5 -49h-122q16 21 25 46t9 53h-437zM844 107q-38 -49 -95.5 -78t-125.5 -29h-524v107h525h220z" />
    <glyph glyph-name="z" unicode="z" horiz-adv-x="1131" 
d="M687 584h-585v109h744zM1020 107v-107h-920v100l11 7h196h713zM974 693h59v-95l-620 -420h-196z" />
    <glyph glyph-name="braceleft" unicode="{" horiz-adv-x="626" 
 />
    <glyph glyph-name="bar" unicode="|" horiz-adv-x="425" 
d="M156 731h97v-777h-97v777z" />
    <glyph glyph-name="braceright" unicode="}" horiz-adv-x="626" 
 />
    <glyph glyph-name="asciitilde" unicode="~" horiz-adv-x="705" 
d="M562 443q-21 0 -46 7t-48 19q-52 26 -108 54.5t-109 55.5q-22 11 -36 11q-2 0 -5 -3.5t-3 -18.5v-109h-108v103q0 62 32 96q30 32 80 32q22 0 46 -7t48 -18l217 -110q22 -13 36 -13q3 0 5.5 4t2.5 18v110h108v-104q0 -61 -32 -95q-29 -32 -80 -32z" />
    <glyph glyph-name="exclamdown" unicode="&#xa1;" horiz-adv-x="389" 
d="M160 0v490h69v-490h-69zM160 576v124h69v-124h-69z" />
    <glyph glyph-name="sterling" unicode="&#xa3;" horiz-adv-x="1126" 
d="M987 107v-107h-870v107q33 0 53.5 3t32 12.5t15.5 27.5t5 47h-90v108h90v13h-90v106h90q3 55 26 104t61 85t88 57t107 21h459v-107h-459q-34 0 -64.5 -12.5t-54 -34t-38.5 -51t-18 -62.5h498v-106h-498v-13h498v-108h-498q0 -54 -12 -90h669z" />
    <glyph glyph-name="fraction" unicode="&#x2044;" horiz-adv-x="782" 
d="M677 700h75l-647 -700h-75z" />
    <glyph glyph-name="fraction" unicode="&#x2215;" horiz-adv-x="782" 
d="M677 700h75l-647 -700h-75z" />
    <glyph glyph-name="quotesingle" unicode="'" horiz-adv-x="258" 
d="M91 442v243h97v-243h-97z" />
    <glyph glyph-name="quotedblleft" unicode="&#x201c;" horiz-adv-x="499" 
d="M322 512l-66 243h116l67 -243h-117zM156 512l-67 243h117l66 -243h-116z" />
    <glyph glyph-name="fi" unicode="&#xfb01;" horiz-adv-x="1179" 
d="M210 398h707v-109h-707v-289h-110v405q0 60 22.5 112t61.5 91q12 12 26 23v-226v-7zM959 693v-109h-571q-36 0 -69 -14v115q35 8 69 8h571zM1016 0v693h110v-693h-110z" />
    <glyph glyph-name="endash" unicode="&#x2013;" horiz-adv-x="960" 
d="M102 394h770v-92h-770v92z" />
    <glyph glyph-name="dagger" unicode="&#x2020;" horiz-adv-x="515" 
 />
    <glyph glyph-name="daggerdbl" unicode="&#x2021;" horiz-adv-x="515" 
 />
    <glyph glyph-name="periodcentered" unicode="&#xb7;" horiz-adv-x="292" 
d="M100 291v89h92v-89h-92z" />
    <glyph glyph-name="periodcentered" unicode="&#x2219;" horiz-adv-x="292" 
d="M100 291v89h92v-89h-92z" />
    <glyph glyph-name="bullet" unicode="&#x2022;" horiz-adv-x="470" 
d="M102 343q0 33 12.5 62.5t34.5 51.5t51.5 35t63.5 13t63.5 -13t51.5 -35t34.5 -51.5t12.5 -62.5q0 -34 -12.5 -63.5t-34.5 -51.5t-51.5 -34.5t-63.5 -12.5t-63.5 12.5t-51.5 34.5t-34.5 51.5t-12.5 63.5zM264 425q-34 0 -58 -24t-24 -58q0 -35 24 -59t58 -24q35 0 59 24
t24 59q0 34 -24 58t-59 24z" />
    <glyph glyph-name="quotesinglbase" unicode="&#x201a;" horiz-adv-x="280" 
d="M65 -106l61 225h98l-61 -225h-98z" />
    <glyph glyph-name="quotedblbase" unicode="&#x201e;" horiz-adv-x="510" 
d="M99 -106l62 225h98l-61 -225h-99zM272 -106l62 225h98l-61 -225h-99z" />
    <glyph glyph-name="quotedblright" unicode="&#x201d;" horiz-adv-x="491" 
d="M89 504l67 243h116l-66 -243h-117zM256 504l66 243h117l-67 -243h-116z" />
    <glyph glyph-name="ellipsis" unicode="&#x2026;" horiz-adv-x="776" 
d="M99 0v119h122v-119h-122zM333 0v119h122v-119h-122zM566 0v119h122v-119h-122z" />
    <glyph glyph-name="questiondown" unicode="&#xbf;" horiz-adv-x="1035" 
d="M213 257q0 8 3.5 12.5t8.5 6.5q5 3 13 4h262q10 0 37 3.5t55.5 19t50.5 48.5t22 92v109h-107v-109q0 -4 -1 -13t-6.5 -18.5t-17 -17t-32.5 -7.5h-268q-36 -3 -64 -17q-24 -12 -43.5 -36.5t-19.5 -69.5v-73q0 -57 23 -88.5t53 -47t57.5 -19t36.5 -3.5h500q9 0 24.5 1.5
t34 6.5t37.5 15.5t34.5 28t25 43.5t9.5 63v101h-107v-101q0 -4 -1.5 -12t-7.5 -16.5t-19 -15t-35 -6.5h-495q-23 0 -35.5 6.5t-18.5 14.5t-7.5 16t-1.5 11v68zM665 713v-106h-107v106h107z" />
    <glyph glyph-name="grave" unicode="`" horiz-adv-x="521" 
d="M209 991l191 -190l-75 -76l-192 191z" />
    <glyph glyph-name="acute" unicode="&#xb4;" horiz-adv-x="521" 
d="M417 916l-192 -191l-76 76l192 190z" />
    <glyph glyph-name="circumflex" unicode="&#x2c6;" horiz-adv-x="784" 
d="M404 880l-284 -135l-33 69l317 150l317 -150l-33 -69z" />
    <glyph glyph-name="tilde" unicode="&#x2dc;" horiz-adv-x="663" 
d="M534 693q-21 0 -43 5.5t-44 17.5h1l-98 50t-98 49q-10 5 -17.5 7t-13.5 2q-2 0 -4 -2t-2 -14v-101h-101v102q0 29 7.5 51t21.5 37q30 28 74 28q42 0 85 -23q48 -23 98 -49t98 -50q20 -10 31 -10q2 0 4 3t2 14v101h102v-102q0 -56 -31 -87h1q-28 -29 -73 -29z" />
    <glyph glyph-name="macron" unicode="&#xaf;" horiz-adv-x="658" 
d="M100 837h463v-76h-463v76z" />
    <glyph glyph-name="macron" unicode="&#x2c9;" horiz-adv-x="658" 
d="M100 837h463v-76h-463v76z" />
    <glyph glyph-name="breve" unicode="&#x2d8;" horiz-adv-x="686" 
d="M246 848q0 -19 12.5 -32t31.5 -13h156q18 0 31.5 13t13.5 32v30h92v-30q0 -28 -10.5 -52.5t-29.5 -43t-44 -29.5t-53 -11h-156q-55 0 -96 39q-19 19 -29.5 44t-10.5 53v30h92v-30z" />
    <glyph glyph-name="dotaccent" unicode="&#x2d9;" horiz-adv-x="332" 
d="M100 902h132v-109h-132v109z" />
    <glyph glyph-name="dieresis" unicode="&#xa8;" horiz-adv-x="593" 
d="M98 731v121h116v-121h-116zM366 731v121h117v-121h-117z" />
    <glyph glyph-name="ring" unicode="&#x2da;" horiz-adv-x="545" 
d="M229 716q-56 0 -96 40q-19 19 -29.5 43.5t-10.5 52.5v13q0 28 10.5 53t29 43.5t43.5 29.5t53 11h137q28 0 53 -11t43.5 -29.5t29.5 -43.5t11 -53v-13q0 -28 -10.5 -52.5t-29.5 -43t-44 -29.5t-53 -11h-137zM198 897q-13 -13 -13 -32v-13q0 -19 12.5 -31.5t31.5 -12.5h137
q19 0 32.5 12.5t13.5 31.5v13q0 19 -13.5 32t-32.5 13h-137q-10 0 -18 -4t-13 -9z" />
    <glyph glyph-name="cedilla" unicode="&#xb8;" horiz-adv-x="477" 
d="M98 -258v103h112q17 0 27.5 12.5t10.5 28.5v115h103v-115q0 -28 -11.5 -54t-31 -46t-45.5 -32t-56 -12h-109z" />
    <glyph glyph-name="hungarumlaut" unicode="&#x2dd;" horiz-adv-x="772" 
d="M451 904l-190 -189l-54 54l190 189zM671 904l-190 -189l-54 54l190 189z" />
    <glyph glyph-name="ogonek" unicode="&#x2db;" horiz-adv-x="477" 
d="M212 -200q-21 0 -41 7.5t-36 20.5t-25.5 31.5t-9.5 40.5v2q0 34 16 63.5t42 49.5l22 20h110l-83 -79q-11 -11 -20.5 -23.5t-9.5 -25.5q0 -6 3 -12q6 -11 14 -13.5t21 -4.5h192v-77h-195z" />
    <glyph glyph-name="caron" unicode="&#x2c7;" horiz-adv-x="784" 
d="M688 964l33 -69l-317 -150l-317 150l33 69l284 -135z" />
    <glyph glyph-name="emdash" unicode="&#x2014;" horiz-adv-x="1229" 
d="M108 394h1026v-92h-1026v92z" />
    <glyph glyph-name="Lslash" unicode="&#x141;" horiz-adv-x="980" 
d="M1065 111v-110h-571q-29 0 -55.5 5.5t-51.5 15.5v126q22 -17 49 -27t58 -10h571zM316 398v-335q-52 37 -81 98.5t-29 128.5v64l-153 -63v110l153 63v230h110v-186l155 63v-110z" />
    <glyph glyph-name="Oslash" unicode="&#xd8;" horiz-adv-x="1264" 
d="M795 691q58 0 109.5 -22.5t90 -60.5t60.5 -89.5t22 -109.5v-128q0 -67 -29 -124.5t-78 -95.5v348q0 23 -6.5 45t-17.5 41l-632 -375q16 -6 32.5 -9.5t34.5 -3.5h414q29 0 55 9t48 25v-122q-24 -9 -50 -14t-53 -5h-414q-58 0 -109 22t-89.5 60.5t-60.5 89.5t-22 109v128
q0 67 28.5 124.5t78.5 96.5v-349q0 -45 22 -86l632 375q-34 13 -66 13h-414q-29 0 -55 -9t-48 -25v123q24 9 49.5 14t53.5 5h414v0z" />
    <glyph glyph-name="OE" unicode="&#x152;" horiz-adv-x="1907" 
d="M1070 399h684v-110h-684v-7q0 -36 14.5 -67.5t39 -55.5t56.5 -37.5t68 -13.5h506v-110h-506q-72 0 -133 32t-100 87q-39 -55 -100 -87t-133 -32h-392q-60 0 -112.5 23t-91.5 62t-61.5 91.5t-22.5 111.5v120q0 60 22.5 112t61.5 91t91.5 61.5t112.5 22.5h392q72 0 133 -33
t100 -87q20 24 46.5 46t57 38t63.5 25.5t66 9.5h506v-110h-506q-37 0 -69.5 -14t-56.5 -38t-37.5 -55.5t-14.5 -66.5v-9zM960 406q0 36 -14 68.5t-38 57t-56.5 38.5t-69.5 14h-392q-36 0 -68.5 -14t-57 -38.5t-38.5 -57t-14 -68.5v-120q0 -37 14 -69.5t38.5 -56.5t57 -38
t68.5 -14h392q37 0 69.5 14t56.5 38t38 56.5t14 69.5v120z" />
    <glyph glyph-name="ae" unicode="&#xe6;" horiz-adv-x="1803" 
d="M746 576q-21 9 -47 9h-504v108h504q12 0 24 -1t23 -4v-112zM997 112q21 -6 46 -6h605v-107h-610q-11 0 -21 1t-20 3v109zM925 0h-637q-22 0 -45 5v110q21 -8 41 -8h534v214h-530q-22 0 -43 -8t-37.5 -22t-26.5 -33t-10 -42v-182q-29 17 -51.5 42t-36.5 54q-19 41 -19 84
q0 45 18 84t48 68.5t70 46t84 16.5h534v230q29 -17 52 -45q32 36 77 57t96 21h433q23 0 42 -4v-112q-22 8 -46 8h-429q-18 0 -38.5 -8t-38 -22t-29.5 -33.5t-12 -41.5v-124h551q40 0 72 24.5t42 61.5v219q48 -29 77.5 -77t29.5 -107q0 -45 -18 -86.5t-49 -73t-72 -50.5
t-86 -19h-547v-247z" />
    <glyph glyph-name="dotlessi" unicode="&#x131;" horiz-adv-x="241" 
d="M100 0v693h110v-693h-110z" />
    <glyph glyph-name="lslash" unicode="&#x142;" horiz-adv-x="980" 
d="M1065 111v-110h-571q-29 0 -55.5 5.5t-51.5 15.5v126q22 -17 49 -27t58 -10h571zM316 398v-335q-52 37 -81 98.5t-29 128.5v64l-153 -63v110l153 63v230h110v-186l155 63v-110z" />
    <glyph glyph-name="oslash" unicode="&#xf8;" horiz-adv-x="1239" 
d="M795 691q58 0 109.5 -22.5t90 -60.5t60.5 -89.5t22 -109.5v-128q0 -53 -20 -102h-121q16 22 25 47.5t9 54.5v128q0 23 -6.5 45t-17.5 41l-632 -374q33 -14 67 -14h635q-38 -49 -95.5 -78t-125.5 -29h-414q-58 0 -109 22t-89.5 60.5t-60.5 89.5t-22 109v128q0 27 5 53
t14 50h122q-34 -45 -34 -103v-128q0 -47 23 -85l631 374q-30 13 -66 13h-635q38 50 95.5 79t125.5 29h414v0z" />
    <glyph glyph-name="oe" unicode="&#x153;" horiz-adv-x="2017" 
d="M1029 181q3 -19 13.5 -33t26.5 -23t36 -13.5t41 -4.5h606v-107h-610q-54 0 -106 23t-84 66q-8 -8 -15.5 -15t-15.5 -13v350q0 36 -13.5 67.5t-37.5 55.5t-56 37.5t-68 13.5h-364q-29 0 -55 -9t-48 -25v122q49 20 103 20h364q64 0 119 -26.5t93 -71.5q32 43 81.5 69
t106.5 26h434q19 0 42 -5v-111q-11 4 -22.5 6.5t-23.5 2.5h-430q-18 0 -38.5 -8t-38 -22t-29 -33.5t-11.5 -41.5v-108h551q22 0 42.5 7.5t36.5 21t25.5 32t9.5 40.5v187q48 -29 77.5 -77t29.5 -106q0 -45 -18.5 -84t-49 -67.5t-71.5 -45t-86 -16.5h-547v-81zM849 19
q-24 -9 -50 -14t-53 -5h-364q-59 0 -110 22t-89.5 60.5t-60.5 89.5t-22 109v130q0 67 29 124.5t78 96.5v-351q0 -36 14 -67.5t37.5 -55t55.5 -37.5t68 -14h364q29 0 55 8.5t48 24.5v-121z" />
    <glyph glyph-name="germandbls" unicode="&#xdf;" horiz-adv-x="2188" 
 />
    <glyph glyph-name="Eth" unicode="&#xd0;" horiz-adv-x="1233" 
d="M843 693q60 0 112 -23t91 -62t61.5 -91t22.5 -111v-118q0 -60 -23 -112.5t-62 -91.5t-91 -61.5t-111 -22.5h-605v292h-183v110h183v291h605zM1020 408q0 36 -14 68t-38.5 56t-56.5 38t-68 14h-495v-182h232v-110h-232v-182h496q36 0 68 14t56 38t38 56.5t14 69.5v120z
" />
    <glyph glyph-name="onehalf" unicode="&#xbd;" horiz-adv-x="1120" 
 />
    <glyph glyph-name="Thorn" unicode="&#xde;" horiz-adv-x="1135" 
d="M281 602h469q52 0 98.5 -19t82.5 -55q37 -37 56 -84t19 -98q0 -19 -2.5 -38t-8.5 -37h-119q10 17 15.5 36t5.5 39q0 30 -11.5 57t-31.5 47t-47 31.5t-57 11.5h-469v109zM960 199q-36 -51 -91.5 -80t-118.5 -29h-540v-90h-110v693h110v-494h540h210z" />
    <glyph glyph-name="onequarter" unicode="&#xbc;" horiz-adv-x="1108" 
 />
    <glyph glyph-name="threequarters" unicode="&#xbe;" horiz-adv-x="1268" 
 />
    <glyph glyph-name="twosuperior" unicode="&#xb2;" horiz-adv-x="591" 
 />
    <glyph glyph-name="eth" unicode="&#xf0;" horiz-adv-x="1233" 
d="M812 693q58 0 109.5 -22.5t90 -61t60.5 -89.5t22 -109v-130q0 -58 -22.5 -109t-61 -89.5t-89.5 -60.5t-109 -22h-591v296h-179v108h179v289h591zM986 413q0 36 -14 67t-37.5 54.5t-55 37t-67.5 13.5h-484v-181h227v-108h-227v-189h486q35 0 66.5 14t55 37.5t37 55
t13.5 67.5v132z" />
    <glyph glyph-name="threesuperior" unicode="&#xb3;" horiz-adv-x="591" 
 />
    <glyph glyph-name="copyright" unicode="&#xa9;" horiz-adv-x="1220" 
 />
    <glyph glyph-name="Aacute" unicode="&#xc1;" horiz-adv-x="1072" 
d="M930 609q39 -40 62 -92t23 -111v-406h-110v301h-696v-301h-109v406q0 69 29.5 127t79.5 98v-220h696q-1 35 -15.5 66.5t-38.5 55t-56 37.5t-68 14h-342q-29 0 -55.5 -9.5t-48.5 -26.5v124q49 21 106 21h340q59 0 111 -22.5t92 -61.5zM679 916l-192 -191l-76 76l192 190z
" />
    <glyph glyph-name="Acircumflex" unicode="&#xc2;" horiz-adv-x="1072" 
d="M548 853l-284 -135l-33 69l317 150l317 -150l-33 -69zM930 609q39 -40 62 -92t23 -111v-406h-110v301h-696v-301h-109v406q0 69 29.5 127t79.5 98v-220h696q-1 35 -15.5 66.5t-38.5 55t-56 37.5t-68 14h-342q-29 0 -55.5 -9.5t-48.5 -26.5v124q49 21 106 21h340
q59 0 111 -22.5t92 -61.5z" />
    <glyph glyph-name="Adieresis" unicode="&#xc4;" horiz-adv-x="1076" 
d="M930 609q39 -40 62 -92t23 -111v-406h-110v301h-696v-301h-109v406q0 69 29.5 127t79.5 98v-220h696q-1 35 -15.5 66.5t-38.5 55t-56 37.5t-68 14h-342q-29 0 -55.5 -9.5t-48.5 -26.5v124q49 21 106 21h340q59 0 111 -22.5t92 -61.5zM367 731v121h116v-121h-116zM635 731
v121h117v-121h-117z" />
    <glyph glyph-name="Agrave" unicode="&#xc0;" horiz-adv-x="1072" 
d="M455 993l191 -190l-75 -76l-192 191zM930 609q39 -40 62 -92t23 -111v-406h-110v301h-696v-301h-109v406q0 69 29.5 127t79.5 98v-220h696q-1 35 -15.5 66.5t-38.5 55t-56 37.5t-68 14h-342q-29 0 -55.5 -9.5t-48.5 -26.5v124q49 21 106 21h340q59 0 111 -22.5t92 -61.5z
" />
    <glyph glyph-name="Aring" unicode="&#xc5;" horiz-adv-x="1071" 
d="M930 609q39 -40 62 -92t23 -111v-406h-110v301h-696v-301h-109v406q0 69 29.5 127t79.5 98v-220h696q-1 35 -15.5 66.5t-38.5 55t-56 37.5t-68 14h-342q-29 0 -55.5 -9.5t-48.5 -26.5v124q49 21 106 21h340q59 0 111 -22.5t92 -61.5zM481.29 740.492
q-49.4688 0 -84.8027 35.3906q-16.7842 16.8105 -26.0596 38.4873t-9.27539 46.4502v11.502q0 24.7734 9.27539 46.8926t25.6182 38.4873q16.3418 16.3682 38.4258 26.1006t46.8184 9.73242h121.021q24.7344 0 46.8184 -9.73242t38.4258 -26.1006
q16.3428 -16.3682 26.0596 -38.4873t9.7168 -46.8926v-11.502q0 -24.7734 -9.27539 -46.4502t-26.0596 -38.0449q-16.7832 -16.3682 -38.8672 -26.1006t-46.8184 -9.73242h-121.021zM453.905 900.635q-11.4834 -11.502 -11.4834 -28.3125v-11.502
q0 -16.8105 11.042 -27.8701t27.8262 -11.0596h121.021q16.7842 0 28.709 11.0596q11.9258 11.0596 11.9258 27.8701v11.502q0 16.8105 -11.9258 28.3125q-11.9248 11.502 -28.709 11.502h-121.021q-8.83398 0 -15.9004 -3.53906q-7.06738 -3.53906 -11.4844 -7.96289z" />
    <glyph glyph-name="Atilde" unicode="&#xc3;" horiz-adv-x="1072" 
d="M702 713q-21 0 -43 5.5t-44 17.5h1l-98 50t-98 49q-10 5 -17.5 7t-13.5 2q-2 0 -4 -2t-2 -14v-101h-101v102q0 29 7.5 51t21.5 37q30 28 74 28q42 0 85 -23q48 -23 98 -49t98 -50q20 -10 31 -10q2 0 4 3t2 14v101h102v-102q0 -56 -31 -87h1q-28 -29 -73 -29zM930 609
q39 -40 62 -92t23 -111v-406h-110v301h-696v-301h-109v406q0 69 29.5 127t79.5 98v-220h696q-1 35 -15.5 66.5t-38.5 55t-56 37.5t-68 14h-342q-29 0 -55.5 -9.5t-48.5 -26.5v124q49 21 106 21h340q59 0 111 -22.5t92 -61.5z" />
    <glyph glyph-name="Ccedilla" unicode="&#xc7;" horiz-adv-x="1143" 
d="M403 -256v103h112q17 0 27.5 12.5t10.5 28.5v115h103v-115q0 -28 -11.5 -54t-31 -46t-45.5 -32t-56 -12h-109zM202 84q-40 40 -62.5 92t-22.5 112v118q0 69 29.5 127.5t80.5 97.5v-343q0 -36 14 -68.5t38 -57t56 -38.5t69 -14h583v-110h-581q-60 0 -112.5 22.5
t-91.5 61.5zM406 693h581v-109h-581q-37 0 -70 -14v114q33 9 70 9z" />
    <glyph glyph-name="Eacute" unicode="&#xc9;" horiz-adv-x="1057" 
d="M735 918l-192 -191l-76 76l192 190zM206 401h750v-110h-750v-229q-51 40 -80.5 98.5t-29.5 127.5v118q0 69 29.5 127t80.5 98v-230zM956 693v-109h-572q-30 0 -57 -9.5t-49 -25.5v123q25 10 51.5 15.5t54.5 5.5h572zM278 145q22 -17 49 -26t57 -9h572v-110h-572
q-55 0 -106 20v125z" />
    <glyph glyph-name="Ecircumflex" unicode="&#xca;" horiz-adv-x="1057" 
d="M589 882l-284 -135l-33 69l317 150l317 -150l-33 -69zM206 401h750v-110h-750v-229q-51 40 -80.5 98.5t-29.5 127.5v118q0 69 29.5 127t80.5 98v-230zM956 693v-109h-572q-30 0 -57 -9.5t-49 -25.5v123q25 10 51.5 15.5t54.5 5.5h572zM278 145q22 -17 49 -26t57 -9h572
v-110h-572q-55 0 -106 20v125z" />
    <glyph glyph-name="Edieresis" unicode="&#xcb;" horiz-adv-x="1057" 
d="M414 750v121h116v-121h-116zM682 750v121h117v-121h-117zM206 401h750v-110h-750v-229q-51 40 -80.5 98.5t-29.5 127.5v118q0 69 29.5 127t80.5 98v-230zM956 693v-109h-572q-30 0 -57 -9.5t-49 -25.5v123q25 10 51.5 15.5t54.5 5.5h572zM278 145q22 -17 49 -26t57 -9
h572v-110h-572q-55 0 -106 20v125z" />
    <glyph glyph-name="Egrave" unicode="&#xc8;" horiz-adv-x="1057" 
d="M473 993l191 -190l-75 -76l-192 191zM206 401h750v-110h-750v-229q-51 40 -80.5 98.5t-29.5 127.5v118q0 69 29.5 127t80.5 98v-230zM956 693v-109h-572q-30 0 -57 -9.5t-49 -25.5v123q25 10 51.5 15.5t54.5 5.5h572zM278 145q22 -17 49 -26t57 -9h572v-110h-572
q-55 0 -106 20v125z" />
    <glyph glyph-name="Iacute" unicode="&#xcd;" horiz-adv-x="241" 
d="M100 0v693h110v-693h-110zM248 916l-192 -191l-76 76l192 190z" />
    <glyph glyph-name="Icircumflex" unicode="&#xce;" horiz-adv-x="241" 
d="M100 0v693h110v-693h-110zM143 860l-284 -135l-33 69l317 150l317 -150l-33 -69z" />
    <glyph glyph-name="Idieresis" unicode="&#xcf;" horiz-adv-x="260" 
d="M100 0v693h110v-693h-110zM-41 743v121h116v-121h-116zM227 743v121h117v-121h-117z" />
    <glyph glyph-name="Igrave" unicode="&#xcc;" horiz-adv-x="241" 
d="M100 0v693h110v-693h-110zM50 991l191 -190l-75 -76l-192 191z" />
    <glyph glyph-name="Ntilde" unicode="&#xd1;" horiz-adv-x="1163" 
d="M737 713q-21 0 -43 5.5t-44 17.5h1l-98 50t-98 49q-10 5 -17.5 7t-13.5 2q-2 0 -4 -2t-2 -14v-101h-101v102q0 29 7.5 51t21.5 37q30 28 74 28q42 0 85 -23q48 -23 98 -49t98 -50q20 -10 31 -10q2 0 4 3t2 14v101h102v-102q0 -56 -31 -87h1q-28 -29 -73 -29zM998 695
v-566q-6 -50 -37 -84t-73 -46v696h110zM209 0h-109v562q1 23 5 45.5t15 41.5t32 32t57 18v-699zM816 -4q-46 8 -83 51q-114 134 -226.5 266t-226.5 266v120q24 -4 46.5 -16.5t40.5 -33.5q112 -134 223.5 -266t225.5 -265v-122z" />
    <glyph glyph-name="Oacute" unicode="&#xd3;" horiz-adv-x="1224" 
d="M734 918l-192 -191l-76 76l192 190zM897 19q-24 -9 -50 -14t-53 -5h-414q-58 0 -109 22t-89.5 60.5t-60.5 89.5t-22 109v130q0 67 28.5 124.5t78.5 96.5v-351q0 -36 14 -67.5t37.5 -55t55 -37.5t67.5 -14h414q29 0 55 9t48 25v-122zM794 693q58 0 109.5 -22.5t90 -60.5
t60.5 -89.5t22 -109.5v-130q0 -67 -29 -124.5t-78 -95.5v350q0 36 -14 67.5t-37.5 55t-55.5 37.5t-68 14h-414q-29 0 -55 -9t-48 -25v123q24 9 49.5 14t53.5 5h414z" />
    <glyph glyph-name="Ocircumflex" unicode="&#xd4;" horiz-adv-x="1224" 
d="M624 882l-284 -135l-33 69l317 150l317 -150l-33 -69zM897 19q-24 -9 -50 -14t-53 -5h-414q-58 0 -109 22t-89.5 60.5t-60.5 89.5t-22 109v130q0 67 28.5 124.5t78.5 96.5v-351q0 -36 14 -67.5t37.5 -55t55 -37.5t67.5 -14h414q29 0 55 9t48 25v-122zM794 693
q58 0 109.5 -22.5t90 -60.5t60.5 -89.5t22 -109.5v-130q0 -67 -29 -124.5t-78 -95.5v350q0 36 -14 67.5t-37.5 55t-55.5 37.5t-68 14h-414q-29 0 -55 -9t-48 -25v123q24 9 49.5 14t53.5 5h414z" />
    <glyph glyph-name="Odieresis" unicode="&#xd6;" horiz-adv-x="1224" 
d="M444 750v121h116v-121h-116zM712 750v121h117v-121h-117zM897 19q-24 -9 -50 -14t-53 -5h-414q-58 0 -109 22t-89.5 60.5t-60.5 89.5t-22 109v130q0 67 28.5 124.5t78.5 96.5v-351q0 -36 14 -67.5t37.5 -55t55 -37.5t67.5 -14h414q29 0 55 9t48 25v-122zM794 693
q58 0 109.5 -22.5t90 -60.5t60.5 -89.5t22 -109.5v-130q0 -67 -29 -124.5t-78 -95.5v350q0 36 -14 67.5t-37.5 55t-55.5 37.5t-68 14h-414q-29 0 -55 -9t-48 -25v123q24 9 49.5 14t53.5 5h414z" />
    <glyph glyph-name="Ograve" unicode="&#xd2;" horiz-adv-x="1224" 
d="M511 993l191 -190l-75 -76l-192 191zM897 19q-24 -9 -50 -14t-53 -5h-414q-58 0 -109 22t-89.5 60.5t-60.5 89.5t-22 109v130q0 67 28.5 124.5t78.5 96.5v-351q0 -36 14 -67.5t37.5 -55t55 -37.5t67.5 -14h414q29 0 55 9t48 25v-122zM794 693q58 0 109.5 -22.5t90 -60.5
t60.5 -89.5t22 -109.5v-130q0 -67 -29 -124.5t-78 -95.5v350q0 36 -14 67.5t-37.5 55t-55.5 37.5t-68 14h-414q-29 0 -55 -9t-48 -25v123q24 9 49.5 14t53.5 5h414z" />
    <glyph glyph-name="Otilde" unicode="&#xd5;" horiz-adv-x="1224" 
d="M743 713q-21 0 -43 5.5t-44 17.5h1l-98 50t-98 49q-10 5 -17.5 7t-13.5 2q-2 0 -4 -2t-2 -14v-101h-101v102q0 29 7.5 51t21.5 37q30 28 74 28q42 0 85 -23q48 -23 98 -49t98 -50q20 -10 31 -10q2 0 4 3t2 14v101h102v-102q0 -56 -31 -87h1q-28 -29 -73 -29zM897 19
q-24 -9 -50 -14t-53 -5h-414q-58 0 -109 22t-89.5 60.5t-60.5 89.5t-22 109v130q0 67 28.5 124.5t78.5 96.5v-351q0 -36 14 -67.5t37.5 -55t55 -37.5t67.5 -14h414q29 0 55 9t48 25v-122zM794 693q58 0 109.5 -22.5t90 -60.5t60.5 -89.5t22 -109.5v-130q0 -67 -29 -124.5
t-78 -95.5v350q0 36 -14 67.5t-37.5 55t-55.5 37.5t-68 14h-414q-29 0 -55 -9t-48 -25v123q24 9 49.5 14t53.5 5h414z" />
    <glyph glyph-name="Scaron" unicode="&#x160;" horiz-adv-x="1070" 
d="M789 966l33 -69l-317 -150l-317 150l33 69l284 -135zM246 694l19 1h644v-109h-644q-5 0 -9.5 -0.5t-9.5 -1.5v110zM745 402q41 0 77.5 -16t63.5 -43t43 -63.5t16 -77.5q0 -60 -30.5 -108t-79.5 -73v180q0 38 -26 64.5t-64 26.5h-480q-41 0 -77.5 15.5t-64 43t-43.5 64
t-16 78.5q0 60 30 107t80 73v-178q3 -39 28.5 -66t62.5 -27h480zM763 1q-5 -1 -9 -1h-9h-645v110h645h9t9 2v-111z" />
    <glyph glyph-name="Uacute" unicode="&#xda;" horiz-adv-x="1062" 
d="M661 915l-192 -191l-76 76l192 190zM811 20q-49 -20 -106 -20h-308q-60 0 -112 22.5t-91 61.5q-40 40 -62.5 92t-22.5 112v405h110v-405q0 -36 14 -68.5t38 -57t56 -38.5t69 -14h309q30 0 57 9t49 26v-125zM993 693v-405q0 -69 -28.5 -127t-81.5 -100v632h110z" />
    <glyph glyph-name="Ucircumflex" unicode="&#xdb;" horiz-adv-x="1084" 
d="M532 882l-284 -135l-33 69l317 150l317 -150l-33 -69zM811 20q-49 -20 -106 -20h-308q-60 0 -112 22.5t-91 61.5q-40 40 -62.5 92t-22.5 112v405h110v-405q0 -36 14 -68.5t38 -57t56 -38.5t69 -14h309q30 0 57 9t49 26v-125zM993 693v-405q0 -69 -28.5 -127t-81.5 -100
v632h110z" />
    <glyph glyph-name="Udieresis" unicode="&#xdc;" horiz-adv-x="1101" 
d="M335 702v121h116v-121h-116zM603 702v121h117v-121h-117zM811 20q-49 -20 -106 -20h-308q-60 0 -112 22.5t-91 61.5q-40 40 -62.5 92t-22.5 112v405h110v-405q0 -36 14 -68.5t38 -57t56 -38.5t69 -14h309q30 0 57 9t49 26v-125zM993 693v-405q0 -69 -28.5 -127
t-81.5 -100v632h110z" />
    <glyph glyph-name="Ugrave" unicode="&#xd9;" horiz-adv-x="1029" 
d="M424 993l191 -190l-75 -76l-192 191zM811 20q-49 -20 -106 -20h-308q-60 0 -112 22.5t-91 61.5q-40 40 -62.5 92t-22.5 112v405h110v-405q0 -36 14 -68.5t38 -57t56 -38.5t69 -14h309q30 0 57 9t49 26v-125zM993 693v-405q0 -69 -28.5 -127t-81.5 -100v632h110z" />
    <glyph glyph-name="Yacute" unicode="&#xdd;" horiz-adv-x="1086" 
d="M649 916l-192 -191l-76 76l192 190zM460 0v208h-82q-18 0 -35 1.5t-34 6.5v115q30 -13 68 -13h269q36 0 68.5 14t57 38t38.5 56t14 68v199h110v-197q0 -60 -22.5 -112t-62.5 -92q-39 -39 -91 -61.5t-112 -22.5h-76v-208h-110zM175 292q-40 40 -62.5 92t-22.5 112v197h110
v-424q-7 5 -13 11z" />
    <glyph glyph-name="Ydieresis" unicode="&#x178;" horiz-adv-x="1086" 
d="M340 552v121h116v-121h-116zM608 552v121h117v-121h-117zM460 0v208h-82q-18 0 -35 1.5t-34 6.5v115q30 -13 68 -13h269q36 0 68.5 14t57 38t38.5 56t14 68v199h110v-197q0 -60 -22.5 -112t-62.5 -92q-39 -39 -91 -61.5t-112 -22.5h-76v-208h-110zM175 292
q-40 40 -62.5 92t-22.5 112v197h110v-424q-7 5 -13 11z" />
    <glyph glyph-name="Zcaron" unicode="&#x17d;" horiz-adv-x="1090" 
d="M806 966l33 -69l-317 -150l-317 150l33 69l284 -135zM790 584h-694v109h694v-109zM198 4q-27 6 -47 21.5t-33.5 36t-20.5 44.5t-7 48q0 38 14 63t31 40q19 18 45 27q76 26 158 54.5t165 58t165.5 58t158.5 55.5q11 4 22.5 10.5t11.5 23.5v146q37 -6 58.5 -27.5t32.5 -46
t14.5 -45.5t3.5 -26q0 -37 -11.5 -61.5t-25.5 -38.5q-16 -18 -36 -27l-679 -237q-11 -5 -15.5 -13.5t-4.5 -17.5v-146zM270 110h694v-110h-694v110z" />
    <glyph glyph-name="aacute" unicode="&#xe1;" horiz-adv-x="1160" 
d="M728 692q47 0 88 -17.5t72 -48t48.5 -71.5t17.5 -88v-467h-107v321h-530q-22 0 -44 -8v113q21 3 41 3h533v38q0 24 -10 45.5t-26 37.5t-37.5 25t-45.5 9h-484v108h484zM775 0h-458q-44 0 -84.5 17t-71.5 46.5t-49.5 68t-18.5 82.5q0 60 30.5 108t78.5 76v-185
q0 -22 9 -41.5t24.5 -33.5t35.5 -22.5t43 -8.5h461v-107zM675 918l-192 -191l-76 76l192 190z" />
    <glyph glyph-name="acircumflex" unicode="&#xe2;" horiz-adv-x="1160" 
d="M728 692q47 0 88 -17.5t72 -48t48.5 -71.5t17.5 -88v-467h-107v321h-530q-22 0 -44 -8v113q21 3 41 3h533v38q0 24 -10 45.5t-26 37.5t-37.5 25t-45.5 9h-484v108h484zM775 0h-458q-44 0 -84.5 17t-71.5 46.5t-49.5 68t-18.5 82.5q0 60 30.5 108t78.5 76v-185
q0 -22 9 -41.5t24.5 -33.5t35.5 -22.5t43 -8.5h461v-107zM543 882l-284 -135l-33 69l317 150l317 -150l-33 -69z" />
    <glyph glyph-name="adieresis" unicode="&#xe4;" horiz-adv-x="1160" 
d="M728 692q47 0 88 -17.5t72 -48t48.5 -71.5t17.5 -88v-467h-107v321h-530q-22 0 -44 -8v113q21 3 41 3h533v38q0 24 -10 45.5t-26 37.5t-37.5 25t-45.5 9h-484v108h484zM775 0h-458q-44 0 -84.5 17t-71.5 46.5t-49.5 68t-18.5 82.5q0 60 30.5 108t78.5 76v-185
q0 -22 9 -41.5t24.5 -33.5t35.5 -22.5t43 -8.5h461v-107zM360 737v121h116v-121h-116zM628 737v121h117v-121h-117z" />
    <glyph glyph-name="agrave" unicode="&#xe0;" horiz-adv-x="1160" 
d="M728 692q47 0 88 -17.5t72 -48t48.5 -71.5t17.5 -88v-467h-107v321h-530q-22 0 -44 -8v113q21 3 41 3h533v38q0 24 -10 45.5t-26 37.5t-37.5 25t-45.5 9h-484v108h484zM775 0h-458q-44 0 -84.5 17t-71.5 46.5t-49.5 68t-18.5 82.5q0 60 30.5 108t78.5 76v-185
q0 -22 9 -41.5t24.5 -33.5t35.5 -22.5t43 -8.5h461v-107zM469 993l191 -190l-75 -76l-192 191z" />
    <glyph glyph-name="aring" unicode="&#xe5;" horiz-adv-x="1160" 
d="M728 692q47 0 88 -17.5t72 -48t48.5 -71.5t17.5 -88v-467h-107v321h-530q-22 0 -44 -8v113q21 3 41 3h533v38q0 24 -10 45.5t-26 37.5t-37.5 25t-45.5 9h-484v108h484zM775 0h-458q-44 0 -84.5 17t-71.5 46.5t-49.5 68t-18.5 82.5q0 60 30.5 108t78.5 76v-185
q0 -22 9 -41.5t24.5 -33.5t35.5 -22.5t43 -8.5h461v-107zM472 744q-56 0 -96 40q-19 19 -29.5 43.5t-10.5 52.5v13q0 28 10.5 53t29 43.5t43.5 29.5t53 11h137q28 0 53 -11t43.5 -29.5t29.5 -43.5t11 -53v-13q0 -28 -10.5 -52.5t-29.5 -43t-44 -29.5t-53 -11h-137zM441 925
q-13 -13 -13 -32v-13q0 -19 12.5 -31.5t31.5 -12.5h137q19 0 32.5 12.5t13.5 31.5v13q0 19 -13.5 32t-32.5 13h-137q-10 0 -18 -4t-13 -9z" />
    <glyph glyph-name="atilde" unicode="&#xe3;" horiz-adv-x="1160" 
d="M728 692q47 0 88 -17.5t72 -48t48.5 -71.5t17.5 -88v-467h-107v321h-530q-22 0 -44 -8v113q21 3 41 3h533v38q0 24 -10 45.5t-26 37.5t-37.5 25t-45.5 9h-484v108h484zM775 0h-458q-44 0 -84.5 17t-71.5 46.5t-49.5 68t-18.5 82.5q0 60 30.5 108t78.5 76v-185
q0 -22 9 -41.5t24.5 -33.5t35.5 -22.5t43 -8.5h461v-107zM696 737q-21 0 -43 5.5t-44 17.5h1l-98 50t-98 49q-10 5 -17.5 7t-13.5 2q-2 0 -4 -2t-2 -14v-101h-101v102q0 29 7.5 51t21.5 37q30 28 74 28q42 0 85 -23q48 -23 98 -49t98 -50q20 -10 31 -10q2 0 4 3t2 14v101
h102v-102q0 -56 -31 -87h1q-28 -29 -73 -29z" />
    <glyph glyph-name="ccedilla" unicode="&#xe7;" horiz-adv-x="1143" 
d="M403 -258v103h112q17 0 27.5 12.5t10.5 28.5v115h103v-115q0 -28 -11.5 -54t-31 -46t-45.5 -32t-56 -12h-109zM202 84q-40 40 -62.5 92t-22.5 112v118q0 69 29.5 127.5t80.5 97.5v-343q0 -36 14 -68.5t38 -57t56 -38.5t69 -14h583v-110h-581q-60 0 -112.5 22.5
t-91.5 61.5zM406 693h581v-109h-581q-37 0 -70 -14v114q33 9 70 9z" />
    <glyph glyph-name="eacute" unicode="&#xe9;" horiz-adv-x="1064" 
d="M207 26q-45 22 -76 60.5t-31 91.5v305q0 56 29.5 102.5t77.5 74.5v-290h551q22 0 43 8.5t36.5 22.5t25 33.5t9.5 42.5t-9.5 42.5t-25.5 33.5t-37 22t-44 8h-2h-440v108l11 1h433q44 0 84 -17t70.5 -46.5t48.5 -68.5t18 -83q0 -45 -18 -84t-49 -68.5t-72 -46t-86 -16.5
h-547v-81v-155zM960 107v-107h-646v107h646zM667 916l-192 -191l-76 76l192 190z" />
    <glyph glyph-name="ecircumflex" unicode="&#xea;" horiz-adv-x="1061" 
d="M208 26q-45 22 -76 60.5t-31 91.5v305q0 56 29.5 102.5t77.5 74.5v-290h551q22 0 43 8.5t36.5 22.5t25 33.5t9.5 42.5t-9.5 42.5t-25.5 33.5t-37 22t-44 8h-2h-440v108l11 1h433q44 0 84 -17t70.5 -46.5t48.5 -68.5t18 -83q0 -45 -18 -84t-49 -68.5t-72 -46t-86 -16.5
h-547v-81v-155zM961 107v-107h-646v107h646zM553 882l-284 -135l-33 69l317 150l317 -150l-33 -69z" />
    <glyph glyph-name="edieresis" unicode="&#xeb;" horiz-adv-x="1061" 
d="M208 26q-45 22 -76 60.5t-31 91.5v305q0 56 29.5 102.5t77.5 74.5v-290h551q22 0 43 8.5t36.5 22.5t25 33.5t9.5 42.5t-9.5 42.5t-25.5 33.5t-37 22t-44 8h-2h-440v108l11 1h433q44 0 84 -17t70.5 -46.5t48.5 -68.5t18 -83q0 -45 -18 -84t-49 -68.5t-72 -46t-86 -16.5
h-547v-81v-155zM961 107v-107h-646v107h646zM345 748v121h116v-121h-116zM613 748v121h117v-121h-117z" />
    <glyph glyph-name="egrave" unicode="&#xe8;" horiz-adv-x="1152" 
d="M428 992l191 -190l-75 -76l-192 191zM207 26q-45 22 -76 60.5t-31 91.5v305q0 56 29.5 102.5t77.5 74.5v-290h551q22 0 43 8.5t36.5 22.5t25 33.5t9.5 42.5t-9.5 42.5t-25.5 33.5t-37 22t-44 8h-2h-440v108l11 1h433q44 0 84 -17t70.5 -46.5t48.5 -68.5t18 -83
q0 -45 -18 -84t-49 -68.5t-72 -46t-86 -16.5h-547v-81v-155zM960 107v-107h-646v107h646z" />
    <glyph glyph-name="iacute" unicode="&#xed;" horiz-adv-x="265" 
d="M100 0v693h110v-693h-110zM268 966l-192 -191l-76 76l192 190z" />
    <glyph glyph-name="icircumflex" unicode="&#xee;" horiz-adv-x="265" 
d="M100 0v693h110v-693h-110zM137 880l-284 -135l-33 69l317 150l317 -150l-33 -69z" />
    <glyph glyph-name="idieresis" unicode="&#xef;" horiz-adv-x="265" 
d="M100 0v693h110v-693h-110zM-51 751v121h116v-121h-116zM217 751v121h117v-121h-117z" />
    <glyph glyph-name="igrave" unicode="&#xec;" horiz-adv-x="265" 
d="M100 0v693h110v-693h-110zM68 991l191 -190l-75 -76l-192 191z" />
    <glyph glyph-name="ntilde" unicode="&#xf1;" horiz-adv-x="1163" 
d="M207 584v-584h-107v693h564q67 0 124.5 -29.5t95.5 -79.5h-677zM925 514q20 -49 20 -104v-410h-107v410q0 29 -9 55.5t-25 48.5h121zM630 743q-21 0 -43 5.5t-44 17.5h1l-98 50t-98 49q-10 5 -17.5 7t-13.5 2q-2 0 -4 -2t-2 -14v-101h-101v102q0 29 7.5 51t21.5 37
q30 28 74 28q42 0 85 -23q48 -23 98 -49t98 -50q20 -10 31 -10q2 0 4 3t2 14v101h102v-102q0 -56 -31 -87h1q-28 -29 -73 -29z" />
    <glyph glyph-name="oacute" unicode="&#xf3;" horiz-adv-x="1224" 
d="M897 19q-24 -9 -50 -14t-53 -5h-414q-58 0 -109 22t-89.5 60.5t-60.5 89.5t-22 109v130q0 67 28.5 124.5t78.5 96.5v-351q0 -36 14 -67.5t37.5 -55t55 -37.5t67.5 -14h414q29 0 55 9t48 25v-122zM794 693q58 0 109.5 -22.5t90 -60.5t60.5 -89.5t22 -109.5v-130
q0 -67 -29 -124.5t-78 -95.5v350q0 36 -14 67.5t-37.5 55t-55.5 37.5t-68 14h-414q-29 0 -55 -9t-48 -25v123q24 9 49.5 14t53.5 5h414zM712 916l-192 -191l-76 76l192 190z" />
    <glyph glyph-name="ocircumflex" unicode="&#xf4;" horiz-adv-x="1224" 
d="M624 882l-284 -135l-33 69l317 150l317 -150l-33 -69zM897 19q-24 -9 -50 -14t-53 -5h-414q-58 0 -109 22t-89.5 60.5t-60.5 89.5t-22 109v130q0 67 28.5 124.5t78.5 96.5v-351q0 -36 14 -67.5t37.5 -55t55 -37.5t67.5 -14h414q29 0 55 9t48 25v-122zM794 693
q58 0 109.5 -22.5t90 -60.5t60.5 -89.5t22 -109.5v-130q0 -67 -29 -124.5t-78 -95.5v350q0 36 -14 67.5t-37.5 55t-55.5 37.5t-68 14h-414q-29 0 -55 -9t-48 -25v123q24 9 49.5 14t53.5 5h414z" />
    <glyph glyph-name="odieresis" unicode="&#xf6;" horiz-adv-x="1287" 
d="M897 19q-24 -9 -50 -14t-53 -5h-414q-58 0 -109 22t-89.5 60.5t-60.5 89.5t-22 109v130q0 67 28.5 124.5t78.5 96.5v-351q0 -36 14 -67.5t37.5 -55t55 -37.5t67.5 -14h414q29 0 55 9t48 25v-122zM794 693q58 0 109.5 -22.5t90 -60.5t60.5 -89.5t22 -109.5v-130
q0 -67 -29 -124.5t-78 -95.5v350q0 36 -14 67.5t-37.5 55t-55.5 37.5t-68 14h-414q-29 0 -55 -9t-48 -25v123q24 9 49.5 14t53.5 5h414zM407 768v121h116v-121h-116zM675 768v121h117v-121h-117z" />
    <glyph glyph-name="ograve" unicode="&#xf2;" horiz-adv-x="1224" 
d="M511 993l191 -190l-75 -76l-192 191zM897 19q-24 -9 -50 -14t-53 -5h-414q-58 0 -109 22t-89.5 60.5t-60.5 89.5t-22 109v130q0 67 28.5 124.5t78.5 96.5v-351q0 -36 14 -67.5t37.5 -55t55 -37.5t67.5 -14h414q29 0 55 9t48 25v-122zM794 693q58 0 109.5 -22.5t90 -60.5
t60.5 -89.5t22 -109.5v-130q0 -67 -29 -124.5t-78 -95.5v350q0 36 -14 67.5t-37.5 55t-55.5 37.5t-68 14h-414q-29 0 -55 -9t-48 -25v123q24 9 49.5 14t53.5 5h414z" />
    <glyph glyph-name="otilde" unicode="&#xf5;" horiz-adv-x="1224" 
d="M778 723q-21 0 -43 5.5t-44 17.5h1l-98 50t-98 49q-10 5 -17.5 7t-13.5 2q-2 0 -4 -2t-2 -14v-101h-101v102q0 29 7.5 51t21.5 37q30 28 74 28q42 0 85 -23q48 -23 98 -49t98 -50q20 -10 31 -10q2 0 4 3t2 14v101h102v-102q0 -56 -31 -87h1q-28 -29 -73 -29zM897 19
q-24 -9 -50 -14t-53 -5h-414q-58 0 -109 22t-89.5 60.5t-60.5 89.5t-22 109v130q0 67 28.5 124.5t78.5 96.5v-351q0 -36 14 -67.5t37.5 -55t55 -37.5t67.5 -14h414q29 0 55 9t48 25v-122zM794 693q58 0 109.5 -22.5t90 -60.5t60.5 -89.5t22 -109.5v-130q0 -67 -29 -124.5
t-78 -95.5v350q0 36 -14 67.5t-37.5 55t-55.5 37.5t-68 14h-414q-29 0 -55 -9t-48 -25v123q24 9 49.5 14t53.5 5h414z" />
    <glyph glyph-name="scaron" unicode="&#x161;" horiz-adv-x="1070" 
d="M796 966l33 -69l-317 -150l-317 150l33 69l284 -135zM246 694l19 1h644v-109h-644q-5 0 -9.5 -0.5t-9.5 -1.5v110zM745 402q41 0 77.5 -16t63.5 -43t43 -63.5t16 -77.5q0 -60 -30.5 -108t-79.5 -73v180q0 38 -26 64.5t-64 26.5h-480q-41 0 -77.5 15.5t-64 43t-43.5 64
t-16 78.5q0 60 30 107t80 73v-178q3 -39 28.5 -66t62.5 -27h480zM763 1q-5 -1 -9 -1h-9h-645v110h645h9t9 2v-111z" />
    <glyph glyph-name="uacute" unicode="&#xfa;" horiz-adv-x="1062" 
d="M207 61q-49 39 -78 97t-29 125v410h107v-632zM945 693v-693h-564q-54 0 -103 20v122q22 -16 47.5 -25t53.5 -9h459v585h107zM688 899l-192 -191l-76 76l192 190z" />
    <glyph glyph-name="ucircumflex" unicode="&#xfb;" horiz-adv-x="1075" 
d="M207 61q-49 39 -78 97t-29 125v410h107v-632zM945 693v-693h-564q-54 0 -103 20v122q22 -16 47.5 -25t53.5 -9h459v585h107zM503 873l-284 -135l-33 69l317 150l317 -150l-33 -69z" />
    <glyph glyph-name="udieresis" unicode="&#xfc;" horiz-adv-x="1062" 
d="M207 61q-49 39 -78 97t-29 125v410h107v-632zM945 693v-693h-564q-54 0 -103 20v122q22 -16 47.5 -25t53.5 -9h459v585h107zM328 694v121h116v-121h-116zM596 694v121h117v-121h-117z" />
    <glyph glyph-name="ugrave" unicode="&#xf9;" horiz-adv-x="1075" 
d="M420 974l191 -190l-75 -76l-192 191zM207 61q-49 39 -78 97t-29 125v410h107v-632zM945 693v-693h-564q-54 0 -103 20v122q22 -16 47.5 -25t53.5 -9h459v585h107z" />
    <glyph glyph-name="yacute" unicode="&#xfd;" horiz-adv-x="1075" 
d="M360 278q-58 0 -109 22.5t-89.5 60.5t-60.5 89.5t-22 109.5v133h107v-133q0 -35 13.5 -67t37 -56t55 -38t66.5 -14h439v308h107v-412q0 -27 -4.5 -53t-14.5 -49h-122q16 21 25 46t9 53h-437zM844 107q-38 -49 -95.5 -78t-125.5 -29h-524v107h525h220zM646 918l-192 -191
l-76 76l192 190z" />
    <glyph glyph-name="ydieresis" unicode="&#xff;" horiz-adv-x="1056" 
d="M360 278q-58 0 -109 22.5t-89.5 60.5t-60.5 89.5t-22 109.5v133h107v-133q0 -35 13.5 -67t37 -56t55 -38t66.5 -14h439v308h107v-412q0 -27 -4.5 -53t-14.5 -49h-122q16 21 25 46t9 53h-437zM844 107q-38 -49 -95.5 -78t-125.5 -29h-524v107h525h220zM314 682v121h116
v-121h-116zM582 682v121h117v-121h-117z" />
    <glyph glyph-name="zcaron" unicode="&#x17e;" horiz-adv-x="1090" 
d="M687 584h-585v109h744zM1020 107v-107h-920v100l11 7h196h713zM974 693h59v-95l-620 -420h-196zM846 966l33 -69l-317 -150l-317 150l33 69l284 -135z" />
    <glyph glyph-name="uni00A0" unicode="&#xa0;" horiz-adv-x="375" 
 />
    <glyph glyph-name="Euro" unicode="&#x20ac;" horiz-adv-x="1123" 
d="M432 583q-54 0 -98 -30.5t-64 -78.5h698v-107h-711v-43h711v-107h-699q20 -48 63.5 -79t97.5 -31h561v-107h-559q-58 0 -109.5 22t-89.5 60q-26 27 -45.5 62.5t-29.5 72.5h-84v107h75v43h-75v107h83q10 47 35.5 86.5t62 68.5t81.5 45.5t96 16.5h559v-108h-559v0z" />
    <glyph glyph-name="Abreve" unicode="&#x102;" horiz-adv-x="1072" 
d="M439 878q0 -19 12.5 -32t31.5 -13h156q18 0 31.5 13t13.5 32v30h92v-30q0 -28 -10.5 -52.5t-29.5 -43t-44 -29.5t-53 -11h-156q-55 0 -96 39q-19 19 -29.5 44t-10.5 53v30h92v-30zM930 609q39 -40 62 -92t23 -111v-406h-110v301h-696v-301h-109v406q0 69 29.5 127
t79.5 98v-220h696q-1 35 -15.5 66.5t-38.5 55t-56 37.5t-68 14h-342q-29 0 -55.5 -9.5t-48.5 -26.5v124q49 21 106 21h340q59 0 111 -22.5t92 -61.5z" />
    <glyph glyph-name="Amacron" unicode="&#x100;" horiz-adv-x="1072" 
d="M316 824h463v-76h-463v76zM930 609q39 -40 62 -92t23 -111v-406h-110v301h-696v-301h-109v406q0 69 29.5 127t79.5 98v-220h696q-1 35 -15.5 66.5t-38.5 55t-56 37.5t-68 14h-342q-29 0 -55.5 -9.5t-48.5 -26.5v124q49 21 106 21h340q59 0 111 -22.5t92 -61.5z" />
    <glyph glyph-name="Aogonek" unicode="&#x104;" horiz-adv-x="1071" 
d="M930 609q39 -40 62 -92t23 -111v-406h-110v301h-696v-301h-109v406q0 69 29.5 127t79.5 98v-220h696q-1 35 -15.5 66.5t-38.5 55t-56 37.5t-68 14h-342q-29 0 -55.5 -9.5t-48.5 -26.5v124q49 21 106 21h340q59 0 111 -22.5t92 -61.5zM947.428 -182.592
q-16.4863 0 -32.1865 5.87207q-15.7012 5.87207 -28.2617 16.0508t-20.0186 24.6631q-7.45703 14.4844 -7.45703 31.71v1.56543q0 26.6211 12.5605 49.7188q12.5605 23.0967 32.9707 38.7559l17.2715 15.6592h86.3535l-65.1582 -61.8535q-8.63477 -8.6123 -16.0928 -18.3994
t-7.45801 -19.9658q0 -4.69727 2.35547 -9.39551q4.70996 -8.6123 10.9902 -10.5693q6.28027 -1.95801 16.4854 -3.52344h150.727v-60.2881h-153.081z" />
    <glyph glyph-name="Cacute" unicode="&#x106;" horiz-adv-x="1075" 
d="M731 988l-192 -191l-76 76l192 190zM202 84q-40 40 -62.5 92t-22.5 112v118q0 69 29.5 127.5t80.5 97.5v-343q0 -36 14 -68.5t38 -57t56 -38.5t69 -14h583v-110h-581q-60 0 -112.5 22.5t-91.5 61.5zM406 693h581v-109h-581q-37 0 -70 -14v114q33 9 70 9z" />
    <glyph glyph-name="Ccaron" unicode="&#x10c;" horiz-adv-x="1143" 
d="M870 966l33 -69l-317 -150l-317 150l33 69l284 -135zM202 84q-40 40 -62.5 92t-22.5 112v118q0 69 29.5 127.5t80.5 97.5v-343q0 -36 14 -68.5t38 -57t56 -38.5t69 -14h583v-110h-581q-60 0 -112.5 22.5t-91.5 61.5zM406 693h581v-109h-581q-37 0 -70 -14v114q33 9 70 9z
" />
    <glyph glyph-name="Ccircumflex" unicode="&#x108;" horiz-adv-x="1075" 
d="M586 882l-284 -135l-33 69l317 150l317 -150l-33 -69zM202 84q-40 40 -62.5 92t-22.5 112v118q0 69 29.5 127.5t80.5 97.5v-343q0 -36 14 -68.5t38 -57t56 -38.5t69 -14h583v-110h-581q-60 0 -112.5 22.5t-91.5 61.5zM406 693h581v-109h-581q-37 0 -70 -14v114q33 9 70 9
z" />
    <glyph glyph-name="Dcaron" unicode="&#x10e;" horiz-adv-x="1127" 
d="M785 966l33 -69l-317 -150l-317 150l33 69l284 -135zM756 693q60 0 112.5 -23t91.5 -62t61.5 -91t22.5 -111v-118q0 -69 -30 -127.5t-80 -98.5v346q0 36 -14 68t-38.5 56t-57 38t-68.5 14h-545v-474h547q29 0 55 9t49 26v-125q-51 -20 -106 -20h-654v693h654v0z" />
    <glyph glyph-name="Dcroat" unicode="&#x110;" horiz-adv-x="1088" 
d="M756 693q60 0 112.5 -23t91.5 -62t61.5 -91t22.5 -111v-118q0 -69 -30 -127.5t-80 -98.5v346q0 36 -14 68t-38.5 56t-57 38t-68.5 14h-545v-474h547q29 0 55 9t49 26v-125q-51 -20 -106 -20h-654v693h654v0z" />
    <glyph glyph-name="Ecaron" unicode="&#x11a;" horiz-adv-x="1057" 
d="M854 966l33 -69l-317 -150l-317 150l33 69l284 -135zM206 401h750v-110h-750v-229q-51 40 -80.5 98.5t-29.5 127.5v118q0 69 29.5 127t80.5 98v-230zM956 693v-109h-572q-30 0 -57 -9.5t-49 -25.5v123q25 10 51.5 15.5t54.5 5.5h572zM278 145q22 -17 49 -26t57 -9h572
v-110h-572q-55 0 -106 20v125z" />
    <glyph glyph-name="Edotaccent" unicode="&#x116;" horiz-adv-x="1057" 
d="M532 860h132v-109h-132v109zM206 401h750v-110h-750v-229q-51 40 -80.5 98.5t-29.5 127.5v118q0 69 29.5 127t80.5 98v-230zM956 693v-109h-572q-30 0 -57 -9.5t-49 -25.5v123q25 10 51.5 15.5t54.5 5.5h572zM278 145q22 -17 49 -26t57 -9h572v-110h-572q-55 0 -106 20
v125z" />
    <glyph glyph-name="Emacron" unicode="&#x112;" horiz-adv-x="1057" 
d="M359 824h463v-76h-463v76zM206 401h750v-110h-750v-229q-51 40 -80.5 98.5t-29.5 127.5v118q0 69 29.5 127t80.5 98v-230zM956 693v-109h-572q-30 0 -57 -9.5t-49 -25.5v123q25 10 51.5 15.5t54.5 5.5h572zM278 145q22 -17 49 -26t57 -9h572v-110h-572q-55 0 -106 20v125
z" />
    <glyph glyph-name="Eogonek" unicode="&#x118;" horiz-adv-x="1062" 
d="M210 400h750v-110h-750v-229q-51 40 -80.5 98.5t-29.5 127.5v118q0 69 29.5 127t80.5 98v-230zM960 692v-109h-572q-30 0 -57 -9.5t-49 -25.5v123q25 10 51.5 15.5t54.5 5.5h572zM1066 -138v-77h-195q-21 0 -41 7.5t-36 20.5t-25.5 31.5t-9.5 40.5q0 35 16 64.5t41 49.5
h-428q-55 0 -106 20v125q22 -17 49 -26t57 -9h572v-110h-33l-61 -58q-11 -11 -20.5 -23.5t-9.5 -25.5q0 -6 3 -12q6 -11 14 -13.5t21 -4.5h192z" />
    <glyph glyph-name="Gbreve" unicode="&#x11e;" horiz-adv-x="1118" 
d="M411 878q0 -19 12.5 -32t31.5 -13h156q18 0 31.5 13t13.5 32v30h92v-30q0 -28 -10.5 -52.5t-29.5 -43t-44 -29.5t-53 -11h-156q-55 0 -96 39q-19 19 -29.5 44t-10.5 53v30h92v-30zM261 672q49 21 106 21h446v-109h-446q-29 0 -56 -9.5t-50 -26.5v124zM1005 404v-116
q0 -59 -22.5 -111.5t-61.5 -91.5t-91.5 -62t-112.5 -23h-350q-59 0 -111 22.5t-91 61.5t-62 91.5t-23 112.5v118q0 68 29.5 126.5t79.5 98.5v-343q0 -36 14 -68.5t38 -57t56 -38.5t68 -14h352q36 0 68.5 14t56.5 38t38.5 56t14.5 68v8h-299v110h409z" />
    <glyph glyph-name="Gcircumflex" unicode="&#x11c;" horiz-adv-x="1063" 
d="M565 882l-284 -135l-33 69l317 150l317 -150l-33 -69zM424 395h522v-395h-560q-58 0 -109.5 22.5t-89.5 60.5t-60.5 88.5t-22.5 107.5v131q0 67 29 124.5t78 95.5v-349q0 -35 13.5 -66.5t37 -55.5t55 -38t67.5 -14h454v181h-414v107zM946 692v-108h-560q-29 0 -55.5 -9
t-48.5 -25v122q49 20 104 20h560z" />
    <glyph glyph-name="Gcommaaccent" unicode="&#x122;" horiz-adv-x="1071" 
d="M261 672q49 21 106 21h446v-109h-446q-29 0 -56 -9.5t-50 -26.5v124zM1005 404v-116q0 -59 -22.5 -111.5t-61.5 -91.5t-91.5 -62t-112.5 -23h-350q-59 0 -111 22.5t-91 61.5t-62 91.5t-23 112.5v118q0 68 29.5 126.5t79.5 98.5v-343q0 -36 14 -68.5t38 -57t56 -38.5
t68 -14h352q36 0 68.5 14t56.5 38t38.5 56t14.5 68v8h-299v110h409zM445 -211l87 186l69 -32l-87 -186z" />
    <glyph glyph-name="Hcircumflex" unicode="&#x124;" horiz-adv-x="1125" 
d="M525 882l-284 -135l-33 69l317 150l317 -150l-33 -69zM210 0h-110v693h110v-693zM318 428h513v265h111v-693h-111v317h-512z" />
    <glyph glyph-name="Idotaccent" unicode="&#x130;" horiz-adv-x="271" 
d="M77 890h132v-109h-132v109zM100 0v693h110v-693h-110z" />
    <glyph glyph-name="Imacron" unicode="&#x12a;" horiz-adv-x="451" 
d="M-87 824h463v-76h-463v76zM100 0v693h110v-693h-110z" />
    <glyph glyph-name="Iogonek" unicode="&#x12e;" horiz-adv-x="241" 
d="M100 0v693h110v-693h-110zM123.498 -186.143q-16.6914 0 -32.5869 5.96777q-15.8965 5.96777 -28.6133 16.3115q-12.7168 10.3447 -20.2676 25.0654q-7.5498 14.7207 -7.5498 32.2266v1.59082q0 27.0547 12.7168 50.5283t33.3809 39.3877l17.4863 15.9141h87.4277
l-65.9688 -62.8613q-8.74219 -8.75293 -16.293 -18.6992t-7.55078 -20.291q0 -4.77344 2.38477 -9.54785q4.76855 -8.75293 11.127 -10.7422t16.6904 -3.58105h152.602v-61.2695h-154.985z" />
    <glyph glyph-name="Jcircumflex" unicode="&#x134;" 
d="M185 84q-40 40 -62.5 92t-22.5 112v74h110v-74q0 -36 14 -68.5t38 -57t56 -38.5t69 -14h269q35 0 69 14v-116q-17 -5 -34.5 -6.5t-34.5 -1.5h-268q-60 0 -112 22.5t-91 61.5zM834 693h110v-405q0 -60 -22.5 -112t-62.5 -92l-12 -12t-13 -11v632zM913 880l-284 -135
l-33 69l317 150l317 -150l-33 -69z" />
    <glyph glyph-name="Kcommaaccent" unicode="&#x136;" horiz-adv-x="1040" 
d="M961 586q0 -72 -33 -133t-87 -100q54 -40 87 -101.5t33 -132.5v-119h-110v119q0 37 -14.5 69.5t-38.5 56.5t-56.5 38t-69.5 14h-390v111h390q37 0 69.5 14t57 38t38.5 56.5t14 69.5v107h110v-107zM210 0h-110v693h110v-693zM431 -151l87 186l69 -32l-87 -186z" />
    <glyph glyph-name="Lcaron" unicode="&#x13d;" horiz-adv-x="1010" 
d="M480 497l55 203h65l-55 -203h-65zM200 62q-52 37 -81 98.5t-29 128.5v404h110v-631zM949 110v-110h-571q-29 0 -55.5 5.5t-51.5 15.5v126q22 -17 49 -27t58 -10h571z" />
    <glyph glyph-name="Nacute" unicode="&#x143;" horiz-adv-x="1163" 
d="M788 918l-192 -191l-76 76l192 190zM998 695v-566q-6 -50 -37 -84t-73 -46v696h110zM209 0h-109v562q1 23 5 45.5t15 41.5t32 32t57 18v-699zM816 -4q-46 8 -83 51q-114 134 -226.5 266t-226.5 266v120q24 -4 46.5 -16.5t40.5 -33.5q112 -134 223.5 -266t225.5 -265v-122
z" />
    <glyph glyph-name="Ncaron" unicode="&#x147;" horiz-adv-x="1163" 
d="M847 947l33 -69l-317 -150l-317 150l33 69l284 -135zM998 695v-566q-6 -50 -37 -84t-73 -46v696h110zM209 0h-109v562q1 23 5 45.5t15 41.5t32 32t57 18v-699zM816 -4q-46 8 -83 51q-114 134 -226.5 266t-226.5 266v120q24 -4 46.5 -16.5t40.5 -33.5q112 -134 223.5 -266
t225.5 -265v-122z" />
    <glyph glyph-name="Ncommaaccent" unicode="&#x145;" horiz-adv-x="1163" 
d="M998 695v-566q-6 -50 -37 -84t-73 -46v696h110zM209 0h-109v562q1 23 5 45.5t15 41.5t32 32t57 18v-699zM816 -4q-46 8 -83 51q-114 134 -226.5 266t-226.5 266v120q24 -4 46.5 -16.5t40.5 -33.5q112 -134 223.5 -266t225.5 -265v-122zM458 -151l87 186l69 -32l-87 -186z
" />
    <glyph glyph-name="Ohungarumlaut" unicode="&#x150;" horiz-adv-x="1224" 
d="M660 906l-190 -189l-54 54l190 189zM880 906l-190 -189l-54 54l190 189zM897 19q-24 -9 -50 -14t-53 -5h-414q-58 0 -109 22t-89.5 60.5t-60.5 89.5t-22 109v130q0 67 28.5 124.5t78.5 96.5v-351q0 -36 14 -67.5t37.5 -55t55 -37.5t67.5 -14h414q29 0 55 9t48 25v-122z
M794 693q58 0 109.5 -22.5t90 -60.5t60.5 -89.5t22 -109.5v-130q0 -67 -29 -124.5t-78 -95.5v350q0 36 -14 67.5t-37.5 55t-55.5 37.5t-68 14h-414q-29 0 -55 -9t-48 -25v123q24 9 49.5 14t53.5 5h414z" />
    <glyph glyph-name="Omacron" unicode="&#x14c;" horiz-adv-x="1224" 
d="M343 824h463v-76h-463v76zM897 19q-24 -9 -50 -14t-53 -5h-414q-58 0 -109 22t-89.5 60.5t-60.5 89.5t-22 109v130q0 67 28.5 124.5t78.5 96.5v-351q0 -36 14 -67.5t37.5 -55t55 -37.5t67.5 -14h414q29 0 55 9t48 25v-122zM794 693q58 0 109.5 -22.5t90 -60.5t60.5 -89.5
t22 -109.5v-130q0 -67 -29 -124.5t-78 -95.5v350q0 36 -14 67.5t-37.5 55t-55.5 37.5t-68 14h-414q-29 0 -55 -9t-48 -25v123q24 9 49.5 14t53.5 5h414z" />
    <glyph glyph-name="Racute" unicode="&#x154;" horiz-adv-x="1146" 
d="M676 988l-192 -191l-76 76l192 190zM208 0h-108v693h108v-693zM1064 0h-138l-190 254h-456v110h525q23 0 44.5 8.5t37.5 23.5t25.5 35t9.5 43t-10 43t-26.5 35t-38 23.5t-45.5 8.5h-522v109h522q70 0 126 -36q47 -29 75 -77.5t28 -105.5q0 -84 -41.5 -135t-123.5 -75z
" />
    <glyph glyph-name="Rcaron" unicode="&#x158;" horiz-adv-x="1169" 
d="M814 966l33 -69l-317 -150l-317 150l33 69l284 -135zM208 0h-108v693h108v-693zM1064 0h-138l-190 254h-456v110h525q23 0 44.5 8.5t37.5 23.5t25.5 35t9.5 43t-10 43t-26.5 35t-38 23.5t-45.5 8.5h-522v109h522q70 0 126 -36q47 -29 75 -77.5t28 -105.5
q0 -84 -41.5 -135t-123.5 -75z" />
    <glyph glyph-name="Rcommaaccent" unicode="&#x156;" horiz-adv-x="1124" 
d="M208 0h-108v693h108v-693zM1064 0h-138l-190 254h-456v110h525q23 0 44.5 8.5t37.5 23.5t25.5 35t9.5 43t-10 43t-26.5 35t-38 23.5t-45.5 8.5h-522v109h522q70 0 126 -36q47 -29 75 -77.5t28 -105.5q0 -84 -41.5 -135t-123.5 -75z" />
    <glyph glyph-name="Sacute" unicode="&#x15a;" horiz-adv-x="1094" 
d="M654 918l-192 -191l-76 76l192 190zM246 694l19 1h644v-109h-644q-5 0 -9.5 -0.5t-9.5 -1.5v110zM745 402q41 0 77.5 -16t63.5 -43t43 -63.5t16 -77.5q0 -60 -30.5 -108t-79.5 -73v180q0 38 -26 64.5t-64 26.5h-480q-41 0 -77.5 15.5t-64 43t-43.5 64t-16 78.5
q0 60 30 107t80 73v-178q3 -39 28.5 -66t62.5 -27h480zM763 1q-5 -1 -9 -1h-9h-645v110h645h9t9 2v-111z" />
    <glyph glyph-name="Scedilla" unicode="&#x15e;" horiz-adv-x="1094" 
d="M323 -256v103h112q17 0 27.5 12.5t10.5 28.5v115h103v-115q0 -28 -11.5 -54t-31 -46t-45.5 -32t-56 -12h-109zM246 694l19 1h644v-109h-644q-5 0 -9.5 -0.5t-9.5 -1.5v110zM745 402q41 0 77.5 -16t63.5 -43t43 -63.5t16 -77.5q0 -60 -30.5 -108t-79.5 -73v180
q0 38 -26 64.5t-64 26.5h-480q-41 0 -77.5 15.5t-64 43t-43.5 64t-16 78.5q0 60 30 107t80 73v-178q3 -39 28.5 -66t62.5 -27h480zM763 1q-5 -1 -9 -1h-9h-645v110h645h9t9 2v-111z" />
    <glyph glyph-name="Scedilla" unicode="&#xf6c1;" horiz-adv-x="1094" 
d="M323 -256v103h112q17 0 27.5 12.5t10.5 28.5v115h103v-115q0 -28 -11.5 -54t-31 -46t-45.5 -32t-56 -12h-109zM246 694l19 1h644v-109h-644q-5 0 -9.5 -0.5t-9.5 -1.5v110zM745 402q41 0 77.5 -16t63.5 -43t43 -63.5t16 -77.5q0 -60 -30.5 -108t-79.5 -73v180
q0 38 -26 64.5t-64 26.5h-480q-41 0 -77.5 15.5t-64 43t-43.5 64t-16 78.5q0 60 30 107t80 73v-178q3 -39 28.5 -66t62.5 -27h480zM763 1q-5 -1 -9 -1h-9h-645v110h645h9t9 2v-111z" />
    <glyph glyph-name="Scircumflex" unicode="&#x15c;" horiz-adv-x="1094" 
d="M509 882l-284 -135l-33 69l317 150l317 -150l-33 -69zM246 694l19 1h644v-109h-644q-5 0 -9.5 -0.5t-9.5 -1.5v110zM745 402q41 0 77.5 -16t63.5 -43t43 -63.5t16 -77.5q0 -60 -30.5 -108t-79.5 -73v180q0 38 -26 64.5t-64 26.5h-480q-41 0 -77.5 15.5t-64 43t-43.5 64
t-16 78.5q0 60 30 107t80 73v-178q3 -39 28.5 -66t62.5 -27h480zM763 1q-5 -1 -9 -1h-9h-645v110h645h9t9 2v-111z" />
    <glyph glyph-name="Scommaaccent" unicode="&#x218;" horiz-adv-x="1072" 
d="M246 694l19 1h644v-109h-644q-5 0 -9.5 -0.5t-9.5 -1.5v110zM745 402q41 0 77.5 -16t63.5 -43t43 -63.5t16 -77.5q0 -60 -30.5 -108t-79.5 -73v180q0 38 -26 64.5t-64 26.5h-480q-41 0 -77.5 15.5t-64 43t-43.5 64t-16 78.5q0 60 30 107t80 73v-178q3 -39 28.5 -66
t62.5 -27h480zM763 1q-5 -1 -9 -1h-9h-645v110h645h9t9 2v-111zM421 -223l87 186l69 -32l-87 -186z" />
    <glyph glyph-name="Tcommaaccent" unicode="&#x21a;" horiz-adv-x="1043" 
d="M568 512v-512h-109v512h109zM942 693v-109h-857v109h857zM441 -197l87 186l69 -32l-87 -186z" />
    <glyph glyph-name="Ubreve" unicode="&#x16c;" 
d="M399 858q0 -19 12.5 -32t31.5 -13h156q18 0 31.5 13t13.5 32v30h92v-30q0 -28 -10.5 -52.5t-29.5 -43t-44 -29.5t-53 -11h-156q-55 0 -96 39q-19 19 -29.5 44t-10.5 53v30h92v-30zM811 20q-49 -20 -106 -20h-308q-60 0 -112 22.5t-91 61.5q-40 40 -62.5 92t-22.5 112v405
h110v-405q0 -36 14 -68.5t38 -57t56 -38.5t69 -14h309q30 0 57 9t49 26v-125zM993 693v-405q0 -69 -28.5 -127t-81.5 -100v632h110z" />
    <glyph glyph-name="Uhungarumlaut" unicode="&#x170;" horiz-adv-x="1190" 
d="M550 906l-190 -189l-54 54l190 189zM770 906l-190 -189l-54 54l190 189zM811 20q-49 -20 -106 -20h-308q-60 0 -112 22.5t-91 61.5q-40 40 -62.5 92t-22.5 112v405h110v-405q0 -36 14 -68.5t38 -57t56 -38.5t69 -14h309q30 0 57 9t49 26v-125zM993 693v-405
q0 -69 -28.5 -127t-81.5 -100v632h110z" />
    <glyph glyph-name="Umacron" unicode="&#x16a;" 
d="M296 824h463v-76h-463v76zM811 20q-49 -20 -106 -20h-308q-60 0 -112 22.5t-91 61.5q-40 40 -62.5 92t-22.5 112v405h110v-405q0 -36 14 -68.5t38 -57t56 -38.5t69 -14h309q30 0 57 9t49 26v-125zM993 693v-405q0 -69 -28.5 -127t-81.5 -100v632h110z" />
    <glyph glyph-name="Uogonek" unicode="&#x172;" horiz-adv-x="1058" 
d="M503 -234q-21 0 -41 7.5t-36 20.5t-25.5 31.5t-9.5 40.5v2q0 34 16 63.5t42 49.5l22 20h110l-83 -79q-11 -11 -20.5 -23.5t-9.5 -25.5q0 -6 3 -12q6 -11 14 -13.5t21 -4.5h192v-77h-195zM811 20q-49 -20 -106 -20h-308q-60 0 -112 22.5t-91 61.5q-40 40 -62.5 92
t-22.5 112v405h110v-405q0 -36 14 -68.5t38 -57t56 -38.5t69 -14h309q30 0 57 9t49 26v-125zM993 693v-405q0 -69 -28.5 -127t-81.5 -100v632h110z" />
    <glyph glyph-name="Uring" unicode="&#x16e;" horiz-adv-x="1190" 
d="M459 728q-56 0 -96 40q-19 19 -29.5 43.5t-10.5 52.5v13q0 28 10.5 53t29 43.5t43.5 29.5t53 11h137q28 0 53 -11t43.5 -29.5t29.5 -43.5t11 -53v-13q0 -28 -10.5 -52.5t-29.5 -43t-44 -29.5t-53 -11h-137zM428 909q-13 -13 -13 -32v-13q0 -19 12.5 -31.5t31.5 -12.5h137
q19 0 32.5 12.5t13.5 31.5v13q0 19 -13.5 32t-32.5 13h-137q-10 0 -18 -4t-13 -9zM811 20q-49 -20 -106 -20h-308q-60 0 -112 22.5t-91 61.5q-40 40 -62.5 92t-22.5 112v405h110v-405q0 -36 14 -68.5t38 -57t56 -38.5t69 -14h309q30 0 57 9t49 26v-125zM993 693v-405
q0 -69 -28.5 -127t-81.5 -100v632h110z" />
    <glyph glyph-name="Zacute" unicode="&#x179;" horiz-adv-x="1090" 
d="M712 918l-192 -191l-76 76l192 190zM790 584h-694v109h694v-109zM198 4q-27 6 -47 21.5t-33.5 36t-20.5 44.5t-7 48q0 38 14 63t31 40q19 18 45 27q76 26 158 54.5t165 58t165.5 58t158.5 55.5q11 4 22.5 10.5t11.5 23.5v146q37 -6 58.5 -27.5t32.5 -46t14.5 -45.5
t3.5 -26q0 -37 -11.5 -61.5t-25.5 -38.5q-16 -18 -36 -27l-679 -237q-11 -5 -15.5 -13.5t-4.5 -17.5v-146zM270 110h694v-110h-694v110z" />
    <glyph glyph-name="Zdotaccent" unicode="&#x17b;" horiz-adv-x="1090" 
d="M457 878h132v-109h-132v109zM790 584h-694v109h694v-109zM198 4q-27 6 -47 21.5t-33.5 36t-20.5 44.5t-7 48q0 38 14 63t31 40q19 18 45 27q76 26 158 54.5t165 58t165.5 58t158.5 55.5q11 4 22.5 10.5t11.5 23.5v146q37 -6 58.5 -27.5t32.5 -46t14.5 -45.5t3.5 -26
q0 -37 -11.5 -61.5t-25.5 -38.5q-16 -18 -36 -27l-679 -237q-11 -5 -15.5 -13.5t-4.5 -17.5v-146zM270 110h694v-110h-694v110z" />
    <glyph glyph-name="abreve" unicode="&#x103;" horiz-adv-x="1082" 
d="M728 692q47 0 88 -17.5t72 -48t48.5 -71.5t17.5 -88v-467h-107v321h-530q-22 0 -44 -8v113q21 3 41 3h533v38q0 24 -10 45.5t-26 37.5t-37.5 25t-45.5 9h-484v108h484zM775 0h-458q-44 0 -84.5 17t-71.5 46.5t-49.5 68t-18.5 82.5q0 60 30.5 108t78.5 76v-185
q0 -22 9 -41.5t24.5 -33.5t35.5 -22.5t43 -8.5h461v-107zM433 878q0 -19 12.5 -32t31.5 -13h156q18 0 31.5 13t13.5 32v30h92v-30q0 -28 -10.5 -52.5t-29.5 -43t-44 -29.5t-53 -11h-156q-55 0 -96 39q-19 19 -29.5 44t-10.5 53v30h92v-30z" />
    <glyph glyph-name="amacron" unicode="&#x101;" horiz-adv-x="1082" 
d="M728 692q47 0 88 -17.5t72 -48t48.5 -71.5t17.5 -88v-467h-107v321h-530q-22 0 -44 -8v113q21 3 41 3h533v38q0 24 -10 45.5t-26 37.5t-37.5 25t-45.5 9h-484v108h484zM775 0h-458q-44 0 -84.5 17t-71.5 46.5t-49.5 68t-18.5 82.5q0 60 30.5 108t78.5 76v-185
q0 -22 9 -41.5t24.5 -33.5t35.5 -22.5t43 -8.5h461v-107zM329 834h463v-76h-463v76z" />
    <glyph glyph-name="aogonek" unicode="&#x105;" horiz-adv-x="1083" 
d="M728 692q47 0 88 -17.5t72 -48t48.5 -71.5t17.5 -88v-467h-107v321h-530q-22 0 -44 -8v113q21 3 41 3h533v38q0 24 -10 45.5t-26 37.5t-37.5 25t-45.5 9h-484v108h484zM775 0h-458q-44 0 -84.5 17t-71.5 46.5t-49.5 68t-18.5 82.5q0 60 30.5 108t78.5 76v-185
q0 -22 9 -41.5t24.5 -33.5t35.5 -22.5t43 -8.5h461v-107zM878.759 -198.317q-18.4004 0 -35.9248 6.57422t-31.5439 17.9697q-14.0195 11.3965 -22.3438 27.6133t-8.32422 35.502v1.75293q0 29.8037 14.0195 55.6631t36.8018 43.3906l19.2764 17.5322h96.3838
l-72.7256 -69.251q-9.63867 -9.6416 -17.9629 -20.5996q-8.32422 -10.957 -8.32422 -22.3525q0 -5.25977 2.62891 -10.5195q5.25684 -9.6416 12.2666 -11.834q7.00977 -2.19141 18.4014 -3.94434h168.234v-67.4971h-170.863z" />
    <glyph glyph-name="cacute" unicode="&#x107;" horiz-adv-x="1075" 
d="M721 998l-192 -191l-76 76l192 190zM202 84q-40 40 -62.5 92t-22.5 112v118q0 69 29.5 127.5t80.5 97.5v-343q0 -36 14 -68.5t38 -57t56 -38.5t69 -14h583v-110h-581q-60 0 -112.5 22.5t-91.5 61.5zM406 693h581v-109h-581q-37 0 -70 -14v114q33 9 70 9z" />
    <glyph glyph-name="ccaron" unicode="&#x10d;" horiz-adv-x="1143" 
d="M870 966l33 -69l-317 -150l-317 150l33 69l284 -135zM202 84q-40 40 -62.5 92t-22.5 112v118q0 69 29.5 127.5t80.5 97.5v-343q0 -36 14 -68.5t38 -57t56 -38.5t69 -14h583v-110h-581q-60 0 -112.5 22.5t-91.5 61.5zM406 693h581v-109h-581q-37 0 -70 -14v114q33 9 70 9z
" />
    <glyph glyph-name="ccircumflex" unicode="&#x109;" horiz-adv-x="1056" 
d="M586 882l-284 -135l-33 69l317 150l317 -150l-33 -69zM202 84q-40 40 -62.5 92t-22.5 112v118q0 69 29.5 127.5t80.5 97.5v-343q0 -36 14 -68.5t38 -57t56 -38.5t69 -14h583v-110h-581q-60 0 -112.5 22.5t-91.5 61.5zM406 693h581v-109h-581q-37 0 -70 -14v114q33 9 70 9
z" />
    <glyph glyph-name="commaaccent" unicode="&#xf004;" horiz-adv-x="270" 
d="M48 -151l87 186l69 -32l-87 -186z" />
    <glyph glyph-name="commaaccent" unicode="&#xf6c3;" horiz-adv-x="270" 
d="M48 -151l87 186l69 -32l-87 -186z" />
    <glyph glyph-name="dcaron" unicode="&#x10f;" horiz-adv-x="1110" 
d="M798 966l33 -69l-317 -150l-317 150l33 69l284 -135zM756 693q60 0 112.5 -23t91.5 -62t61.5 -91t22.5 -111v-118q0 -69 -30 -127.5t-80 -98.5v346q0 36 -14 68t-38.5 56t-57 38t-68.5 14h-545v-474h547q29 0 55 9t49 26v-125q-51 -20 -106 -20h-654v693h654v0z" />
    <glyph glyph-name="dcroat" unicode="&#x111;" horiz-adv-x="1087" 
d="M756 693q60 0 112.5 -23t91.5 -62t61.5 -91t22.5 -111v-118q0 -69 -30 -127.5t-80 -98.5v346q0 36 -14 68t-38.5 56t-57 38t-68.5 14h-545v-474h547q29 0 55 9t49 26v-125q-51 -20 -106 -20h-654v693h654v0z" />
    <glyph glyph-name="dotlessj" unicode="&#xf6be;" horiz-adv-x="1032" 
d="M174 84q-40 40 -62.5 92t-22.5 112v74h110v-74q0 -36 14 -68.5t38 -57t56 -38.5t69 -14h269q35 0 69 14v-116q-17 -5 -34.5 -6.5t-34.5 -1.5h-268q-60 0 -112 22.5t-91 61.5zM823 693h110v-405q0 -60 -22.5 -112t-62.5 -92l-12 -12t-13 -11v632z" />
    <glyph glyph-name="dotlessj" unicode="&#xfb0f;" horiz-adv-x="1032" 
d="M174 84q-40 40 -62.5 92t-22.5 112v74h110v-74q0 -36 14 -68.5t38 -57t56 -38.5t69 -14h269q35 0 69 14v-116q-17 -5 -34.5 -6.5t-34.5 -1.5h-268q-60 0 -112 22.5t-91 61.5zM823 693h110v-405q0 -60 -22.5 -112t-62.5 -92l-12 -12t-13 -11v632z" />
    <glyph glyph-name="ecaron" unicode="&#x11b;" horiz-adv-x="1094" 
d="M207 26q-45 22 -76 60.5t-31 91.5v305q0 56 29.5 102.5t77.5 74.5v-290h551q22 0 43 8.5t36.5 22.5t25 33.5t9.5 42.5t-9.5 42.5t-25.5 33.5t-37 22t-44 8h-2h-440v108l11 1h433q44 0 84 -17t70.5 -46.5t48.5 -68.5t18 -83q0 -45 -18 -84t-49 -68.5t-72 -46t-86 -16.5
h-547v-81v-155zM960 107v-107h-646v107h646zM816 966l33 -69l-317 -150l-317 150l33 69l284 -135z" />
    <glyph glyph-name="edotaccent" unicode="&#x117;" horiz-adv-x="1069" 
d="M187 26q-45 22 -76 60.5t-31 91.5v305q0 56 29.5 102.5t77.5 74.5v-290h551q22 0 43 8.5t36.5 22.5t25 33.5t9.5 42.5t-9.5 42.5t-25.5 33.5t-37 22t-44 8h-2h-440v108l11 1h433q44 0 84 -17t70.5 -46.5t48.5 -68.5t18 -83q0 -45 -18 -84t-49 -68.5t-72 -46t-86 -16.5
h-547v-81v-155zM940 107v-107h-646v107h646zM465 860h132v-109h-132v109z" />
    <glyph glyph-name="emacron" unicode="&#x113;" horiz-adv-x="1062" 
d="M187 26q-45 22 -76 60.5t-31 91.5v305q0 56 29.5 102.5t77.5 74.5v-290h551q22 0 43 8.5t36.5 22.5t25 33.5t9.5 42.5t-9.5 42.5t-25.5 33.5t-37 22t-44 8h-2h-440v108l11 1h433q44 0 84 -17t70.5 -46.5t48.5 -68.5t18 -83q0 -45 -18 -84t-49 -68.5t-72 -46t-86 -16.5
h-547v-81v-155zM940 107v-107h-646v107h646zM302 824h463v-76h-463v76z" />
    <glyph glyph-name="eogonek" unicode="&#x119;" horiz-adv-x="1122" 
d="M207 26q-45 22 -76 60.5t-31 91.5v305q0 56 29.5 102.5t77.5 74.5v-290h551q22 0 43 8.5t36.5 22.5t25 33.5t9.5 42.5t-9.5 42.5t-25.5 33.5t-37 22t-44 8h-2h-440v108l11 1h433q44 0 84 -17t70.5 -46.5t48.5 -68.5t18 -83q0 -45 -18 -84t-49 -68.5t-72 -46t-86 -16.5
h-547v-81v-155zM960 107v-107h-646v107h646zM523 -234q-21 0 -41 7.5t-36 20.5t-25.5 31.5t-9.5 40.5v2q0 34 16 63.5t42 49.5l22 20h110l-83 -79q-11 -11 -20.5 -23.5t-9.5 -25.5q0 -6 3 -12q6 -11 14 -13.5t21 -4.5h192v-77h-195z" />
    <glyph glyph-name="gbreve" unicode="&#x11f;" horiz-adv-x="1155" 
d="M475 858q0 -19 12.5 -32t31.5 -13h156q18 0 31.5 13t13.5 32v30h92v-30q0 -28 -10.5 -52.5t-29.5 -43t-44 -29.5t-53 -11h-156q-55 0 -96 39q-19 19 -29.5 44t-10.5 53v30h92v-30z" />
    <glyph glyph-name="gcircumflex" unicode="&#x11d;" horiz-adv-x="1155" 
d="M584 882l-284 -135l-33 69l317 150l317 -150l-33 -69z" />
    <glyph glyph-name="gcommaaccent" unicode="&#x123;" horiz-adv-x="1062" 
d="M424 395h522v-395h-560q-58 0 -109.5 22.5t-89.5 60.5t-60.5 88.5t-22.5 107.5v131q0 67 29 124.5t78 95.5v-349q0 -35 13.5 -66.5t37 -55.5t55 -38t67.5 -14h454v181h-414v107zM946 692v-108h-560q-29 0 -55.5 -9t-48.5 -25v122q49 20 104 20h560zM496 -217l87 186
l69 -32l-87 -186z" />
    <glyph glyph-name="hcircumflex" unicode="&#x125;" horiz-adv-x="1163" 
d="M206 585v-585h-107v832h107v-139h437q67 0 124.5 -29t95.5 -79h-657zM904 514q20 -49 20 -104v-410h-107v410q0 29 -9 55.5t-25 48.5h121zM563 882l-284 -135l-33 69l317 150l317 -150l-33 -69z" />
    <glyph glyph-name="imacron" unicode="&#x12b;" horiz-adv-x="465" 
d="M-90 814h463v-76h-463v76zM100 0v693h110v-693h-110z" />
    <glyph glyph-name="iogonek" unicode="&#x12f;" horiz-adv-x="241" 
d="M100 0v693h110v-693h-110zM121.762 -175.084q-15.5283 0 -30.3174 5.55371q-14.7891 5.55273 -26.6201 15.1787q-11.8311 9.625 -18.8555 23.3232q-7.02441 13.6973 -7.02441 29.9863v1.48145q0 25.1738 11.8311 47.0166q11.8311 21.8418 31.0566 36.6504
l16.2676 14.8086h81.3379l-61.373 -58.4932q-8.13379 -8.14453 -15.1592 -17.4004q-7.02441 -9.25488 -7.02441 -18.8799q0 -4.44336 2.21875 -8.88574q4.43652 -8.14453 10.3516 -9.99512q5.91602 -1.85156 15.5283 -3.33203h141.973v-57.0127h-144.19z" />
    <glyph glyph-name="jcircumflex" unicode="&#x135;" horiz-adv-x="1060" 
d="M743 20q-49 -20 -102 -20h-262q-59 0 -110 22t-89 60q-39 39 -61 90.5t-22 108.5v74h107v-74q0 -35 13.5 -66.5t37 -55.5t55 -38t67.5 -14h264q29 0 54.5 9t47.5 25v-121zM922 692v-411q0 -57 -22 -108.5t-61 -90.5l-24 -21v523h-604v108h711zM579 880l-284 -135l-33 69
l317 150l317 -150l-33 -69z" />
    <glyph glyph-name="kcommaaccent" unicode="&#x137;" horiz-adv-x="1087" 
d="M745 386q45 -12 83 -38t65.5 -62t43 -80t15.5 -92v-114h-107v116q0 35 -14 66.5t-38 55t-55.5 37t-67.5 13.5h-391v108h332q61 72 123.5 148t122.5 148h146zM207 0h-107v692h107v-692zM412 -151l87 186l69 -32l-87 -186z" />
    <glyph glyph-name="lcaron" unicode="&#x13e;" horiz-adv-x="993" 
d="M200 62q-52 37 -81 98.5t-29 128.5v404h110v-631zM949 110v-110h-571q-29 0 -55.5 5.5t-51.5 15.5v126q22 -17 49 -27t58 -10h571zM422 954l33 -69l-317 -150l-317 150l33 69l284 -135z" />
    <glyph glyph-name="nacute" unicode="&#x144;" horiz-adv-x="1027" 
d="M207 584v-584h-107v693h564q67 0 124.5 -29.5t95.5 -79.5h-677zM925 514q20 -49 20 -104v-410h-107v410q0 29 -9 55.5t-25 48.5h121zM643 988l-192 -191l-76 76l192 190z" />
    <glyph glyph-name="ncaron" unicode="&#x148;" horiz-adv-x="1031" 
d="M207 584v-584h-107v693h564q67 0 124.5 -29.5t95.5 -79.5h-677zM925 514q20 -49 20 -104v-410h-107v410q0 29 -9 55.5t-25 48.5h121zM774 966l33 -69l-317 -150l-317 150l33 69l284 -135z" />
    <glyph glyph-name="ncommaaccent" unicode="&#x146;" horiz-adv-x="1041" 
d="M207 584v-584h-107v693h564q67 0 124.5 -29.5t95.5 -79.5h-677zM925 514q20 -49 20 -104v-410h-107v410q0 29 -9 55.5t-25 48.5h121zM425 -151l87 186l69 -32l-87 -186z" />
    <glyph glyph-name="ohungarumlaut" unicode="&#x151;" horiz-adv-x="1224" 
d="M657 906l-190 -189l-54 54l190 189zM877 906l-190 -189l-54 54l190 189zM897 19q-24 -9 -50 -14t-53 -5h-414q-58 0 -109 22t-89.5 60.5t-60.5 89.5t-22 109v130q0 67 28.5 124.5t78.5 96.5v-351q0 -36 14 -67.5t37.5 -55t55 -37.5t67.5 -14h414q29 0 55 9t48 25v-122z
M794 693q58 0 109.5 -22.5t90 -60.5t60.5 -89.5t22 -109.5v-130q0 -67 -29 -124.5t-78 -95.5v350q0 36 -14 67.5t-37.5 55t-55.5 37.5t-68 14h-414q-29 0 -55 -9t-48 -25v123q24 9 49.5 14t53.5 5h414z" />
    <glyph glyph-name="omacron" unicode="&#x14d;" horiz-adv-x="1224" 
d="M411 824h463v-76h-463v76zM897 19q-24 -9 -50 -14t-53 -5h-414q-58 0 -109 22t-89.5 60.5t-60.5 89.5t-22 109v130q0 67 28.5 124.5t78.5 96.5v-351q0 -36 14 -67.5t37.5 -55t55 -37.5t67.5 -14h414q29 0 55 9t48 25v-122zM794 693q58 0 109.5 -22.5t90 -60.5t60.5 -89.5
t22 -109.5v-130q0 -67 -29 -124.5t-78 -95.5v350q0 36 -14 67.5t-37.5 55t-55.5 37.5t-68 14h-414q-29 0 -55 -9t-48 -25v123q24 9 49.5 14t53.5 5h414z" />
    <glyph glyph-name="racute" unicode="&#x155;" horiz-adv-x="953" 
d="M209 0h-110v404q0 70 29.5 128t80.5 99v-631zM387 583q-31 0 -58 -10t-49 -27v126q25 10 51.5 15.5t55.5 5.5h571v-110h-571zM681 918l-192 -191l-76 76l192 190z" />
    <glyph glyph-name="rcaron" unicode="&#x159;" horiz-adv-x="953" 
d="M209 0h-110v404q0 70 29.5 128t80.5 99v-631zM387 583q-31 0 -58 -10t-49 -27v126q25 10 51.5 15.5t55.5 5.5h571v-110h-571zM811 966l33 -69l-317 -150l-317 150l33 69l284 -135z" />
    <glyph glyph-name="rcommaaccent" unicode="&#x157;" horiz-adv-x="890" 
d="M209 0h-110v404q0 70 29.5 128t80.5 99v-631zM387 583q-31 0 -58 -10t-49 -27v126q25 10 51.5 15.5t55.5 5.5h571v-110h-571zM48 -206l87 186l69 -32l-87 -186z" />
    <glyph glyph-name="sacute" unicode="&#x15b;" horiz-adv-x="1018" 
d="M654 918l-192 -191l-76 76l192 190zM246 694l19 1h644v-109h-644q-5 0 -9.5 -0.5t-9.5 -1.5v110zM745 402q41 0 77.5 -16t63.5 -43t43 -63.5t16 -77.5q0 -60 -30.5 -108t-79.5 -73v180q0 38 -26 64.5t-64 26.5h-480q-41 0 -77.5 15.5t-64 43t-43.5 64t-16 78.5
q0 60 30 107t80 73v-178q3 -39 28.5 -66t62.5 -27h480zM763 1q-5 -1 -9 -1h-9h-645v110h645h9t9 2v-111z" />
    <glyph glyph-name="scedilla" unicode="&#x15f;" horiz-adv-x="1094" 
d="M323 -258v103h112q17 0 27.5 12.5t10.5 28.5v115h103v-115q0 -28 -11.5 -54t-31 -46t-45.5 -32t-56 -12h-109z" />
    <glyph glyph-name="scedilla" unicode="&#xf6c2;" horiz-adv-x="1094" 
d="M323 -258v103h112q17 0 27.5 12.5t10.5 28.5v115h103v-115q0 -28 -11.5 -54t-31 -46t-45.5 -32t-56 -12h-109z" />
    <glyph glyph-name="scircumflex" unicode="&#x15d;" horiz-adv-x="1074" 
d="M525 882l-284 -135l-33 69l317 150l317 -150l-33 -69zM246 694l19 1h644v-109h-644q-5 0 -9.5 -0.5t-9.5 -1.5v110zM745 402q41 0 77.5 -16t63.5 -43t43 -63.5t16 -77.5q0 -60 -30.5 -108t-79.5 -73v180q0 38 -26 64.5t-64 26.5h-480q-41 0 -77.5 15.5t-64 43t-43.5 64
t-16 78.5q0 60 30 107t80 73v-178q3 -39 28.5 -66t62.5 -27h480zM763 1q-5 -1 -9 -1h-9h-645v110h645h9t9 2v-111z" />
    <glyph glyph-name="scommaaccent" unicode="&#x219;" horiz-adv-x="1075" 
d="M246 694l19 1h644v-109h-644q-5 0 -9.5 -0.5t-9.5 -1.5v110zM745 402q41 0 77.5 -16t63.5 -43t43 -63.5t16 -77.5q0 -60 -30.5 -108t-79.5 -73v180q0 38 -26 64.5t-64 26.5h-480q-41 0 -77.5 15.5t-64 43t-43.5 64t-16 78.5q0 60 30 107t80 73v-178q3 -39 28.5 -66
t62.5 -27h480zM763 1q-5 -1 -9 -1h-9h-645v110h645h9t9 2v-111zM415 -223l87 186l69 -32l-87 -186z" />
    <glyph glyph-name="tcommaaccent" unicode="&#x21b;" horiz-adv-x="1043" 
d="M481 61q-51 39 -79 96.5t-28 124.5v519h107v-109h613v-108h-613v-523zM1215 107v-107h-560q-54 0 -103 20v120q22 -15 48 -24t55 -9h560zM459 -217l87 186l69 -32l-87 -186z" />
    <glyph glyph-name="ubreve" unicode="&#x16d;" horiz-adv-x="1163" 
d="M207 61q-49 39 -78 97t-29 125v410h107v-632zM945 693v-693h-564q-54 0 -103 20v122q22 -16 47.5 -25t53.5 -9h459v585h107zM409 848q0 -19 12.5 -32t31.5 -13h156q18 0 31.5 13t13.5 32v30h92v-30q0 -28 -10.5 -52.5t-29.5 -43t-44 -29.5t-53 -11h-156q-55 0 -96 39
q-19 19 -29.5 44t-10.5 53v30h92v-30z" />
    <glyph glyph-name="uhungarumlaut" unicode="&#x171;" horiz-adv-x="1107" 
d="M207 61q-49 39 -78 97t-29 125v410h107v-632zM945 693v-693h-564q-54 0 -103 20v122q22 -16 47.5 -25t53.5 -9h459v585h107zM579 887l-190 -189l-54 54l190 189zM799 887l-190 -189l-54 54l190 189z" />
    <glyph glyph-name="umacron" unicode="&#x16b;" horiz-adv-x="1036" 
d="M207 61q-49 39 -78 97t-29 125v410h107v-632zM945 693v-693h-564q-54 0 -103 20v122q22 -16 47.5 -25t53.5 -9h459v585h107zM302 814h463v-76h-463v76z" />
    <glyph glyph-name="uogonek" unicode="&#x173;" horiz-adv-x="1163" 
d="M207 61q-49 39 -78 97t-29 125v410h107v-632zM945 693v-693h-564q-54 0 -103 20v122q22 -16 47.5 -25t53.5 -9h459v585h107zM539 -219q-21 0 -41 7.5t-36 20.5t-25.5 31.5t-9.5 40.5v2q0 34 16 63.5t42 49.5l22 20h110l-83 -79q-11 -11 -20.5 -23.5t-9.5 -25.5
q0 -6 3 -12q6 -11 14 -13.5t21 -4.5h192v-77h-195z" />
    <glyph glyph-name="uring" unicode="&#x16f;" horiz-adv-x="1163" 
d="M207 61q-49 39 -78 97t-29 125v410h107v-632zM945 693v-693h-564q-54 0 -103 20v122q22 -16 47.5 -25t53.5 -9h459v585h107zM465 731q-56 0 -96 40q-19 19 -29.5 43.5t-10.5 52.5v13q0 28 10.5 53t29 43.5t43.5 29.5t53 11h137q28 0 53 -11t43.5 -29.5t29.5 -43.5t11 -53
v-13q0 -28 -10.5 -52.5t-29.5 -43t-44 -29.5t-53 -11h-137zM434 912q-13 -13 -13 -32v-13q0 -19 12.5 -31.5t31.5 -12.5h137q19 0 32.5 12.5t13.5 31.5v13q0 19 -13.5 32t-32.5 13h-137q-10 0 -18 -4t-13 -9z" />
    <glyph glyph-name="zacute" unicode="&#x17a;" horiz-adv-x="1090" 
d="M687 584h-585v109h744zM1020 107v-107h-920v100l11 7h196h713zM974 693h59v-95l-620 -420h-196zM703 916l-192 -191l-76 76l192 190z" />
    <glyph glyph-name="zdotaccent" unicode="&#x17c;" horiz-adv-x="1090" 
d="M484 900h132v-109h-132v109zM687 584h-585v109h744zM1020 107v-107h-920v100l11 7h196h713zM974 693h59v-95l-620 -420h-196z" />
    <glyph glyph-name="S" unicode="S" horiz-adv-x="1018" 
d="M246 694l19 1h644v-109h-644q-5 0 -9.5 -0.5t-9.5 -1.5v110zM745 402q41 0 77.5 -16t63.5 -43t43 -63.5t16 -77.5q0 -60 -30.5 -108t-79.5 -73v180q0 38 -26 64.5t-64 26.5h-480q-41 0 -77.5 15.5t-64 43t-43.5 64t-16 78.5q0 60 30 107t80 73v-178q3 -39 28.5 -66
t62.5 -27h480zM763 1q-5 -1 -9 -1h-9h-645v110h645h9t9 2v-111z" />
    <glyph glyph-name="R" unicode="R" horiz-adv-x="1131" 
d="M208 0h-108v693h108v-693zM1064 0h-138l-190 254h-456v110h525q23 0 44.5 8.5t37.5 23.5t25.5 35t9.5 43t-10 43t-26.5 35t-38 23.5t-45.5 8.5h-522v109h522q70 0 126 -36q47 -29 75 -77.5t28 -105.5q0 -84 -41.5 -135t-123.5 -75z" />
    <glyph glyph-name="H" unicode="H" horiz-adv-x="1015" 
d="M210 0h-110v693h110v-693zM318 428h513v265h111v-693h-111v317h-512z" />
    <glyph glyph-name="I" unicode="I" horiz-adv-x="318" 
d="M100 0v693h110v-693h-110z" />
    <glyph glyph-name="O" unicode="O" horiz-adv-x="1131" 
d="M886 19q-24 -9 -50 -14t-53 -5h-414q-58 0 -109 22t-89.5 60.5t-60.5 89.5t-22 109v130q0 67 28.5 124.5t78.5 96.5v-351q0 -36 14 -67.5t37.5 -55t55 -37.5t67.5 -14h414q29 0 55 9t48 25v-122zM783 693q58 0 109.5 -22.5t90 -60.5t60.5 -89.5t22 -109.5v-130
q0 -67 -29 -124.5t-78 -95.5v350q0 36 -14 67.5t-37.5 55t-55.5 37.5t-68 14h-414q-29 0 -55 -9t-48 -25v123q24 9 49.5 14t53.5 5h414z" />
    <glyph glyph-name="o" unicode="o" horiz-adv-x="1165" 
d="M159 585q39 50 96.5 79t124.5 29h414q58 0 109.5 -22.5t90 -60.5t60.5 -89.5t22 -109.5v-130q0 -53 -19 -102h-122q34 43 34 102v130q0 36 -14 67.5t-37.5 55t-55.5 37.5t-68 14h-414h-221zM1016 107q-39 -49 -96.5 -78t-125.5 -29h-414q-58 0 -109 22t-89.5 60.5
t-60.5 89.5t-22 109v130q0 53 20 102h121q-16 -22 -25 -47.5t-9 -54.5v-130q0 -36 14 -67.5t37.5 -55t55 -37.5t67.5 -14h414h222z" />
    <glyph glyph-name="T" unicode="T" horiz-adv-x="944" 
d="M522 512v-512h-109v512h109zM896 693v-109h-857v109h857z" />
    <glyph glyph-name="N" unicode="N" horiz-adv-x="1094" 
d="M998 695v-566q-6 -50 -37 -84t-73 -46v696h110zM209 0h-109v562q1 23 5 45.5t15 41.5t32 32t57 18v-699zM816 -4q-46 8 -83 51q-114 134 -226.5 266t-226.5 266v120q24 -4 46.5 -16.5t40.5 -33.5q112 -134 223.5 -266t225.5 -265v-122z" />
    <glyph glyph-name="D" unicode="D" horiz-adv-x="1085" 
d="M756 693q60 0 112.5 -23t91.5 -62t61.5 -91t22.5 -111v-118q0 -69 -30 -127.5t-80 -98.5v346q0 36 -14 68t-38.5 56t-57 38t-68.5 14h-545v-474h547q29 0 55 9t49 26v-125q-51 -20 -106 -20h-654v693h654v0z" />
    <glyph glyph-name="E" unicode="E" horiz-adv-x="1062" 
d="M206 401h750v-110h-750v-229q-51 40 -80.5 98.5t-29.5 127.5v118q0 69 29.5 127t80.5 98v-230zM956 693v-109h-572q-30 0 -57 -9.5t-49 -25.5v123q25 10 51.5 15.5t54.5 5.5h572zM278 145q22 -17 49 -26t57 -9h572v-110h-572q-55 0 -106 20v125z" />
    <glyph glyph-name="G" unicode="G" horiz-adv-x="1088" 
d="M261 672q49 21 106 21h446v-109h-446q-29 0 -56 -9.5t-50 -26.5v124zM1005 404v-116q0 -59 -22.5 -111.5t-61.5 -91.5t-91.5 -62t-112.5 -23h-350q-59 0 -111 22.5t-91 61.5t-62 91.5t-23 112.5v118q0 68 29.5 126.5t79.5 98.5v-343q0 -36 14 -68.5t38 -57t56 -38.5
t68 -14h352q36 0 68.5 14t56.5 38t38.5 56t14.5 68v8h-299v110h409z" />
    <glyph glyph-name="U" unicode="U" horiz-adv-x="1076" 
d="M811 20q-49 -20 -106 -20h-308q-60 0 -112 22.5t-91 61.5q-40 40 -62.5 92t-22.5 112v405h110v-405q0 -36 14 -68.5t38 -57t56 -38.5t69 -14h309q30 0 57 9t49 26v-125zM993 693v-405q0 -69 -28.5 -127t-81.5 -100v632h110z" />
    <glyph glyph-name="C" unicode="C" horiz-adv-x="1050" 
d="M171 84q-40 40 -62.5 92t-22.5 112v118q0 69 29.5 127.5t80.5 97.5v-343q0 -36 14 -68.5t38 -57t56 -38.5t69 -14h583v-110h-581q-60 0 -112.5 22.5t-91.5 61.5zM375 693h581v-109h-581q-37 0 -70 -14v114q33 9 70 9z" />
    <glyph glyph-name="P" unicode="P" horiz-adv-x="1111" 
d="M835 268q-25 -5 -47 -5h-579v-263h-109v693h109v-323h581q24 0 45 9v-111zM793 693q44 0 84 -17t70 -46.5t48 -68.5t18 -83q0 -58 -29.5 -105.5t-77.5 -76.5v182q0 21 -10 40t-26 34t-37.5 24t-44.5 9h-507v108h512z" />
    <glyph glyph-name="Q" unicode="Q" horiz-adv-x="1264" 
d="M279 675q51 20 105 20h487q60 0 112.5 -22.5t91.5 -61.5t61.5 -91.5t22.5 -111.5v-120q0 -58 -19 -106h-125q34 46 34 106v120q0 36 -14 68.5t-38 57t-56.5 38.5t-69.5 14h-487q-29 0 -55.5 -9t-49.5 -26v124zM1219 110v-110h-835q-59 0 -111.5 22.5t-91.5 61.5
t-61.5 91.5t-22.5 112.5v120q0 69 30 127.5t80 98.5v-346q0 -37 14 -69.5t38 -56.5t56.5 -38t68.5 -14h835z" />
    <glyph glyph-name="J" unicode="J" 
d="M185 84q-40 40 -62.5 92t-22.5 112v74h110v-74q0 -36 14 -68.5t38 -57t56 -38.5t69 -14h269q35 0 69 14v-116q-17 -5 -34.5 -6.5t-34.5 -1.5h-268q-60 0 -112 22.5t-91 61.5zM834 693h110v-405q0 -60 -22.5 -112t-62.5 -92l-12 -12t-13 -11v632z" />
    <glyph glyph-name="L" unicode="L" horiz-adv-x="980" 
d="M200 62q-52 37 -81 98.5t-29 128.5v404h110v-631zM949 110v-110h-571q-29 0 -55.5 5.5t-51.5 15.5v126q22 -17 49 -27t58 -10h571z" />
    <glyph glyph-name="F" unicode="F" horiz-adv-x="1033" 
d="M210 398h707v-109h-707v-289h-110v405q0 60 22.5 112t61.5 91q12 12 26 23v-226v-7zM959 693v-109h-571q-36 0 -69 -14v115q35 8 69 8h571z" />
    <glyph glyph-name="A" unicode="A" horiz-adv-x="1127" 
d="M930 609q39 -40 62 -92t23 -111v-406h-110v301h-696v-301h-109v406q0 69 29.5 127t79.5 98v-220h696q-1 35 -15.5 66.5t-38.5 55t-56 37.5t-68 14h-342q-29 0 -55.5 -9.5t-48.5 -26.5v124q49 21 106 21h340q59 0 111 -22.5t92 -61.5z" />
    <glyph glyph-name="Z" unicode="Z" horiz-adv-x="1049" 
d="M790 584h-694v109h694v-109zM198 4q-27 6 -47 21.5t-33.5 36t-20.5 44.5t-7 48q0 38 14 63t31 40q19 18 45 27q76 26 158 54.5t165 58t165.5 58t158.5 55.5q11 4 22.5 10.5t11.5 23.5v146q37 -6 58.5 -27.5t32.5 -46t14.5 -45.5t3.5 -26q0 -37 -11.5 -61.5t-25.5 -38.5
q-16 -18 -36 -27l-679 -237q-11 -5 -15.5 -13.5t-4.5 -17.5v-146zM270 110h694v-110h-694v110z" />
    <glyph glyph-name="M" unicode="M" horiz-adv-x="1217" 
d="M724 77q-7 -14 -16 -28t-20.5 -25t-25.5 -18t-29 -7h-16q-34 2 -54.5 17t-35.5 47l-302 628q10 2 16 2h9q25 0 47 -7.5t40 -19.5t30.5 -27t20.5 -30q62 -129 119 -250t115 -243q58 121 115.5 240t115.5 239q23 48 64.5 72.5t84.5 24.5l14 -1l-61 -131q-2 -2 -4 -6z
M100 555q0 31 16.5 59t42.5 48l52 -107q-1 -1 -1 -4v-551h-110v555zM1083 665q25 -19 40.5 -47t20.5 -61v-557h-109v551q0 6 -1 9z" />
    <glyph glyph-name="Y" unicode="Y" 
d="M460 0v208h-82q-18 0 -35 1.5t-34 6.5v115q30 -13 68 -13h269q36 0 68.5 14t57 38t38.5 56t14 68v199h110v-197q0 -60 -22.5 -112t-62.5 -92q-39 -39 -91 -61.5t-112 -22.5h-76v-208h-110zM175 292q-40 40 -62.5 92t-22.5 112v197h110v-424q-7 5 -13 11z" />
    <glyph glyph-name="X.001" horiz-adv-x="833" 
 />
    <glyph glyph-name="X" unicode="X" 
d="M924 222q20 -51 20 -106v-116h-110v116q0 29 -9 56t-26 50h125zM120 475q-20 51 -20 107v111h110v-111q0 -30 9 -57t26 -50h-125zM944 693v-111q0 -60 -22.5 -112t-62.5 -92q-9 -8 -17 -15.5t-17 -14.5q11 -7 18.5 -13.5t15.5 -14.5q6 -7 12 -13t11 -13h-495
q-36 0 -68 -14t-56.5 -38t-38.5 -56t-14 -68v-118h-110v116q0 60 22.5 112t62.5 92q8 8 16.5 15.5t16.5 13.5q-17 13 -30 25.5t-26 29.5h502q35 0 66 14.5t54 38.5t36.5 56t13.5 67v113h110z" />
    <glyph glyph-name="B" unicode="B" horiz-adv-x="1062" 
d="M929 357q32 -29 50 -67.5t18 -82.5q0 -57 -30.5 -104.5t-78.5 -73.5v178q0 19 -9 37t-23.5 31t-33.5 21t-40 8h-573v-194h573q17 0 34 6v-113q-18 -3 -36 -3h-680v693h677q19 0 39 -3v-112q-20 6 -39 6h-568v-170h572q18 0 37 6t34.5 17t25.5 26.5t10 34.5v170
q48 -23 78.5 -69.5t30.5 -99.5q0 -40 -17.5 -78t-50.5 -64z" />
    <glyph glyph-name="g" unicode="g" horiz-adv-x="1062" 
d="M424 395h522v-395h-560q-58 0 -109.5 22.5t-89.5 60.5t-60.5 88.5t-22.5 107.5v131q0 67 29 124.5t78 95.5v-349q0 -35 13.5 -66.5t37 -55.5t55 -38t67.5 -14h454v181h-414v107zM946 692v-108h-560q-29 0 -55.5 -9t-48.5 -25v122q49 20 104 20h560z" />
    <glyph glyph-name="K" unicode="K" horiz-adv-x="1078" 
d="M961 586q0 -72 -33 -133t-87 -100q54 -40 87 -101.5t33 -132.5v-119h-110v119q0 37 -14.5 69.5t-38.5 56.5t-56.5 38t-69.5 14h-390v111h390q37 0 69.5 14t57 38t38.5 56.5t14 69.5v107h110v-107zM210 0h-110v693h110v-693z" />
    <glyph glyph-name="V" unicode="V" horiz-adv-x="1108" 
d="M584 199q92 122 184 248t183 246h136l-438 -583zM605 50l-37 -49h-57l-513 692h134z" />
    <glyph glyph-name="W" unicode="W" horiz-adv-x="1658" 
d="M210 62q-51 40 -80.5 98.5t-29.5 127.5v405h110v-631zM878 62q-16 12 -29 26.5t-26 29.5q-41 -54 -101 -86t-132 -32h-202q-56 0 -107 20v125q23 -17 50 -26t57 -9h202q38 0 70 14t56 38t38 56.5t14 69.5v405h110v-405v-226zM1546 693v-405q0 -59 -23 -111.5t-62 -91.5
t-91.5 -62t-112.5 -23h-201q-56 0 -107 20v125q23 -17 50 -26t57 -9h203q37 0 69 14t56 38t38 56.5t14 69.5v405h110z" />
    <glyph glyph-name="afii10017" unicode="&#x410;" horiz-adv-x="1071" 
d="M930 609q39 -40 62 -92t23 -111v-406h-110v301h-696v-301h-109v406q0 69 29.5 127t79.5 98v-220h696q-1 35 -15.5 66.5t-38.5 55t-56 37.5t-68 14h-342q-29 0 -55.5 -9.5t-48.5 -26.5v124q49 21 106 21h340q59 0 111 -22.5t92 -61.5z" />
    <glyph glyph-name="afii10019" unicode="&#x412;" horiz-adv-x="1062" 
d="M929 357q32 -29 50 -67.5t18 -82.5q0 -57 -30.5 -104.5t-78.5 -73.5v178q0 19 -9 37t-23.5 31t-33.5 21t-40 8h-573v-194h573q17 0 34 6v-113q-18 -3 -36 -3h-680v693h677q19 0 39 -3v-112q-20 6 -39 6h-568v-170h572q18 0 37 6t34.5 17t25.5 26.5t10 34.5v170
q48 -23 78.5 -69.5t30.5 -99.5q0 -40 -17.5 -78t-50.5 -64z" />
    <glyph glyph-name="afii10022" unicode="&#x415;" horiz-adv-x="1062" 
d="M206 401h750v-110h-750v-229q-51 40 -80.5 98.5t-29.5 127.5v118q0 69 29.5 127t80.5 98v-230zM956 693v-109h-572q-30 0 -57 -9.5t-49 -25.5v123q25 10 51.5 15.5t54.5 5.5h572zM278 145q22 -17 49 -26t57 -9h572v-110h-572q-55 0 -106 20v125z" />
    <glyph glyph-name="afii10070" unicode="&#x435;" horiz-adv-x="1088" 
d="M207 26q-45 22 -76 60.5t-31 91.5v305q0 56 29.5 102.5t77.5 74.5v-290h551q22 0 43 8.5t36.5 22.5t25 33.5t9.5 42.5t-9.5 42.5t-25.5 33.5t-37 22t-44 8h-2h-440v108l11 1h433q44 0 84 -17t70.5 -46.5t48.5 -68.5t18 -83q0 -45 -18 -84t-49 -68.5t-72 -46t-86 -16.5
h-547v-81v-155zM960 107v-107h-646v107h646z" />
    <glyph glyph-name="afii10080" unicode="&#x43e;" horiz-adv-x="1248" 
d="M897 19q-24 -9 -50 -14t-53 -5h-414q-58 0 -109 22t-89.5 60.5t-60.5 89.5t-22 109v130q0 67 28.5 124.5t78.5 96.5v-351q0 -36 14 -67.5t37.5 -55t55 -37.5t67.5 -14h414q29 0 55 9t48 25v-122zM794 693q58 0 109.5 -22.5t90 -60.5t60.5 -89.5t22 -109.5v-130
q0 -67 -29 -124.5t-78 -95.5v350q0 36 -14 67.5t-37.5 55t-55.5 37.5t-68 14h-414q-29 0 -55 -9t-48 -25v123q24 9 49.5 14t53.5 5h414z" />
    <glyph glyph-name="afii10082" unicode="&#x440;" horiz-adv-x="1111" 
d="M209 0h-109v692h693q11 0 21 -1t20 -3v-113q-21 9 -46 9h-579v-584zM906 660q48 -29 77.5 -77.5t29.5 -105.5q0 -45 -18.5 -84t-49.5 -68.5t-72 -46t-85 -16.5h-507v107h509q23 0 44 8.5t37 23t25.5 34t9.5 41.5v184z" />
    <glyph glyph-name="afii10034" unicode="&#x420;" horiz-adv-x="1111" 
d="M209 0h-109v692h693q11 0 21 -1t20 -3v-113q-21 9 -46 9h-579v-584zM906 660q48 -29 77.5 -77.5t29.5 -105.5q0 -45 -18.5 -84t-49.5 -68.5t-72 -46t-85 -16.5h-507v107h509q23 0 44 8.5t37 23t25.5 34t9.5 41.5v184z" />
    <glyph glyph-name="afii10035" unicode="&#x421;" horiz-adv-x="1034" 
d="M171 84q-40 40 -62.5 92t-22.5 112v118q0 69 29.5 127.5t80.5 97.5v-343q0 -36 14 -68.5t38 -57t56 -38.5t69 -14h583v-110h-581q-60 0 -112.5 22.5t-91.5 61.5zM375 693h581v-109h-581q-37 0 -70 -14v114q33 9 70 9z" />
    <glyph glyph-name="afii10036" unicode="&#x422;" horiz-adv-x="1031" 
d="M568 512v-512h-109v512h109zM942 693v-109h-857v109h857z" />
    <glyph glyph-name="afii10084" unicode="&#x442;" horiz-adv-x="1508" 
d="M1272 631q49 -38 78 -95.5t29 -125.5v-410h-107v410v221zM655 692h443q27 0 52.5 -5t49.5 -14v-122q-22 16 -47 25t-53 9h-337v-585h-108v585v107zM99 0v692h484v-107h-377v-585h-107z" />
    <glyph glyph-name="afii10032" unicode="&#x41e;" horiz-adv-x="1248" 
d="M897 19q-24 -9 -50 -14t-53 -5h-414q-58 0 -109 22t-89.5 60.5t-60.5 89.5t-22 109v130q0 67 28.5 124.5t78.5 96.5v-351q0 -36 14 -67.5t37.5 -55t55 -37.5t67.5 -14h414q29 0 55 9t48 25v-122zM794 693q58 0 109.5 -22.5t90 -60.5t60.5 -89.5t22 -109.5v-130
q0 -67 -29 -124.5t-78 -95.5v350q0 36 -14 67.5t-37.5 55t-55.5 37.5t-68 14h-414q-29 0 -55 -9t-48 -25v123q24 9 49.5 14t53.5 5h414z" />
    <glyph glyph-name="afii10031" unicode="&#x41d;" horiz-adv-x="1015" 
d="M210 0h-110v693h110v-693zM318 428h513v265h111v-693h-111v317h-512z" />
    <glyph glyph-name="afii10030" unicode="&#x41c;" horiz-adv-x="1217" 
d="M724 77q-7 -14 -16 -28t-20.5 -25t-25.5 -18t-29 -7h-16q-34 2 -54.5 17t-35.5 47l-302 628q10 2 16 2h9q25 0 47 -7.5t40 -19.5t30.5 -27t20.5 -30q62 -129 119 -250t115 -243q58 121 115.5 240t115.5 239q23 48 64.5 72.5t84.5 24.5l14 -1l-61 -131q-2 -2 -4 -6z
M100 555q0 31 16.5 59t42.5 48l52 -107q-1 -1 -1 -4v-551h-110v555zM1083 665q25 -19 40.5 -47t20.5 -61v-557h-109v551q0 6 -1 9z" />
    <glyph glyph-name="afii10065" unicode="&#x430;" horiz-adv-x="1083" 
d="M728 692q47 0 88 -17.5t72 -48t48.5 -71.5t17.5 -88v-467h-107v321h-530q-22 0 -44 -8v113q21 3 41 3h533v38q0 24 -10 45.5t-26 37.5t-37.5 25t-45.5 9h-484v108h484zM775 0h-458q-44 0 -84.5 17t-71.5 46.5t-49.5 68t-18.5 82.5q0 60 30.5 108t78.5 76v-185
q0 -22 9 -41.5t24.5 -33.5t35.5 -22.5t43 -8.5h461v-107z" />
    <glyph glyph-name="afii10083" unicode="&#x441;" horiz-adv-x="1034" 
d="M202 84q-40 40 -62.5 92t-22.5 112v118q0 69 29.5 127.5t80.5 97.5v-343q0 -36 14 -68.5t38 -57t56 -38.5t69 -14h583v-110h-581q-60 0 -112.5 22.5t-91.5 61.5zM406 693h581v-109h-581q-37 0 -70 -14v114q33 9 70 9z" />
    <glyph glyph-name="afii10087" unicode="&#x445;" 
d="M934 222q20 -51 20 -106v-116h-110v116q0 29 -9 56t-26 50h125zM130 475q-20 51 -20 107v111h110v-111q0 -30 9 -57t26 -50h-125zM954 693v-111q0 -60 -22.5 -112t-62.5 -92q-9 -8 -17 -15.5t-17 -14.5q11 -7 18.5 -13.5t15.5 -14.5q6 -7 12 -13t11 -13h-495
q-36 0 -68 -14t-56.5 -38t-38.5 -56t-14 -68v-118h-110v116q0 60 22.5 112t62.5 92q8 8 16.5 15.5t16.5 13.5q-17 13 -30 25.5t-26 29.5h502q35 0 66 14.5t54 38.5t36.5 56t13.5 67v113h110z" />
    <glyph glyph-name="afii10039" unicode="&#x425;" 
d="M924 222q20 -51 20 -106v-116h-110v116q0 29 -9 56t-26 50h125zM120 475q-20 51 -20 107v111h110v-111q0 -30 9 -57t26 -50h-125zM944 693v-111q0 -60 -22.5 -112t-62.5 -92q-9 -8 -17 -15.5t-17 -14.5q11 -7 18.5 -13.5t15.5 -14.5q6 -7 12 -13t11 -13h-495
q-36 0 -68 -14t-56.5 -38t-38.5 -56t-14 -68v-118h-110v116q0 60 22.5 112t62.5 92q8 8 16.5 15.5t16.5 13.5q-17 13 -30 25.5t-26 29.5h502q35 0 66 14.5t54 38.5t36.5 56t13.5 67v113h110z" />
    <glyph glyph-name="afii10028" unicode="&#x41a;" horiz-adv-x="1078" 
d="M961 586q0 -72 -33 -133t-87 -100q54 -40 87 -101.5t33 -132.5v-119h-110v119q0 37 -14.5 69.5t-38.5 56.5t-56.5 38t-69.5 14h-390v111h390q37 0 69.5 14t57 38t38.5 56.5t14 69.5v107h110v-107zM210 0h-110v693h110v-693z" />
    <glyph glyph-name="afii10076" unicode="&#x43a;" horiz-adv-x="1087" 
d="M745 386q45 -12 83 -38t65.5 -62t43 -80t15.5 -92v-114h-107v116q0 35 -14 66.5t-38 55t-55.5 37t-67.5 13.5h-391v108h332q61 72 123.5 148t122.5 148h146zM207 0h-107v692h107v-692z" />
    <glyph glyph-name="afii10081" unicode="&#x43f;" 
d="M207 584v-584h-107v693h564q67 0 124.5 -29.5t95.5 -79.5h-677zM925 514q20 -49 20 -104v-410h-107v410q0 29 -9 55.5t-25 48.5h121z" />
    <glyph glyph-name="afii10085" unicode="&#x443;" 
d="M360 278q-58 0 -109 22.5t-89.5 60.5t-60.5 89.5t-22 109.5v133h107v-133q0 -35 13.5 -67t37 -56t55 -38t66.5 -14h439v308h107v-412q0 -27 -4.5 -53t-14.5 -49h-122q16 21 25 46t9 53h-437zM844 107q-38 -49 -95.5 -78t-125.5 -29h-524v107h525h220z" />
    <glyph glyph-name="afii10023" unicode="&#x401;" horiz-adv-x="1062" 
d="M413 725v121h116v-121h-116zM681 725v121h117v-121h-117z" />
    <glyph glyph-name="afii10056" unicode="&#x407;" horiz-adv-x="833" 
 />
    <glyph glyph-name="afii10071" unicode="&#x451;" horiz-adv-x="1064" 
d="M341 731v121h116v-121h-116zM609 731v121h117v-121h-117z" />
    <glyph glyph-name="afii10054" unicode="&#x405;" horiz-adv-x="1018" 
d="M89 0v110h645q19 0 35.5 7t28.5 19.5t19 29t7 35.5q0 38 -26 64.5t-64 26.5h-480q-41 0 -77.5 15.5t-64 43t-43.5 64t-16 78.5t15.5 78.5t43 64t64 43.5t78.5 16h644v-109h-644q-39 0 -63.5 -26.5t-27.5 -63.5q3 -40 28.5 -67t62.5 -27h480q41 0 77.5 -16t63.5 -43
t43 -63.5t16 -77.5q0 -42 -15.5 -79t-42.5 -64t-63.5 -43t-78.5 -16h-645z" />
    <glyph glyph-name="afii10102" unicode="&#x455;" horiz-adv-x="1018" 
d="M113 0v107h630q37 0 63 26t26 63q0 38 -25.5 64t-63.5 26h-469q-40 0 -75.5 15.5t-62.5 42t-42.5 62t-15.5 76.5q0 42 15.5 78t42 63t62 42.5t76.5 15.5h631v-108h-631q-38 0 -62 -26t-27 -62q3 -39 28 -65t61 -26h469q41 0 77 -15.5t62.5 -42t42 -62.5t15.5 -77
t-15.5 -77t-42 -62.5t-62.5 -42t-77 -15.5h-630z" />
    <glyph glyph-name="afii10105" unicode="&#x458;" horiz-adv-x="1060" 
d="M208 679h711v-398q0 -57 -22 -108.5t-61 -90.5q-38 -38 -89 -60t-109 -22h-262q-59 0 -110 22t-89 60q-39 39 -61 90.5t-22 108.5v74h107v-74q0 -35 13.5 -66.5t37 -55.5t55 -38t67.5 -14h264q35 0 66.5 13.5t55.5 37t38 55t14 67.5v291h-604v108z" />
    <glyph glyph-name="afii10104" unicode="&#x457;" horiz-adv-x="465" 
d="M43 731v121h116v-121h-116zM311 731v121h117v-121h-117z" />
    <glyph glyph-name="afii10061" unicode="&#x40c;" horiz-adv-x="1040" 
d="M648 910l-192 -191l-76 76l192 190z" />
    <glyph glyph-name="afii10079" unicode="&#x43d;" horiz-adv-x="1015" 
d="M210 0h-110v693h110v-693zM318 428h513v265h111v-693h-111v317h-512z" />
    <glyph glyph-name="AE" unicode="&#xc6;" horiz-adv-x="1878" 
d="M1015 402h750v-110h-750v-43q6 -30 21.5 -56t38 -45t51 -30t60.5 -11h579v-107h-579q-58 0 -109 20.5t-89.5 57t-60.5 86.5t-22 108v20h-696v-292h-109v406q0 69 29.5 127t79.5 98v-229h696q-1 35 -15.5 68t-38.5 58.5t-56 40.5t-68 15h-342q-29 0 -55.5 -9.5
t-48.5 -26.5v124q49 21 106 21h340q59 0 111 -22.5t92 -61.5q8 -8 15 -17t14 -19q12 17 26 31t30 27v-229zM1766 693v-109h-572q-30 0 -57 -9.5t-49 -25.5v123q25 10 51.5 15.5t54.5 5.5h572z" />
    <glyph glyph-name="fl" unicode="&#xfb02;" horiz-adv-x="2002" 
d="M237 555q-29 -28 -45 -65.5t-16 -81.5v-27h747v-76h-747v-305h-76v408q0 60 22.5 111.5t60.5 89.5q39 39 90.5 61.5t110.5 22.5h584v-76h-584q-43 0 -80.5 -16.5t-66.5 -45.5zM1209 693v-408q0 -44 16 -81.5t45 -65.5q29 -29 66.5 -45.5t80.5 -16.5h584v-76h-584
q-59 0 -110.5 22.5t-90.5 61.5q-38 38 -60.5 89.5t-22.5 111.5v408h76z" />
    <glyph glyph-name="Lacute" unicode="&#x139;" horiz-adv-x="1033" 
d="M200 62q-52 37 -81 98.5t-29 128.5v404h110v-631zM949 110v-110h-571q-29 0 -55.5 5.5t-51.5 15.5v126q22 -17 49 -27t58 -10h571zM644 917l-192 -191l-76 76l192 190z" />
    <glyph glyph-name="Lcommaaccent" unicode="&#x13b;" horiz-adv-x="1033" 
d="M200 62q-52 37 -81 98.5t-29 128.5v404h110v-631zM949 110v-110h-571q-29 0 -55.5 5.5t-51.5 15.5v126q22 -17 49 -27t58 -10h571zM438 -151l87 186l69 -32l-87 -186z" />
    <glyph glyph-name="lacute" unicode="&#x13a;" horiz-adv-x="969" 
d="M381 107h560v-107h-560q-17 0 -34 1.5t-33 6.5v112q32 -13 67 -13zM207 693v-633q-7 5 -13 11l-12 12q-38 38 -60 89.5t-22 109.5v411h107zM612 916l-192 -191l-76 76l192 190z" />
    <glyph glyph-name="lcommaaccent" unicode="&#x13c;" horiz-adv-x="969" 
d="M381 107h560v-107h-560q-17 0 -34 1.5t-33 6.5v112q32 -13 67 -13zM207 693v-633q-7 5 -13 11l-12 12q-38 38 -60 89.5t-22 109.5v411h107zM406 -151l87 186l69 -32l-87 -186z" />
    <glyph glyph-name="Tcaron" unicode="&#x164;" horiz-adv-x="1031" 
d="M568 512v-512h-109v512h109zM942 693v-109h-857v109h857zM799 965l33 -69l-317 -150l-317 150l33 69l284 -135z" />
    <glyph glyph-name="tcaron" unicode="&#x165;" horiz-adv-x="1290" 
d="M1043 477l61 223h85l-61 -223h-85zM207 61q-51 39 -79 96.5t-28 124.5v519h107v-109h613v-108h-613v-523zM941 107v-107h-560q-54 0 -103 20v120q22 -15 48 -24t55 -9h560z" />
    <glyph glyph-name="guillemotleft" unicode="&#xab;" horiz-adv-x="0" 
 />
    <glyph glyph-name="guilsinglleft" unicode="&#x2039;" horiz-adv-x="0" 
 />
    <glyph glyph-name="guilsinglright" unicode="&#x203a;" horiz-adv-x="0" 
 />
    <glyph glyph-name="guillemotright" unicode="&#xbb;" horiz-adv-x="0" 
 />
    <glyph glyph-name="registered" unicode="&#xae;" horiz-adv-x="0" 
 />
    <glyph glyph-name="registered.alt" horiz-adv-x="0" 
 />
    <glyph glyph-name="trademark" unicode="&#x2122;" horiz-adv-x="2153" 
 />
    <glyph glyph-name="trademark.alt" horiz-adv-x="2153" 
 />
    <glyph glyph-name="afii10026" unicode="&#x418;" horiz-adv-x="1094" 
d="M210 695v-558l0.5 -2t0.5 -15v-41v-80q-43 12 -74 46t-37 84v566h110zM889 696q43 -12 74 -44t34 -83l1 -10v-559h-109v696zM282 118q114 133 225.5 265t223.5 266q18 21 40.5 33.5t46.5 16.5v-120q-114 -134 -226.5 -266t-226.5 -266q-13 -15 -25 -24t-26 -15
q-13 -9 -32 -12v122z" />
    <glyph glyph-name="afii10025" unicode="&#x417;" horiz-adv-x="1142" 
d="M1039 346q22 -14 27.5 -32t5.5 -39v-148q-2 -19 -10 -38.5t-25 -39.5q-25 -27 -56.5 -38t-72.5 -11h-641q-10 0 -24 1.5t-29 5t-30 9t-27 14.5q-57 42 -57 120v38h76v-38q1 -21 5 -33.5t18 -23.5q12 -10 27 -13t29 -4h653q20 0 33.5 3t22.5 8q12 7 22 17t10 27v143
q0 20 -15 27t-31 7h-715v77h716q13 0 29 8.5t16 25.5v140q-6 27 -30 42.5t-51 15.5h-659q-13 0 -28.5 -4t-26.5 -12q-15 -11 -20 -25.5t-5 -32.5v-38h-76v42q0 35 13.5 65t39.5 50q23 17 54 24t60 7h642q31 -1 59.5 -11t50.5 -27t36 -39.5t17 -48.5v-157q-1 -14 -3.5 -22.5
t-6.5 -15t-10 -12.5t-13 -14z" />
    <glyph glyph-name="afii10097" unicode="&#x44f;" horiz-adv-x="1120" 
d="M167 331q-32 29 -49.5 67.5t-17.5 82.5q0 55 27.5 101.5t72.5 75.5q26 17 57.5 26t65.5 9h722v-693h-76v269h-587l-201 -269h-95l203 272q-72 11 -122 59zM969 617h-646q-29 0 -55.5 -10.5t-47 -28.5t-32.5 -43t-12 -54t12 -53.5t31.5 -43t45.5 -29t54 -10.5h650v272z
" />
    <glyph glyph-name="afii10094" unicode="&#x44c;" horiz-adv-x="1126" 
d="M177 424h646q44 0 84.5 -16.5t71 -45t49 -67.5t18.5 -83q0 -43 -18 -81.5t-48 -67.5t-69.5 -46t-82.5 -17h-728v693h77v-269zM177 348v-272h646q29 0 55.5 10.5t46.5 29t32 43t13 53.5q-1 28 -13 53t-31.5 43.5t-45.5 29t-55 10.5h-648z" />
    <glyph glyph-name="afii10046" unicode="&#x42c;" horiz-adv-x="1111" 
d="M177 424h646q44 0 84.5 -16.5t71 -45t49 -67.5t18.5 -83q0 -43 -18 -81.5t-48 -67.5t-69.5 -46t-82.5 -17h-728v693h77v-269zM177 348v-272h646q29 0 55.5 10.5t46.5 29t32 43t13 53.5q-1 28 -13 53t-31.5 43.5t-45.5 29t-55 10.5h-648z" />
    <glyph glyph-name="afii10045" unicode="&#x42b;" horiz-adv-x="1239" 
d="M177 424h646q44 0 84.5 -16.5t71 -45t49 -67.5t18.5 -83q0 -43 -18 -81.5t-48 -67.5t-69.5 -46t-82.5 -17h-728v693h77v-269zM177 348v-272h646q29 0 55.5 10.5t46.5 29t32 43t13 53.5q-1 28 -13 53t-31.5 43.5t-45.5 29t-55 10.5h-648zM1090 0v693h110v-693h-110z" />
    <glyph glyph-name="afii10020" unicode="&#x413;" horiz-adv-x="859" 
d="M100 0v409q0 58 22.5 110t61 90.5t90 61t110.5 22.5h514v-76h-514q-43 0 -80.5 -16.5t-66 -45t-45 -66t-16.5 -80.5v-409h-76z" />
    <glyph glyph-name="afii10027" unicode="&#x419;" horiz-adv-x="1110" 
d="M210 695v-558l0.5 -2t0.5 -15v-41v-80q-43 12 -74 46t-37 84v566h110zM889 696q43 -12 74 -44t34 -83l1 -10v-559h-109v696zM282 118q114 133 225.5 265t223.5 266q18 21 40.5 33.5t46.5 16.5v-120q-114 -134 -226.5 -266t-226.5 -266q-13 -15 -25 -24t-26 -15
q-13 -9 -32 -12v122zM378 849q0 -19 12.5 -32t31.5 -13h156q18 0 31.5 13t13.5 32v30h92v-30q0 -28 -10.5 -52.5t-29.5 -43t-44 -29.5t-53 -11h-156q-55 0 -96 39q-19 19 -29.5 44t-10.5 53v30h92v-30z" />
    <glyph glyph-name="quotedbl" unicode="&#x22;" horiz-adv-x="417" 
d="M99 486v207h109v-207h-109zM260 486v207h109v-207h-109z" />
    <glyph glyph-name="exclam" unicode="!" horiz-adv-x="389" 
d="M244 693v-459h-107v459h107zM244 152v-152h-107v152h107z" />
    <glyph glyph-name="R.ss1" horiz-adv-x="1073" 
d="M866 264q23 -31 48.5 -65t51.5 -68.5t51 -68t47 -62.5h-138l-190 254h-455v110h524q23 0 44.5 8.5t37.5 23.5t25.5 35t9.5 43v7v180q2 -1 3 -2t3 -2q47 -29 75 -77.5t28 -105.5q0 -37 -12.5 -71t-34.5 -61.5t-52.5 -47.5t-65.5 -30zM209 0h-109v693h702q23 0 48 -5v-114
q-21 10 -48 10h-593v-584z" />
    <glyph glyph-name="U.ss1" horiz-adv-x="1066" 
d="M802 20q-51 -20 -106 -20h-308q-60 0 -112 22.5t-91 61.5q-40 40 -62.5 92t-22.5 112v405h110v-405q0 -36 14 -68.5t38 -57t56 -38.5t69 -14h309q29 0 56 9t50 26v-125zM984 693v-405q0 -60 -22.5 -112t-62.5 -92q-6 -6 -12.5 -11.5t-13.5 -10.5v216q0 2 0.5 4t0.5 4v407
h110z" />
    <glyph glyph-name="N.ss1" horiz-adv-x="1094" 
d="M888 144v551h110v-566q-4 -44 -31 -77zM209 552v-552h-109v566q2 25 10 44.5t20 34.5zM911 7q-31 -14 -65 -14q-67 0 -113 54q-114 134 -225.5 266.5t-226.5 265.5l-94 109q33 14 66 14q32 0 61.5 -12.5t51.5 -41.5q54 -64 110.5 -130t121 -142t141 -166.5t172.5 -202.5z
" />
    <glyph glyph-name="G.ss1" horiz-adv-x="1097" 
d="M1018 404v-116q0 -69 -29.5 -127.5t-80.5 -98.5v232h-299v110h409zM837 20q-51 -20 -107 -20h-350q-59 0 -111 22.5t-91 61.5t-62 91.5t-23 112.5v118q0 59 22.5 111t61.5 91t91 62t112 23h466v-109h-466q-36 0 -68.5 -14t-56.5 -38t-38.5 -56t-14.5 -68v-120
q0 -36 14 -68.5t38 -57t56 -38.5t68 -14h352q30 0 57 9t50 26v-125z" />
    <glyph glyph-name="Z.ss1" horiz-adv-x="1049" 
d="M95 584v109h738q32 0 55 -11t38 -27t23.5 -35.5t13.5 -35.5h-133h-735zM966 512q-5 -27 -16.5 -45t-23.5 -29q-14 -13 -30 -20l-676 -236h-128q5 29 19.5 49t29.5 32q18 14 38 21q76 26 158 54.5t165 58t165.5 58t158.5 55.5q4 2 7 2h133zM963 110v-110h-733q-28 0 -50 9
t-39 24.5t-28.5 35.5t-17.5 41h137h731z" />
    <glyph glyph-name="M.ss1" horiz-adv-x="1217" 
d="M100 555q0 31 16 59t43 48l51 -107v-555h-110v555zM1052 682q37 -14 61 -48t31 -77v-557h-109v551q0 15 -13 23.5t-23 8.5h-9q-10 0 -22 -8t-17 -21l-28 -59q-11 -23 -27 -57.5t-40 -84.5t-56.5 -118t-75.5 -158l-3 -5l-59 127q48 100 95 198.5t97 198.5q23 45 62 70.5
t84 25.5q28 0 52 -10zM671 11q-18 -12 -38 -12h-16q-35 2 -54.5 17t-36.5 46l-234 492q-3 5 -5 9t-4 7l-59 121l17 2h9q25 0 47 -7.5t40 -19.5t30.5 -27t20.5 -30z" />
    <glyph glyph-name="W.ss1" horiz-adv-x="1658" 
d="M1364 20q-51 -20 -107 -20h-201q-72 0 -131.5 32t-101.5 86q-41 -54 -101 -86t-132 -32h-202q-69 0 -127.5 29.5t-98.5 80.5h428q37 0 69.5 14t56.5 38t38 56.5t14 69.5v405h110v-405q0 -37 14 -69.5t38 -56.5t56.5 -38t69.5 -14h203q30 0 56.5 9t48.5 26v-125zM121 182
q-21 49 -21 106v405h110v-407q0 -29 9 -55.5t26 -48.5h-124zM1546 693v-405q-1 -69 -30 -127.5t-80 -98.5v631h110z" />
    <glyph glyph-name="afii10037" unicode="&#x423;" 
d="M360 278q-58 0 -109 22.5t-89.5 60.5t-60.5 89.5t-22 109.5v133h107v-133q0 -35 13.5 -67t37 -56t55 -38t66.5 -14h439v308h107v-412q0 -27 -4.5 -53t-14.5 -49h-122q16 21 25 46t9 53h-437zM844 107q-38 -49 -95.5 -78t-125.5 -29h-524v107h525h220z" />
    <glyph glyph-name="thorn" unicode="&#xfe;" horiz-adv-x="1119" 
d="M281 602h469q52 0 98.5 -19t82.5 -55q37 -37 56 -84t19 -98q0 -19 -2.5 -38t-8.5 -37h-119q10 17 15.5 36t5.5 39q0 30 -11.5 57t-31.5 47t-47 31.5t-57 11.5h-469v109zM960 199q-36 -51 -91.5 -80t-118.5 -29h-540v-90h-110v693h110v-494h540h210z" />
    </font>
</defs>
</svg>
